<?xml version="1.0" encoding="UTF-8" standalone="no"?>
<!-- Created with Inkscape (http://www.inkscape.org/) -->

<svg
   xmlns:dc="http://purl.org/dc/elements/1.1/"
   xmlns:cc="http://creativecommons.org/ns#"
   xmlns:rdf="http://www.w3.org/1999/02/22-rdf-syntax-ns#"
   xmlns:svg="http://www.w3.org/2000/svg"
   xmlns="http://www.w3.org/2000/svg"
   xmlns:sodipodi="http://sodipodi.sourceforge.net/DTD/sodipodi-0.dtd"
   xmlns:inkscape="http://www.inkscape.org/namespaces/inkscape"
   id="svg2"
   version="1.1"
   inkscape:version="0.91 r13725"
   xml:space="preserve"
   width="826.25311"
   height="422.39639"
   viewBox="0 0 826.25311 422.39639"
   sodipodi:docname="Modularization_outputModel.svg"><metadata
     id="metadata8"><rdf:RDF><cc:Work
         rdf:about=""><dc:format>image/svg+xml</dc:format><dc:type
           rdf:resource="http://purl.org/dc/dcmitype/StillImage" /><dc:title></dc:title></cc:Work></rdf:RDF></metadata><defs
     id="defs6"><clipPath
       clipPathUnits="userSpaceOnUse"
       id="clipPath16"><path
         d="m 534.36,0.11053 -473.58,0 0,841.86 473.58,0 0,-841.86 z"
         id="path18"
         inkscape:connector-curvature="0"
         style="clip-rule:evenodd" /></clipPath><clipPath
       clipPathUnits="userSpaceOnUse"
       id="clipPath22"><path
         d="m 0,841.98 595.2,0 L 595.2,0 0,0 0,841.98 Z"
         id="path24"
         inkscape:connector-curvature="0" /></clipPath><clipPath
       clipPathUnits="userSpaceOnUse"
       id="clipPath32"><path
         d="m 60.78,0.11053 473.58,0 0,841.86 -473.58,0 0,-841.86 z M 345.24,544.19 l 47.82,0 0,127.8 -47.82,0 0,-127.8 z"
         id="path34"
         inkscape:connector-curvature="0"
         style="clip-rule:evenodd" /></clipPath><clipPath
       clipPathUnits="userSpaceOnUse"
       id="clipPath38"><path
         d="m 0,841.98 595.2,0 L 595.2,0 0,0 0,841.98 Z"
         id="path40"
         inkscape:connector-curvature="0" /></clipPath><clipPath
       clipPathUnits="userSpaceOnUse"
       id="clipPath48"><path
         d="m 60.78,0.11053 473.58,0 0,841.86 -473.58,0 0,-841.86 z M 345.24,544.19 l 47.82,0 0,127.8 -47.82,0 0,-127.8 z"
         id="path50"
         inkscape:connector-curvature="0"
         style="clip-rule:evenodd" /></clipPath><clipPath
       clipPathUnits="userSpaceOnUse"
       id="clipPath54"><path
         d="m 0,841.98 595.2,0 L 595.2,0 0,0 0,841.98 Z"
         id="path56"
         inkscape:connector-curvature="0" /></clipPath><clipPath
       clipPathUnits="userSpaceOnUse"
       id="clipPath482"><path
         d="m 60.78,0.11053 473.58,0 0,841.86 -473.58,0 0,-841.86 z m 253.5,17.40047 89.22,0 0,89.76 -89.22,0 0,-89.76 z"
         id="path484"
         inkscape:connector-curvature="0"
         style="clip-rule:evenodd" /></clipPath><clipPath
       clipPathUnits="userSpaceOnUse"
       id="clipPath488"><path
         d="m 0,841.98 595.2,0 L 595.2,0 0,0 0,841.98 Z"
         id="path490"
         inkscape:connector-curvature="0" /></clipPath><clipPath
       clipPathUnits="userSpaceOnUse"
       id="clipPath498"><path
         d="m 60.78,0.11053 473.58,0 0,841.86 -473.58,0 0,-841.86 z m 253.5,17.40047 89.22,0 0,89.76 -89.22,0 0,-89.76 z"
         id="path500"
         inkscape:connector-curvature="0"
         style="clip-rule:evenodd" /></clipPath><clipPath
       clipPathUnits="userSpaceOnUse"
       id="clipPath504"><path
         d="m 0,841.98 595.2,0 L 595.2,0 0,0 0,841.98 Z"
         id="path506"
         inkscape:connector-curvature="0" /></clipPath></defs><sodipodi:namedview
     pagecolor="#ffffff"
     bordercolor="#666666"
     borderopacity="1"
     objecttolerance="10"
     gridtolerance="10"
     guidetolerance="10"
     inkscape:pageopacity="0"
     inkscape:pageshadow="2"
     inkscape:window-width="1920"
     inkscape:window-height="1178"
     id="namedview4"
     showgrid="false"
     inkscape:zoom="0.48653372"
     inkscape:cx="413.12656"
     inkscape:cy="211.1982"
     inkscape:window-x="-8"
     inkscape:window-y="-8"
     inkscape:window-maximized="1"
     inkscape:current-layer="g10" /><g
     id="g10"
     inkscape:groupmode="layer"
     inkscape:label="Modularization_outputModel"
     transform="matrix(0,1.25,1.25,0,-16.928125,-95.119875)"><g
       id="g28"><g
         id="g30"
         clip-path="url(#clipPath32)"><g
           id="g36"
           clip-path="url(#clipPath38)"><path
             d="m 345.24,544.19 47.82,0 0,127.8 -47.82,0 0,-127.8 z"
             style="fill:#e7e6e6;fill-opacity:1;fill-rule:nonzero;stroke:none"
             id="path42"
             inkscape:connector-curvature="0" /></g></g></g><g
       id="g44"><g
         id="g46"
         clip-path="url(#clipPath48)"><g
           id="g52"
           clip-path="url(#clipPath54)"><g
             id="g58"
             transform="translate(345.24,543.891)"><path
               d="m 0,0 c -0.18,0 -0.36,0.12 -0.36,0.3 l 0,127.8 c 0,0.18 0.18,0.36 0.36,0.36 l 47.82,0 c 0.18,0 0.3,-0.18 0.3,-0.36 l 0,-127.8 C 48.12,0.12 48,0 47.82,0 L 0,0 Z m 47.82,0.66 -0.36,-0.36 0,127.8 0.36,-0.3 -47.82,0 0.3,0.3 L 0.3,0.3 0,0.66"
               style="fill:#000000;fill-opacity:1;fill-rule:nonzero;stroke:none"
               id="path60"
               inkscape:connector-curvature="0" /></g></g></g></g><path
       d="m 345.24,544.19 47.82,0 0,127.8 -47.82,0 0,-127.8 z"
       style="fill:#e7e6e6;fill-opacity:1;fill-rule:nonzero;stroke:none"
       id="path62"
       inkscape:connector-curvature="0" /><g
       id="g64"
       transform="translate(345.24,543.891)"><path
         d="m 0,0 c -0.18,0 -0.36,0.12 -0.36,0.3 l 0,127.8 c 0,0.18 0.18,0.36 0.36,0.36 l 47.82,0 c 0.18,0 0.3,-0.18 0.3,-0.36 l 0,-127.8 C 48.12,0.12 48,0 47.82,0 L 0,0 Z m 47.82,0.66 -0.36,-0.36 0,127.8 0.36,-0.3 -47.82,0 0.3,0.3 L 0.3,0.3 0,0.66"
         style="fill:#000000;fill-opacity:1;fill-rule:nonzero;stroke:none"
         id="path66"
         inkscape:connector-curvature="0" /></g><text
       transform="matrix(0,1,1,0,359.46,550.4905)"
       style="font-variant:normal;font-weight:normal;font-stretch:normal;font-size:11.39999962px;font-family:Arial;-inkscape-font-specification:ArialMT;writing-mode:lr-tb;fill:#000000;fill-opacity:1;fill-rule:nonzero;stroke:none"
       id="text68"><tspan
         x="0 8.2307997 17.1 25.330799 32.934601 39.900002 48.130798 55.7346 58.903801 67.134598 74.099998"
         y="0"
         sodipodi:role="line"
         id="tspan70">CONSTRAINTS</tspan></text>
<path
       d="m 361.5,550.49 -0.84,0 0,81.72 0.84,0 0,-81.72 z"
       style="fill:#000000;fill-opacity:1;fill-rule:evenodd;stroke:none"
       id="path72"
       inkscape:connector-curvature="0" /><text
       transform="matrix(0,1,1,0,373.14,550.4905)"
       style="font-variant:normal;font-weight:normal;font-stretch:normal;font-size:11.39999962px;font-family:Arial;-inkscape-font-specification:ArialMT;writing-mode:lr-tb;fill:#000000;fill-opacity:1;fill-rule:nonzero;stroke:none"
       id="text74"><tspan
         x="0 8.23878 14.58516 20.93154 26.639521 32.3475 34.88628 41.232658 47.579041 53.925419 63.403381 69.111359 71.650139 77.996521 83.704498 90.05088 95.758858 98.940598 102.11778 105.29952"
         y="0"
         sodipodi:role="line"
         id="tspan76">Unassignedclases : 0</tspan><tspan
         x="0 7.6140599 17.12052 23.469179 26.64864 35.528099 45.008339 51.356998 57.705662 64.054321 66.595383 72.944038 78.654297 81.836037 85.015503 88.197243"
         y="13.68"
         sodipodi:role="line"
         id="tspan78">Emptymodules : 0</tspan></text>
<text
       transform="matrix(0,1,1,0,154.98,427.0705)"
       style="font-variant:normal;font-weight:normal;font-stretch:normal;font-size:12.30000019px;font-family:Calibri;-inkscape-font-specification:Calibri;writing-mode:lr-tb;fill:#000000;fill-opacity:1;fill-rule:nonzero;stroke:none"
       id="text80"><tspan
         x="0 5.64078 8.4525604 11.26434"
         y="0"
         sodipodi:role="line"
         id="tspan82">File</tspan></text>
<g
       id="g84"
       transform="translate(151.68,419.751)"><path
         d="m 0,0 -0.6,0 -0.6,0.06 c -13.175,2.766 -13.201,28.318 0,31.08 l 0.6,0.06 0.6,0 C 13.889,30.386 14.843,3.55 1.68,0.18 L 1.14,0.06 0.54,0 0,0 Z m 0.54,0.9 -0.06,0 0.54,0.06 -0.06,0 0.54,0.06 0.48,0.12 0.54,0.18 -0.06,0 L 2.94,1.5 3.9,1.98 4.32,2.28 4.8,2.64 4.74,2.58 5.22,2.94 5.64,3.36 5.58,3.3 6,3.72 6.42,4.2 l 0,-0.06 0.36,0.48 0.36,0.54 0,-0.06 0.36,0.54 0.6,1.08 0.3,0.6 0,-0.06 0.54,1.26 -0.06,0 0.48,1.32 0.18,0.66 0.18,0.72 0,-0.06 0.12,0.72 c 0.494,2.914 0.436,5.95 -0.3,8.82 l -0.18,0.72 0,-0.06 -0.48,1.32 0.06,0 -0.54,1.26 0,-0.06 -0.3,0.6 L 7.5,25.56 7.14,26.1 6.42,27.06 6.42,27 6,27.48 5.58,27.9 l 0.06,-0.06 -0.42,0.42 -0.48,0.36 0.06,0 -0.48,0.3 -0.42,0.3 -0.96,0.48 0.06,0 -0.54,0.18 0.06,0 -0.54,0.18 0.06,0 -0.54,0.12 -0.54,0.06 0.06,0 -0.54,0.06 0.06,0 -0.6,0.06 0.06,0 -1.08,-0.12 0.06,0 -0.54,-0.06 -0.48,-0.12 -0.96,-0.36 -0.96,-0.48 0.06,0 -0.48,-0.3 -0.42,-0.3 -0.48,-0.36 0.06,0 -0.48,-0.42 0.06,0.06 -0.42,-0.42 -0.42,-0.48 0.06,0.06 -0.42,-0.48 -0.36,-0.48 -0.3,-0.54 -0.36,-0.54 -0.3,-0.54 -0.3,-0.6 0,0.06 -0.48,-1.26 -0.48,-1.32 0,0.06 -0.18,-0.72 -0.12,-0.66 -0.18,-0.72 -0.12,-0.72 -0.06,-0.72 -0.06,-0.78 0,0.06 -0.06,-0.78 c -0.055,-2.666 0.247,-5.376 1.26,-7.86 l 0.48,-1.26 0,0.06 0.3,-0.6 0.3,-0.54 0.36,-0.54 0.3,-0.54 0,0.06 0.36,-0.54 0.42,-0.48 -0.06,0.06 0.42,-0.48 0.42,-0.42 0,0.06 0.42,-0.42 -0.06,0 0.48,-0.36 -0.06,0.06 0.48,-0.36 0.48,-0.3 -0.06,0 L -3,1.5 -2.04,1.14 -1.56,1.02 -1.02,0.96 -1.08,0.96 0,0.84 l -0.06,0"
         style="fill:#000000;fill-opacity:1;fill-rule:nonzero;stroke:none"
         id="path86"
         inkscape:connector-curvature="0" /></g><text
       transform="matrix(0,1,1,0,248.58,605.5705)"
       style="font-variant:normal;font-weight:normal;font-stretch:normal;font-size:12.30000019px;font-family:Calibri;-inkscape-font-specification:Calibri;writing-mode:lr-tb;fill:#000000;fill-opacity:1;fill-rule:nonzero;stroke:none"
       id="text88"><tspan
         x="0 5.6457 8.4624004 11.2791 17.404499 22.440121 28.319521 34.77702 37.593719"
         y="0"
         sodipodi:role="line"
         id="tspan90">FileTable</tspan></text>
<g
       id="g92"
       transform="translate(245.28,598.25)"><path
         d="m 0,0 -0.6,0 -0.6,0.12 c -13.137,4.603 -13.137,53.685 0,58.26 L -0.6,58.5 0,58.56 0.6,58.5 C 8.254,57.057 10.761,39.727 10.92,33.66 l 0.06,-1.44 0.06,-1.5 C 11.306,22.945 9.74,5.275 2.34,0.6 L 1.74,0.36 1.2,0.12 0.6,0 0,0 Z M 0.48,0.9 0.42,0.9 0.96,1.02 0.9,0.96 1.44,1.14 1.92,1.38 2.4,1.68 2.88,2.04 2.82,2.04 3.36,2.52 3.3,2.46 3.78,3 l 0,-0.06 0.48,0.6 0.42,0.6 0.42,0.72 0,-0.06 0.42,0.78 0,-0.06 0.42,0.84 c 1.352,2.715 2.416,6.259 2.94,9.24 l 0.24,1.26 0,-0.06 0.24,1.32 0.18,1.26 0.18,1.38 0,-0.06 0.12,1.38 c 0.294,2.868 0.398,5.761 0.3,8.64 l 0,1.5 0,-0.06 -0.06,1.5 0,-0.06 -0.12,1.44 C 9.754,38.212 9.314,41.003 8.64,44.1 l -0.24,1.2 0,-0.06 -0.3,1.14 -0.36,1.08 -0.3,1.08 0,-0.06 -0.36,1.02 -0.36,0.96 -0.36,0.9 0,-0.06 -0.42,0.9 0,-0.06 -0.42,0.84 -0.42,0.72 -0.84,1.32 0,-0.06 -0.48,0.6 -0.48,0.48 0.06,0 -0.54,0.42 0.06,0 -0.48,0.36 -0.48,0.3 -0.48,0.24 -0.54,0.18 0.06,0 -0.54,0.12 0.06,-0.06 -0.54,0.06 0.06,0 -0.54,-0.06 0.06,0.06 -0.54,-0.12 0.06,0 -0.54,-0.18 0.06,0 -0.54,-0.24 0.06,0 -0.54,-0.3 0.06,0 -0.48,-0.36 -0.48,-0.42 -0.48,-0.48 -0.42,-0.6 0,0.06 -0.48,-0.66 -0.42,-0.66 -0.42,-0.72 -0.42,-0.84 0,0.06 -0.36,-0.9 0,0.06 -0.42,-0.9 0.06,0 -0.42,-0.96 -0.3,-1.02 0,0.06 -0.36,-1.08 -0.3,-1.08 -0.3,-1.14 0,0.06 -0.3,-1.2 c -0.576,-2.778 -1.128,-6.244 -1.26,-9.06 l -0.12,-1.44 0,0.06 -0.06,-1.5 0,0.06 -0.06,-1.5 c -0.027,-2.838 0.057,-5.813 0.3,-8.64 l 0.18,-1.38 0,0.06 0.18,-1.38 0.18,-1.26 0.18,-1.32 0,0.06 0.24,-1.26 c 0.414,-2.254 1.114,-4.426 1.8,-6.6 l 0.42,-0.9 -0.06,0 0.42,-0.9 0.36,-0.84 0.42,-0.84 0,0.06 0.42,-0.78 0,0.06 0.42,-0.72 0.48,-0.6 0.42,-0.6 0,0.06 0.48,-0.54 0,0.06 0.48,-0.48 0.48,-0.36 -0.06,0 0.54,-0.3 -0.06,0 L -1.44,1.14 -1.5,1.2 -0.96,0.96 -1.02,1.02 -0.48,0.9 -0.54,0.9 0,0.84 l -0.06,0"
         style="fill:#000000;fill-opacity:1;fill-rule:nonzero;stroke:none"
         id="path94"
         inkscape:connector-curvature="0" /></g><text
       transform="matrix(0,1,1,0,159.9,302.9305)"
       style="font-variant:normal;font-weight:normal;font-stretch:normal;font-size:12.30000019px;font-family:Calibri;-inkscape-font-specification:Calibri;writing-mode:lr-tb;fill:#000000;fill-opacity:1;fill-rule:nonzero;stroke:none"
       id="text96"><tspan
         x="0 7.5731101 10.39842 14.48325 20.60865 25.82016 29.84103 36.331741 40.633049"
         y="0"
         sodipodi:role="line"
         id="tspan98">Directory</tspan></text>
<g
       id="g100"
       transform="translate(156.54,295.551)"><path
         d="m 0,0 -0.6,0.06 -0.6,0.12 c -13.144,4.599 -13.124,53.646 0,58.26 l 0.6,0.12 1.2,0 C 8.256,57.072 10.779,39.818 10.92,33.72 l 0.06,-1.44 0.06,-1.5 C 11.279,22.931 9.803,5.389 2.34,0.66 L 1.8,0.36 1.2,0.18 0.6,0.06 0,0 Z m 0.54,0.96 -0.06,0 0.48,0.06 0.48,0.18 0.48,0.24 0.48,0.3 0.48,0.36 0.48,0.42 -0.06,0 0.48,0.48 0.48,0.6 0,-0.06 0.42,0.66 0.48,0.66 -0.06,0 0.48,0.72 -0.06,0 0.42,0.84 0,-0.06 0.42,0.9 0,-0.06 0.36,0.9 0.36,0.96 0.36,1.02 0,-0.06 0.36,1.08 c 1.126,3.944 1.888,8.33 2.16,12.42 l 0.12,1.44 0,-0.06 0.06,1.5 0,-0.06 0,1.5 c 0.098,2.879 -0.006,5.773 -0.3,8.64 l -0.12,1.38 0,-0.06 -0.18,1.38 -0.18,1.26 -0.24,1.32 0,-0.06 -0.24,1.26 C 8.327,46.118 7.358,49.321 5.94,52.2 l -0.42,0.84 0.06,-0.06 -0.48,0.78 0.06,-0.06 -0.48,0.72 -0.42,0.6 -0.48,0.6 0,-0.06 -0.48,0.54 0.06,-0.06 -0.48,0.48 -0.48,0.36 -0.48,0.3 -0.48,0.24 -0.48,0.18 0.06,-0.06 -0.54,0.12 0.06,0 -0.6,0.06 0.06,0 -0.54,-0.06 0.06,0 -0.54,-0.12 0.06,0.06 -0.54,-0.18 0.06,0 -0.54,-0.24 0.06,0 -0.48,-0.3 -0.48,-0.36 -0.48,-0.48 0,0.06 -0.48,-0.54 0.06,0.06 -0.96,-1.2 0.06,0 -0.48,-0.72 0,0.06 -0.42,-0.78 0,0.06 -0.42,-0.84 -0.36,-0.84 -0.36,-0.9 -0.42,-0.9 0.06,0 -0.72,-2.04 -0.3,-1.08 -0.6,-2.28 0.06,0 -0.3,-1.2 -0.24,-1.26 0,0.06 -0.18,-1.32 -0.18,-1.26 -0.18,-1.38 0,0.06 -0.12,-1.38 c -0.3,-2.915 -0.402,-5.711 -0.36,-8.64 l 0.06,-1.5 0,0.06 0.06,-1.44 c 0.243,-3.114 0.517,-6.236 1.14,-9.3 l 0.3,-1.2 -0.06,0 0.3,-1.2 0.6,-2.16 0.36,-1.08 0,0.06 0.36,-1.02 -0.06,0 0.42,-0.96 0.36,-0.9 0,0.06 0.36,-0.9 0,0.06 0.42,-0.84 0.42,-0.72 0.48,-0.66 -0.06,0 0.48,-0.66 0,0.06 0.48,-0.6 -0.06,0 0.48,-0.48 0.48,-0.42 0.48,-0.36 0.48,-0.3 -0.06,0 0.54,-0.24 -0.06,0 0.54,-0.18 -0.06,0 0.54,-0.06 -0.06,0 L 0,0.9 l -0.06,0"
         style="fill:#000000;fill-opacity:1;fill-rule:nonzero;stroke:none"
         id="path102"
         inkscape:connector-curvature="0" /></g><text
       transform="matrix(0,1,1,0,247.98,542.0305)"
       style="font-variant:normal;font-weight:normal;font-stretch:normal;font-size:12.30000019px;font-family:Calibri;-inkscape-font-specification:Calibri;writing-mode:lr-tb;fill:#000000;fill-opacity:1;fill-rule:nonzero;stroke:none"
       id="text104"><tspan
         x="0 3.1119001 9.5817003 16.076099 22.5459"
         y="0"
         sodipodi:role="line"
         id="tspan106">Inode</tspan></text>
<g
       id="g108"
       transform="translate(244.62,534.651)"><path
         d="m 0,0 -0.54,0.06 -0.6,0.06 c -13.165,3.516 -13.145,39.444 0,42.9 l 0.6,0.12 1.14,0 C 7.77,42.148 10.604,30.78 10.98,24.84 l 0.06,-1.08 0.06,-1.08 C 11.362,15.96 9.331,3.585 2.34,0.48 L 1.74,0.3 1.2,0.12 0.6,0.06 0,0 Z m 0.54,0.9 -0.06,0 0.54,0.12 0,-0.06 L 1.56,1.14 1.5,1.08 2.04,1.32 1.98,1.26 2.52,1.5 l -0.06,0 0.48,0.3 0,-0.06 0.96,0.72 -0.06,0 0.48,0.42 0,-0.06 0.48,0.48 -0.06,0 0.48,0.48 0.42,0.54 -0.06,0 0.42,0.6 0,-0.06 0.42,0.66 0.36,0.66 0,-0.06 0.72,1.44 0.3,0.78 0,-0.06 0.36,0.84 0,-0.06 0.24,0.84 0.3,0.84 0.72,2.7 -0.06,0 0.24,0.96 0.12,0.96 0.18,1.02 0.12,1.02 0,-0.06 0.06,1.08 c 0.214,2.872 0.176,6.536 -0.36,9.36 l -0.12,1.02 0,-0.06 -0.24,0.96 0.06,0 -0.24,0.96 c -0.33,1.215 -0.837,3.097 -1.38,4.2 l -0.3,0.78 0,-0.06 -0.36,0.78 0,-0.06 -0.36,0.72 -0.36,0.66 -0.84,1.2 0.06,-0.06 -0.42,0.54 -0.48,0.54 0.06,-0.06 -0.9,0.9 0,-0.06 -0.48,0.42 0,-0.06 -0.48,0.36 0.06,0 -0.54,0.24 0.06,0 -0.54,0.24 0.06,0 -0.54,0.18 0.06,0 -0.54,0.12 -0.54,0.06 0.06,0 -0.54,0.06 0.06,0 -1.08,-0.12 0.06,0 -0.54,-0.12 0.06,0 -0.54,-0.18 0.06,0 -0.54,-0.24 0.06,0 -0.54,-0.24 0.06,0 -0.48,-0.36 0,0.06 -0.48,-0.42 0,0.06 -0.9,-0.9 0.06,0.06 -0.48,-0.54 -0.42,-0.54 0,0.06 -0.42,-0.6 0.06,0 -0.42,-0.6 -0.36,-0.66 -0.36,-0.72 0,0.06 -0.36,-0.78 0,0.06 -0.36,-0.78 0.06,0 -0.36,-0.78 -0.3,-0.84 0.06,0 -0.3,-0.84 -0.24,-0.84 -0.24,-0.9 -0.24,-0.96 -0.18,-0.96 0,0.06 -0.18,-1.02 c -0.373,-2.834 -0.594,-6.534 -0.3,-9.36 l 0.06,-1.08 0,0.06 0.12,-1.02 c 0.178,-1.967 0.686,-3.75 1.2,-5.64 l 0.3,-0.84 -0.06,0 0.3,-0.84 0,0.06 0.36,-0.84 -0.06,0.06 0.36,-0.78 0.72,-1.44 0,0.06 0.36,-0.66 0.42,-0.66 -0.06,0.06 0.42,-0.6 0.42,-0.54 0.48,-0.48 -0.06,0 0.48,-0.48 0,0.06 0.42,-0.42 0.96,-0.72 -0.06,0.06 0.54,-0.3 -0.06,0 0.54,-0.24 -0.06,0.06 0.54,-0.24 -0.06,0.06 0.54,-0.18 -0.06,0.06 0.54,-0.12 0.54,0 -0.06,0"
         style="fill:#000000;fill-opacity:1;fill-rule:nonzero;stroke:none"
         id="path110"
         inkscape:connector-curvature="0" /></g><text
       transform="matrix(0,1,1,0,212.34,337.7905)"
       style="font-variant:normal;font-weight:normal;font-stretch:normal;font-size:12.30000019px;font-family:Calibri;-inkscape-font-specification:Calibri;writing-mode:lr-tb;fill:#000000;fill-opacity:1;fill-rule:nonzero;stroke:none"
       id="text112"><tspan
         x="0 6.1254001 12.0048 18.479521 21.29376"
         y="0"
         sodipodi:role="line"
         id="tspan114">Panic</tspan></text>
<g
       id="g116"
       transform="translate(208.98,330.471)"><path
         d="m 0,0 -0.6,0 -0.54,0.12 c -13.203,3.2 -13.159,37.616 0,40.74 l 0.54,0.12 1.2,0 C 7.614,40.047 10.631,29.458 10.92,23.58 l 0.12,-1.02 0,-1.02 C 11.391,14.921 9.204,3.346 2.28,0.42 L 1.74,0.24 1.2,0.12 0.6,0 0,0 Z m 0.54,0.9 -0.06,0 0.54,0.06 -0.06,0 0.54,0.12 0.48,0.18 0.48,0.24 0,-0.06 0.48,0.3 0,-0.06 0.48,0.36 0,-0.06 0.48,0.36 -0.06,0 0.48,0.42 0,-0.06 L 4.74,3.18 5.22,3.66 5.16,3.6 6,4.68 l 0.42,0.6 0,-0.06 0.36,0.66 C 7.497,7.082 7.907,8.119 8.4,9.42 l 0.3,0.84 0,-0.06 0.24,0.84 0.24,0.9 0,-0.06 0.18,0.9 c 0.619,2.857 0.91,5.837 0.84,8.76 l -0.06,1.02 0,-0.06 -0.06,1.02 C 9.662,27.372 9.127,30.235 7.5,33.78 l -0.36,0.72 0,-0.06 -0.72,1.32 0,-0.06 -0.42,0.6 -0.84,1.08 0.06,0 -0.48,0.48 0,-0.06 -0.42,0.48 0,-0.06 -0.48,0.42 0.06,0 -0.48,0.36 0,-0.06 -0.48,0.36 0,-0.06 -0.48,0.3 -0.96,0.36 -0.48,0.12 -0.54,0.06 0.06,0 -0.54,0.06 -0.54,-0.06 0.06,0 -0.54,-0.06 0.06,0 -0.54,-0.12 -0.96,-0.36 -0.48,-0.3 0,0.06 -0.48,-0.36 0.06,0.06 -0.48,-0.36 -0.48,-0.42 0,0.06 -0.42,-0.48 0,0.06 -0.42,-0.48 -0.84,-1.08 -0.42,-0.6 0.06,0.06 -0.42,-0.66 -0.36,-0.66 0,0.06 -0.36,-0.72 0.06,0 -0.36,-0.72 -0.3,-0.72 -0.6,-1.56 0.06,0 -0.3,-0.84 -0.24,-0.84 0.06,0 -0.24,-0.9 c -0.381,-1.617 -0.515,-3.046 -0.72,-4.68 l -0.06,-1.02 0,0.06 0,-1.02 c -0.217,-2.728 0.214,-6.076 0.78,-8.76 l 0.24,-0.9 -0.06,0.06 0.24,-0.9 0.3,-0.84 -0.06,0.06 0.3,-0.84 0.3,-0.78 0.3,-0.72 0.36,-0.72 -0.06,0 0.72,-1.32 0.42,-0.66 -0.06,0.06 0.42,-0.6 0.84,-1.08 0,0.06 0.42,-0.48 0.42,-0.42 0.48,-0.42 -0.06,0 0.54,-0.36 -0.06,0.06 0.48,-0.36 0,0.06 0.48,-0.3 0,0.06 0.48,-0.24 0.48,-0.18 0.54,-0.12 -0.06,0 0.54,-0.06 -0.06,0 0.54,0"
         style="fill:#000000;fill-opacity:1;fill-rule:nonzero;stroke:none"
         id="path118"
         inkscape:connector-curvature="0" /></g><text
       transform="matrix(0,1,1,0,354.54,133.7305)"
       style="font-variant:normal;font-weight:normal;font-stretch:normal;font-size:12.30000019px;font-family:Calibri;-inkscape-font-specification:Calibri;writing-mode:lr-tb;fill:#000000;fill-opacity:1;fill-rule:nonzero;stroke:none"
       id="text120"><tspan
         x="0 7.5632701 13.68744 19.24581 22.061279 27.262951"
         y="0"
         sodipodi:role="line"
         id="tspan122">Device</tspan></text>
<g
       id="g124"
       transform="translate(351.18,126.351)"><path
         d="m 0,0 -1.2,0.12 c -13.174,3.985 -13.099,43.865 0,47.7 l 0.6,0.12 1.2,0 C 7.917,46.836 10.683,33.529 10.92,27.6 l 0.12,-2.4 C 11.334,18.209 9.468,4.09 2.34,0.54 L 1.74,0.3 1.2,0.12 0.6,0.06 0,0 Z m 0.54,0.9 -0.06,0 0.54,0.12 -0.06,0 0.54,0.12 -0.06,0 0.54,0.18 -0.06,0 0.54,0.24 -0.06,0 0.54,0.3 -0.06,0 0.48,0.36 0.48,0.42 0.42,0.42 0.48,0.54 0,-0.06 0.84,1.2 0,-0.06 L 6,5.34 5.94,5.34 6.36,6.06 6.36,6 6.72,6.78 7.14,7.56 7.08,7.5 7.8,9.18 l 0.3,0.9 0,-0.06 0.3,0.96 0.24,0.9 0.3,1.02 0.18,0.96 0.24,1.08 0,-0.06 0.36,2.16 0.12,1.14 0.12,1.08 0.12,1.2 0,-0.06 0.06,1.2 c 0.092,3.272 0.024,6.046 -0.42,9.3 l -0.18,1.14 0,-0.06 -0.18,1.08 c -0.474,2.24 -0.994,4.494 -1.92,6.6 l -0.36,0.78 0.06,0 -0.42,0.78 C 6.176,42.385 5.553,43.403 4.74,44.4 l -0.48,0.54 0.06,-0.06 -0.48,0.48 -0.48,0.42 0,-0.06 -0.48,0.42 0.06,-0.06 -0.54,0.3 0.06,0 -0.54,0.3 0.06,-0.06 -0.54,0.24 0.06,0 -0.54,0.12 0.06,0 -0.54,0.06 0.06,0 -0.6,0.06 0.06,0 -0.54,-0.06 0.06,0 -0.54,-0.06 0.06,0 -0.54,-0.12 0.06,0 -0.54,-0.24 0.06,0.06 -0.54,-0.3 -0.48,-0.3 0.06,0.06 -0.54,-0.42 0.06,0.06 -0.48,-0.42 -0.48,-0.48 0.06,0.06 -0.48,-0.54 c -0.912,-1.107 -1.808,-2.658 -2.4,-3.96 l -0.36,-0.78 0.06,0 -0.36,-0.84 c -0.662,-1.921 -1.254,-3.738 -1.56,-5.76 l -0.18,-1.08 0,0.06 -0.18,-1.14 0,0.06 -0.12,-1.14 c -0.337,-2.724 -0.462,-5.478 -0.3,-8.22 l 0.06,-1.2 0,0.06 0.12,-1.2 0,0.06 0.12,-1.14 0.12,-1.14 0.36,-2.16 0,0.06 0.18,-1.08 0.24,-0.96 0.24,-1.02 0.3,-0.9 0.3,-0.96 0,0.06 0.3,-0.9 0.36,-0.84 -0.06,0 0.36,-0.84 0,0.06 0.36,-0.78 0.42,-0.78 0,0.06 0.36,-0.72 0.42,-0.66 0,0.06 0.84,-1.2 0,0.06 0.48,-0.54 -0.06,0 0.96,-0.84 -0.06,0 0.54,-0.36 -0.06,0 0.48,-0.3 0.54,-0.24 -0.06,0 0.54,-0.18 -0.06,0 0.54,-0.12 -0.06,0 0.54,-0.12 -0.06,0 0.54,0 -0.06,0"
         style="fill:#000000;fill-opacity:1;fill-rule:nonzero;stroke:none"
         id="path126"
         inkscape:connector-curvature="0" /></g><text
       transform="matrix(0,1,1,0,331.44,206.0905)"
       style="font-variant:normal;font-weight:normal;font-stretch:normal;font-size:12.30000019px;font-family:Calibri;-inkscape-font-specification:Calibri;writing-mode:lr-tb;fill:#000000;fill-opacity:1;fill-rule:nonzero;stroke:none"
       id="text128"><tspan
         x="0 6.0036302 10.13766"
         y="0"
         sodipodi:role="line"
         id="tspan130">Tty</tspan></text>
<g
       id="g132"
       transform="translate(328.14,198.711)"><path
         d="m 0,0 -0.6,0.06 -0.54,0.06 c -13.217,2.478 -13.25,28.7 0,31.26 l 0.54,0.06 0.6,0 C 13.886,30.66 14.838,3.521 1.68,0.24 L 1.14,0.12 0.54,0.06 0,0 Z m 0.54,0.9 -0.06,0 0.54,0.06 -0.06,0 L 2.04,1.2 1.98,1.2 2.52,1.38 2.46,1.32 3,1.56 2.94,1.56 3.9,2.04 4.32,2.34 4.8,2.64 5.22,3 5.64,3.42 5.64,3.36 6,3.78 l 0.42,0.48 0,-0.06 0.36,0.48 0.36,0.54 0,-0.06 0.36,0.54 0.6,1.08 0.3,0.6 0.54,1.26 0,-0.06 0.18,0.66 0.24,0.66 0.18,0.72 0,-0.06 0.18,0.72 0.36,2.16 0.06,0.78 0,0.78 0,-0.06 0.06,0.78 c -0.094,1.47 -0.036,2.27 -0.36,3.78 l -0.12,0.72 0,-0.06 -0.18,0.72 -0.18,0.66 -0.24,0.66 -0.18,0.66 -0.54,1.26 0,-0.06 -0.6,1.2 0,-0.06 -0.3,0.6 0,-0.06 -0.36,0.54 -0.72,0.96 -0.42,0.42 0.06,0 -0.84,0.84 0,-0.06 -0.42,0.42 0,-0.06 -0.48,0.36 0.06,0 -0.48,0.3 -0.96,0.48 0.06,0 -0.54,0.18 0.06,0 -0.54,0.18 0.06,0 -0.54,0.12 -0.48,0.06 -0.54,0.06 0.06,0 -0.6,0.06 0.06,0 -1.08,-0.12 0.06,0 -0.54,-0.06 0.06,0 -0.54,-0.12 -0.96,-0.36 -0.96,-0.48 0.06,0 -0.48,-0.3 -0.42,-0.36 0,0.06 -0.42,-0.42 0,0.06 -0.84,-0.84 -0.36,-0.42 -0.42,-0.48 0.06,0 -0.42,-0.48 0.06,0 -0.36,-0.54 0,0.06 -0.36,-0.6 0,0.06 -0.6,-1.2 0.06,0.06 -0.54,-1.26 -0.24,-0.66 0,0.06 -0.18,-0.72 -0.24,-0.66 -0.12,-0.72 0,0.06 -0.18,-0.72 c -0.187,-1.083 -0.309,-2.68 -0.3,-3.78 l 0,-0.78 0,0.06 0.12,-1.56 0.06,-0.72 0.12,-0.72 0.18,-0.72 0.12,-0.72 0,0.06 0.24,-0.72 0.18,-0.66 0.24,-0.66 0,0.06 0.54,-1.26 -0.06,0 0.3,-0.6 0.3,-0.54 0.72,-1.08 -0.06,0.06 0.42,-0.54 -0.06,0 0.42,-0.48 0,0.06 0.36,-0.48 0.42,-0.42 0,0.06 0.42,-0.42 0.42,-0.36 0.42,-0.3 0.48,-0.3 -0.06,0 1.44,-0.72 0,0.06 0.48,-0.18 0.54,-0.12 -0.06,0 0.54,-0.12 -0.06,0 0.54,-0.06 0.54,0 -0.06,0"
         style="fill:#000000;fill-opacity:1;fill-rule:nonzero;stroke:none"
         id="path134"
         inkscape:connector-curvature="0" /></g><text
       transform="matrix(0,1,1,0,317.1,166.0105)"
       style="font-variant:normal;font-weight:normal;font-stretch:normal;font-size:12.30000019px;font-family:Calibri;-inkscape-font-specification:Calibri;writing-mode:lr-tb;fill:#000000;fill-opacity:1;fill-rule:nonzero;stroke:none"
       id="text136"><tspan
         x="0 7.5558901 10.36398 15.16467"
         y="0"
         sodipodi:role="line"
         id="tspan138">Disk</tspan></text>
<g
       id="g140"
       transform="translate(313.74,158.631)"><path
         d="m 0,0 -0.54,0.06 -0.6,0.06 c -13.141,2.855 -13.179,32.147 0,35.1 l 0.6,0.06 0.54,0 C 14.209,34.237 14.671,3.776 1.74,0.24 L 1.2,0.12 0.6,0.06 0,0 Z m 0.54,0.9 0.54,0.06 -0.06,0 0.54,0.12 -0.06,0 0.54,0.12 0.48,0.18 0.96,0.48 -0.06,0 0.48,0.3 0.48,0.36 0,-0.06 0.42,0.42 0,-0.06 0.84,0.84 0.42,0.48 0.36,0.48 0.42,0.54 -0.06,0 0.42,0.54 -0.06,0 0.72,1.2 0.6,1.32 0,-0.06 0.72,2.16 0.24,0.78 0,-0.06 0.18,0.78 c 0.264,1.554 0.497,2.448 0.54,4.08 l 0.06,0.9 0,-0.06 0,0.9 c -0.011,2.467 -0.264,4.965 -1.02,7.32 l -0.24,0.78 0,-0.06 -0.48,1.44 0,-0.06 -0.3,0.72 0,-0.06 -0.3,0.66 -0.72,1.2 0.06,0 -0.42,0.54 0.06,0 -0.42,0.54 C 5.918,31.377 4.68,32.731 3.9,33.12 l -0.48,0.3 0.06,0 L 3,33.72 3,33.66 2.52,33.9 2.04,34.08 1.5,34.2 l 0.06,0 -0.54,0.12 0.06,0 -1.08,0.12 0.06,0 -1.08,-0.12 0.06,0 -0.54,-0.12 -0.48,-0.12 -0.48,-0.18 -0.48,-0.24 0,0.06 -0.96,-0.6 0.06,0 -0.48,-0.3 c -0.694,-0.587 -1.528,-1.414 -2.04,-2.16 l -0.42,-0.54 0.06,0 -0.42,-0.54 -0.3,-0.6 -0.36,-0.6 -0.3,-0.66 0,0.06 -0.3,-0.72 0,0.06 -0.48,-1.44 0,0.06 -0.24,-0.78 c -0.789,-2.253 -0.998,-4.943 -1.02,-7.32 l 0,-0.9 0,0.06 0,-0.9 c 0.283,-2.765 0.516,-4.387 1.5,-7.02 l 0.24,-0.72 0,0.06 0.6,-1.32 0.36,-0.6 0.3,-0.6 0.42,-0.54 -0.06,0 0.42,-0.54 0.36,-0.48 0.42,-0.48 0.84,-0.84 0,0.06 0.42,-0.42 0,0.06 0.48,-0.36 -0.06,0 0.54,-0.3 -0.06,0 0.96,-0.48 0.48,-0.18 0.48,-0.12 0.54,-0.12 -0.06,0 0.54,-0.06 0.54,0 -0.06,0"
         style="fill:#000000;fill-opacity:1;fill-rule:nonzero;stroke:none"
         id="path142"
         inkscape:connector-curvature="0" /></g><text
       transform="matrix(0,1,1,0,318.42,364.1905)"
       style="font-variant:normal;font-weight:normal;font-stretch:normal;font-size:12.30000019px;font-family:Calibri;-inkscape-font-specification:Calibri;writing-mode:lr-tb;fill:#000000;fill-opacity:1;fill-rule:nonzero;stroke:none"
       id="text144"><tspan
         x="0 5.5288501 10.9839 15.67635 19.68 25.805401"
         y="0"
         sodipodi:role="line"
         id="tspan146">System</tspan></text>
<g
       id="g148"
       transform="translate(315.06,356.871)"><path
         d="m 0,0 -0.6,0 -0.6,0.12 c -13.153,4.023 -13.139,44.342 0,48.36 L 0,48.6 0.6,48.54 C 7.849,47.644 10.747,33.745 10.92,27.96 l 0.06,-1.2 0.06,-1.2 C 11.343,18.527 9.481,4.143 2.34,0.54 L 1.74,0.3 1.2,0.12 0.6,0 0,0 Z m 0.54,0.9 -0.06,0 0.54,0.06 -0.06,0 0.54,0.18 -0.06,0 0.54,0.18 -0.06,0 0.54,0.24 -0.06,0 0.54,0.3 -0.06,0 0.48,0.36 0.48,0.42 0.42,0.48 0,-0.06 0.48,0.54 -0.06,0 0.48,0.54 0.42,0.6 0.42,0.66 -0.06,0 0.42,0.72 0,-0.06 1.08,2.34 0.36,0.9 0,-0.06 0.3,0.9 0.3,0.96 0.24,0.96 0.3,0.96 -0.06,0 0.24,1.02 0.24,1.08 0,-0.06 0.18,1.08 0.18,1.14 0.12,1.14 0,-0.06 0.12,1.2 0,-0.06 0.12,1.2 c 0.122,2.4 0.122,4.8 0,7.2 l -0.12,1.2 0,-0.06 -0.12,1.2 0,-0.06 -0.12,1.14 -0.18,1.14 0,-0.06 -0.18,1.14 0,-0.06 -0.24,1.08 -0.24,1.02 0.06,0 -0.3,0.96 -0.24,0.96 -0.3,0.96 -0.3,0.9 0,-0.06 -0.36,0.9 -1.08,2.34 0,-0.06 -0.42,0.72 0.06,0 -0.42,0.66 -0.42,0.6 -0.48,0.54 0.06,0 -0.48,0.54 0,-0.06 -0.42,0.48 -0.48,0.42 -0.48,0.36 0.06,0 -0.54,0.3 0.06,0 -0.54,0.24 0.06,0 -0.54,0.18 0.06,0 -0.54,0.18 0.06,-0.06 -0.54,0.12 0.06,0 -0.6,0 0.06,0 -0.54,0 0.06,0 -0.54,-0.12 0.06,0.06 -0.54,-0.18 0.06,0 -0.54,-0.18 0.06,0 -0.54,-0.24 0.06,0 -0.54,-0.3 0.06,0 -0.54,-0.36 0.06,0 -0.48,-0.42 -0.48,-0.48 0.06,0.06 L -4.74,45 -5.16,44.46 -5.58,43.86 -6,43.2 l -0.42,-0.72 0.06,0.06 -0.42,-0.78 -0.72,-1.56 0.06,0 -0.36,-0.9 0,0.06 -0.3,-0.9 -0.6,-1.92 -0.24,-0.96 -0.24,-1.02 -0.18,-1.08 0,0.06 -0.18,-1.14 0,0.06 -0.18,-1.14 -0.12,-1.14 0,0.06 -0.12,-1.2 0,0.06 -0.12,-1.2 c -0.167,-2.455 -0.167,-4.745 0,-7.2 l 0.12,-1.2 0,0.06 0.12,-1.2 0,0.06 0.12,-1.14 0.18,-1.14 0.18,-1.08 0,0.06 0.18,-1.08 0.24,-1.02 0.24,-0.96 0.6,-1.92 0.3,-0.9 0,0.06 0.36,-0.9 -0.06,0 0.72,-1.56 0.42,-0.78 -0.06,0.06 0.42,-0.72 0.42,-0.66 0.42,-0.6 0.42,-0.54 0.48,-0.54 -0.06,0.06 0.48,-0.48 0.48,-0.42 -0.06,0 0.54,-0.36 -0.06,0 0.54,-0.3 -0.06,0 0.54,-0.24 -0.06,0 0.54,-0.18 -0.06,0 0.54,-0.18 -0.06,0 0.54,-0.06 -0.06,0 0.54,0 -0.06,0"
         style="fill:#000000;fill-opacity:1;fill-rule:nonzero;stroke:none"
         id="path150"
         inkscape:connector-curvature="0" /></g><text
       transform="matrix(0,1,1,0,176.88,126.2905)"
       style="font-variant:normal;font-weight:normal;font-stretch:normal;font-size:12.30000019px;font-family:Calibri;-inkscape-font-specification:Calibri;writing-mode:lr-tb;fill:#000000;fill-opacity:1;fill-rule:nonzero;stroke:none"
       id="text152"><tspan
         x="0 3.1045201 9.5669403 16.053961 22.51638 28.6467 33.683552 39.58017 46.042591 48.864208"
         y="0"
         sodipodi:role="line"
         id="tspan154">InodeTable</tspan></text>
<g
       id="g156"
       transform="translate(173.52,118.971)"><path
         d="m 0,0 -0.6,0 c -13.906,3.625 -13.889,66.205 0,69.78 l 0.3,0 0.3,0.06 0.3,-0.06 C 8.373,68.963 10.93,45.967 10.92,40.14 l 0.12,-1.74 0,-1.74 C 11.459,28.804 9.792,4.798 1.8,0.42 L 1.2,0.18 0.66,0 0.3,0 0,0 Z M 0.24,0.84 0.96,1.02 0.9,1.02 1.44,1.2 1.38,1.2 1.92,1.5 1.86,1.44 2.4,1.86 2.34,1.8 2.88,2.28 2.82,2.28 3.36,2.82 3.3,2.76 l 0.48,0.66 0,-0.06 0.48,0.72 0,-0.06 0.42,0.78 0.48,0.84 -0.06,-0.06 0.48,0.9 -0.06,0 0.42,0.96 0.42,1.02 0.36,1.08 0,-0.06 0.36,1.14 c 0.905,2.713 1.311,5.144 1.86,7.92 l 0.24,1.5 0,-0.06 0.18,1.56 c 0.822,6.72 1.099,13.523 0.6,20.28 l -0.12,1.68 0,-0.06 -0.12,1.68 c -0.55,5.134 -1.324,10.277 -3,15.18 l -0.36,1.08 0,-0.06 -0.42,1.02 -0.42,0.96 0.06,0 -0.48,0.9 0.06,0 -0.48,0.84 0,-0.06 -0.42,0.78 -0.48,0.66 -0.48,0.6 0.06,0 -0.54,0.54 0.06,-0.06 -0.54,0.48 0.06,-0.06 -0.54,0.42 0.06,-0.06 -0.54,0.3 0.06,0 -0.54,0.24 0.12,-0.06 -0.54,0.12 -0.24,0.06 -0.48,0 -0.24,-0.06 0.06,0 -0.54,-0.12 0.06,0.06 -0.54,-0.24 0.06,0 -0.54,-0.3 0.06,0.06 -0.54,-0.42 0.06,0.06 -0.54,-0.48 0.06,0.06 -0.48,-0.54 -0.48,-0.6 -0.48,-0.66 0.06,0 -0.48,-0.78 -0.42,-0.78 -0.42,-0.9 -0.42,-0.96 -0.42,-1.02 0,0.06 -0.36,-1.08 -0.36,-1.14 -0.36,-1.2 -0.3,-1.26 -0.36,-1.26 -0.3,-1.38 0,0.06 -0.24,-1.44 c -0.962,-5.281 -1.501,-10.651 -1.5,-16.02 l -0.06,-1.8 0,0.06 0,-1.8 0.06,-1.74 0.06,-1.74 0.12,-1.68 0.12,-1.68 0,0.06 0.12,-1.68 0.18,-1.56 0.18,-1.56 0.24,-1.56 0,0.06 0.24,-1.5 c 0.384,-2.769 1.013,-5.249 1.8,-7.92 l 0.36,-1.14 0,0.06 0.36,-1.08 0.42,-1.02 0.42,-0.96 0.42,-0.9 0,0.06 0.42,-0.84 0.48,-0.78 -0.06,0.06 0.48,-0.72 0,0.06 0.48,-0.66 0,0.06 0.48,-0.54 -0.06,0 0.54,-0.48 -0.06,0.06 0.54,-0.42 -0.06,0.06 0.54,-0.3 -0.06,0 0.54,-0.18 -0.06,0 0.54,-0.12 -0.06,0 0.24,-0.06 0.24,0"
         style="fill:#000000;fill-opacity:1;fill-rule:nonzero;stroke:none"
         id="path158"
         inkscape:connector-curvature="0" /></g><text
       transform="matrix(0,1,1,0,99.06,81.1105)"
       style="font-variant:normal;font-weight:normal;font-stretch:normal;font-size:12.30000019px;font-family:Calibri;-inkscape-font-specification:Calibri;writing-mode:lr-tb;fill:#000000;fill-opacity:1;fill-rule:nonzero;stroke:none"
       id="text160"><tspan
         x="0 5.65062 9.7354498 15.86577 21.99609 25.100611 31.56303 38.050049 44.51247"
         y="0"
         sodipodi:role="line"
         id="tspan162">FreeInode</tspan></text>
<g
       id="g164"
       transform="translate(95.76,73.731)"><path
         d="m 0,0 -0.66,0.06 -0.6,0.12 c -13.071,5.15 -13.065,59.852 0,64.98 l 0.6,0.12 L 0,65.34 0.6,65.28 C 8.447,63.654 10.709,43.785 10.92,37.62 L 10.98,36 11.04,34.32 C 11.258,26.177 9.839,5.875 2.34,0.72 L 1.8,0.42 1.2,0.18 0.6,0.06 0,0 Z M 0.48,0.9 0.42,0.9 0.96,1.02 0.9,1.02 1.44,1.2 1.38,1.2 1.92,1.5 1.86,1.44 2.4,1.8 2.34,1.8 2.82,2.22 3.3,2.7 3.78,3.24 4.2,3.9 4.2,3.84 4.68,4.56 5.1,5.34 5.1,5.28 5.52,6.12 5.94,7.02 6.3,7.98 6.72,9 l 0,-0.06 0.36,1.08 0.36,1.14 0,-0.06 0.6,2.4 0.3,1.26 0.3,1.32 0,-0.06 0.48,2.76 0.18,1.44 0,-0.06 0.24,1.5 c 0.708,6.336 0.772,12.663 0.3,19.02 l -0.18,1.56 0,-0.06 -0.12,1.5 C 8.795,48.98 7.835,54.352 5.52,59.22 L 5.1,60.06 5.1,60 4.68,60.78 4.2,61.5 l 0,-0.06 -0.42,0.66 -0.96,1.08 0,-0.06 -0.48,0.42 0.06,0 -0.54,0.36 0.06,-0.06 -0.54,0.3 0.06,0 -0.54,0.18 0.06,0 -0.54,0.12 0.06,0 -0.54,0 0.06,0 -0.54,0 0.06,0 -0.54,-0.12 0.06,0 -0.54,-0.18 0.06,0 -0.54,-0.3 0.06,0.06 -0.54,-0.36 0.06,0 -0.48,-0.42 -0.48,-0.48 -0.48,-0.54 -0.42,-0.66 0,0.06 -0.48,-0.72 -0.42,-0.78 0,0.06 -0.42,-0.84 C -7.895,54.352 -8.855,48.98 -9.6,43.68 l -0.12,-1.5 0,0.06 -0.18,-1.56 c -0.472,-6.357 -0.408,-12.684 0.3,-19.02 l 0.24,-1.5 0,0.06 0.18,-1.44 0.48,-2.76 0,0.06 0.3,-1.32 0.3,-1.26 0.6,-2.4 0,0.06 0.36,-1.14 0.36,-1.08 0,0.06 0.42,-1.02 0.36,-0.96 0.42,-0.9 0.42,-0.84 0,0.06 0.42,-0.78 0.48,-0.72 0,0.06 0.42,-0.66 0.48,-0.54 0.48,-0.48 0.48,-0.42 -0.06,0 0.54,-0.36 -0.06,0.06 0.54,-0.3 -0.06,0 0.54,-0.18 -0.06,0 0.54,-0.12 -0.06,0 0.54,0 -0.06,0"
         style="fill:#000000;fill-opacity:1;fill-rule:nonzero;stroke:none"
         id="path166"
         inkscape:connector-curvature="0" /></g><text
       transform="matrix(0,1,1,0,145.14,176.0905)"
       style="font-variant:normal;font-weight:normal;font-stretch:normal;font-size:12.30000019px;font-family:Calibri;-inkscape-font-specification:Calibri;writing-mode:lr-tb;fill:#000000;fill-opacity:1;fill-rule:nonzero;stroke:none"
       id="text168"><tspan
         x="0 5.65062 8.4722404 11.29386 17.424179 20.5287"
         y="0"
         sodipodi:role="line"
         id="tspan170">FileIO</tspan></text>
<g
       id="g172"
       transform="translate(141.78,168.711)"><path
         d="m 0,0 -0.6,0.06 -0.54,0.06 c -13.22,3.436 -13.144,39.634 0,42.9 l 0.54,0.12 1.2,0 C 7.72,42.197 10.671,30.729 10.92,24.84 l 0.12,-1.08 0,-1.08 C 11.374,15.912 9.344,3.669 2.34,0.48 L 1.74,0.3 1.2,0.12 0.6,0.06 0,0 Z m 0.54,0.9 -0.06,0 0.54,0.12 -0.06,0 0.54,0.12 0.48,0.18 0,-0.06 0.48,0.24 0.48,0.3 0,-0.06 0.96,0.72 -0.06,0 0.48,0.42 0.42,0.42 0.42,0.48 0.42,0.54 0.84,1.2 -0.06,0 0.42,0.66 0.36,0.66 0.36,0.72 0.3,0.78 0,-0.06 0.3,0.84 c 0.926,2.204 1.448,4.892 1.74,7.26 l 0.12,1.02 0,-0.06 0.12,1.08 0.06,1.02 0.06,1.08 0,2.16 -0.06,1.08 0,-0.06 -0.06,1.08 -0.12,1.02 -0.12,1.02 -0.12,0.96 -0.18,1.02 0,-0.06 -0.18,0.96 C 9.083,31.484 8.444,33.183 7.8,34.86 l -0.3,0.78 0,-0.06 -0.36,0.78 0,-0.06 -0.36,0.72 -0.42,0.66 0.06,0 -0.84,1.2 0,-0.06 -0.84,1.08 0,-0.06 -0.42,0.48 -0.48,0.42 0.06,0 -0.48,0.36 -0.96,0.6 0,-0.06 -0.48,0.24 -0.48,0.18 -0.54,0.12 0.06,0 -0.54,0.06 0.06,0 -0.54,0.06 -0.54,-0.06 0.06,0 -0.54,-0.06 0.06,0 -0.54,-0.12 0.06,0 -0.54,-0.18 -0.48,-0.24 0,0.06 -0.48,-0.3 0.06,0 -0.54,-0.3 0.06,0 -0.48,-0.36 -0.48,-0.42 0.06,0 -0.48,-0.48 0,0.06 -0.84,-1.08 0,0.06 -0.42,-0.6 -0.36,-0.6 -0.42,-0.66 0.06,0 -0.42,-0.72 0,0.06 -0.3,-0.78 0,0.06 -0.36,-0.78 C -8.469,33.185 -8.984,31.461 -9.36,29.7 l -0.18,-0.96 0,0.06 -0.18,-1.02 0,0.06 -0.24,-2.04 -0.12,-1.02 -0.06,-1.08 0,0.06 0,-1.08 -0.06,-1.08 0.06,-1.08 0,-1.08 0.06,-1.02 0.12,-1.08 0,0.06 0.12,-1.02 c 0.257,-2.307 0.907,-5.092 1.74,-7.26 l 0.3,-0.84 0,0.06 0.36,-0.78 0.3,-0.72 0.42,-0.66 -0.06,0 0.42,-0.66 0.36,-0.6 0.42,-0.6 0.42,-0.54 0.42,-0.48 0.48,-0.48 -0.06,0.06 0.48,-0.42 0.48,-0.36 -0.06,0 0.54,-0.36 -0.06,0.06 0.48,-0.3 0.54,-0.24 -0.06,0.06 0.54,-0.18 -0.06,0 0.54,-0.12 -0.06,0 0.54,-0.12 -0.06,0 0.54,0"
         style="fill:#000000;fill-opacity:1;fill-rule:nonzero;stroke:none"
         id="path174"
         inkscape:connector-curvature="0" /></g><text
       transform="matrix(0,1,1,0,212.34,46.4905)"
       style="font-variant:normal;font-weight:normal;font-stretch:normal;font-size:12.30000019px;font-family:Calibri;-inkscape-font-specification:Calibri;writing-mode:lr-tb;fill:#000000;fill-opacity:1;fill-rule:nonzero;stroke:none"
       id="text176"><tspan
         x="0 3.1008301 9.5595598 16.042891 22.501619 28.62825 36.390781 39.20871 45.692039 52.150768 58.043701 60.861629"
         y="0"
         sodipodi:role="line"
         id="tspan178">InodeGlobals</tspan></text>
<g
       id="g180"
       transform="translate(208.98,39.171)"><path
         d="m 0,0 -0.3,0 -0.3,0.06 c -13.887,3.688 -13.886,76.834 0,80.52 l 0.3,0.06 0.6,0 C 8.541,79.629 10.942,52.263 10.92,46.44 l 0.06,-2.04 0.06,-2.04 C 11.477,34.589 9.885,4.069 1.26,0.24 L 0.96,0.12 0.66,0.06 0.3,0 0,0 Z m 0.24,0.9 0.24,0 -0.06,0 0.3,0.06 -0.06,0 0.3,0.12 -0.06,-0.06 0.3,0.12 -0.06,0 0.3,0.12 -0.06,0 0.3,0.18 L 1.62,1.38 1.92,1.62 1.86,1.56 2.1,1.8 c 0.568,0.362 1.285,1.472 1.68,1.98 l 0.48,0.78 -0.06,0 0.48,0.9 0,-0.06 0.42,0.96 0.42,1.08 0,-0.06 0.42,1.14 c 0.889,2.403 1.651,5.524 2.16,8.04 l 0.3,1.56 0,-0.06 0.24,1.62 c 2.092,13.319 2.092,27.961 0,41.28 l -0.24,1.62 0,-0.06 -0.3,1.56 c -0.716,3.471 -1.593,6.938 -3,10.2 l -0.42,0.96 0,-0.06 -0.48,0.9 0.06,0 -0.48,0.78 -0.96,1.32 0,-0.06 -0.24,0.3 -0.48,0.48 0,-0.06 -0.24,0.24 0,-0.06 -0.24,0.24 0.06,-0.06 -0.3,0.18 0.06,0 -0.3,0.12 0.06,0 -0.3,0.12 0.06,0 -0.3,0.06 0.06,0 -0.24,0.06 -0.24,0 -0.24,0.06 -0.24,-0.06 0.06,0 -0.3,0 0.06,0 -0.3,-0.06 0.06,0 -0.3,-0.06 0.06,0 -0.3,-0.12 0.06,0 -0.24,-0.12 -0.24,-0.18 0,0.06 -0.24,-0.24 0,0.06 -0.24,-0.24 0,0.06 -0.48,-0.48 -0.72,-0.9 0,0.06 -0.48,-0.72 -0.42,-0.78 -0.48,-0.9 0,0.06 -0.42,-0.96 c -1.486,-3.388 -2.192,-6.618 -3,-10.2 l -0.3,-1.56 0,0.06 -0.24,-1.62 C -10.552,48.726 -10.704,35.376 -9.12,23.1 l 0.24,-1.74 -0.06,0 0.3,-1.68 0.24,-1.62 0,0.06 0.3,-1.56 c 0.643,-2.697 1.163,-5.443 2.16,-8.04 l 0.42,-1.14 0,0.06 0.42,-1.08 0.42,-0.96 0,0.06 0.48,-0.9 0.42,-0.78 0.48,-0.66 0.72,-0.9 0,0.06 0.24,-0.3 0.24,-0.18 0.24,-0.24 0,0.06 0.24,-0.24 0,0.06 0.24,-0.18 0.24,-0.12 -0.06,0 0.3,-0.12 -0.06,0.06 0.3,-0.12 -0.06,0 0.3,-0.06 -0.06,0 0.3,0 -0.06,0 L 0,0.84"
         style="fill:#000000;fill-opacity:1;fill-rule:nonzero;stroke:none"
         id="path182"
         inkscape:connector-curvature="0" /></g><text
       transform="matrix(0,1,1,0,113.52,357.8905)"
       style="font-variant:normal;font-weight:normal;font-stretch:normal;font-size:12.30000019px;font-family:Calibri;-inkscape-font-specification:Calibri;writing-mode:lr-tb;fill:#000000;fill-opacity:1;fill-rule:nonzero;stroke:none"
       id="text184"><tspan
         x="0 9.8264704 15.71694 18.53241"
         y="0"
         sodipodi:role="line"
         id="tspan186">main</tspan></text>
<g
       id="g188"
       transform="translate(110.22,350.511)"><path
         d="m 0,0 -1.2,0.12 c -13.16,3.222 -13.149,36.072 0,39.3 L 0,39.54 0.54,39.48 C 7.442,38.826 10.551,28.485 10.92,22.74 l 0.06,-0.96 0.06,-1.02 C 11.289,14.208 9.124,3.25 2.28,0.42 L 1.74,0.24 1.14,0.12 0.54,0.06 0,0 Z M 0.48,0.9 1.02,1.02 0.96,0.96 1.5,1.14 1.44,1.08 1.98,1.26 2.46,1.5 2.46,1.44 2.94,1.74 2.88,1.68 3.42,1.98 3.36,1.98 4.32,2.7 4.26,2.7 4.74,3.12 5.16,3.54 5.58,4.02 6,4.56 6.36,5.1 6.78,5.7 6.72,5.7 7.14,6.36 7.08,6.3 7.44,7.02 7.44,6.96 7.8,7.68 C 8.729,9.791 9.568,12.717 9.84,15 l 0.12,0.96 0,-0.06 0.06,0.96 0.12,0.96 0,1.98 0,-0.06 0,1.98 -0.12,0.96 -0.06,0.96 0,-0.06 -0.12,0.96 C 9.568,26.823 8.729,29.749 7.8,31.86 l -0.36,0.72 0,-0.06 -0.36,0.72 0.06,-0.06 -0.42,0.66 0.06,0 -0.42,0.6 C 5.809,35.348 4.715,36.593 3.84,37.2 l -0.48,0.36 0.06,0 -0.48,0.3 0,-0.06 -0.48,0.3 0,-0.06 -0.48,0.24 -0.54,0.18 0.06,-0.06 -0.54,0.12 0.06,0 -0.54,0.12 0,-0.06 -0.54,0.06 0.06,0 -0.54,-0.06 0.06,0.06 -1.08,-0.24 0.06,0.06 -0.54,-0.18 0.06,0 -0.54,-0.24 0.06,0.06 -0.54,-0.3 0.06,0 -0.48,-0.3 0,0.06 -0.96,-0.72 0.06,0 -0.48,-0.42 0.06,0 -0.48,-0.42 -0.42,-0.48 -0.42,-0.54 0.06,0 -0.42,-0.54 -0.36,-0.6 -0.36,-0.66 0,0.06 -0.36,-0.72 0,0.06 -0.3,-0.72 -0.36,-0.72 0.06,0 -0.3,-0.72 c -0.756,-1.886 -1.154,-3.888 -1.5,-5.88 l -0.12,-0.96 0,0.06 -0.18,-2.88 0,-1.02 0,0.06 0,-1.02 0.06,-0.96 0.06,-0.96 0.06,-0.96 0,0.06 L -9.9,15 c 0.346,-1.992 0.744,-3.994 1.5,-5.88 l 0.3,-0.72 -0.06,0 0.36,-0.72 0.3,-0.72 0,0.06 0.36,-0.72 0,0.06 0.36,-0.66 0.36,-0.6 0.42,-0.54 -0.06,0 0.42,-0.54 0.42,-0.48 0.48,-0.42 -0.06,0 0.48,-0.42 -0.06,0 0.96,-0.72 0.48,-0.3 -0.06,0.06 0.54,-0.3 -0.06,0.06 0.54,-0.24 -0.06,0 0.54,-0.18 -0.06,0.06 1.08,-0.24 -0.06,0 0.54,0 -0.06,0"
         style="fill:#000000;fill-opacity:1;fill-rule:nonzero;stroke:none"
         id="path190"
         inkscape:connector-curvature="0" /></g><text
       transform="matrix(0,1,1,0,117.6,433.7305)"
       style="font-variant:normal;font-weight:normal;font-stretch:normal;font-size:12.30000019px;font-family:Calibri;-inkscape-font-specification:Calibri;writing-mode:lr-tb;fill:#000000;fill-opacity:1;fill-rule:nonzero;stroke:none"
       id="text192"><tspan
         x="0 6.5436001 13.0134 19.368811 23.508989 27.593821 34.069771"
         y="0"
         sodipodi:role="line"
         id="tspan194">Control</tspan></text>
<g
       id="g196"
       transform="translate(114.24,426.411)"><path
         d="m 0,0 -1.2,0.12 c -13.089,4.132 -13.125,47.196 0,51.3 L -0.6,51.54 0,51.6 0.6,51.54 C 8.13,50.202 10.692,35.787 10.92,29.7 l 0.12,-1.32 0,-1.26 C 11.409,19.891 9.541,4.467 2.34,0.54 L 1.8,0.3 1.2,0.12 0.6,0.06 0,0 Z m 0.54,0.9 -0.06,0 0.54,0.12 -0.06,0 0.54,0.12 -0.06,0 0.54,0.24 -0.06,-0.06 0.54,0.3 -0.06,0 0.54,0.3 -0.06,0 0.48,0.42 0,-0.06 0.48,0.48 0.42,0.48 0.48,0.54 0.42,0.6 0.42,0.66 0,-0.06 L 6,5.7 6.36,6.42 6.78,7.2 l -0.06,0 0.42,0.84 0.3,0.84 0.36,0.96 0,-0.06 0.3,0.96 0.6,2.04 -0.06,-0.06 0.3,1.08 c 1.148,5.463 1.589,11.484 1.02,17.04 l -0.12,1.26 0,-0.06 -0.12,1.26 0,-0.06 -0.18,1.2 -0.18,1.14 -0.18,1.14 0,-0.06 -0.24,1.14 0,-0.06 -0.3,1.08 0.06,0 -0.3,1.02 -0.6,1.92 -0.36,0.9 -0.3,0.9 -0.42,0.84 0.06,-0.06 -0.42,0.84 0,-0.06 -0.36,0.78 -0.84,1.32 -0.42,0.6 -0.48,0.54 0.06,0 -0.48,0.48 -0.96,0.84 0.06,-0.06 -0.54,0.36 0.06,0 -0.54,0.24 0.06,0 -0.54,0.24 0.06,-0.06 -0.54,0.18 0.06,0 L 0.48,50.7 0.54,50.64 0,50.7 l 0.06,0 -0.6,-0.06 0.06,0.06 -0.54,-0.12 0.06,0 -0.54,-0.18 0.06,0.06 -0.54,-0.24 0.06,0 -0.54,-0.24 0.06,0 -0.54,-0.36 0.06,0.06 -0.96,-0.84 0.06,0 -0.48,-0.48 -0.48,-0.54 0.06,0 -0.48,-0.6 -0.84,-1.32 0.06,0 -0.42,-0.78 0,0.06 -0.36,-0.84 0,0.06 -0.36,-0.84 c -0.646,-1.534 -1.214,-3.108 -1.56,-4.74 l -0.3,-1.08 0,0.06 -0.18,-1.14 0,0.06 -0.24,-1.14 -0.18,-1.14 -0.18,-1.2 0,0.06 -0.12,-1.2 c -0.693,-6.224 -0.366,-12.174 0.9,-18.3 l 0.3,-1.08 0,0.06 0.24,-1.02 0.3,-1.02 0.3,-0.96 0,0.06 0.36,-0.96 0.72,-1.68 0.36,-0.78 0.42,-0.72 -0.06,0 0.42,-0.72 0,0.06 0.42,-0.66 0.48,-0.6 -0.06,0 0.48,-0.54 0.42,-0.48 0.48,-0.48 0,0.06 0.48,-0.42 -0.06,0 0.54,-0.3 -0.06,0 0.54,-0.3 -0.06,0.06 0.54,-0.24 -0.06,0 0.54,-0.12 -0.06,0 0.54,-0.12 -0.06,0 0.6,0 -0.06,0"
         style="fill:#000000;fill-opacity:1;fill-rule:nonzero;stroke:none"
         id="path198"
         inkscape:connector-curvature="0" /></g><text
       transform="matrix(0,1,1,0,202.02,399.2905)"
       style="font-variant:normal;font-weight:normal;font-stretch:normal;font-size:12.30000019px;font-family:Calibri;-inkscape-font-specification:Calibri;writing-mode:lr-tb;fill:#000000;fill-opacity:1;fill-rule:nonzero;stroke:none"
       id="text200"><tspan
         x="0 7.9015198 12.71574 18.84606"
         y="0"
         sodipodi:role="line"
         id="tspan202">User</tspan></text>
<g
       id="g204"
       transform="translate(198.66,391.971)"><path
         d="m 0,0 -0.6,0 -0.54,0.06 c -13.189,3.098 -13.185,34.38 0,37.44 l 0.54,0.06 1.2,0 C 7.446,36.795 10.575,27.422 10.92,21.6 l 0.12,-0.9 0,-0.96 C 11.408,13.309 9.035,2.963 2.28,0.36 L 1.74,0.18 1.14,0.06 0.6,0 0,0 Z m 0.54,0.9 -0.06,0 0.54,0.06 0.54,0.12 -0.06,0 0.54,0.12 -0.06,0 0.54,0.18 -0.06,0 0.54,0.24 -0.06,0 0.96,0.6 0.42,0.36 0.48,0.36 -0.06,0 0.48,0.48 0,-0.06 0.42,0.48 -0.06,0 0.42,0.48 0.42,0.54 0.36,0.6 0,-0.06 0.36,0.6 0.36,0.66 0.3,0.66 0,-0.06 0.9,2.16 0.24,0.78 0,-0.06 0.24,0.78 0.36,1.68 0,-0.06 0.18,0.9 0,-0.06 0.12,0.9 0.12,0.84 0.12,0.9 0.06,0.9 0.06,0.96 0,-0.06 0,1.92 -0.12,1.8 -0.12,0.9 -0.12,0.9 0,-0.06 -0.12,0.9 -0.36,1.68 0,-0.06 -0.18,0.84 -0.48,1.56 0,-0.06 -0.3,0.78 0,-0.06 -0.6,1.44 -0.3,0.66 0,-0.06 -0.36,0.66 -0.36,0.6 -0.36,0.54 -0.42,0.54 -0.42,0.48 0.06,0 -0.42,0.48 -0.48,0.42 0.06,0 -0.48,0.42 0,-0.06 -0.42,0.36 -0.48,0.36 0,-0.06 -0.48,0.3 0.06,0 -0.54,0.24 0.06,0 -0.54,0.18 0.06,0 -0.54,0.18 0.06,0 -0.54,0.06 -0.54,0.12 0.06,0 -0.54,0 -0.54,-0.06 0.06,0 -0.54,-0.06 0.06,0 -0.54,-0.12 0,0.06 -0.96,-0.36 -0.48,-0.24 -0.48,-0.3 0,0.06 -0.48,-0.36 0.06,0 -0.48,-0.36 0,0.06 -0.42,-0.42 -0.48,-0.42 0.06,0 -0.48,-0.48 0.06,0 -0.42,-0.48 -0.42,-0.54 0.06,0 -0.42,-0.54 -0.36,-0.6 -0.36,-0.66 0.06,0.06 -0.36,-0.66 -0.6,-1.44 0,0.06 -0.3,-0.78 0.06,0.06 -0.3,-0.78 -0.24,-0.78 0.06,0 -0.24,-0.84 0,0.06 -0.36,-1.68 -0.12,-0.9 0,0.06 -0.24,-1.8 -0.06,-0.9 0,-0.9 -0.06,-0.96 0.06,-0.96 -0.06,0.06 0.06,-0.96 0.06,-0.9 0.12,-0.9 0.12,-0.84 0.12,-0.9 0,0.06 0.18,-0.9 0,0.06 0.18,-0.84 0.24,-0.84 -0.06,0.06 0.24,-0.84 0,0.06 0.3,-0.78 -0.06,0 0.9,-2.16 0,0.06 0.36,-0.66 -0.06,0 0.36,-0.66 0.36,-0.6 0,0.06 0.42,-0.6 -0.06,0 0.42,-0.54 0.84,-0.96 -0.06,0.06 0.48,-0.48 0.42,-0.36 0.48,-0.36 -0.06,0 0.96,-0.6 0.48,-0.24 0.48,-0.18 0.48,-0.12 0.54,-0.12 -0.06,0 0.54,-0.06 -0.06,0 L 0,0.84"
         style="fill:#000000;fill-opacity:1;fill-rule:nonzero;stroke:none"
         id="path206"
         inkscape:connector-curvature="0" /></g><text
       transform="matrix(0,1,1,0,165.6,545.6305)"
       style="font-variant:normal;font-weight:normal;font-stretch:normal;font-size:12.30000019px;font-family:Calibri;-inkscape-font-specification:Calibri;writing-mode:lr-tb;fill:#000000;fill-opacity:1;fill-rule:nonzero;stroke:none"
       id="text208"><tspan
         x="0 5.3345098 11.21391 21.044069 23.86323 26.68239"
         y="0"
         sodipodi:role="line"
         id="tspan210">Family</tspan></text>
<g
       id="g212"
       transform="translate(162.3,538.31)"><path
         d="m 0,0 -0.6,0 -0.6,0.12 c -13.167,3.751 -13.121,42.841 0,46.5 L -0.6,46.74 0,46.8 0.6,46.74 C 7.877,45.713 10.668,32.779 10.92,26.88 l 0.06,-1.14 0.06,-1.14 C 11.326,17.667 9.445,3.886 2.28,0.48 L 1.74,0.24 1.14,0.12 0.6,0 0,0 Z m 0.48,0.9 0.54,0.06 -0.06,0 0.54,0.12 -0.06,0 L 1.98,1.32 1.92,1.26 2.46,1.56 2.4,1.5 l 0.54,0.3 -0.06,0 0.48,0.36 0.48,0.42 0,-0.06 0.42,0.48 0.48,0.48 -0.06,0 0.48,0.54 0.42,0.6 0,-0.06 0.42,0.66 -0.06,0 0.42,0.66 c 2.136,3.841 3.185,8.558 3.6,12.9 l 0.12,1.14 -0.06,0 0.12,1.14 0,1.14 0.06,1.2 -0.06,1.14 0,1.2 0,-0.06 -0.12,1.14 0.06,0 -0.12,1.14 -0.12,1.14 0,-0.06 -0.12,1.08 c -0.245,1.777 -0.637,3.314 -1.08,5.04 l -0.24,0.96 0,-0.06 -0.6,1.8 0,-0.06 -0.36,0.84 -0.72,1.56 0,-0.06 -0.36,0.72 -0.42,0.72 0.06,-0.06 -0.42,0.66 -0.42,0.6 0,-0.06 -0.48,0.6 0.06,-0.06 -0.48,0.54 0,-0.06 -0.42,0.48 -0.48,0.42 0,-0.06 -0.48,0.36 0.06,0 -0.54,0.3 0.06,0 -0.54,0.24 0.06,0 -0.54,0.18 0.06,0 -0.54,0.12 0.06,0 -0.54,0.12 0,-0.06 -0.54,0.06 0.06,0 -0.54,-0.06 0.06,0.06 -0.54,-0.12 0.06,0 -0.54,-0.12 -0.48,-0.18 -0.48,-0.24 -0.48,-0.3 -0.48,-0.36 0.06,0 -0.48,-0.36 -0.48,-0.48 0,0.06 -0.84,-1.08 0,0.06 -0.42,-0.6 -0.42,-0.66 0,0.06 -0.42,-0.72 -0.36,-0.72 0,0.06 -0.72,-1.56 -0.3,-0.84 0,0.06 -0.6,-1.8 0,0.06 -0.3,-0.96 c -0.486,-1.719 -0.731,-3.286 -1.02,-5.04 l -0.18,-1.08 0,0.06 -0.06,-1.14 -0.12,-1.14 -0.06,-1.14 0,0.06 -0.06,-1.2 C -10.34,18.374 -9.294,10.558 -6,5.22 l 0.42,-0.66 0,0.06 0.42,-0.6 0.42,-0.54 0.42,-0.48 0.48,-0.48 0,0.06 0.48,-0.42 -0.06,0 0.48,-0.36 0.48,-0.3 0,0.06 0.48,-0.3 0,0.06 0.48,-0.24 0,0.06 0.54,-0.18 -0.06,0 0.54,-0.06 -0.06,0 0.54,-0.06 -0.06,0"
         style="fill:#000000;fill-opacity:1;fill-rule:nonzero;stroke:none"
         id="path214"
         inkscape:connector-curvature="0" /></g><text
       transform="matrix(0,1,1,0,385.74,364.1905)"
       style="font-variant:normal;font-weight:normal;font-stretch:normal;font-size:12.30000019px;font-family:Calibri;-inkscape-font-specification:Calibri;writing-mode:lr-tb;fill:#000000;fill-opacity:1;fill-rule:nonzero;stroke:none"
       id="text216"><tspan
         x="0 5.6346302 9.6555004 15.41559 19.43646"
         y="0"
         sodipodi:role="line"
         id="tspan218">State</tspan></text>
<g
       id="g220"
       transform="translate(382.44,356.871)"><path
         d="m 0,0 -0.6,0 -0.6,0.12 c -13.155,3.24 -13.14,37.243 0,40.44 l 0.6,0.12 1.2,0 C 7.609,39.754 10.534,29.253 10.92,23.4 l 0.06,-1.02 0.06,-1.02 C 11.316,14.793 9.156,3.295 2.28,0.42 L 1.74,0.24 1.14,0.12 0.6,0 0,0 Z m 0.48,0.9 0.54,0.06 -0.06,0 0.54,0.12 -0.06,0 0.54,0.18 0.48,0.18 -0.06,0 0.54,0.3 L 2.88,1.68 3.42,2.04 3.36,1.98 3.84,2.34 4.32,2.76 4.26,2.7 l 0.48,0.48 0,-0.06 0.42,0.48 0.42,0.54 0,-0.06 0.42,0.6 0,-0.06 0.36,0.6 0.42,0.6 -0.06,0 0.42,0.66 -0.06,0 0.36,0.66 c 0.826,1.524 1.217,3.031 1.68,4.68 l 0.24,0.9 0,-0.06 0.18,0.96 0,-0.06 0.18,0.96 c 0.95,6.174 0.481,13.335 -2.28,19.02 l -0.36,0.72 0.06,-0.06 -0.42,0.66 0.06,0 -0.42,0.6 -0.36,0.6 -0.42,0.54 -0.84,0.96 -0.48,0.42 0.06,0 -0.96,0.72 0.06,0 -0.54,0.3 0.06,0 -0.96,0.48 0,-0.06 -0.54,0.18 0.06,0 -0.54,0.12 0.06,0 -1.08,0.12 0.06,0 -0.54,-0.06 0.06,0 -0.54,-0.06 -0.54,-0.12 0.06,0 -0.54,-0.18 0.06,0.06 -0.54,-0.24 0.06,0 L -3,39 l 0.06,0 -0.48,-0.3 -0.48,-0.36 -0.42,-0.36 -0.48,-0.42 0.06,0 -0.48,-0.48 -0.42,-0.48 -0.36,-0.54 -0.42,-0.6 -0.36,-0.6 -0.36,-0.66 0,0.06 -0.36,-0.72 C -8.281,31.7 -8.985,30.002 -9.36,28.02 l -0.24,-0.9 0.06,0 -0.18,-0.9 c -0.64,-3.402 -0.658,-8.304 0,-11.7 l 0.18,-0.96 -0.06,0.06 0.24,-0.96 0,0.06 0.18,-0.9 c 0.618,-2.306 1.488,-4.572 2.76,-6.6 l 0.42,-0.6 0,0.06 0.42,-0.6 -0.06,0.06 0.48,-0.54 -0.06,0 0.48,-0.48 -0.06,0.06 0.48,-0.48 0,0.06 0.42,-0.42 0.48,-0.36 0,0.06 0.48,-0.36 -0.06,0.06 0.54,-0.3 -0.06,0 0.54,-0.18 -0.06,0 0.54,-0.18 -0.06,0 0.54,-0.12 0.54,-0.06 -0.06,0 0.54,0 -0.06,0"
         style="fill:#000000;fill-opacity:1;fill-rule:nonzero;stroke:none"
         id="path222"
         inkscape:connector-curvature="0" /></g><text
       transform="matrix(0,1,1,0,358.38,295.2505)"
       style="font-variant:normal;font-weight:normal;font-stretch:normal;font-size:12.30000019px;font-family:Calibri;-inkscape-font-specification:Calibri;writing-mode:lr-tb;fill:#000000;fill-opacity:1;fill-rule:nonzero;stroke:none"
       id="text224"><tspan
         x="0 10.52634 16.661579 26.499121 32.991058 37.293598"
         y="0"
         sodipodi:role="line"
         id="tspan226">Memory</tspan></text>
<g
       id="g228"
       transform="translate(355.02,287.931)"><path
         d="m 0,0 -0.6,0.06 -0.6,0.12 c -13.049,4.473 -13.1,53.564 0,58.2 L -0.6,58.5 0,58.56 0.66,58.5 C 8.31,57.051 10.752,39.723 10.98,33.66 l 0.06,-1.44 0.06,-1.44 C 11.335,23.03 9.763,5.266 2.4,0.6 L 1.8,0.36 1.2,0.18 0.66,0.06 0,0 Z M 0.54,0.9 0.48,0.9 1.02,1.02 0.96,0.96 1.5,1.2 1.44,1.14 1.98,1.38 1.92,1.38 2.46,1.68 2.4,1.68 2.94,2.1 2.88,2.04 3.36,2.52 3.36,2.46 3.84,3 4.26,3.54 4.74,4.14 5.16,4.86 5.16,4.8 6,6.36 6.36,7.2 6.78,8.1 7.14,9.06 7.14,9 7.5,10.02 c 0.789,2.678 1.522,5.319 1.86,8.1 l 0.24,1.32 0,-0.06 0.12,1.38 0.18,1.32 0.12,1.44 0,-0.06 0.06,1.44 c 0.124,2.437 0.187,4.881 0.06,7.32 l -0.06,1.44 0,-0.06 -0.06,1.44 C 9.486,41.162 8.194,49.141 4.74,54.36 l -0.48,0.66 0.06,-0.06 -0.48,0.6 -0.48,0.48 -0.48,0.42 0.06,0 -0.54,0.36 0.06,0 -0.54,0.3 0.06,0 -0.54,0.24 0.06,0 -0.54,0.18 0.06,0 -0.54,0.12 0.06,-0.06 -0.54,0.06 0.06,0 -0.54,-0.06 0.06,0.06 -0.54,-0.12 0.06,0 -0.54,-0.18 0.06,0 -0.54,-0.24 0.06,0 -0.54,-0.3 0.06,0 -0.54,-0.36 0.06,0 -0.54,-0.42 0.06,0 -0.48,-0.48 -0.48,-0.6 0.06,0.06 -0.48,-0.66 c -1.408,-2.103 -2.393,-4.466 -3.06,-6.9 l -0.36,-1.08 0.06,0 -0.3,-1.08 C -9.195,41.899 -9.728,38.541 -9.96,35.04 l -0.06,-1.44 0,0.06 -0.06,-1.44 c -0.064,-2.277 -0.162,-5.078 0.06,-7.32 l 0.06,-1.44 0,0.06 0.12,-1.44 0.12,-1.32 0.18,-1.38 0,0.06 0.18,-1.32 0.24,-1.26 0.24,-1.26 0.24,-1.2 0.6,-2.28 -0.06,0 0.36,-1.08 0.3,-1.02 0.36,-1.02 0,0.06 0.36,-0.96 0.36,-0.9 0.42,-0.84 0.84,-1.56 0,0.06 0.42,-0.72 0.48,-0.6 -0.06,0 0.96,-1.08 -0.06,0.06 0.54,-0.48 -0.06,0.06 0.54,-0.42 -0.06,0 0.54,-0.3 -0.06,0 0.54,-0.24 -0.06,0.06 0.54,-0.18 -0.06,0 0.54,-0.12 -0.06,0 0.54,-0.06 -0.06,0"
         style="fill:#000000;fill-opacity:1;fill-rule:nonzero;stroke:none"
         id="path230"
         inkscape:connector-curvature="0" /></g><text
       transform="matrix(0,1,1,0,356.46,418.5505)"
       style="font-variant:normal;font-weight:normal;font-stretch:normal;font-size:12.30000019px;font-family:Calibri;-inkscape-font-specification:Calibri;writing-mode:lr-tb;fill:#000000;fill-opacity:1;fill-rule:nonzero;stroke:none"
       id="text232"><tspan
         x="0 6.5608201 13.04784 22.880461 29.34288 35.805302 39.826172 45.95649"
         y="0"
         sodipodi:role="line"
         id="tspan234">Computer</tspan></text>
<g
       id="g236"
       transform="translate(353.1,411.231)"><path
         d="m 0,0 -0.6,0 -0.6,0.18 c -13.087,4.856 -13.113,59.584 0,64.56 l 0.6,0.12 0.6,0.06 0.6,-0.06 C 8.394,63.383 10.843,43.388 10.92,37.32 l 0.12,-1.62 0,-1.62 C 11.398,26.145 9.795,5.673 2.4,0.72 L 1.8,0.36 0.6,0 0,0 Z m 0.54,0.9 -0.06,0 0.54,0.12 -0.06,-0.06 0.48,0.24 0,-0.06 0.48,0.3 0.48,0.36 0,-0.06 0.48,0.42 0.48,0.48 -0.06,0 0.48,0.6 0,-0.06 0.48,0.66 0,-0.06 0.42,0.72 0.48,0.78 -0.06,-0.06 0.48,0.84 -0.06,0 0.42,0.9 0.42,0.96 0,-0.06 0.36,1.02 0.36,1.08 0,-0.06 0.72,2.28 0.3,1.2 0.3,1.26 0.24,1.26 0.3,1.38 0,-0.06 0.24,1.38 -0.06,0 0.24,1.44 0.18,1.44 0.18,1.5 0.12,1.5 0.12,1.56 0,-0.06 0.12,1.62 c 0.126,2.698 0.187,5.401 0.06,8.1 l -0.06,1.62 0,-0.06 -0.12,1.62 -0.12,1.5 -0.12,1.56 -0.18,1.44 -0.18,1.44 -0.24,1.44 0.06,0 -0.24,1.38 c -0.706,3.493 -1.516,7.004 -3,10.26 l -0.42,0.9 0.06,0 -0.48,0.84 0.06,-0.06 -0.48,0.78 -0.42,0.72 0,-0.06 -0.48,0.66 -0.48,0.54 0.06,0 -0.48,0.48 -0.48,0.42 -0.48,0.36 0,-0.06 -0.48,0.3 0.06,-0.06 -0.54,0.24 0.06,-0.06 -0.54,0.12 0.06,0 -0.54,0.06 0.06,0 -0.54,-0.06 0.06,0 -0.54,-0.12 0.06,0.06 -0.54,-0.24 0.06,0.06 -0.54,-0.3 0.06,0.06 -0.54,-0.36 0.06,0 -0.54,-0.42 0.06,0 -0.54,-0.48 0.06,0 -0.48,-0.54 -0.48,-0.66 0,0.06 -0.42,-0.72 -0.42,-0.78 0,0.06 -0.42,-0.84 C -7.863,54.037 -8.846,48.601 -9.54,43.38 l -0.18,-1.5 0,0.06 -0.12,-1.56 -0.12,-1.5 -0.12,-1.62 0,0.06 -0.06,-1.62 c -0.024,-2.8 -0.131,-5.273 0.06,-8.1 l 0.12,-1.62 0,0.06 0.12,-1.56 0.12,-1.5 0.18,-1.5 0.18,-1.44 0.24,-1.44 0.24,-1.38 0,0.06 0.24,-1.38 0.24,-1.26 0.3,-1.26 0.3,-1.2 0.72,-2.28 0,0.06 0.36,-1.08 0.36,-1.02 0,0.06 0.42,-0.96 0.42,-0.9 0.42,-0.84 0,0.06 0.42,-0.78 0.42,-0.72 0,0.06 0.48,-0.66 0,0.06 0.48,-0.6 -0.06,0 0.54,-0.48 -0.06,0 0.54,-0.42 -0.06,0.06 0.54,-0.36 -0.06,0 0.54,-0.3 L -1.44,1.2 -0.9,0.96 -0.96,1.02 -0.42,0.9 -0.48,0.9 0.06,0.84 0,0.84"
         style="fill:#000000;fill-opacity:1;fill-rule:nonzero;stroke:none"
         id="path238"
         inkscape:connector-curvature="0" /></g><g
       id="g240"
       transform="translate(117.66,384.111)"><path
         d="M 0,0 65.58,25.56 65.76,25.14 0.12,-0.36 0,0 Z m 63.9,27.48 5.88,-0.54 -3.96,-4.32"
         style="fill:#70ad47;fill-opacity:1;fill-rule:nonzero;stroke:none"
         id="path242"
         inkscape:connector-curvature="0" /></g><g
       id="g244"
       transform="translate(124.74,452.031)"><path
         d="m 0,0 12.48,-13.02 0.3,0.3 L 0.3,0.3 0,0 Z m 10.14,-14.1 5.52,-1.98 -1.74,5.64"
         style="fill:#70ad47;fill-opacity:1;fill-rule:nonzero;stroke:none"
         id="path246"
         inkscape:connector-curvature="0" /></g><g
       id="g248"
       transform="translate(121.62,434.151)"><path
         d="m 0,0 73.62,-80.1 0.3,0.3 L 0.3,0.3 0,0 Z m 71.22,-81.12 5.52,-2.04 -1.62,5.64"
         style="fill:#70ad47;fill-opacity:1;fill-rule:nonzero;stroke:none"
         id="path250"
         inkscape:connector-curvature="0" /></g><g
       id="g252"
       transform="translate(167.04,325.011)"><path
         d="M 0,0 27.24,23.58 27.54,23.22 0.24,-0.3 0,0 Z m 25.02,24.84 5.7,1.44 -2.28,-5.46"
         style="fill:#70ad47;fill-opacity:1;fill-rule:nonzero;stroke:none"
         id="path254"
         inkscape:connector-curvature="0" /></g><g
       id="g256"
       transform="translate(151.44,420.171)"><path
         d="m 0,0 4.56,-62.1 0.42,0 L 0.42,0 0,0 Z m 2.1,-61.44 3,-5.04 2.22,5.46"
         style="fill:#70ad47;fill-opacity:1;fill-rule:nonzero;stroke:none"
         id="path258"
         inkscape:connector-curvature="0" /></g><g
       id="g260"
       transform="translate(159,424.491)"><path
         d="m 0,0 39.72,-55.92 0.36,0.3 L 0.36,0.24 0,0 Z m 37.26,-56.58 5.22,-2.76 -0.9,5.82"
         style="fill:#70ad47;fill-opacity:1;fill-rule:nonzero;stroke:none"
         id="path262"
         inkscape:connector-curvature="0" /></g><g
       id="g264"
       transform="translate(191.22,423.951)"><path
         d="M 0,0 -24.78,9.96 -24.96,9.54 -0.12,-0.42 0,0 Z m -23.1,11.88 -5.82,-0.48 3.9,-4.38"
         style="fill:#70ad47;fill-opacity:1;fill-rule:nonzero;stroke:none"
         id="path266"
         inkscape:connector-curvature="0" /></g><g
       id="g268"
       transform="translate(205.98,397.731)"><path
         d="M 0,0 1.8,-22.38 2.22,-22.32 0.42,0.06 0,0 Z m -0.66,-21.66 3.06,-5.04 2.16,5.46"
         style="fill:#70ad47;fill-opacity:1;fill-rule:nonzero;stroke:none"
         id="path270"
         inkscape:connector-curvature="0" /></g><g
       id="g272"
       transform="translate(244.26,535.671)"><path
         d="m 0,0 -26.82,-166.2 -0.48,0.06 L -0.48,0.06 0,0 Z m -24.3,-165.72 -3.48,-4.8 -1.74,5.64"
         style="fill:#ff0000;fill-opacity:1;fill-rule:nonzero;stroke:none"
         id="path274"
         inkscape:connector-curvature="0" /></g><g
       id="g276"
       transform="translate(306.42,188.571)"><path
         d="M 0,0 -87.48,144.6 -87.84,144.36 -0.36,-0.24 0,0 Z m -84.96,145.08 -4.98,3.12 0.48,-5.88"
         style="fill:#ff0000;fill-opacity:1;fill-rule:nonzero;stroke:none"
         id="path278"
         inkscape:connector-curvature="0" /></g><g
       id="g280"
       transform="translate(180.84,178.311)"><path
         d="M 0,0 26.52,148.92 27,148.86 0.42,-0.12 0,0 Z m 24,148.5 3.54,4.74 1.68,-5.64"
         style="fill:#ff0000;fill-opacity:1;fill-rule:nonzero;stroke:none"
         id="path282"
         inkscape:connector-curvature="0" /></g><g
       id="g284"
       transform="translate(149.1,205.311)"><path
         d="M 0,0 50.52,127.5 50.94,127.32 0.42,-0.18 0,0 Z m 48,127.56 4.38,3.9 0.48,-5.82"
         style="fill:#ff0000;fill-opacity:1;fill-rule:nonzero;stroke:none"
         id="path286"
         inkscape:connector-curvature="0" /></g><g
       id="g288"
       transform="translate(209.22,119.391)"><path
         d="m 0,0 -0.6,207.78 -0.48,0 L -0.48,0 0,0 Z m 1.8,206.88 -2.64,5.28 -2.64,-5.28"
         style="fill:#ff0000;fill-opacity:1;fill-rule:nonzero;stroke:none"
         id="path290"
         inkscape:connector-curvature="0" /></g><g
       id="g292"
       transform="translate(342,443.811)"><path
         d="m 0,0 -119.4,-90.06 -0.24,0.36 L -0.3,0.36 0,0 Z m -117.24,-91.44 -5.76,-1.08 2.58,5.28"
         style="fill:#ff0000;fill-opacity:1;fill-rule:nonzero;stroke:none"
         id="path294"
         inkscape:connector-curvature="0" /></g><g
       id="g296"
       transform="translate(159.18,446.331)"><path
         d="m 0,0 3.48,-0.06 3.48,-0.12 c 14.501,-0.547 30.246,-2.892 44.1,-7.38 l 2.58,-0.84 2.4,-0.9 c 5.589,-2.173 16.9,-7.103 18.24,-13.8 l 0.24,-2.28 0,0.06 0.3,-1.14 0,0.06 0.48,-1.14 0.72,-1.08 0.9,-1.08 1.08,-1.08 1.26,-1.08 1.44,-1.08 -0.06,0.06 1.62,-1.08 c 7.043,-4.302 15.529,-6.897 23.46,-9 l 2.94,-0.66 -0.06,0 3.06,-0.66 3.12,-0.66 3.12,-0.54 3.24,-0.54 6.6,-0.84 3.42,-0.36 -0.06,0 3.42,-0.3 3.42,-0.24 3.48,-0.18 2.58,-0.06 -0.06,-0.42 -2.52,0.06 -3.48,0.18 c -13.359,0.708 -27.894,3.074 -40.68,7.2 l -2.52,0.84 -2.46,0.9 c -5.917,2.445 -16.564,6.79 -18.24,13.8 l -0.06,1.14 -0.12,1.14 0,-0.06 -0.3,1.14 0,-0.06 -0.54,1.14 -0.72,1.08 0.06,0 -0.96,1.08 0.06,0 -1.14,1.08 0.06,0 -1.26,1.08 -1.44,1.08 0,-0.06 -1.62,1.08 -1.74,1.02 -1.92,1.02 0.06,0 -2.1,0.96 0.06,0 -2.22,0.96 -2.28,0.9 -2.46,0.9 -2.52,0.84 -2.7,0.84 -2.76,0.78 0.06,0 -2.88,0.78 -2.94,0.66 -3.06,0.66 0.06,0 -3.12,0.66 C 23.669,-1.781 13.573,-0.746 3.48,-0.48 L 0,-0.48 0,0 Z m 143.16,-45.6 5.22,-2.7 -5.34,-2.52"
         style="fill:#ff0000;fill-opacity:1;fill-rule:nonzero;stroke:none"
         id="path298"
         inkscape:connector-curvature="0" /></g><g
       id="g300"
       transform="translate(255.06,556.13)"><path
         d="m 0,0 58.2,-147.12 0.36,0.18 L 0.42,0.18 0,0 Z m 55.62,-147.18 4.38,-3.9 0.48,5.82"
         style="fill:#ff0000;fill-opacity:1;fill-rule:nonzero;stroke:none"
         id="path302"
         inkscape:connector-curvature="0" /></g><g
       id="g304"
       transform="translate(351.36,173.931)"><path
         d="M 0,0 -35.22,179.1 -35.7,179.04 -0.42,-0.12 0,0 Z m -32.7,178.74 -3.6,4.62 -1.56,-5.64"
         style="fill:#ff0000;fill-opacity:1;fill-rule:nonzero;stroke:none"
         id="path306"
         inkscape:connector-curvature="0" /></g><g
       id="g308"
       transform="translate(328.32,229.731)"><path
         d="M 0,0 -13.2,123.84 -13.62,123.78 -0.42,-0.06 0,0 Z m -10.74,123.24 -3.18,4.98 -2.04,-5.52"
         style="fill:#ff0000;fill-opacity:1;fill-rule:nonzero;stroke:none"
         id="path310"
         inkscape:connector-curvature="0" /></g><g
       id="g312"
       transform="translate(306.06,188.451)"><path
         d="m 0,0 1.2,171.48 0.48,0 L 0.42,0 0,0 Z m -1.2,170.58 2.7,5.28 2.58,-5.28"
         style="fill:#ff0000;fill-opacity:1;fill-rule:nonzero;stroke:none"
         id="path314"
         inkscape:connector-curvature="0" /></g><g
       id="g316"
       transform="translate(216.3,107.751)"><path
         d="M 0,0 89.58,252.48 90,252.36 0.42,-0.12 0,0 Z m 87,252.48 4.26,4.08 0.72,-5.88"
         style="fill:#ff0000;fill-opacity:1;fill-rule:nonzero;stroke:none"
         id="path318"
         inkscape:connector-curvature="0" /></g><g
       id="g320"
       transform="translate(208.62,410.871)"><path
         d="m 0,0 90.9,-27.54 0.18,0.42 L 0.12,0.42 0,0 Z m 89.4,-29.64 5.76,1.02 -4.26,4.02"
         style="fill:#ff0000;fill-opacity:1;fill-rule:nonzero;stroke:none"
         id="path322"
         inkscape:connector-curvature="0" /></g><g
       id="g324"
       transform="translate(121.74,470.331)"><path
         d="m 0,0 9.06,-0.06 9,-0.3 c 42.156,-1.848 87.775,-8.933 127.44,-24.18 l 3.06,-1.2 3,-1.26 c 12.938,-5.488 33.428,-15.781 39.6,-29.28 l 0.66,-1.5 0.36,-1.62 -0.42,-0.12 -0.36,1.62 -0.6,1.5 0,-0.06 -0.78,1.5 -0.84,1.44 -1.02,1.5 0.06,-0.06 -1.14,1.5 c -2.729,3.277 -5.754,6.045 -9.18,8.58 l -1.92,1.38 0.06,0 -2.04,1.38 -2.16,1.38 c -9.141,5.757 -19.469,10.345 -29.58,14.1 l -3.24,1.2 -3.24,1.14 c -21.075,7.196 -43.063,12.127 -65.04,15.54 l -8.52,1.2 -8.7,1.14 0,-0.06 -8.76,0.96 -8.82,0.78 -8.94,0.6 -8.94,0.48 -9,0.24 L 0,-0.42 0,0 Z m 194.4,-58.14 -1.68,-5.64 -3.48,4.74"
         style="fill:#ff0000;fill-opacity:1;fill-rule:nonzero;stroke:none"
         id="path326"
         inkscape:connector-curvature="0" /></g><g
       id="g328"
       transform="translate(371.82,377.451)"><path
         d="M 0,0 -42.36,4.56 -42.42,4.08 -0.06,-0.48 0,0 Z m -41.28,6.84 -5.46,-2.04 4.92,-3.18"
         style="fill:#70ad47;fill-opacity:1;fill-rule:nonzero;stroke:none"
         id="path330"
         inkscape:connector-curvature="0" /></g><g
       id="g332"
       transform="translate(382.62,357.231)"><path
         d="m 0,0 -15.06,-36.06 -0.42,0.18 L -0.42,0.18 0,0 Z m -12.48,-36.18 -4.5,-3.84 -0.36,5.88"
         style="fill:#70ad47;fill-opacity:1;fill-rule:nonzero;stroke:none"
         id="path334"
         inkscape:connector-curvature="0" /></g><g
       id="g336"
       transform="translate(382.62,397.191)"><path
         d="M 0,0 -17.64,42.84 -18.06,42.66 -0.42,-0.12 0,0 Z m -15.06,42.9 -4.44,3.9 -0.42,-5.88"
         style="fill:#70ad47;fill-opacity:1;fill-rule:nonzero;stroke:none"
         id="path338"
         inkscape:connector-curvature="0" /></g><g
       id="g340"
       transform="translate(345.72,420.891)"><path
         d="m 0,0 -19.92,-19.92 -0.3,0.3 L -0.3,0.3 0,0 Z m -17.58,-21 -5.58,-1.86 1.86,5.58"
         style="fill:#70ad47;fill-opacity:1;fill-rule:nonzero;stroke:none"
         id="path342"
         inkscape:connector-curvature="0" /></g><g
       id="g344"
       transform="translate(355.26,346.011)"><path
         d="m 0,0 -1.8,61.26 -0.42,0 L -0.42,0 0,0 Z m 0.6,60.48 -2.76,5.16 -2.46,-5.34"
         style="fill:#70ad47;fill-opacity:1;fill-rule:nonzero;stroke:none"
         id="path346"
         inkscape:connector-curvature="0" /></g><g
       id="g348"
       transform="translate(347.7,337.731)"><path
         d="M 0,0 -21.96,23.52 -22.32,23.22 -0.36,-0.3 0,0 Z m -19.62,24.54 -5.52,2.04 1.68,-5.64"
         style="fill:#70ad47;fill-opacity:1;fill-rule:nonzero;stroke:none"
         id="path350"
         inkscape:connector-curvature="0" /></g><g
       id="g352"
       transform="translate(109.98,350.991)"><path
         d="m 0,0 0.06,-4.74 0.3,-4.68 c 3.302,-48.261 32.395,-93.137 67.5,-124.92 l 4.02,-3.54 4.08,-3.54 c 40.003,-33.324 90.905,-56.018 143.22,-58.86 l 5.4,-0.24 0.96,0 0,0.48 -0.96,0 c -8.856,0.147 -18.065,1.123 -26.82,2.46 l -5.34,0.9 0.06,0 -5.34,1.02 c -39.089,8.226 -75.598,26.286 -106.74,51.18 l -4.2,3.42 0.06,0 -4.08,3.48 C 37.362,-107.358 8.256,-65.159 1.74,-18.72 l -0.54,4.68 0,-0.06 -0.42,4.74 0,-0.06 L 0.54,-4.68 0.42,0 0,0 Z m 224.64,-202.92 5.28,2.58 -5.22,2.7"
         style="fill:#ff0000;fill-opacity:1;fill-rule:nonzero;stroke:none"
         id="path354"
         inkscape:connector-curvature="0" /></g><g
       id="g356"
       transform="translate(114.06,477.651)"><path
         d="M 0,0 44.76,58.38 45.12,58.08 0.36,-0.24 0,0 Z m 42.3,59.1 5.28,2.58 -1.08,-5.76"
         style="fill:#ff0000;fill-opacity:1;fill-rule:nonzero;stroke:none"
         id="path358"
         inkscape:connector-curvature="0" /></g><g
       id="g360"
       transform="translate(120.84,470.811)"><path
         d="m 0,0 26.4,1.44 c 26.687,1.437 53.441,2.967 80.16,3.66 l 5.58,0.12 5.46,0.06 c 19.786,0.183 39.726,-0.768 59.46,0.54 l 4.32,0.36 1.08,0.12 -0.06,0 1.08,0.18 1.02,0.18 1.08,0.18 2.04,0.48 2.04,0.54 -0.06,0 2.04,0.66 1.98,0.66 -0.06,0 1.98,0.78 1.92,0.84 1.86,0.84 c 9.74,4.049 22.85,13.887 33.9,9.06 l 1.56,-0.72 0.78,-0.48 c 6.739,-4.301 12.211,-12.136 16.62,-18.66 l 1.56,-2.58 1.62,-2.64 c 8.646,-14.912 15.155,-31.042 19.56,-47.7 l 0.84,-3.48 0.78,-3.42 0.72,-3.42 0.6,-3.42 0.54,-3.42 0.42,-3.36 c 1.847,-18.538 0.508,-37.67 -1.74,-56.1 l -1.14,-8.64 -1.32,-8.58 c -2.831,-16.184 -6.218,-32.321 -11.58,-47.88 l -0.96,-2.7 -0.54,-1.32 -0.48,-1.32 c -7.091,-17.243 -17.734,-28.536 -34.26,-37.32 l -1.68,-0.9 -3.42,-1.74 -2.82,-1.44 -0.24,0.42 2.88,1.38 c 3.314,1.761 6.878,3.458 10.02,5.52 l 1.62,1.02 0,-0.06 1.62,1.08 c 2.815,1.783 5.285,3.831 7.8,6 l 1.5,1.38 -0.06,0 1.5,1.44 0,-0.06 1.44,1.5 1.38,1.62 0,-0.06 1.38,1.68 c 7.168,8.731 11.718,19.299 14.88,30.06 l 0.96,3.24 0,-0.06 0.96,3.42 c 7.114,26.434 11.461,54.81 12.6,82.08 l 0.12,4.08 0,-0.06 0,4.02 c 0.262,18.304 -2.901,35.067 -8.88,52.32 l -2.4,6.72 0,-0.06 -2.64,6.54 c -6.078,14.073 -14.903,31.065 -26.22,41.64 l -1.56,1.32 0.06,0 -0.78,0.54 c -1.306,0.943 -3.035,1.999 -4.56,2.52 l -0.78,0.24 0.06,0 -0.78,0.18 c -6.409,1.614 -12.918,-1.039 -18.66,-3.66 l -1.74,-0.84 0.06,0 -1.8,-0.84 -1.74,-0.9 -1.8,-0.9 c -5.158,-2.51 -9.749,-4.847 -15.3,-6.48 L 187.74,6.9 186.66,6.6 C 180.584,5.282 174.304,5.251 168.12,4.92 l -4.68,-0.12 -9.54,-0.12 -4.92,0 c -14.14,0.067 -28.285,0.389 -42.42,0 L 95.22,4.32 C 76.632,3.616 58.057,2.684 39.48,1.74 L 26.46,1.02 0,-0.42 0,0 Z m 220.68,-242.34 -5.88,0.06 3.6,4.68"
         style="fill:#ff0000;fill-opacity:1;fill-rule:nonzero;stroke:none"
         id="path362"
         inkscape:connector-curvature="0" /></g><g
       id="g364"
       transform="translate(164.04,304.251)"><path
         d="m 0,0 2.52,0.06 2.52,0.12 c 45.963,3.418 85.453,45.86 97.74,88.14 l 0.72,2.7 0.72,2.76 0.6,2.7 0.54,2.76 c 1.079,5.239 1.644,11.269 1.86,16.62 l 0,2.76 -0.12,11.1 c -0.233,14.279 -1.062,28.384 -2.34,42.6 l -0.48,4.98 -0.54,4.86 -0.54,4.68 c -1.913,14.096 -4.134,31.167 -9.6,44.46 l -0.48,0.9 -0.42,0.84 -1.08,1.32 -0.36,-0.3 1.08,-1.26 0,0.06 0.42,-0.84 0.42,-0.9 0.84,-2.04 0.42,-1.14 0,0.06 0.42,-1.2 c 5.449,-16.989 7.648,-36.784 9.48,-54.48 l 0.42,-5.1 0,0.06 0.42,-5.16 0.36,-5.28 0.3,-5.34 c 0.661,-13.694 1.481,-27.46 0.6,-41.16 l -0.24,-2.76 -0.36,-2.76 c -0.908,-6.445 -2.288,-12.833 -4.32,-19.02 l -0.9,-2.7 -0.9,-2.64 -1.02,-2.64 C 87.315,49.554 66.28,24.808 39.18,10.56 l -2.34,-1.14 -2.4,-1.14 0.06,0 -2.4,-1.02 -2.46,-1.02 0.06,0 -2.46,-0.9 C 21.668,3.316 15.882,1.941 10.02,1.08 L 7.5,0.78 7.5,0.84 4.98,0.6 2.52,0.48 0,0.42 0,0 Z m 93.84,235.62 -5.7,1.44 2.28,-5.46"
         style="fill:#ff0000;fill-opacity:1;fill-rule:nonzero;stroke:none"
         id="path366"
         inkscape:connector-curvature="0" /></g><g
       id="g368"
       transform="translate(150.84,451.311)"><path
         d="m 0,0 79.68,101.94 0.36,-0.3 L 0.36,-0.3 0,0 Z m 77.22,102.72 5.34,2.52 -1.14,-5.76"
         style="fill:#ff0000;fill-opacity:1;fill-rule:nonzero;stroke:none"
         id="path370"
         inkscape:connector-curvature="0" /></g><g
       id="g372"
       transform="translate(150.84,451.251)"><path
         d="M 0,0 81.72,172.38 82.14,172.2 0.42,-0.18 0,0 Z m 79.14,172.62 4.68,3.66 0.12,-5.88"
         style="fill:#ff0000;fill-opacity:1;fill-rule:nonzero;stroke:none"
         id="path374"
         inkscape:connector-curvature="0" /></g><g
       id="g376"
       transform="translate(206.04,397.611)"><path
         d="m 0,0 133.86,-78.6 0.24,0.36 L 0.24,0.36 0,0 Z m 131.88,-80.22 5.88,-0.42 -3.18,4.92"
         style="fill:#ff0000;fill-opacity:1;fill-rule:nonzero;stroke:none"
         id="path378"
         inkscape:connector-curvature="0" /></g><g
       id="g380"
       transform="translate(198.24,429.171)"><path
         d="M 0,0 -34.38,105.48 -34.8,105.3 -0.42,-0.12 0,0 Z m -31.8,105.36 -4.14,4.2 -0.9,-5.82"
         style="fill:#ff0000;fill-opacity:1;fill-rule:nonzero;stroke:none"
         id="path382"
         inkscape:connector-curvature="0" /></g><g
       id="g384"
       transform="translate(206.52,419.211)"><path
         d="m 0,0 2.76,0.3 c 12.382,1.165 23.489,3.618 35.16,7.86 l 2.04,0.78 -0.06,0 2.1,0.78 c 7.459,3.118 15.025,6.15 21.84,10.56 l 3.06,1.92 -0.06,0 3.18,2.04 3.24,2.28 3.36,2.34 -0.06,0 3.48,2.46 3.48,2.58 3.6,2.58 c 15.293,11.222 30.637,23.277 47.22,32.58 l 3.3,1.74 3.12,1.5 c 4.301,2.032 10.183,4.12 15,3.96 l 1.14,-0.06 1.08,-0.18 1.02,-0.3 1.92,-0.72 c 8.087,-3.428 12.09,-13.224 14.4,-21.06 l 0.78,-2.94 0.72,-3.06 c 2.973,-14.605 3.829,-29.896 4.38,-44.76 l 0.24,-8.4 0.18,-8.52 0.06,-4.2 -0.42,0 -0.06,4.2 0,-0.06 -0.18,8.52 -0.3,8.4 c -0.336,10.46 -0.883,20.928 -2.16,31.32 l -0.48,3.48 -0.48,3.42 c -1.271,7.016 -2.55,13.743 -5.52,20.28 l -1.08,2.28 -1.2,2.1 0.06,0 -1.32,1.98 0.06,-0.06 -1.38,1.8 0,-0.06 -1.5,1.56 0.06,0 -1.62,1.38 0.06,-0.06 -1.68,1.2 0,-0.06 -1.8,0.96 0.06,0 -1.92,0.66 -1.02,0.3 0.06,-0.06 -1.08,0.18 -1.08,0.12 -1.14,0 -1.2,-0.12 0.06,0 -1.26,-0.12 C 141.255,73.691 129.707,65.978 120.6,60.12 l -3.66,-2.46 0.06,0 -3.72,-2.58 -3.72,-2.64 -7.44,-5.4 C 91.467,39.309 81.113,31.328 70.26,23.88 l -3.18,-2.04 -3,-1.92 C 59.107,16.705 54.152,14.478 48.78,12.06 L 46.5,11.1 44.28,10.2 42.18,9.36 C 30.218,4.566 18.406,1.513 5.58,0.18 L 2.82,-0.18 0.06,-0.48 0,0 Z m 184.08,-17.04 -2.52,-5.28 -2.7,5.22"
         style="fill:#ff0000;fill-opacity:1;fill-rule:nonzero;stroke:none"
         id="path386"
         inkscape:connector-curvature="0" /></g><g
       id="g388"
       transform="translate(209.22,410.931)"><path
         d="M 0,0 134.22,57.66 134.34,57.24 0.18,-0.36 0,0 Z m 132.42,59.52 5.88,-0.3 -3.78,-4.5"
         style="fill:#ff0000;fill-opacity:1;fill-rule:nonzero;stroke:none"
         id="path390"
         inkscape:connector-curvature="0" /></g><g
       id="g392"
       transform="translate(169.38,544.25)"><path
         d="M 0,0 1.2,-3.3 2.34,-6.6 3,-8.28 3,-8.22 3.6,-9.9 c 1.318,-3.166 2.756,-6.434 4.44,-9.42 l 0.9,-1.5 0,0.06 0.9,-1.5 c 13.777,-20.65 38.418,-21.885 61.08,-19.92 l 4.2,0.3 -0.06,0 4.32,0.36 4.32,0.42 4.44,0.42 c 23.248,2.141 48.288,6.396 71.7,5.22 l 3.24,-0.3 3.06,-0.36 c 12.282,-1.996 25.266,-4.692 36.48,-10.26 l 1.92,-1.02 1.86,-1.02 1.8,-1.08 1.74,-1.14 c 8.052,-5.475 13.983,-12.783 17.7,-21.78 l 0.78,-2.04 0.66,-2.16 c 5.055,-17.437 1.774,-40.079 -0.9,-57.48 l -1.02,-6.24 -1.14,-6.36 -1.56,-8.52 -0.42,0.12 1.56,8.46 c 2.137,12.308 4.236,24.293 5.16,36.78 l 0.36,5.7 0,-0.06 0.12,5.52 0,2.7 -0.06,2.64 0,-0.06 -0.18,2.58 -0.18,2.52 -0.3,2.46 -0.36,2.4 0,-0.06 -0.42,2.34 -0.48,2.28 -0.6,2.16 -0.66,2.1 -0.78,2.04 0.06,0 -0.9,1.98 0,-0.06 -0.9,1.92 c -1.514,2.998 -3.425,5.781 -5.52,8.4 l -1.26,1.56 0,-0.06 -1.38,1.5 c -3.228,3.323 -7.143,6.278 -11.16,8.58 l -1.86,1.02 0.06,0 -1.92,0.96 c -3.324,1.686 -6.978,3.102 -10.5,4.32 l -2.34,0.72 0.06,0 -2.4,0.72 -2.4,0.66 -5.04,1.2 -2.64,0.6 -2.7,0.54 0.06,0 -2.76,0.54 -2.82,0.48 -2.88,0.48 0,-0.06 -3.06,0.42 -3.18,0.3 -3.42,0.12 c -22.294,0.547 -46.078,-3.265 -68.22,-5.34 l -4.44,-0.48 -4.38,-0.36 C 65.828,-43.057 49.236,-44.612 36,-40.92 l -1.2,0.36 -2.28,0.72 C 15.682,-34.023 7.918,-23.259 1.98,-6.78 l -1.2,3.36 -1.14,3.3 L 0,0 Z m 226.98,-154.8 -3.54,-4.68 -1.62,5.64"
         style="fill:#ff0000;fill-opacity:1;fill-rule:nonzero;stroke:none"
         id="path394"
         inkscape:connector-curvature="0" /></g><g
       id="g396"
       transform="translate(255,562.31)"><path
         d="m 0,0 7.92,-0.3 3.96,-0.24 c 8.167,-0.442 16.139,-1.123 24.18,-2.7 l 4.14,-0.9 4.14,-1.02 c 7.368,-1.99 14.673,-4.568 21.48,-8.04 l 2.28,-1.02 2.34,-1.08 -0.06,0 2.46,-0.96 -0.06,0 2.52,-1.02 5.04,-1.92 5.28,-1.98 c 16.533,-6.2 31.998,-12.966 43.8,-26.64 l 2.1,-2.58 1.98,-2.76 c 9.644,-13.875 13.061,-32.747 15.54,-49.14 l 0.78,-5.52 0.66,-5.7 0.66,-5.82 0.54,-6 c 3.172,-39.108 2.819,-79.376 -0.48,-118.5 l -0.48,-5.34 -0.6,-5.22 c -4.044,-37.818 -15.576,-73.088 -30.42,-108 l -3.48,-8.22 -3.6,-8.1 -5.46,-12.24 -0.36,0.18 5.4,12.24 c 8.478,19.054 16.655,38.703 23.04,58.56 l 2.76,8.82 0,-0.06 2.58,9 c 10.76,38.844 12.414,79.443 12.84,119.52 l -0.12,13.02 0,-0.06 -0.3,12.96 c -1.261,29.168 -2.71,59.063 -11.7,87.06 l -1.38,3.66 0,-0.06 -1.5,3.48 -1.68,3.24 -1.74,3.12 0,-0.06 -1.86,2.94 c -6.789,9.787 -15.555,16.87 -26.04,22.38 l -2.7,1.38 0.06,0 -2.76,1.32 0.06,0 -2.76,1.26 -2.7,1.2 c -10.168,4.287 -20.755,7.529 -30.66,12.3 l -2.22,1.02 -2.16,1.02 c -11.898,5.193 -24.527,8.351 -37.44,9.6 l -4.02,0.42 -4.02,0.3 0.06,0 -4.02,0.24 L -0.06,-0.42 0,0 Z m 109.74,-391.14 -4.56,-3.72 -0.24,5.88"
         style="fill:#ff0000;fill-opacity:1;fill-rule:nonzero;stroke:none"
         id="path398"
         inkscape:connector-curvature="0" /></g><g
       id="g400"
       transform="translate(252.12,541.07)"><path
         d="m 0,0 0.42,-0.06 -0.06,0 0.48,-0.18 -0.06,0 0.48,-0.36 -0.06,0.06 0.42,-0.48 c 1.076,-1.374 1.568,-2.691 2.16,-4.32 l 0.42,-1.26 0,0.06 0.48,-1.38 0.42,-1.5 0.42,-1.62 0.42,-1.68 0.42,-1.8 0.42,-1.98 0,0.06 0.42,-2.04 c 1.561,-8.584 2.859,-17.127 3.84,-25.8 l 0.42,-3.06 0,0.06 0.3,-3.18 c 3.304,-29.58 4.982,-59.491 6,-89.22 l 0.3,-8.82 0,0.06 0.24,-8.94 0.18,-8.94 c 0.2,-18.097 0.735,-36.247 -0.9,-54.3 l -0.84,-9 -1.02,-8.88 C 13.042,-258.519 8.775,-278.036 2.7,-297.3 l -2.58,-7.68 -1.32,-3.78 0,0.06 -1.38,-3.72 -1.44,-3.66 0.06,0 -1.5,-3.54 c -7.022,-17.161 -16.426,-34.897 -28.86,-48.78 l -1.92,-2.04 0,0.06 -1.92,-1.98 0.06,0 -1.98,-1.8 -1.92,-1.68 -1.98,-1.62 0.06,0 -1.98,-1.5 c -3.44,-2.379 -6.085,-3.966 -9.96,-5.58 l -2.04,-0.72 0.06,0 -2.04,-0.6 -2.04,-0.48 -1.68,-0.24 0,-0.42 1.8,0.18 2.04,0.54 2.04,0.6 c 17.263,5.859 31.266,24.651 39.96,39.84 l 1.74,2.94 1.62,3.12 c 20.849,39.581 31.334,88.387 33.3,132.66 l 0.12,4.56 0.12,4.5 0,4.56 -0.12,18.12 c -0.605,43.624 -2.499,87.778 -7.5,131.16 l -0.36,3 -0.42,2.88 -0.36,2.82 c -0.947,6.985 -2.074,14.176 -3.6,21.06 l -0.42,1.86 -0.42,1.68 C 5.193,-8.01 3.86,-3.168 1.98,-0.78 L 1.5,-0.24 1.02,0.12 0.54,0.36 0.06,0.42 0,0 Z m -62.94,-384.12 -5.04,-3.06 5.52,-2.16"
         style="fill:#ff0000;fill-opacity:1;fill-rule:nonzero;stroke:none"
         id="path402"
         inkscape:connector-curvature="0" /></g><g
       id="g404"
       transform="translate(234.84,565.61)"><path
         d="m 0,0 -4.5,4.68 c -5.877,5.911 -11.758,12.054 -18,17.58 l -2.22,1.98 0,-0.06 -2.22,1.92 -2.22,1.86 -2.22,1.74 -2.28,1.62 0.06,0 -2.28,1.56 0.06,0 -2.28,1.44 0.06,0 -2.22,1.38 -2.22,1.2 -2.22,1.14 0,-0.06 -2.22,1.02 -2.22,0.84 0.06,0 -2.22,0.66 -2.22,0.6 0.06,-0.06 -2.22,0.42 -2.16,0.24 -2.22,0.06 0.06,0 -2.22,-0.06 0.06,0 -2.22,-0.3 0.06,0 -2.22,-0.48 0.06,0 -2.22,-0.66 0.06,0 -2.16,-0.84 c -10.213,-4.454 -19.622,-8.74 -28.32,-15.9 l -2.46,-2.04 0.06,0 -2.46,-2.22 -2.34,-2.4 0,0.06 -2.34,-2.58 c -4.13,-4.69 -8.173,-10.477 -11.16,-16.02 l -1.08,-1.98 0,0.06 -2.04,-4.08 c -13.718,-29.293 -16.902,-63.019 -19.44,-94.86 l -0.3,-4.56 -0.3,-4.68 c -4.825,-86.812 -1.609,-175.057 0.66,-261.9 l 0.84,-26.94 0.66,-22.62 -0.42,0 -0.72,22.62 -0.78,26.94 -0.42,13.38 c -2.024,77.84 -4.402,156.224 -1.08,234.06 l 0.3,4.92 0.24,4.8 c 1.882,30.616 4.303,63.243 13.8,92.58 l 1.8,5.04 0.9,2.46 0.96,2.34 c 9.684,23.33 22.963,38.988 46.2,49.86 l 2.34,1.08 2.28,1.02 4.44,1.98 c 8.044,3.539 16.28,2.894 24.24,-0.48 l 2.22,-0.96 2.22,-1.08 c 9.097,-4.958 17.108,-11.806 24.6,-18.9 L -13.2,14.1 -8.7,9.6 -4.2,4.98 0.3,0.3 0,0 Z m -138.42,-422.28 -2.46,-5.34 -2.82,5.16"
         style="fill:#ff0000;fill-opacity:1;fill-rule:nonzero;stroke:none"
         id="path406"
         inkscape:connector-curvature="0" /></g><g
       id="g408"
       transform="translate(244.86,535.13)"><path
         d="m 0,0 0,-8.1 -0.12,-8.1 c -1.502,-73.473 -10.027,-149.518 -28.92,-220.74 l -1.62,-6 -1.68,-5.82 c -7.331,-24.821 -26.727,-85.048 -54.12,-94.86 l -1.14,-0.36 -1.08,-0.18 -0.06,0.48 1.08,0.18 -0.06,-0.06 1.14,0.36 -0.06,0 2.16,0.84 2.16,1.08 2.16,1.32 2.16,1.56 -0.06,0 2.16,1.8 2.16,1.98 -0.06,0 2.16,2.22 2.1,2.4 2.1,2.64 2.1,2.82 2.1,3.06 -0.06,0 2.1,3.24 2.04,3.42 2.04,3.66 0,-0.06 1.98,3.84 c 12.211,24.008 20.509,50.686 27.3,76.68 l 1.62,6.24 -0.06,0 1.56,6.36 1.5,6.48 1.5,6.6 0,-0.06 1.44,6.72 c 12.791,62.281 19.23,126.727 19.8,190.26 L -0.42,0 0,0 Z m -87.48,-346.44 -5.58,1.92 4.86,3.3"
         style="fill:#ff0000;fill-opacity:1;fill-rule:nonzero;stroke:none"
         id="path410"
         inkscape:connector-curvature="0" /></g><g
       id="g412"
       transform="translate(244.86,535.13)"><path
         d="m 0,0 -0.06,-21.36 -0.06,-21.36 c -0.924,-102.692 -3.307,-205.902 -10.02,-308.4 l -0.48,-7.02 -0.48,-6.84 -0.54,-6.6 c -1.325,-17.222 -2.817,-34.525 -5.04,-51.66 l -0.3,-2.1 -0.24,-2.04 c -1.067,-7.197 -2.13,-14.504 -4.02,-21.54 l -0.6,-1.92 -0.72,-1.32 -0.36,0.24 0.72,1.26 -0.06,0 0.3,0.9 c 1.481,4.857 2.308,9.886 3.18,14.88 l 0.3,1.8 -0.06,0 0.3,1.86 0.3,1.92 c 4.862,35.689 7.047,72.193 9.24,108.12 l 0.42,7.92 0.48,8.1 c 4.482,87.427 6.582,174.964 7.2,262.5 l 0.12,21.3 L -0.42,0 0,0 Z m -20.1,-452.82 -5.16,-2.82 0.84,5.82"
         style="fill:#ff0000;fill-opacity:1;fill-rule:nonzero;stroke:none"
         id="path414"
         inkscape:connector-curvature="0" /></g><path
       d="m 244.86,599.271 -0.42,0 0,-17.52 0.42,0 0,17.52 z m -0.42,0 z m -2.4,-16.62 2.58,-5.281 2.64,5.281"
       style="fill:#70ad47;fill-opacity:1;fill-rule:nonzero;stroke:none"
       id="path416"
       inkscape:connector-curvature="0" /><g
       id="g418"
       transform="translate(382.62,397.131)"><path
         d="m 0,0 0,4.92 -0.18,4.92 c -1.682,43.827 -14.25,88.891 -35.88,127.08 l -2.22,3.84 -2.22,3.72 c -17.415,28.183 -45.686,59.816 -80.22,65.04 l -3,0.36 -1.74,0.12 0,-0.42 1.68,-0.12 3,-0.36 3.06,-0.54 -0.06,0 3.06,-0.66 c 20.424,-5.051 37.567,-18.66 51.6,-33.84 l 2.64,-3 0,0.06 2.58,-3.06 2.52,-3.18 0,0.06 2.52,-3.24 2.52,-3.36 -0.06,0 2.46,-3.36 c 11.049,-15.861 20.091,-33.086 27.18,-51.06 l 1.68,-4.38 0,0.06 1.68,-4.44 1.56,-4.44 1.5,-4.56 0,0.06 1.44,-4.56 c 4.189,-14.015 7.444,-28.066 9.6,-42.54 l 0.66,-4.86 0,0.06 0.54,-4.92 C -1.106,21.335 -0.626,13.044 -0.48,4.92 L -0.42,0 0,0 Z m -124.44,212.4 -5.4,-2.4 5.16,-2.88"
         style="fill:#ff0000;fill-opacity:1;fill-rule:nonzero;stroke:none"
         id="path420"
         inkscape:connector-curvature="0" /></g><g
       id="g422"
       transform="translate(345.12,307.011)"><path
         d="m 0,0 0.24,-0.3 0.18,-0.36 0.12,-0.3 c 1.221,-2.506 -4.047,-0.704 -4.74,-0.6 l -0.66,0.18 -0.72,0.24 c -8.618,3.275 -18.098,1.081 -26.94,3.36 l -1.86,0.42 -1.8,0.48 -0.96,0.24 -0.9,0.3 C -44.844,5.834 -51.122,9.977 -56.16,15 l -0.96,0.96 -0.9,1.02 c -12.494,14.279 -18.96,32.756 -26.94,49.68 l -2.16,4.92 -2.1,4.92 -4.32,10.02 0.06,-0.06 -4.32,9.96 c -4.113,9.276 -8.278,18.534 -12.84,27.6 l -2.16,4.02 0.06,0 -2.16,3.84 c -2.599,4.728 -5.794,9.883 -9.24,14.04 l -1.02,1.2 0,-0.06 -0.96,1.14 0,-0.06 -1.98,1.98 0,-0.06 -1.02,0.9 c -2.366,2.093 -4.998,3.889 -7.8,5.34 l -1.02,0.48 0.06,0 -1.02,0.42 -0.96,0.42 -0.96,0.36 0,-0.06 -0.96,0.36 -2.88,0.72 -0.96,0.12 -0.96,0.18 0,-0.06 -0.96,0.12 -0.96,0.06 0.06,0 -0.96,0.06 -0.96,0 -2.88,-0.18 -0.96,-0.12 0.06,0 -2.88,-0.54 -0.9,-0.24 -0.96,-0.24 -0.96,-0.3 0,0.06 -0.96,-0.3 -0.9,-0.36 -1.92,-0.72 0.06,0 -1.92,-0.78 -1.86,-0.84 -1.86,-0.96 0,0.06 -1.92,-1.02 c -3.871,-2.08 -7.512,-4.551 -11.22,-6.9 l -1.92,-1.32 -0.3,0.36 1.98,1.32 1.92,1.26 c 12.496,8.104 26.931,16.259 41.94,9.9 l 1.02,-0.42 0.96,-0.48 0.96,-0.54 c 6.005,-3.286 11.262,-8.366 15.06,-14.04 l 1.02,-1.5 1.02,-1.56 c 12.817,-20.573 22.202,-45.247 31.98,-67.32 l 2.1,-4.92 2.16,-4.8 2.1,-4.68 -0.06,0 2.1,-4.62 2.1,-4.44 2.04,-4.32 2.04,-4.08 -0.06,0 2.04,-3.9 0.96,-1.86 1.02,-1.74 0.96,-1.74 1.02,-1.68 -0.06,0 1.02,-1.62 0.96,-1.5 0.96,-1.44 -0.06,0 0.96,-1.38 0.96,-1.32 0,0.06 0.9,-1.26 c 3.524,-4.303 7.586,-8.404 12.3,-11.4 l 0.96,-0.66 -0.06,0 2.88,-1.62 0.96,-0.48 -0.06,0 0.96,-0.42 c 3.412,-1.605 6.446,-2.493 10.14,-3.3 l 1.8,-0.36 -0.06,0 1.8,-0.24 -0.06,0 1.74,-0.24 3.36,-0.24 -0.06,0 1.62,-0.12 1.56,-0.06 c 4.455,-0.228 8.424,-0.068 12.78,-1.26 l 0.9,-0.36 0.84,-0.24 c 1.766,-0.582 3.562,-1.088 5.4,-1.38 l 0.54,0 -0.06,0 0.24,0 0.12,0.06 0.12,0 0.12,0.06 -0.06,0 0.06,0.06 0,-0.06 0.06,0.12 -0.06,-0.06 0.06,0.06 0,0.06 0,-0.06 -0.06,0.3 0,-0.06 -0.06,0.24 -0.54,0.9 L 0,0 Z m -182.22,143.28 -5.82,-0.78 2.88,5.1"
         style="fill:#ff0000;fill-opacity:1;fill-rule:nonzero;stroke:none"
         id="path424"
         inkscape:connector-curvature="0" /></g><g
       id="g426"
       transform="translate(343.86,167.091)"><path
         d="M 0,0 -14.22,28.86 -14.64,28.68 -0.42,-0.18 0,0 Z m -11.7,29.16 -4.68,3.54 0,-5.88"
         style="fill:#70ad47;fill-opacity:1;fill-rule:nonzero;stroke:none"
         id="path428"
         inkscape:connector-curvature="0" /></g><g
       id="g430"
       transform="translate(343.74,167.151)"><path
         d="M 0,0 -15.9,7.74 -16.14,7.32 -0.18,-0.36 0,0 Z m -14.1,9.54 -5.88,-0.12 3.6,-4.62"
         style="fill:#70ad47;fill-opacity:1;fill-rule:nonzero;stroke:none"
         id="path432"
         inkscape:connector-curvature="0" /></g><g
       id="g434"
       transform="translate(106.14,106.491)"><path
         d="M 0,0 26.28,64.86 26.7,64.74 0.42,-0.18 0,0 Z m 23.7,64.98 4.44,3.9 0.48,-5.88"
         style="fill:#70ad47;fill-opacity:1;fill-rule:nonzero;stroke:none"
         id="path436"
         inkscape:connector-curvature="0" /></g><g
       id="g438"
       transform="translate(106.26,89.031)"><path
         d="M 0,0 91.08,-36.3 91.2,-35.94 0.12,0.42 0,0 Z m 89.34,-38.22 5.88,0.48 -3.9,4.38"
         style="fill:#70ad47;fill-opacity:1;fill-rule:nonzero;stroke:none"
         id="path440"
         inkscape:connector-curvature="0" /></g><g
       id="g442"
       transform="translate(217.98,63.351)"><path
         d="M 0,0 128.52,62.34 128.7,61.98 0.18,-0.36 0,0 Z M 126.72,64.14 132.6,64.08 129,59.4"
         style="fill:#ff0000;fill-opacity:1;fill-rule:nonzero;stroke:none"
         id="path444"
         inkscape:connector-curvature="0" /></g><g
       id="g446"
       transform="translate(166.14,129.291)"><path
         d="m 0,0 -56.1,-29.28 -0.18,0.42 L -0.24,0.36 0,0 Z m -54.18,-30.96 -5.88,-0.12 3.42,4.74"
         style="fill:#70ad47;fill-opacity:1;fill-rule:nonzero;stroke:none"
         id="path448"
         inkscape:connector-curvature="0" /></g><g
       id="g450"
       transform="translate(163.08,154.011)"><path
         d="M 0,0 -11.22,17.76 -11.64,17.52 -0.36,-0.24 0,0 Z m -8.76,18.3 -5.04,3.06 0.6,-5.88"
         style="fill:#70ad47;fill-opacity:1;fill-rule:nonzero;stroke:none"
         id="path452"
         inkscape:connector-curvature="0" /></g><g
       id="g454"
       transform="translate(180.9,129.351)"><path
         d="m 0,0 17.4,-18.6 0.36,0.3 L 0.3,0.3 0,0 Z m 15.06,-19.62 5.52,-2.04 -1.68,5.64"
         style="fill:#70ad47;fill-opacity:1;fill-rule:nonzero;stroke:none"
         id="path456"
         inkscape:connector-curvature="0" /></g><g
       id="g458"
       transform="translate(150.66,199.731)"><path
         d="M 0,0 4.74,3.18 9.42,6.36 C 22.83,15.138 46.078,31.031 63.3,25.2 l 1.8,-0.72 1.8,-0.84 1.74,-1.02 c 2.972,-1.809 5.147,-4.99 6.9,-7.92 l 0.66,-1.2 1.26,-2.58 c 5.832,-12.994 8.849,-27.557 12.72,-41.22 l 1.02,-3.66 2.16,-7.2 0,0.06 1.14,-3.48 c 1.622,-4.869 3.845,-10.687 6.42,-15.12 l 1.5,-2.46 -0.06,0 0.78,-1.14 0.84,-1.08 -0.06,0 0.84,-1.02 c 1.39,-1.71 2.593,-2.755 4.38,-4.02 l 1.98,-1.2 -0.06,0 2.04,-1.02 -0.06,0 2.1,-0.9 -0.06,0 2.1,-0.72 2.16,-0.66 2.22,-0.48 2.22,-0.36 2.34,-0.24 -0.06,0 2.34,-0.18 2.4,0 2.46,0.06 -0.06,0 2.52,0.18 2.46,0.3 2.58,0.36 0,-0.06 2.58,0.48 c 4.522,0.897 8.898,1.999 13.32,3.3 l 5.52,1.8 -0.06,0 5.64,1.92 -0.06,0 5.7,2.16 5.64,2.22 5.76,2.28 1.68,0.66 0.12,-0.36 -1.68,-0.72 -5.7,-2.28 c -18.755,-7.23 -48.701,-19.471 -68.34,-8.1 l -1.98,1.2 -0.96,0.66 -0.9,0.72 c -4.975,4.441 -8.125,11.036 -10.56,17.1 l -1.2,3.24 -1.2,3.36 c -4.811,14.198 -7.837,29.044 -12.42,43.32 l -1.08,3.24 -1.14,3.12 -1.14,3 0,-0.06 -1.26,2.82 -1.26,2.52 -0.66,1.2 -0.66,1.14 -0.72,1.08 0.06,0 -0.72,1.02 -0.78,0.96 0.06,0 -0.78,0.84 c -1.537,1.771 -2.817,2.623 -4.86,3.78 l -1.8,0.84 0.06,0 -1.8,0.66 -1.86,0.54 0.06,0 -1.86,0.36 -1.92,0.24 -1.92,0.12 -1.98,-0.06 0.06,0 -2.04,-0.12 -2.04,-0.3 0.06,0 -2.1,-0.36 C 43.139,24.086 38.988,22.716 34.8,20.7 l -2.22,-1.02 0.06,0 -2.28,-1.14 C 21.513,13.924 13.217,8.441 4.98,2.82 L 0.24,-0.36 0,0 Z m 184.74,-57.6 5.88,-0.42 -3.9,-4.44"
         style="fill:#ff0000;fill-opacity:1;fill-rule:nonzero;stroke:none"
         id="path460"
         inkscape:connector-curvature="0" /></g><g
       id="g462"
       transform="translate(140.94,169.791)"><path
         d="m 0,0 0.12,-4.2 c 0.324,-29.559 19.179,-78.132 51.36,-85.5 l 0.96,-0.06 0,0.42 -0.9,0.06 -1.32,0.3 -1.32,0.36 0.06,0 -2.64,0.84 -2.58,1.14 0,-0.06 -2.58,1.32 0.06,0 -2.58,1.56 c -7.427,4.935 -13.512,11.647 -18.54,18.96 l -2.04,3.12 0.06,0 -1.98,3.18 C 8.848,-45.851 3.837,-31.235 1.74,-16.74 l -0.6,4.14 0.06,0 L 0.78,-8.4 0.54,-4.2 0.42,0 0,0 Z m 51.3,-92.1 5.52,2.1 -4.98,3.12"
         style="fill:#70ad47;fill-opacity:1;fill-rule:nonzero;stroke:none"
         id="path464"
         inkscape:connector-curvature="0" /></g><path
       d="m 229.08,34.431 -151.86,0 0,181.98 151.86,0 0,-181.98 z m -151.86,0 z m 151.44,0.9 -0.42,-0.48 0,181.14 0.42,-0.42 -151.02,0 0.42,0.42 0,-181.14 -0.42,0.48"
       style="fill:#000000;fill-opacity:1;fill-rule:nonzero;stroke:none"
       id="path466"
       inkscape:connector-curvature="0" /><path
       d="m 367.62,118.491 -70.86,0 0,119.22 70.86,0 0,-119.22 z m -70.86,0 z m 70.44,0.9 -0.48,-0.48 0,118.38 0.48,-0.48 -70.02,0 0.48,0.48 0,-118.38 -0.48,0.48"
       style="fill:#000000;fill-opacity:1;fill-rule:nonzero;stroke:none"
       id="path468"
       inkscape:connector-curvature="0" /><path
       d="m 268.02,529.43 -45,0 0,130.08 45,0 0,-130.08 z m -45,0 z m 44.58,0.901 -0.48,-0.48 0,129.18 0.48,-0.421 -44.1,0 0.42,0.421 0,-129.18 -0.42,0.48"
       style="fill:#000000;fill-opacity:1;fill-rule:nonzero;stroke:none"
       id="path470"
       inkscape:connector-curvature="0" /><path
       d="m 177.72,525.11 -39.42,0 0,63.24 39.42,0 0,-63.24 z m -39.42,0 z m 39,0.9 -0.48,-0.479 0,62.4 0.48,-0.421 -38.58,0 0.48,0.421 0,-62.4 -0.48,0.479"
       style="fill:#000000;fill-opacity:1;fill-rule:nonzero;stroke:none"
       id="path472"
       inkscape:connector-curvature="0" /><path
       d="m 229.08,292.011 -132.42,0 0,188.58 132.42,0 0,-188.58 z m -132.42,0 z m 132,0.84 -0.42,-0.42 0,187.74 0.42,-0.42 -131.58,0 0.48,0.42 0,-187.74 -0.48,0.42"
       style="fill:#000000;fill-opacity:1;fill-rule:nonzero;stroke:none"
       id="path474"
       inkscape:connector-curvature="0" /><path
       d="m 399.18,284.751 -103.62,0 0,196.2 103.62,0 0,-196.2 z m -103.62,0 z m 103.14,0.9 -0.42,-0.42 0,195.3 0.42,-0.48 -102.66,0 0.42,0.48 0,-195.3 -0.42,0.42"
       style="fill:#000000;fill-opacity:1;fill-rule:nonzero;stroke:none"
       id="path476"
       inkscape:connector-curvature="0" /><g
       id="g478"><g
         id="g480"
         clip-path="url(#clipPath482)"><g
           id="g486"
           clip-path="url(#clipPath488)"><path
             d="m 314.28,17.511 89.22,0 0,89.76 -89.22,0 0,-89.76 z"
             style="fill:#e7e6e6;fill-opacity:1;fill-rule:nonzero;stroke:none"
             id="path492"
             inkscape:connector-curvature="0" /></g></g></g><g
       id="g494"><g
         id="g496"
         clip-path="url(#clipPath498)"><g
           id="g502"
           clip-path="url(#clipPath504)"><g
             id="g508"
             transform="translate(314.28,17.151)"><path
               d="m 0,0 c -0.18,0 -0.36,0.18 -0.36,0.36 l 0,89.76 c 0,0.18 0.18,0.36 0.36,0.36 l 89.22,0 c 0.18,0 0.36,-0.18 0.36,-0.36 l 0,-89.76 C 89.58,0.18 89.4,0 89.22,0 L 0,0 Z m 89.22,0.66 -0.3,-0.3 0,89.76 0.3,-0.3 -89.22,0 0.3,0.3 0,-89.76 -0.3,0.3"
               style="fill:#000000;fill-opacity:1;fill-rule:nonzero;stroke:none"
               id="path510"
               inkscape:connector-curvature="0" /></g></g></g></g><path
       d="m 314.28,17.511 89.22,0 0,89.76 -89.22,0 0,-89.76 z"
       style="fill:#e7e6e6;fill-opacity:1;fill-rule:nonzero;stroke:none"
       id="path512"
       inkscape:connector-curvature="0" /><g
       id="g514"
       transform="translate(314.28,17.151)"><path
         d="m 0,0 c -0.18,0 -0.36,0.18 -0.36,0.36 l 0,89.76 c 0,0.18 0.18,0.36 0.36,0.36 l 89.22,0 c 0.18,0 0.36,-0.18 0.36,-0.36 l 0,-89.76 C 89.58,0.18 89.4,0 89.22,0 L 0,0 Z m 89.22,0.66 -0.3,-0.3 0,89.76 0.3,-0.3 -89.22,0 0.3,0.3 0,-89.76 -0.3,0.3"
         style="fill:#000000;fill-opacity:1;fill-rule:nonzero;stroke:none"
         id="path516"
         inkscape:connector-curvature="0" /></g><text
       transform="matrix(0,1,1,0,328.5,23.8105)"
       style="font-variant:normal;font-weight:normal;font-stretch:normal;font-size:11.39999962px;font-family:Arial;-inkscape-font-specification:ArialMT;writing-mode:lr-tb;fill:#000000;fill-opacity:1;fill-rule:nonzero;stroke:none"
       id="text518"><tspan
         x="0 8.8783197 16.49124 22.200359 29.81328 38.0532 45.027721 48.206039 55.818958 63.431881"
         y="0"
         sodipodi:role="line"
         id="tspan520">OBJECTIVES</tspan></text>
<path
       d="m 330.54,23.811 -0.84,0 0,70.98 0.84,0 0,-70.98 z"
       style="fill:#000000;fill-opacity:1;fill-rule:evenodd;stroke:none"
       id="path522"
       inkscape:connector-curvature="0" /><text
       transform="matrix(0,1,1,0,342.18,23.8105)"
       style="font-variant:normal;font-weight:normal;font-stretch:normal;font-size:11.39999962px;font-family:Arial;-inkscape-font-specification:ArialMT;writing-mode:lr-tb;fill:#000000;fill-opacity:1;fill-rule:nonzero;stroke:none"
       id="text524"><tspan
         x="0 8.2421999 14.592 20.941799 27.291599 29.833799 32.375999 38.7258 45.0756 48.256199 51.437939 57.787739 64.137543"
         y="0"
         sodipodi:role="line"
         id="tspan526">Coupling: 68 </tspan><tspan
         x="0 8.2421999 14.592 20.941799 27.291599 33.002998 35.5452 41.895 48.244801 51.4254 54.60714 60.95694"
         y="13.68"
         sodipodi:role="line"
         id="tspan528">Cohesion: 23</tspan><tspan
         x="0 9.5075998 18.388201 21.5688 24.80982 31.15962 34.340221 40.690022 47.039822"
         y="27.29958"
         sodipodi:role="line"
         id="tspan530">MQ: 1.964</tspan><tspan
         x="0 9.4973402 12.02928 18.36882 27.866159 34.2057 39.84528 48.077221 50.609161 53.610779 56.78112 59.951462 63.252899"
         y="40.97958"
         sodipodi:role="line"
         id="tspan532">MinMaxDiff: 5</tspan><tspan
         x="0 9.50418 15.85056 22.196939 28.54332 31.0821 37.428478 43.136459 46.313641 49.555801"
         y="54.65958"
         sodipodi:role="line"
         id="tspan534">Modules: 6</tspan></text>
<text
       transform="matrix(0,1,1,0,91.08,38.8105)"
       style="font-variant:normal;font-weight:normal;font-stretch:normal;font-size:12.30000019px;font-family:Calibri;-inkscape-font-specification:Calibri;writing-mode:lr-tb;fill:#000000;fill-opacity:1;fill-rule:nonzero;stroke:none"
       id="text536"><tspan
         x="0 10.50051"
         y="0"
         sodipodi:role="line"
         id="tspan538">M1</tspan><tspan
         x="257.4599 267.96042"
         y="18.60006"
         sodipodi:role="line"
         id="tspan540">M2</tspan><tspan
         x="94.620209 105.12072"
         y="219.11958"
         sodipodi:role="line"
         id="tspan542">M3</tspan><tspan
         x="251.52023 262.02075"
         y="287.75974"
         sodipodi:role="line"
         id="tspan544">M4</tspan><tspan
         x="541.50012 552.00061"
         y="148.5594"
         sodipodi:role="line"
         id="tspan546">M5</tspan><tspan
         x="495.47968 505.98019"
         y="59.939129"
         sodipodi:role="line"
         id="tspan548">M6</tspan></text>
</g></svg>