<?xml version="1.0" encoding="UTF-8" standalone="no"?>
<!-- Created with Inkscape (http://www.inkscape.org/) -->

<svg
   xmlns:dc="http://purl.org/dc/elements/1.1/"
   xmlns:cc="http://creativecommons.org/ns#"
   xmlns:rdf="http://www.w3.org/1999/02/22-rdf-syntax-ns#"
   xmlns:svg="http://www.w3.org/2000/svg"
   xmlns="http://www.w3.org/2000/svg"
   xmlns:sodipodi="http://sodipodi.sourceforge.net/DTD/sodipodi-0.dtd"
   xmlns:inkscape="http://www.inkscape.org/namespaces/inkscape"
   id="svg2"
   version="1.1"
   inkscape:version="0.91 r13725"
   xml:space="preserve"
   width="752.89825"
   height="415.14163"
   viewBox="0 0 752.89825 415.14163"
   sodipodi:docname="Modularization_initModel.svg"><metadata
     id="metadata8"><rdf:RDF><cc:Work
         rdf:about=""><dc:format>image/svg+xml</dc:format><dc:type
           rdf:resource="http://purl.org/dc/dcmitype/StillImage" /><dc:title></dc:title></cc:Work></rdf:RDF></metadata><defs
     id="defs6"><clipPath
       clipPathUnits="userSpaceOnUse"
       id="clipPath16"><path
         d="m 534.36,0.11053 -473.58,0 0,841.86 473.58,0 0,-841.86 z"
         id="path18"
         inkscape:connector-curvature="0"
         style="clip-rule:evenodd" /></clipPath><clipPath
       clipPathUnits="userSpaceOnUse"
       id="clipPath22"><path
         d="m 0,841.98 595.2,0 L 595.2,0 0,0 0,841.98 Z"
         id="path24"
         inkscape:connector-curvature="0" /></clipPath></defs><sodipodi:namedview
     pagecolor="#ffffff"
     bordercolor="#666666"
     borderopacity="1"
     objecttolerance="10"
     gridtolerance="10"
     guidetolerance="10"
     inkscape:pageopacity="0"
     inkscape:pageshadow="2"
     inkscape:window-width="1920"
     inkscape:window-height="1178"
     id="namedview4"
     showgrid="false"
     inkscape:zoom="1.0200581"
     inkscape:cx="390.17114"
     inkscape:cy="217.24189"
     inkscape:window-x="-8"
     inkscape:window-y="-8"
     inkscape:window-maximized="1"
     inkscape:current-layer="g10" /><g
     id="g10"
     inkscape:groupmode="layer"
     inkscape:label="Modularization_initModel"
     transform="matrix(0,1.25,1.25,0,-44.3355,-103.18088)"><text
       transform="matrix(0,1,1,0,113.4,74.2705)"
       style="font-variant:normal;font-weight:normal;font-stretch:normal;font-size:12.30000019px;font-family:Calibri;-inkscape-font-specification:Calibri;writing-mode:lr-tb;fill:#000000;fill-opacity:1;fill-rule:nonzero;stroke:none"
       id="text28"><tspan
         x="0 5.64078 8.4525604 11.26434"
         y="0"
         sodipodi:role="line"
         id="tspan30">File</tspan></text>
<g
       id="g32"
       transform="translate(110.1,66.951)"><path
         d="m 0,0 -0.6,0 -0.6,0.06 c -13.19,2.669 -13.151,28.392 0,31.08 l 0.6,0.06 0.6,0 C 13.837,30.358 14.895,3.594 1.68,0.18 L 1.14,0.06 0.54,0 0,0 Z m 0.48,0.84 0.54,0.06 -0.06,0 0.54,0.12 0.48,0.12 0.54,0.18 -0.06,0 0.48,0.18 0.48,0.24 0,-0.06 0.48,0.3 0.42,0.3 0.48,0.3 -0.06,0 0.48,0.36 -0.06,0 0.48,0.36 -0.06,0 0.84,0.84 0.72,0.96 0.36,0.54 -0.06,-0.06 0.36,0.6 0,-0.06 0.6,1.2 0,-0.06 0.54,1.26 -0.06,0 0.24,0.66 0,-0.06 0.24,0.72 0,-0.06 0.18,0.72 0.18,0.66 0.12,0.72 0.12,0.72 0.06,0.72 0.06,0.78 0,-0.06 0.06,0.78 0,1.56 0,-0.06 -0.06,0.78 -0.06,0.78 0,-0.06 -0.06,0.78 -0.12,0.72 0,-0.06 -0.12,0.72 -0.18,0.72 -0.18,0.66 -0.48,1.32 0.06,-0.06 -0.54,1.26 -0.3,0.6 -0.3,0.54 -0.36,0.54 0.06,0 -0.36,0.54 0,-0.06 -0.36,0.54 0,-0.06 L 6.42,27 6,27.48 l 0,-0.06 -0.42,0.42 0.06,0 -0.48,0.42 0.06,-0.06 -0.48,0.42 0.06,-0.06 -0.48,0.36 -0.42,0.3 0,-0.06 -0.48,0.3 -0.48,0.24 -0.48,0.18 0.06,0 -0.54,0.18 0,-0.06 -0.48,0.18 -0.54,0.06 0.06,0 -0.54,0.06 -0.54,0 0.06,0 -0.54,0 -0.54,-0.06 0.06,0 -0.54,-0.06 -0.48,-0.18 0,0.06 -0.96,-0.36 -0.48,-0.24 -0.48,-0.3 0.06,0.06 -0.48,-0.3 -0.48,-0.36 0.06,0 -0.48,-0.36 0.06,0.06 -0.48,-0.42 0.06,0 -0.42,-0.42 0,0.06 -0.42,-0.48 0.06,0 -0.42,-0.48 0,0.06 -0.36,-0.54 0,0.06 -0.36,-0.54 0.06,0 -0.36,-0.54 -0.3,-0.54 -0.3,-0.6 -0.48,-1.26 0,0.06 -0.48,-1.32 -0.18,-0.66 -0.18,-0.72 0.06,0.06 -0.18,-0.72 -0.12,-0.72 -0.06,-0.78 0,0.06 -0.06,-0.78 -0.06,-0.78 0,0.06 0,-1.56 0.06,-0.78 0,0.06 0.06,-0.78 0.06,-0.72 0.12,-0.72 0.18,-0.72 -0.06,0 0.18,-0.72 0,0.06 0.18,-0.72 0.24,-0.66 0,0.06 0.24,-0.66 0.48,-1.26 0,0.06 0.6,-1.2 0,0.06 0.36,-0.6 -0.06,0.06 0.36,-0.54 0.36,-0.48 0.42,-0.48 -0.06,0 0.84,-0.84 -0.06,0 0.48,-0.36 -0.06,0 0.48,-0.36 -0.06,0 0.96,-0.6 -0.06,0 L -3,1.5 -2.04,1.14 -1.56,1.02 -1.02,0.9 l -0.06,0 0.54,-0.06 0.54,0 -0.06,0"
         style="fill:#000000;fill-opacity:1;fill-rule:nonzero;stroke:none"
         id="path34"
         inkscape:connector-curvature="0" /></g><text
       transform="matrix(0,1,1,0,162.3,304.2505)"
       style="font-variant:normal;font-weight:normal;font-stretch:normal;font-size:12.30000019px;font-family:Calibri;-inkscape-font-specification:Calibri;writing-mode:lr-tb;fill:#000000;fill-opacity:1;fill-rule:nonzero;stroke:none"
       id="text36"><tspan
         x="0 5.6457 8.4624004 11.2791 17.404499 22.441351 28.320749 34.778252 37.594952"
         y="0"
         sodipodi:role="line"
         id="tspan38">FileTable</tspan></text>
<g
       id="g40"
       transform="translate(158.94,296.931)"><path
         d="m 0,0 -0.6,0 -0.6,0.12 c -13.103,4.735 -13.103,53.525 0,58.26 l 0.6,0.12 1.2,0 C 8.181,57.243 10.871,39.584 10.92,33.66 l 0.12,-1.44 0,-1.5 C 11.413,23.18 9.674,4.987 2.34,0.6 L 1.8,0.36 1.2,0.12 0.6,0 0,0 Z M 0.54,0.9 0.48,0.9 1.02,1.02 0.96,0.96 1.5,1.14 1.44,1.14 1.98,1.38 1.92,1.38 2.4,1.68 2.88,2.04 3.36,2.46 3.84,3 3.78,2.94 l 0.96,1.2 -0.06,0 0.48,0.66 0.42,0.78 0,-0.06 0.42,0.84 -0.06,0 0.42,0.84 0,-0.06 0.36,0.96 0,-0.06 0.42,0.96 -0.06,0 0.72,2.04 0.3,1.08 0.3,1.14 0,-0.06 0.3,1.2 -0.06,0 0.3,1.2 0.24,1.26 0,-0.06 0.18,1.32 0.18,1.26 0.18,1.38 0,-0.06 0.12,1.38 0.12,1.38 0.12,1.44 0.12,2.88 0,1.5 0,-0.06 0,1.5 c -0.089,2.762 -0.287,5.663 -0.66,8.4 l -0.18,1.32 0,-0.06 -0.18,1.32 -0.24,1.2 -0.3,1.2 0.06,0 -0.3,1.2 0,-0.06 -0.3,1.14 -0.3,1.08 -0.36,1.08 0,-0.06 -0.36,1.02 0.06,0 -0.42,0.96 0,-0.06 -0.36,0.96 0,-0.06 -0.36,0.9 0,-0.06 -0.42,0.84 0,-0.06 -0.42,0.78 -0.48,0.66 0.06,0 -0.48,0.66 0,-0.06 -0.48,0.6 0.06,-0.06 -0.48,0.54 -0.48,0.42 -0.48,0.36 -0.48,0.3 0.06,0 -0.54,0.24 0.06,0 -0.54,0.18 0.06,0 -0.54,0.06 0.06,0 -0.54,0.06 0.06,0 -1.08,-0.12 0.06,0 -0.48,-0.18 -0.48,-0.24 -0.48,-0.3 -0.48,-0.36 -0.48,-0.42 0.06,0 -0.48,-0.54 0,0.06 -0.48,-0.6 0,0.06 -0.42,-0.66 -0.48,-0.66 0.06,0 -0.48,-0.78 0.06,0.06 -0.42,-0.84 0,0.06 -0.42,-0.9 0,0.06 -0.36,-0.96 0,0.06 -0.36,-0.96 -0.36,-1.02 0,0.06 -0.36,-1.08 -0.3,-1.08 -0.3,-1.14 0,0.06 -0.72,-3.6 -0.24,-1.32 0,0.06 -0.18,-1.32 c -0.337,-2.669 -0.645,-5.72 -0.6,-8.4 l -0.06,-1.5 0,0.06 0.06,-1.5 0,-1.44 0.06,-1.44 0.12,-1.44 0.12,-1.38 0.12,-1.38 0,0.06 0.18,-1.38 0.18,-1.26 0.24,-1.32 0,0.06 0.24,-1.26 0.48,-2.4 0,0.06 0.3,-1.14 0.3,-1.08 0.72,-2.04 0.36,-0.96 0,0.06 0.36,-0.96 0,0.06 0.84,-1.68 -0.06,0.06 0.48,-0.78 -0.06,0 0.48,-0.66 0.42,-0.6 0.48,-0.6 0,0.06 0.48,-0.54 -0.06,0 L -2.88,2.04 -2.4,1.68 -1.92,1.38 -1.44,1.14 -0.96,0.96 -1.02,1.02 -0.48,0.9 0.06,0.84 0,0.84"
         style="fill:#000000;fill-opacity:1;fill-rule:nonzero;stroke:none"
         id="path42"
         inkscape:connector-curvature="0" /></g><text
       transform="matrix(0,1,1,0,164.46,92.7505)"
       style="font-variant:normal;font-weight:normal;font-stretch:normal;font-size:12.30000019px;font-family:Calibri;-inkscape-font-specification:Calibri;writing-mode:lr-tb;fill:#000000;fill-opacity:1;fill-rule:nonzero;stroke:none"
       id="text44"><tspan
         x="0 7.5731101 10.39842 14.48325 20.60865 25.82016 29.84103 36.331741 40.633049"
         y="0"
         sodipodi:role="line"
         id="tspan46">Directory</tspan></text>
<g
       id="g48"
       transform="translate(161.1,85.431)"><path
         d="m 0,0 -0.6,0 -0.6,0.12 c -13.138,4.637 -13.132,53.626 0,58.26 l 0.6,0.12 1.2,0 C 8.274,57 10.78,39.775 10.92,33.66 l 0.06,-1.44 0.06,-1.5 C 11.301,22.869 9.786,5.347 2.34,0.6 L 1.8,0.36 1.2,0.12 0.6,0 0,0 Z M 0.54,0.9 0.48,0.9 1.02,1.02 0.96,0.96 1.44,1.14 1.92,1.38 2.4,1.68 2.88,2.04 3.36,2.46 3.3,2.46 3.78,3 3.78,2.94 4.26,3.54 4.68,4.14 5.16,4.8 5.1,4.8 5.58,5.58 5.52,5.52 6.36,7.2 6.72,8.1 6.72,8.04 7.08,9 l 0.72,2.04 0.3,1.08 0.3,1.14 0,-0.06 0.48,2.4 0.24,1.26 0,-0.06 0.24,1.32 0.18,1.26 0.18,1.38 0,-0.06 0.24,2.76 0.12,1.44 0.06,1.44 0,1.44 0.06,1.5 0,-0.06 -0.06,1.5 c 0.045,2.68 -0.263,5.731 -0.6,8.4 l -0.18,1.32 0,-0.06 -0.24,1.32 -0.72,3.6 0,-0.06 -0.3,1.14 -0.3,1.08 -0.36,1.08 0,-0.06 -0.36,1.02 -0.36,0.96 0,-0.06 -0.36,0.96 0,-0.06 -0.42,0.9 0,-0.06 -0.42,0.84 0.06,-0.06 -0.48,0.78 0.06,0 -0.48,0.66 -0.42,0.66 0,-0.06 -0.48,0.6 0.06,-0.06 -0.54,0.54 0.06,0 -0.48,0.42 -0.48,0.36 -0.48,0.3 -0.48,0.24 0.06,0 -0.54,0.18 0.06,0 -0.54,0.06 0.06,0 -0.6,0.06 0.06,0 -0.54,-0.06 0.06,0 -0.54,-0.06 0.06,0 -0.54,-0.18 0.06,0 -0.54,-0.24 0.06,0 -0.48,-0.3 -0.48,-0.36 -0.48,-0.42 -0.48,-0.54 0.06,0.06 -0.48,-0.6 0,0.06 -0.48,-0.66 0.06,0 -0.48,-0.66 -0.42,-0.78 0,0.06 -0.42,-0.84 0.06,0.06 -0.42,-0.9 0,0.06 -0.36,-0.96 0,0.06 -0.42,-0.96 0.06,0 -0.36,-1.02 0,0.06 -0.36,-1.08 -0.3,-1.08 -0.3,-1.14 0,0.06 -0.24,-1.2 -0.3,-1.2 -0.24,-1.2 -0.18,-1.32 0,0.06 -0.18,-1.32 c -0.373,-2.737 -0.571,-5.638 -0.66,-8.4 l 0,-1.5 0,0.06 0,-1.5 0.06,-1.44 0.06,-1.44 0.12,-1.44 0.12,-1.38 0.12,-1.38 0,0.06 0.18,-1.38 0.18,-1.26 0.18,-1.32 0,0.06 0.24,-1.26 0.3,-1.2 0.24,-1.2 0,0.06 0.3,-1.14 0.3,-1.08 0.72,-2.04 -0.06,0 0.42,-0.96 0,0.06 0.36,-0.9 0.42,-0.84 -0.06,0 0.42,-0.84 0,0.06 0.42,-0.78 0.48,-0.66 -0.06,0 0.96,-1.2 -0.06,0.06 0.48,-0.54 0.48,-0.42 0.48,-0.36 0.48,-0.3 -0.06,0 0.54,-0.24 -0.06,0 0.54,-0.18 -0.06,0.06 0.54,-0.12 -0.06,0 0.54,-0.06 -0.06,0"
         style="fill:#000000;fill-opacity:1;fill-rule:nonzero;stroke:none"
         id="path50"
         inkscape:connector-curvature="0" /></g><text
       transform="matrix(0,1,1,0,249.36,90.0505)"
       style="font-variant:normal;font-weight:normal;font-stretch:normal;font-size:12.30000019px;font-family:Calibri;-inkscape-font-specification:Calibri;writing-mode:lr-tb;fill:#000000;fill-opacity:1;fill-rule:nonzero;stroke:none"
       id="text52"><tspan
         x="0 3.1119001 9.5817003 16.076099 22.5459"
         y="0"
         sodipodi:role="line"
         id="tspan54">Inode</tspan></text>
<g
       id="g56"
       transform="translate(246,82.731)"><path
         d="m 0,0 -0.6,0 -0.6,0.12 c -13.114,3.423 -13.143,39.391 0,42.9 L 0,43.14 C 14.114,41.854 14.652,4.678 1.74,0.24 L 1.14,0.12 0.6,0 0,0 Z m 0.54,0.9 -0.06,0 0.54,0.06 -0.06,0 0.54,0.12 -0.06,0 0.54,0.18 0.48,0.24 0,-0.06 0.48,0.3 -0.06,0 0.54,0.3 -0.06,0 0.48,0.42 0,-0.06 0.48,0.42 -0.06,0 0.48,0.48 0,-0.06 0.84,1.08 0,-0.06 0.42,0.6 0.36,0.6 0.42,0.66 0.36,0.72 0,-0.06 0.3,0.78 0,-0.06 0.36,0.78 c 0.669,1.675 1.184,3.399 1.56,5.16 l 0.18,0.96 0,-0.06 0.18,1.02 c 0.49,3.204 0.542,6.132 0.36,9.36 l -0.12,1.08 0,-0.06 -0.12,1.02 C 9.583,29.067 8.933,31.852 8.1,34.02 l -0.3,0.84 0,-0.06 -0.36,0.78 -0.3,0.72 -0.36,0.72 0,-0.06 -0.42,0.66 -0.36,0.6 -0.42,0.6 -0.42,0.54 -0.84,0.96 0,-0.06 -0.48,0.42 -0.48,0.36 0.06,0 -0.54,0.36 0.06,-0.06 -0.48,0.3 -0.48,0.24 0,-0.06 -0.54,0.18 0.06,0 -0.54,0.18 0.06,-0.06 -0.54,0.12 0.06,0 -1.08,0 0.06,0 -0.54,-0.12 0.06,0.06 -0.54,-0.18 -0.48,-0.18 0,0.06 -0.48,-0.24 -0.48,-0.3 0,0.06 -0.48,-0.36 0.06,0 -0.48,-0.36 -0.48,-0.42 0,0.06 -0.84,-0.96 -0.42,-0.54 -0.84,-1.2 0.06,0 -0.42,-0.66 0,0.06 -0.72,-1.44 -0.3,-0.78 0,0.06 -0.3,-0.84 c -0.926,-2.204 -1.448,-4.892 -1.74,-7.26 l -0.12,-1.02 0,0.06 -0.12,-1.08 c -0.27,-3.124 -0.095,-6.262 0.36,-9.36 l 0.18,-1.02 0,0.06 0.18,-0.96 c 0.277,-1.784 0.916,-3.483 1.56,-5.16 l 0.3,-0.78 0,0.06 0.36,-0.78 0,0.06 0.36,-0.72 0.42,-0.66 -0.06,0 0.84,-1.2 0,0.06 0.84,-1.08 0,0.06 0.42,-0.48 0.48,-0.42 -0.06,0.06 0.54,-0.42 -0.06,0 0.96,-0.6 0,0.06 0.48,-0.24 0.48,-0.18 0.54,-0.12 -0.06,0 0.54,-0.06 -0.06,0 L 0,0.84"
         style="fill:#000000;fill-opacity:1;fill-rule:nonzero;stroke:none"
         id="path58"
         inkscape:connector-curvature="0" /></g><text
       transform="matrix(0,1,1,0,119.16,249.2305)"
       style="font-variant:normal;font-weight:normal;font-stretch:normal;font-size:12.30000019px;font-family:Calibri;-inkscape-font-specification:Calibri;writing-mode:lr-tb;fill:#000000;fill-opacity:1;fill-rule:nonzero;stroke:none"
       id="text60"><tspan
         x="0 6.1254001 12.0048 18.479521 21.29376"
         y="0"
         sodipodi:role="line"
         id="tspan62">Panic</tspan></text>
<g
       id="g64"
       transform="translate(115.8,241.851)"><path
         d="m 0,0 -1.2,0.12 c -13.126,3.453 -13.127,37.356 0,40.8 L 0,41.04 0.6,40.98 C 7.575,40.162 10.634,29.449 10.92,23.64 l 0.06,-1.02 0.06,-1.08 C 11.363,15.019 9.188,3.225 2.28,0.48 L 1.74,0.3 1.14,0.12 0.6,0.06 0,0 Z M 0.54,0.96 0.48,0.9 l 0.54,0.12 -0.06,0 0.54,0.12 0.48,0.18 0,-0.06 0.96,0.48 0.48,0.3 0.48,0.36 -0.06,0 0.48,0.36 0.42,0.42 0.42,0.48 0.42,0.54 0,-0.06 0.42,0.6 0,-0.06 0.42,0.6 -0.06,0 0.42,0.6 L 7.14,6.54 7.5,7.26 7.44,7.2 7.8,7.98 l 0,-0.06 0.9,2.34 -0.06,0 0.3,0.84 0.24,0.84 0.18,0.9 0,-0.06 0.18,0.96 0,-0.06 0.18,0.96 0.12,0.96 0,-0.06 0.12,1.02 0,-0.06 0.12,1.02 c 0.126,1.676 0.186,3.362 0.06,5.04 l -0.06,1.02 0,-0.06 -0.12,1.02 C 9.8,26.118 9.523,27.555 9.18,29.1 l -0.24,0.9 0,-0.06 -0.3,0.84 0.06,0 -0.3,0.84 0,-0.06 -0.3,0.84 0,-0.06 -0.3,0.78 -0.36,0.72 0.06,0 -0.72,1.32 -0.42,0.6 0.06,0 L 6,36.36 5.58,36.9 4.74,37.86 4.32,38.28 3.84,38.7 3.9,38.64 3.36,39 l 0.06,0 -0.48,0.3 -0.96,0.48 -0.48,0.18 0,-0.06 -0.54,0.18 0.06,-0.06 -0.54,0.12 0.06,0 -1.08,0 0.06,0 -0.54,-0.12 0.06,0.06 -0.54,-0.18 0,0.06 -0.48,-0.18 -0.96,-0.48 -0.48,-0.3 -0.48,-0.36 0.06,0.06 -0.48,-0.42 -0.9,-0.9 0.06,0 -0.42,-0.48 -0.42,-0.54 -0.42,-0.6 0.06,0 -0.42,-0.6 -0.72,-1.32 -0.3,-0.72 -0.3,-0.78 0,0.06 -0.3,-0.84 0,0.06 -0.3,-0.84 c -0.635,-2.03 -1.031,-4.127 -1.26,-6.24 l -0.12,-1.02 0,0.06 -0.06,-1.02 c -0.126,-1.678 -0.066,-3.364 0.06,-5.04 l 0.12,-1.02 0,0.06 0.12,-1.02 0,0.06 0.12,-0.96 0.18,-0.96 0,0.06 0.18,-0.96 0,0.06 0.18,-0.9 0.48,-1.68 0.9,-2.34 0,0.06 0.3,-0.78 0,0.06 0.36,-0.72 0.36,-0.66 0.42,-0.6 -0.06,0 0.42,-0.6 0,0.06 0.42,-0.6 0,0.06 0.42,-0.54 0.42,-0.48 0.42,-0.42 0.48,-0.36 -0.06,0 0.48,-0.36 0.48,-0.3 0.96,-0.48 0,0.06 0.48,-0.18 0.54,-0.12 -0.06,0 L -0.48,0.9 -0.54,0.96 0,0.9"
         style="fill:#000000;fill-opacity:1;fill-rule:nonzero;stroke:none"
         id="path66"
         inkscape:connector-curvature="0" /></g><text
       transform="matrix(0,1,1,0,312.78,216.2305)"
       style="font-variant:normal;font-weight:normal;font-stretch:normal;font-size:12.30000019px;font-family:Calibri;-inkscape-font-specification:Calibri;writing-mode:lr-tb;fill:#000000;fill-opacity:1;fill-rule:nonzero;stroke:none"
       id="text68"><tspan
         x="0 7.5632701 13.68744 19.24581 22.061279 27.262951"
         y="0"
         sodipodi:role="line"
         id="tspan70">Device</tspan></text>
<g
       id="g72"
       transform="translate(309.48,208.911)"><path
         d="m 0,0 -0.6,0 -0.6,0.12 c -13.161,3.91 -13.138,43.802 0,47.7 L 0,47.94 0.6,47.88 C 7.905,46.906 10.666,33.465 10.92,27.6 l 0.06,-1.2 0.06,-1.2 C 11.318,18.283 9.466,3.908 2.28,0.54 L 1.74,0.3 1.14,0.12 0.6,0 0,0 Z m 0.48,0.9 0.54,0.06 -0.06,0 0.54,0.18 -0.06,-0.06 0.54,0.24 -0.06,0 0.54,0.24 -0.06,0 0.48,0.3 0.48,0.36 0.48,0.42 -0.06,-0.06 0.96,0.96 -0.06,0 0.48,0.6 0,-0.06 0.42,0.6 0.36,0.66 0.42,0.66 0.36,0.72 0.36,0.78 0.36,0.84 0,-0.06 0.36,0.9 0,-0.06 0.3,0.9 c 1.263,3.956 1.79,7.445 2.04,11.58 l 0,1.2 0,-0.06 0.06,1.26 0,-0.06 -0.06,1.26 0,-0.06 0,1.2 -0.12,1.2 -0.06,1.14 -0.12,1.14 0,-0.06 -0.12,1.14 C 9.381,33.163 8.803,35.743 8.1,37.92 l -0.3,0.9 0,-0.06 -0.36,0.9 0,-0.06 -0.36,0.84 -0.36,0.78 0,-0.06 -0.36,0.78 0,-0.06 -0.42,0.72 0.06,0 -0.42,0.66 0,-0.06 -0.42,0.66 0,-0.06 -0.48,0.6 0.06,0 -0.96,0.96 0.06,-0.06 -0.48,0.42 -0.48,0.36 0.06,0 -0.54,0.3 0.06,0 -0.54,0.24 0.06,0 -0.54,0.18 0.06,0 -0.54,0.18 0.06,-0.06 -0.54,0.12 -0.54,0 0.06,0 -0.54,0 0.06,0 -0.54,-0.12 0.06,0.06 -0.54,-0.18 -0.48,-0.18 -0.48,-0.24 -0.48,-0.3 -0.48,-0.36 0.06,0 -0.48,-0.42 0,0.06 -0.48,-0.48 -0.42,-0.48 -0.42,-0.6 0,0.06 -0.42,-0.66 0,0.06 -0.42,-0.66 -0.42,-0.72 0.06,0.06 -0.42,-0.78 0,0.06 -0.36,-0.78 -0.36,-0.84 0,0.06 -0.3,-0.9 0,0.06 -0.3,-0.9 c -1.196,-3.369 -1.941,-8.015 -2.04,-11.58 l -0.06,-1.2 0,0.06 0,-1.26 0,0.06 0,-1.26 0,0.06 0.06,-1.2 c 0.099,-3.565 0.844,-8.211 2.04,-11.58 l 0.3,-0.9 0,0.06 0.3,-0.9 0,0.06 0.36,-0.84 0.36,-0.78 0.42,-0.72 -0.06,0 0.84,-1.32 0.42,-0.6 0,0.06 0.42,-0.6 0.42,-0.48 0.48,-0.48 0,0.06 0.48,-0.42 -0.06,0 0.48,-0.36 0.48,-0.3 0.96,-0.48 0,0.06 0.54,-0.18 -0.06,0 0.54,-0.06 -0.06,0 0.54,-0.06 -0.06,0"
         style="fill:#000000;fill-opacity:1;fill-rule:nonzero;stroke:none"
         id="path74"
         inkscape:connector-curvature="0" /></g><text
       transform="matrix(0,1,1,0,239.1,470.5105)"
       style="font-variant:normal;font-weight:normal;font-stretch:normal;font-size:12.30000019px;font-family:Calibri;-inkscape-font-specification:Calibri;writing-mode:lr-tb;fill:#000000;fill-opacity:1;fill-rule:nonzero;stroke:none"
       id="text76"><tspan
         x="0 6.0036302 10.13766"
         y="0"
         sodipodi:role="line"
         id="tspan78">Tty</tspan></text>
<g
       id="g80"
       transform="translate(235.74,463.191)"><path
         d="m 0,0 -0.6,0 -0.54,0.06 c -13.228,2.629 -13.154,28.764 0,31.26 L -0.6,31.38 0,31.44 C 13.906,30.502 14.878,3.717 1.74,0.18 L 1.14,0.06 0.6,0 0,0 Z m 0.54,0.9 -0.06,0 1.08,0.12 -0.06,0 0.54,0.12 -0.06,0 0.54,0.18 0.48,0.18 -0.06,0 0.54,0.24 -0.06,0 0.48,0.3 0,-0.06 0.48,0.3 -0.06,0 L 4.8,2.64 5.22,3 5.22,2.94 6.06,3.78 6.42,4.2 7.14,5.16 7.5,5.7 l 0,-0.06 0.3,0.6 0,-0.06 0.36,0.6 -0.06,0 0.3,0.6 0,-0.06 0.54,1.26 0.24,0.66 0.36,1.32 0.18,0.72 0.12,0.72 0,-0.06 0.12,0.78 0,-0.06 0.12,0.78 0.06,0.72 0.06,0.78 0,1.56 0,-0.06 -0.12,1.56 -0.36,2.16 -0.18,0.72 0,-0.06 -0.18,0.72 -0.18,0.66 -0.24,0.66 0,-0.06 -0.54,1.26 -0.3,0.6 0.06,0 -0.36,0.54 -0.3,0.54 -0.36,0.54 0,-0.06 -0.36,0.54 -0.36,0.48 0,-0.06 -0.36,0.48 C 5.447,28.288 4.666,28.97 3.9,29.4 l -0.48,0.3 0.06,-0.06 -0.96,0.48 0,-0.06 -0.54,0.18 0.06,0 -0.54,0.12 0.06,0 -0.54,0.12 -0.54,0.06 0.06,0 -1.08,0 0.06,0 -0.54,-0.06 -0.54,-0.12 0.06,0 -0.54,-0.12 0.06,0 -0.54,-0.18 0.06,0.06 -0.54,-0.24 0.06,0 -0.54,-0.24 0.06,0.06 -0.96,-0.6 0.06,0 -0.48,-0.3 -0.84,-0.72 -0.42,-0.42 0.06,0 -0.42,-0.48 0,0.06 -0.36,-0.48 -0.36,-0.54 0,0.06 -0.36,-0.54 -0.6,-1.08 -0.3,-0.6 -0.54,-1.26 0,0.06 -0.24,-0.66 -0.18,-0.66 -0.18,-0.72 0,0.06 -0.18,-0.72 c -0.458,-2.382 -0.632,-4.291 -0.36,-6.72 l 0.12,-0.78 0,0.06 0.12,-0.78 0,0.06 0.12,-0.72 0.18,-0.72 0.36,-1.32 0.24,-0.66 0.54,-1.26 0,0.06 0.3,-0.6 -0.06,0 0.36,-0.6 0,0.06 0.3,-0.6 0,0.06 0.36,-0.54 0.72,-0.96 0.42,-0.42 -0.06,0 0.84,-0.84 0,0.06 0.42,-0.36 0.48,-0.36 -0.06,0 0.48,-0.3 0,0.06 0.48,-0.3 -0.06,0 0.54,-0.24 -0.06,0 0.54,-0.18 -0.06,0 0.54,-0.18 -0.06,0 0.54,-0.12 -0.06,0 1.08,-0.12 -0.06,0 L 0,0.84"
         style="fill:#000000;fill-opacity:1;fill-rule:nonzero;stroke:none"
         id="path82"
         inkscape:connector-curvature="0" /></g><text
       transform="matrix(0,1,1,0,305.82,114.8305)"
       style="font-variant:normal;font-weight:normal;font-stretch:normal;font-size:12.30000019px;font-family:Calibri;-inkscape-font-specification:Calibri;writing-mode:lr-tb;fill:#000000;fill-opacity:1;fill-rule:nonzero;stroke:none"
       id="text84"><tspan
         x="0 7.5558901 10.36398 15.16467"
         y="0"
         sodipodi:role="line"
         id="tspan86">Disk</tspan></text>
<g
       id="g88"
       transform="translate(302.52,107.511)"><path
         d="m 0,0 -0.6,0 -0.6,0.06 c -13.172,2.961 -13.152,32.207 0,35.1 L 0,35.28 0.54,35.22 c 6.641,-0.573 9.937,-9.216 10.38,-14.94 l 0.06,-0.84 0.06,-0.9 C 11.309,12.273 8.884,2.638 2.22,0.36 L 1.68,0.18 1.14,0.06 0.54,0 0,0 Z m 0.48,0.9 0.54,0.06 -0.06,0 0.54,0.12 -0.06,-0.06 0.54,0.18 0.48,0.18 0.48,0.24 0,-0.06 0.48,0.3 -0.06,0 0.54,0.3 -0.06,0 0.48,0.3 c 0.694,0.587 1.528,1.414 2.04,2.16 l 0.42,0.54 -0.06,0 0.42,0.54 -0.06,0 0.72,1.2 0.3,0.6 0.3,0.66 0.48,1.44 0,-0.06 0.24,0.78 0,-0.06 0.24,0.78 c 1.015,4.046 1.02,8.344 0.18,12.42 l -0.18,0.78 0,-0.06 -0.24,0.78 c -0.452,1.379 -0.893,2.788 -1.68,4.02 l -0.36,0.6 0.06,0 -0.42,0.54 0.06,0 -0.42,0.54 -0.36,0.48 -0.42,0.48 0,-0.06 -0.42,0.48 -0.42,0.42 0,-0.06 -0.42,0.42 0,-0.06 -0.48,0.36 0.06,0 -0.54,0.3 0.06,0 -0.96,0.48 -0.48,0.18 -0.48,0.12 -0.54,0.12 0.06,0 -0.54,0.06 -0.54,0 0.06,0 -0.54,0 -0.54,-0.06 0.06,0 -0.54,-0.12 0.06,0 -0.54,-0.12 -0.48,-0.18 -0.96,-0.48 0.06,0 -0.48,-0.3 -0.48,-0.36 0,0.06 -0.42,-0.42 0,0.06 -0.42,-0.42 -0.42,-0.48 0,0.06 -0.42,-0.48 -0.36,-0.48 -0.42,-0.54 0.06,0 -0.42,-0.54 0.06,0 -0.36,-0.6 c -0.787,-1.232 -1.228,-2.641 -1.68,-4.02 l -0.24,-0.78 0,0.06 -0.36,-1.56 0.06,0 -0.18,-0.84 c -0.41,-2.797 -0.394,-5.662 0,-8.46 l 0.18,-0.78 -0.06,0 0.36,-1.56 0.24,-0.78 0,0.06 0.24,-0.78 0,0.06 0.48,-1.44 0.3,-0.66 0.3,-0.6 0.72,-1.2 -0.06,0 0.42,-0.54 -0.06,0 0.42,-0.54 C -5.918,3.903 -4.68,2.549 -3.9,2.16 l 0.48,-0.3 -0.06,0 0.48,-0.3 0,0.06 0.48,-0.24 0.48,-0.18 0.54,-0.18 -0.06,0.06 0.54,-0.12 -0.06,0 1.08,-0.12 -0.06,0"
         style="fill:#000000;fill-opacity:1;fill-rule:nonzero;stroke:none"
         id="path90"
         inkscape:connector-curvature="0" /></g><text
       transform="matrix(0,1,1,0,366.18,559.2505)"
       style="font-variant:normal;font-weight:normal;font-stretch:normal;font-size:12.30000019px;font-family:Calibri;-inkscape-font-specification:Calibri;writing-mode:lr-tb;fill:#000000;fill-opacity:1;fill-rule:nonzero;stroke:none"
       id="text92"><tspan
         x="0 5.5288501 10.9839 15.67635 19.68 25.805401"
         y="0"
         sodipodi:role="line"
         id="tspan94">System</tspan></text>
<g
       id="g96"
       transform="translate(362.88,551.93)"><path
         d="m 0,0 -0.6,0 -0.6,0.12 c -13.137,3.936 -13.16,44.336 0,48.36 L 0,48.6 0.6,48.54 C 7.913,47.525 10.683,33.841 10.92,27.96 l 0.06,-1.2 0.06,-1.26 C 11.33,18.645 9.438,3.853 2.28,0.54 L 1.74,0.3 1.14,0.12 0.6,0 0,0 Z m 0.48,0.9 0.54,0.06 -0.06,0 0.54,0.18 -0.06,-0.06 0.54,0.24 -0.06,0 0.54,0.24 -0.06,0 0.48,0.3 0.48,0.36 0.48,0.42 -0.06,-0.06 0.48,0.48 0.48,0.54 -0.06,0 0.48,0.54 0.42,0.6 0.36,0.66 0.42,0.72 0,-0.06 0.72,1.56 0,-0.06 0.36,0.84 0.36,0.9 0,-0.06 0.3,0.9 0.3,0.96 0.24,0.96 0,-0.06 0.48,2.04 0.24,1.08 0,-0.06 0.18,1.08 0.18,1.14 0.12,1.08 0.12,1.14 0.06,1.2 0.12,1.2 0,-0.06 0,1.26 c 0.139,1.911 -0.065,4.032 -0.18,5.94 l -0.12,1.2 0,-0.06 -0.12,1.14 -0.18,1.14 0,-0.06 -0.18,1.08 -0.24,1.08 -0.24,1.02 -0.24,0.96 -0.24,0.96 -0.3,0.96 0,-0.06 -0.3,0.9 -0.36,0.9 0,-0.06 -0.36,0.84 -0.72,1.56 0,-0.06 -0.42,0.72 0.06,0 -0.42,0.66 -0.42,0.6 -0.48,0.54 0.06,0 -0.48,0.54 0,-0.06 -0.48,0.48 0.06,0 -0.48,0.42 -0.48,0.36 -0.48,0.3 0.06,0 -0.54,0.24 0.06,0 -0.54,0.18 0.06,0 -0.54,0.18 0.06,-0.06 -0.54,0.12 -0.54,0 0.06,0 -0.54,0 0.06,0 -0.54,-0.12 0.06,0.06 -0.54,-0.18 -0.48,-0.18 -0.48,-0.24 -0.48,-0.3 -0.48,-0.36 0.06,0 -0.48,-0.42 -0.48,-0.48 0,0.06 -0.84,-1.08 -0.42,-0.6 -0.42,-0.66 -0.42,-0.72 0.06,0.06 -0.42,-0.78 -0.36,-0.78 -0.36,-0.84 0,0.06 -0.3,-0.9 -0.3,-0.9 0,0.06 -0.6,-1.92 -0.24,-0.96 -0.24,-1.02 -0.18,-1.08 -0.18,-1.08 0,0.06 -0.36,-2.28 0,0.06 -0.12,-1.2 0.06,0 -0.12,-1.14 -0.06,-1.2 -0.06,-1.2 0,-2.4 0.06,-1.26 0,0.06 0.06,-1.2 0.06,-1.2 0,0.06 0.12,-1.2 c 0.32,-1.756 0.514,-3.617 0.96,-5.34 L -8.7,12 l 0,0.06 0.6,-1.92 0.3,-0.9 0,0.06 0.3,-0.9 0.36,-0.84 0,0.06 0.36,-0.78 0.42,-0.78 -0.06,0.06 0.42,-0.72 0.42,-0.66 0.42,-0.6 0.84,-1.08 0,0.06 0.48,-0.48 0.48,-0.42 -0.06,0 0.48,-0.36 0.48,-0.3 0.96,-0.48 0,0.06 0.54,-0.18 -0.06,0 0.54,-0.06 -0.06,0 0.54,-0.06 -0.06,0"
         style="fill:#000000;fill-opacity:1;fill-rule:nonzero;stroke:none"
         id="path98"
         inkscape:connector-curvature="0" /></g><text
       transform="matrix(0,1,1,0,388.98,251.5705)"
       style="font-variant:normal;font-weight:normal;font-stretch:normal;font-size:12.30000019px;font-family:Calibri;-inkscape-font-specification:Calibri;writing-mode:lr-tb;fill:#000000;fill-opacity:1;fill-rule:nonzero;stroke:none"
       id="text100"><tspan
         x="0 3.1045201 9.5669403 16.053961 22.51638 28.6467 33.683552 39.58017 46.042591 48.864208"
         y="0"
         sodipodi:role="line"
         id="tspan102">InodeTable</tspan></text>
<g
       id="g104"
       transform="translate(385.62,244.191)"><path
         d="m 0,0 -0.3,0 -0.36,0.06 c -13.848,3.711 -13.845,66.093 0,69.72 l 0.36,0.06 0.6,0 C 8.426,68.857 10.851,46.127 10.92,40.2 l 0.12,-3.48 C 11.371,28.873 9.829,4.81 1.8,0.48 L 1.2,0.24 0.6,0.06 0.3,0 0,0 Z M 0.24,0.9 0.48,0.96 0.42,0.9 0.96,1.08 0.9,1.02 1.44,1.26 1.38,1.26 1.92,1.56 1.86,1.5 2.4,1.92 2.34,1.86 2.88,2.34 2.82,2.28 3.3,2.82 l 0.48,0.6 0.48,0.66 -0.06,0 0.48,0.78 0,-0.06 0.42,0.84 0.42,0.9 0.42,0.96 0,-0.06 0.42,1.08 0,-0.06 0.36,1.08 0.36,1.14 0.36,1.2 0.3,1.26 0,-0.06 0.36,1.32 0.3,1.38 0,-0.06 0.48,2.88 0.24,1.44 0.24,1.56 0,-0.06 0.18,1.62 0,-0.06 0.18,1.62 c 0.46,5.062 0.574,10.348 0.3,15.42 l -0.06,1.74 0,-0.06 -0.12,1.68 C 9.632,47.09 9.011,50.584 8.4,54.12 l -0.3,1.38 0,-0.06 -0.36,1.32 -0.3,1.26 -0.36,1.2 0,-0.06 -0.36,1.14 -0.36,1.08 -0.42,1.02 -0.42,0.96 -0.42,0.9 0,-0.06 -0.42,0.84 -0.48,0.78 0.06,-0.06 -0.48,0.72 0,-0.06 -0.48,0.66 0,-0.06 -0.48,0.54 0.06,0 -0.54,0.42 0.06,0 -0.54,0.36 0.06,0 -0.54,0.3 0.06,0 -0.54,0.18 0.06,0 -0.54,0.12 0.06,0 -0.24,0.06 -0.48,0 -0.24,-0.06 -0.54,-0.12 0.12,0 -0.54,-0.18 0.06,0 -0.54,-0.3 0.06,0 -0.54,-0.36 0.06,0 -0.54,-0.42 0.06,0 -0.54,-0.54 0.06,0.06 -0.48,-0.66 0,0.06 -0.48,-0.72 0,0.06 -0.42,-0.78 -0.48,-0.84 0.06,0.06 -0.48,-0.9 0.06,0 -0.42,-0.96 -0.42,-1.02 -0.36,-1.08 -0.36,-1.14 0,0.06 -0.36,-1.2 -0.36,-1.26 -0.3,-1.32 0,0.06 -0.3,-1.38 c -0.491,-2.576 -0.909,-4.742 -1.14,-7.38 l -0.18,-1.62 0,0.06 -0.12,-1.68 -0.12,-1.62 -0.12,-1.74 0,0.06 -0.06,-1.74 c -0.2,-4.584 0.037,-9.171 0.42,-13.74 l 0.18,-1.62 0,0.06 0.18,-1.62 0,0.06 0.18,-1.56 0.24,-1.5 0,0.06 0.3,-1.44 0.24,-1.44 0,0.06 0.3,-1.38 0.3,-1.32 0,0.06 0.36,-1.26 0.36,-1.2 0.36,-1.14 0.36,-1.08 0,0.06 0.42,-1.08 0,0.06 0.42,-0.96 -0.06,0 0.48,-0.9 -0.06,0 0.48,-0.84 0,0.06 0.42,-0.78 0.48,-0.66 0.48,-0.6 -0.06,0 0.54,-0.54 -0.06,0.06 0.54,-0.48 -0.06,0.06 0.54,-0.42 -0.06,0.06 0.54,-0.3 -0.06,0 0.54,-0.24 -0.12,0.06 0.54,-0.18 0,0.06 0.24,-0.06 0.24,0"
         style="fill:#000000;fill-opacity:1;fill-rule:nonzero;stroke:none"
         id="path106"
         inkscape:connector-curvature="0" /></g><text
       transform="matrix(0,1,1,0,337.02,424.4305)"
       style="font-variant:normal;font-weight:normal;font-stretch:normal;font-size:12.30000019px;font-family:Calibri;-inkscape-font-specification:Calibri;writing-mode:lr-tb;fill:#000000;fill-opacity:1;fill-rule:nonzero;stroke:none"
       id="text108"><tspan
         x="0 5.65062 9.7354498 15.86577 21.99609 25.100611 31.56303 38.050049 44.51247"
         y="0"
         sodipodi:role="line"
         id="tspan110">FreeInode</tspan></text>
<g
       id="g112"
       transform="translate(333.66,417.051)"><path
         d="m 0,0 -0.6,0.06 -0.6,0.12 c -13.125,4.972 -13.134,60.071 0,64.98 l 0.6,0.12 0.6,0.06 0.6,-0.06 C 8.35,63.847 10.835,43.635 10.92,37.62 L 10.98,36 11.04,34.32 C 11.304,26.165 9.841,5.886 2.34,0.72 L 1.8,0.42 1.2,0.18 0.6,0.06 0,0 Z M 0.48,0.9 0.42,0.9 0.96,1.02 0.9,1.02 1.44,1.26 1.38,1.2 1.92,1.5 1.86,1.44 2.4,1.8 2.34,1.8 2.88,2.22 2.82,2.22 3.3,2.7 3.78,3.24 4.26,3.9 4.2,3.84 4.68,4.56 5.1,5.34 l 0.42,0.84 0,-0.06 0.42,0.9 0.42,0.96 0.36,1.02 0,-0.06 0.36,1.08 0.36,1.14 0.3,1.14 0.36,1.2 0.3,1.26 0.24,1.32 0,-0.06 0.24,1.38 c 1.252,6.644 1.453,13.421 1.2,20.16 l -0.12,1.62 0,-0.06 -0.12,1.56 -0.12,1.56 -0.18,1.5 0,-0.06 -0.18,1.5 C 8.764,48.984 8.039,52.773 6.72,56.4 l -0.36,1.02 0,-0.06 -0.42,0.96 -0.42,0.9 -0.42,0.84 0,-0.06 -0.42,0.78 -0.48,0.72 0.06,0 -0.48,0.6 -0.96,1.08 0.06,-0.06 -0.54,0.42 0.06,0 -0.54,0.36 0.06,-0.06 -0.54,0.3 0.06,0 -0.54,0.18 0.06,0 -0.54,0.12 0.06,0 -0.54,0.06 0.06,0 -0.54,-0.06 0.06,0 -0.54,-0.12 0.06,0 -0.54,-0.18 0.06,0 -0.48,-0.3 0,0.06 -0.48,-0.36 -0.48,-0.42 0,0.06 -0.48,-0.54 0,0.06 -0.48,-0.6 0.06,0 -0.48,-0.6 -0.48,-0.72 0.06,0 -0.48,-0.78 0,0.06 -0.42,-0.84 -0.42,-0.9 0.06,0 -0.42,-0.96 0,0.06 -0.36,-1.02 -0.42,-1.08 0.06,0 -0.36,-1.08 c -0.589,-1.953 -1.171,-4.293 -1.5,-6.3 l -0.24,-1.38 0,0.06 -0.18,-1.44 -0.18,-1.5 0,0.06 -0.18,-1.5 -0.24,-3.12 0,0.06 -0.12,-1.62 c -0.354,-6.684 0.048,-13.557 1.14,-20.16 l 0.24,-1.38 0,0.06 0.3,-1.32 0.3,-1.26 0.3,-1.2 0.72,-2.28 -0.06,0 0.42,-1.08 0,0.06 0.36,-1.02 0.42,-0.96 -0.06,0 0.42,-0.9 0,0.06 0.42,-0.84 0.48,-0.78 -0.06,0 0.48,-0.72 0,0.06 0.48,-0.66 -0.06,0 0.54,-0.54 -0.06,0 0.48,-0.48 0.48,-0.42 0.48,-0.36 0,0.06 0.48,-0.3 -0.06,0.06 0.54,-0.24 -0.06,0 0.54,-0.12 -0.06,0 0.54,0 -0.06,0"
         style="fill:#000000;fill-opacity:1;fill-rule:nonzero;stroke:none"
         id="path114"
         inkscape:connector-curvature="0" /></g><text
       transform="matrix(0,1,1,0,312,580.7905)"
       style="font-variant:normal;font-weight:normal;font-stretch:normal;font-size:12.30000019px;font-family:Calibri;-inkscape-font-specification:Calibri;writing-mode:lr-tb;fill:#000000;fill-opacity:1;fill-rule:nonzero;stroke:none"
       id="text116"><tspan
         x="0 5.65062 8.4722404 11.29386 17.424179 20.5287"
         y="0"
         sodipodi:role="line"
         id="tspan118">FileIO</tspan></text>
<g
       id="g120"
       transform="translate(308.64,573.471)"><path
         d="m 0,0 -0.54,0 -0.6,0.12 c -13.126,3.404 -13.18,39.42 0,42.9 l 0.6,0.06 L 0,43.14 0.6,43.08 C 7.737,42.226 10.626,30.679 10.98,24.84 l 0.06,-1.08 0.06,-1.08 C 11.342,15.823 9.36,3.718 2.34,0.42 L 1.74,0.24 1.2,0.12 0.6,0 0,0 Z m 0.54,0.9 -0.06,0 0.54,0.06 0.54,0.12 -0.06,0 0.54,0.18 -0.06,0 0.54,0.24 -0.06,0 0.48,0.24 0.48,0.36 0,-0.06 L 3.9,2.46 3.84,2.4 4.32,2.82 4.8,3.3 4.74,3.24 5.22,3.78 5.16,3.78 5.64,4.32 5.58,4.26 6,4.86 l 0.42,0.66 0,-0.06 0.36,0.66 0.36,0.72 0,-0.06 0.36,0.78 0,-0.06 0.3,0.78 0.36,0.78 -0.06,0 0.3,0.84 c 1.78,5.083 2.051,10.566 1.62,15.9 l -0.12,1.02 0,-0.06 -0.18,1.02 C 9.519,29.374 8.956,31.727 8.4,33.24 l -0.3,0.84 0.06,-0.06 -0.36,0.84 0,-0.06 -0.3,0.78 -0.72,1.44 0,-0.06 -0.36,0.66 -0.42,0.66 0,-0.06 -0.42,0.6 0.06,0 -0.48,0.54 0.06,0 -0.48,0.48 0.06,0 -0.48,0.48 0,-0.06 -0.48,0.42 0.06,0 -0.96,0.72 0.06,-0.06 -0.54,0.3 0.06,0 -0.54,0.24 0.06,-0.06 -0.54,0.24 0.06,-0.06 -0.54,0.18 0,-0.06 -0.54,0.12 0.06,0 -0.54,0 0.06,0 -0.54,0 -0.54,-0.12 0.06,0.06 -0.54,-0.18 0.06,0.06 -0.54,-0.24 0.06,0.06 -0.54,-0.24 0.06,0 -0.54,-0.3 0.06,0.06 -0.96,-0.72 -0.48,-0.42 0.06,0.06 -0.48,-0.48 -0.42,-0.48 -0.42,-0.54 -0.42,-0.6 0.06,0.06 -0.42,-0.66 -0.36,-0.66 0,0.06 -0.72,-1.44 -0.36,-0.78 0.06,0.06 -0.36,-0.84 0,0.06 -0.3,-0.84 c -0.513,-1.841 -1.027,-3.564 -1.32,-5.46 l -0.12,-1.02 0,0.06 -0.12,-1.02 C -10.453,20.166 -10.058,14.403 -8.1,9.06 l 0.36,-0.78 -0.06,0 0.36,-0.78 0,0.06 0.36,-0.78 0,0.06 0.36,-0.72 0.36,-0.66 0,0.06 0.42,-0.66 -0.06,0 0.42,-0.6 0,0.06 0.84,-1.08 0,0.06 0.48,-0.48 -0.06,0 0.48,-0.42 0,0.06 0.48,-0.42 0,0.06 0.48,-0.36 -0.06,0 0.54,-0.24 -0.06,0 0.54,-0.24 -0.06,0 0.54,-0.18 -0.06,0 0.54,-0.12 -0.06,0 1.08,-0.12 -0.06,0"
         style="fill:#000000;fill-opacity:1;fill-rule:nonzero;stroke:none"
         id="path122"
         inkscape:connector-curvature="0" /></g><text
       transform="matrix(0,1,1,0,194.22,506.4505)"
       style="font-variant:normal;font-weight:normal;font-stretch:normal;font-size:12.30000019px;font-family:Calibri;-inkscape-font-specification:Calibri;writing-mode:lr-tb;fill:#000000;fill-opacity:1;fill-rule:nonzero;stroke:none"
       id="text124"><tspan
         x="0 3.1008301 9.5595598 16.042891 22.501619 28.62825 36.390781 39.20871 45.692039 52.150768 58.043701 60.861629"
         y="0"
         sodipodi:role="line"
         id="tspan126">InodeGlobals</tspan></text>
<g
       id="g128"
       transform="translate(190.86,499.13)"><path
         d="m 0,0 -0.3,0 -0.3,0.06 c -13.886,3.699 -13.881,76.838 0,80.52 l 0.3,0.06 0.6,0 C 8.547,79.601 10.952,52.283 10.92,46.44 l 0.12,-2.04 0,-2.04 C 11.497,34.638 9.855,4.005 1.26,0.24 L 0.96,0.12 0.66,0.06 0.3,0 0,0 Z m 0.24,0.9 0.24,0 0.24,0.06 -0.06,0 0.3,0.12 -0.06,-0.06 0.3,0.12 -0.06,0 0.3,0.12 -0.06,0 0.3,0.18 -0.06,-0.06 0.3,0.24 -0.06,-0.06 0.3,0.24 -0.06,0 0.24,0.18 0.24,0.3 0,-0.06 0.72,0.9 0.48,0.66 0.48,0.78 -0.06,0 0.48,0.9 0,-0.06 0.42,0.96 0.42,1.08 0,-0.06 0.42,1.14 c 1.072,2.953 1.898,6.509 2.46,9.6 l 0.24,1.62 0,-0.06 0.3,1.68 c 1.721,12.989 1.746,26.65 -0.3,39.6 l -0.24,1.62 0,-0.06 -0.3,1.56 c -0.416,2.291 -1.11,4.653 -1.74,6.9 l -0.42,1.2 0,-0.06 -0.42,1.14 -0.42,1.02 -0.42,0.96 0,-0.06 -0.48,0.9 0.06,0 -0.48,0.78 -0.48,0.72 0,-0.06 -0.48,0.66 0,-0.06 -0.24,0.3 -0.48,0.48 0.06,-0.06 -0.3,0.24 0.06,-0.06 -0.3,0.24 0.06,-0.06 -0.3,0.18 0.06,0 -0.3,0.12 0.06,0 -0.3,0.12 0.06,0 -0.3,0.06 0.06,0 -0.24,0.06 -0.24,0 -0.24,0.06 -0.24,-0.06 0.06,0 -0.3,0 0.06,0 -0.3,-0.06 0.06,0 -0.3,-0.06 0.06,0 -0.3,-0.12 0.06,0 -0.24,-0.12 -0.24,-0.18 0,0.06 -0.24,-0.24 0,0.06 -0.24,-0.24 0,0.06 -0.48,-0.48 -0.24,-0.3 0,0.06 -0.48,-0.66 0,0.06 -0.48,-0.72 -0.42,-0.78 -0.48,-0.9 0,0.06 -0.42,-0.96 -0.42,-1.02 -0.42,-1.14 0,0.06 -0.42,-1.2 c -0.719,-2.339 -1.196,-4.527 -1.74,-6.9 l -0.3,-1.56 0,0.06 -0.24,-1.62 c -2.446,-15.8 -2.35,-37.151 2.7,-52.44 l 0.42,-1.14 0,0.06 0.42,-1.08 0.42,-0.96 0,0.06 0.48,-0.9 0.42,-0.78 0,0.06 0.48,-0.72 0.72,-0.9 0,0.06 0.24,-0.3 0.24,-0.18 0.24,-0.24 0,0.06 0.24,-0.24 0,0.06 0.24,-0.18 0.24,-0.12 -0.06,0 0.3,-0.12 -0.06,0.06 0.3,-0.12 -0.06,0 0.3,-0.06 -0.06,0 0.3,0 -0.06,0 L 0,0.84"
         style="fill:#000000;fill-opacity:1;fill-rule:nonzero;stroke:none"
         id="path130"
         inkscape:connector-curvature="0" /></g><text
       transform="matrix(0,1,1,0,222.78,214.4305)"
       style="font-variant:normal;font-weight:normal;font-stretch:normal;font-size:12.30000019px;font-family:Calibri;-inkscape-font-specification:Calibri;writing-mode:lr-tb;fill:#000000;fill-opacity:1;fill-rule:nonzero;stroke:none"
       id="text132"><tspan
         x="0 9.8264704 15.71694 18.53241"
         y="0"
         sodipodi:role="line"
         id="tspan134">main</tspan></text>
<g
       id="g136"
       transform="translate(219.42,207.111)"><path
         d="m 0,0 -1.2,0.12 c -13.144,3.234 -13.143,36.043 0,39.24 l 0.6,0.12 0.6,0 C 14.252,38.14 14.525,4.233 1.74,0.24 L 1.14,0.12 0.6,0 0,0 Z m 0.54,0.9 -0.06,0 0.54,0.06 -0.06,0 0.54,0.12 0.96,0.36 0.48,0.24 0.48,0.3 -0.06,0 0.54,0.36 -0.06,-0.06 0.48,0.42 0,-0.06 0.42,0.48 0,-0.06 0.84,0.96 0.84,1.08 -0.06,0 0.42,0.6 0.36,0.6 0.3,0.66 0.36,0.72 0,-0.06 0.3,0.78 0,-0.06 0.3,0.78 0.24,0.78 0.3,0.78 0.18,0.84 0,-0.06 0.24,0.9 0,-0.06 0.18,0.9 c 0.469,2.274 0.605,4.233 0.66,6.54 l -0.06,1.02 0,-0.06 0,1.02 0,-0.06 -0.06,1.02 0,-0.06 -0.24,1.92 0,-0.06 -0.12,0.96 0,-0.06 -0.36,1.8 -0.24,0.84 -0.18,0.84 0,-0.06 -0.3,0.84 0,-0.06 -0.24,0.84 0,-0.06 -0.3,0.78 -0.3,0.72 -0.36,0.66 -0.3,0.66 -0.36,0.66 0,-0.06 -0.42,0.6 0.06,0 L 6,34.98 6,34.92 5.16,36 l 0,-0.06 -0.42,0.48 -0.42,0.42 0,-0.06 -0.48,0.42 0.06,0 -0.54,0.3 0.06,0 -0.48,0.3 -0.96,0.48 0,-0.06 -0.48,0.18 -0.54,0.12 0.06,0 -0.54,0.06 0.06,0 -0.6,0.06 0.06,0 -0.54,-0.06 0.06,0 -0.54,-0.06 -0.54,-0.12 0.06,0 -0.54,-0.18 0.06,0.06 -0.54,-0.24 0.06,0 -0.48,-0.24 -0.96,-0.6 0.06,0 -0.48,-0.42 0,0.06 -0.48,-0.42 0.06,0 -0.48,-0.48 0.06,0.06 -0.48,-0.54 0.06,0 -0.42,-0.54 0,0.06 -0.42,-0.6 -0.36,-0.6 0,0.06 -0.72,-1.32 -0.3,-0.66 -0.3,-0.72 -0.3,-0.78 0,0.06 -0.3,-0.84 0,0.06 -0.24,-0.84 -0.24,-0.78 -0.18,-0.84 -0.36,-1.8 0,0.06 -0.18,-0.96 0.06,0.06 -0.24,-1.92 0,0.06 -0.06,-1.02 0,0.06 -0.06,-1.02 0,0.06 0,-1.98 0.06,-1.02 0,0.06 0.06,-0.96 0.12,-0.96 0.12,-0.9 -0.06,0 0.54,-2.7 0,0.06 0.18,-0.9 0,0.06 0.24,-0.84 0.24,-0.78 0.6,-1.56 0,0.06 0.3,-0.78 0,0.06 0.3,-0.72 0.36,-0.66 0.72,-1.2 0.42,-0.6 0,0.06 0.42,-0.54 -0.06,0 0.48,-0.48 -0.06,0 0.48,-0.48 -0.06,0.06 0.48,-0.48 0,0.06 0.48,-0.42 -0.06,0.06 0.48,-0.36 0.48,-0.3 -0.06,0 0.54,-0.24 -0.06,0 0.54,-0.18 -0.06,0 0.54,-0.18 -0.06,0 0.54,-0.12 0.54,-0.06 -0.06,0 0.54,0"
         style="fill:#000000;fill-opacity:1;fill-rule:nonzero;stroke:none"
         id="path138"
         inkscape:connector-curvature="0" /></g><text
       transform="matrix(0,1,1,0,353.04,55.4305)"
       style="font-variant:normal;font-weight:normal;font-stretch:normal;font-size:12.30000019px;font-family:Calibri;-inkscape-font-specification:Calibri;writing-mode:lr-tb;fill:#000000;fill-opacity:1;fill-rule:nonzero;stroke:none"
       id="text140"><tspan
         x="0 6.5436001 13.0134 19.368811 23.508989 27.593821 34.069771"
         y="0"
         sodipodi:role="line"
         id="tspan142">Control</tspan></text>
<g
       id="g144"
       transform="translate(349.74,48.111)"><path
         d="m 0,0 -0.6,0 -0.6,0.12 c -13.15,4.116 -13.132,47.174 0,51.3 L 0,51.54 0.6,51.48 C 7.937,50.567 10.788,35.408 10.92,29.64 l 0.06,-1.26 0.06,-1.32 C 11.329,19.835 9.565,4.445 2.34,0.54 L 1.74,0.3 1.2,0.12 0.6,0 0,0 Z m 0.48,0.9 0.54,0.06 -0.06,0 0.54,0.18 -0.06,-0.06 0.54,0.24 -0.06,0 0.48,0.3 0,-0.06 0.96,0.72 0.48,0.42 -0.06,0 0.48,0.48 0.48,0.6 -0.06,-0.06 0.48,0.6 -0.06,0 0.48,0.66 -0.06,0 0.42,0.72 0,-0.06 0.42,0.78 0,-0.06 0.72,1.68 0,-0.06 0.72,1.8 -0.06,0 0.36,0.96 0.3,0.96 0.24,1.02 0.24,1.08 0,-0.06 0.24,1.14 0.24,1.08 0.18,1.14 0.18,1.2 0.12,1.2 0,-0.06 0.24,2.52 0,-0.06 0.06,1.32 0,-0.06 0,1.32 c 0.135,2.925 -0.087,5.853 -0.42,8.76 l -0.18,1.2 0,-0.06 -0.18,1.2 0,-0.06 -0.24,1.14 -0.24,1.08 -0.24,1.08 0,-0.06 -0.24,1.08 0,-0.06 -0.3,1.02 -0.36,0.96 0.06,0 -0.36,0.9 -0.72,1.68 -0.36,0.78 -0.84,1.44 0.06,0 -0.48,0.66 0.06,-0.06 -0.48,0.6 0.06,0 -0.48,0.6 0,-0.06 -0.48,0.54 0.06,-0.06 -0.48,0.48 0,-0.06 -0.48,0.42 -0.96,0.6 0.06,-0.06 -0.54,0.24 0.06,0 -0.54,0.18 0.06,-0.06 -0.54,0.12 -0.54,0 0.06,0 -0.54,0 0.06,0 -0.54,-0.12 0.06,0.06 -0.54,-0.18 0.06,0 -0.54,-0.24 0.06,0.06 -0.54,-0.3 0.06,0 -0.54,-0.3 0.06,0 -0.54,-0.42 0.06,0.06 -0.48,-0.48 0,0.06 -0.48,-0.54 0.06,0 -0.48,-0.54 -0.42,-0.6 0,0.06 -0.42,-0.66 C -6.669,44.7 -7.524,42.886 -8.1,40.8 l -0.3,-1.02 0,0.06 -0.3,-1.08 0,0.06 -0.48,-2.16 -0.18,-1.14 0,0.06 -0.18,-1.2 0,0.06 -0.18,-1.2 c -0.387,-2.802 -0.517,-5.928 -0.48,-8.76 l 0.06,-1.32 0,0.06 0.06,-1.32 0.06,-1.2 0.12,-1.26 0,0.06 0.18,-1.2 0.18,-1.2 0.18,-1.14 0.18,-1.08 0.24,-1.14 0,0.06 0.24,-1.08 0.3,-1.02 0.6,-1.92 0.3,-0.9 0.36,-0.9 0,0.06 0.36,-0.84 0.42,-0.84 0,0.06 0.36,-0.78 0,0.06 0.42,-0.72 0.42,-0.66 0.42,-0.6 0.48,-0.54 -0.06,0 0.48,-0.48 0.48,-0.42 -0.06,0 0.54,-0.36 -0.06,0 0.54,-0.36 -0.06,0.06 0.54,-0.3 -0.06,0 0.54,-0.24 -0.06,0.06 0.54,-0.18 -0.06,0 0.54,-0.06 -0.06,0 0.54,-0.06 -0.06,0"
         style="fill:#000000;fill-opacity:1;fill-rule:nonzero;stroke:none"
         id="path146"
         inkscape:connector-curvature="0" /></g><text
       transform="matrix(0,1,1,0,270.6,360.4705)"
       style="font-variant:normal;font-weight:normal;font-stretch:normal;font-size:12.30000019px;font-family:Calibri;-inkscape-font-specification:Calibri;writing-mode:lr-tb;fill:#000000;fill-opacity:1;fill-rule:nonzero;stroke:none"
       id="text148"><tspan
         x="0 7.9015198 12.71574 18.84606"
         y="0"
         sodipodi:role="line"
         id="tspan150">User</tspan></text>
<g
       id="g152"
       transform="translate(267.24,353.091)"><path
         d="m 0,0 -0.6,0.06 -0.54,0.06 c -13.199,3.02 -13.169,34.467 0,37.38 l 0.54,0.12 1.2,0 C 7.425,36.793 10.586,27.502 10.92,21.66 l 0.12,-0.9 0,-0.96 C 11.384,13.365 9.08,3.008 2.28,0.42 L 1.74,0.24 1.14,0.12 0.6,0.06 0,0 Z m 0.54,0.9 -0.06,0 0.54,0.12 0,-0.06 0.54,0.12 -0.06,0 0.54,0.18 -0.06,0 0.54,0.18 -0.06,0 0.54,0.24 -0.06,0 0.48,0.3 0,-0.06 0.48,0.36 0.42,0.36 0,-0.06 L 4.8,3 4.74,3 5.22,3.42 5.64,3.9 5.58,3.9 6,4.38 l 0.42,0.54 0.36,0.54 0.36,0.6 0.36,0.66 0,-0.06 0.3,0.66 0.3,0.72 0,-0.06 0.3,0.72 0.3,0.78 0,-0.06 0.48,1.56 0.18,0.84 0,-0.06 0.18,0.84 c 0.738,3.522 0.901,7.183 0.3,10.74 l -0.12,0.9 0,-0.06 -0.18,0.9 0,-0.06 -0.36,1.68 0,-0.06 -0.24,0.84 0,-0.06 -0.24,0.78 -0.6,1.44 -0.6,1.32 -0.36,0.66 0,-0.06 -0.36,0.66 0,-0.06 -0.36,0.6 -0.42,0.54 0,-0.06 -0.42,0.54 0.06,0 -0.42,0.48 0,-0.06 L 4.74,34.68 4.8,34.62 4.32,35.04 3.9,35.4 2.94,36 3,36 l -0.54,0.24 0.06,-0.06 -0.54,0.24 0.06,0 -0.54,0.12 0.06,0 -0.54,0.12 -0.54,0.06 0.06,0 -0.54,0.06 -0.54,-0.06 0.06,0 -0.54,-0.06 0.06,0 -0.54,-0.12 -0.48,-0.12 -0.48,-0.24 0,0.06 -0.48,-0.24 -0.96,-0.6 0.06,0 -0.48,-0.36 -0.42,-0.42 0,0.06 -0.48,-0.48 0.06,0.06 -0.48,-0.48 0.06,0 -0.42,-0.54 0,0.06 -0.42,-0.54 0.06,0 -0.42,-0.6 0,0.06 -0.36,-0.66 0,0.06 -0.36,-0.66 0.06,0 -0.36,-0.66 -0.3,-0.66 -0.6,-1.44 0.06,0 -0.3,-0.78 0,0.06 -0.24,-0.84 0.06,0.06 -0.24,-0.84 -0.18,-0.84 0,0.06 -0.18,-0.9 0,0.06 -0.12,-0.9 c -0.614,-3.842 -0.417,-7.796 0.48,-11.58 l 0.24,-0.78 -0.06,0 0.24,-0.78 0.3,-0.78 -0.06,0.06 0.3,-0.78 0.3,-0.72 0,0.06 0.3,-0.72 0.36,-0.66 -0.06,0.06 0.36,-0.66 0.36,-0.6 0.42,-0.54 -0.06,0 0.42,-0.54 0.84,-0.96 -0.06,0 0.48,-0.42 0.42,-0.42 0,0.06 0.48,-0.36 -0.06,0 0.48,-0.36 0,0.06 0.48,-0.3 0.48,-0.24 0.96,-0.36 0.54,-0.12 -0.06,0.06 0.54,-0.12 -0.06,0 0.54,0"
         style="fill:#000000;fill-opacity:1;fill-rule:nonzero;stroke:none"
         id="path154"
         inkscape:connector-curvature="0" /></g><text
       transform="matrix(0,1,1,0,138.36,512.2105)"
       style="font-variant:normal;font-weight:normal;font-stretch:normal;font-size:12.30000019px;font-family:Calibri;-inkscape-font-specification:Calibri;writing-mode:lr-tb;fill:#000000;fill-opacity:1;fill-rule:nonzero;stroke:none"
       id="text156"><tspan
         x="0 5.3345098 11.21391 21.044069 23.86323 26.68239"
         y="0"
         sodipodi:role="line"
         id="tspan158">Family</tspan></text>
<g
       id="g160"
       transform="translate(135,504.831)"><path
         d="m 0,0 -1.2,0.12 c -13.136,3.858 -13.105,42.802 0,46.56 l 0.6,0.12 1.2,0 C 7.917,45.635 10.688,32.942 10.92,26.94 l 0.06,-1.14 0.06,-1.2 C 11.341,17.649 9.466,3.99 2.34,0.54 L 1.74,0.3 1.2,0.12 0.6,0.06 0,0 Z m 0.54,0.9 -0.06,0 0.54,0.12 -0.06,0 0.54,0.12 -0.06,0 0.54,0.18 -0.06,0 0.54,0.24 -0.06,0 0.54,0.3 -0.06,0 L 3.42,2.22 3.36,2.16 3.84,2.58 4.32,3.06 4.26,3 l 0.48,0.54 0,-0.06 0.42,0.6 0,-0.06 0.42,0.6 L 6,5.28 6,5.22 6.36,5.94 6.36,5.88 6.78,6.6 6.72,6.6 7.14,7.38 7.44,8.16 7.8,9 l 0,-0.06 0.6,1.8 0,-0.06 0.24,0.96 0.3,0.96 0,-0.06 0.24,1.02 -0.06,0 0.24,1.02 0.18,1.02 0.18,1.08 0,-0.06 0.12,1.14 0,-0.06 0.12,1.14 0.12,1.14 0,-0.06 0.06,1.14 c 0.199,3.047 -0.035,6.097 -0.42,9.12 l -0.18,1.08 0,-0.06 -0.18,1.08 -0.24,1.02 0.06,-0.06 -0.24,1.02 -0.3,0.96 0,-0.06 -0.24,0.96 -0.3,0.9 -0.3,0.84 -0.36,0.84 0,-0.06 -0.3,0.84 -0.42,0.72 0.06,0 -0.42,0.72 -0.36,0.66 -0.84,1.2 -0.42,0.54 -0.48,0.48 0.06,0 -0.48,0.48 0,-0.06 -0.48,0.42 0.06,0 L 2.88,45 2.94,44.94 2.4,45.3 l 0.06,-0.06 -0.54,0.3 0.06,-0.06 -0.54,0.24 0.06,-0.06 -0.54,0.18 0.06,0 -0.54,0.06 0.06,0 -0.54,0.06 -0.54,-0.06 0.06,0 -0.54,-0.06 0.06,0 -0.54,-0.18 0.06,0.06 -0.54,-0.24 0.06,0 -0.54,-0.24 0.06,0.06 -0.54,-0.36 0.06,0.06 -0.54,-0.36 0.06,0 -0.48,-0.42 0,0.06 -0.48,-0.48 0.06,0 -0.48,-0.48 -0.42,-0.54 -0.84,-1.2 -0.36,-0.66 -0.42,-0.72 0.06,0 -0.42,-0.72 -0.3,-0.84 0,0.06 -0.36,-0.84 -0.3,-0.84 -0.3,-0.9 -0.24,-0.96 0,0.06 -0.3,-0.96 -0.24,-1.02 0,0.06 -0.18,-1.02 -0.18,-1.08 0,0.06 -0.18,-1.08 c -0.495,-3.766 -0.684,-7.558 -0.24,-11.34 l 0.12,-1.14 0,0.06 0.12,-1.14 0,0.06 0.18,-1.08 0.36,-2.04 0.24,-0.96 0.3,-0.96 0.24,-0.96 0,0.06 0.6,-1.8 0,0.06 0.36,-0.84 0.3,-0.78 0.42,-0.78 -0.06,0 0.42,-0.72 0,0.06 0.36,-0.72 0,0.06 0.42,-0.66 0.42,-0.6 0,0.06 0.42,-0.6 0,0.06 0.48,-0.54 -0.06,0.06 0.48,-0.48 0.48,-0.42 -0.06,0.06 0.54,-0.36 -0.06,0 0.54,-0.3 -0.06,0 0.54,-0.24 -0.06,0 0.54,-0.18 -0.06,0 0.54,-0.12 -0.06,0 0.54,-0.12 -0.06,0 0.54,0"
         style="fill:#000000;fill-opacity:1;fill-rule:nonzero;stroke:none"
         id="path162"
         inkscape:connector-curvature="0" /></g><text
       transform="matrix(0,1,1,0,135.3,423.2305)"
       style="font-variant:normal;font-weight:normal;font-stretch:normal;font-size:12.30000019px;font-family:Calibri;-inkscape-font-specification:Calibri;writing-mode:lr-tb;fill:#000000;fill-opacity:1;fill-rule:nonzero;stroke:none"
       id="text164"><tspan
         x="0 5.6346302 9.6555004 15.41559 19.43646"
         y="0"
         sodipodi:role="line"
         id="tspan166">State</tspan></text>
<g
       id="g168"
       transform="translate(131.94,415.851)"><path
         d="m 0,0 -0.6,0.06 -0.54,0.06 c -13.201,3.257 -13.169,37.321 0,40.5 L -0.6,40.68 0,40.74 0.6,40.68 C 7.513,39.957 10.677,29.216 10.92,23.46 l 0.12,-1.02 0,-1.02 C 11.4,14.923 9.168,3.198 2.28,0.48 L 1.74,0.24 1.14,0.12 0.6,0.06 0,0 Z m 0.54,0.9 -0.06,0 0.54,0.12 -0.06,0 0.54,0.12 0,-0.06 0.48,0.18 0.96,0.48 0.48,0.3 L 3.9,2.4 3.84,2.34 4.32,2.76 5.22,3.66 5.16,3.6 6,4.68 l 0.42,0.6 0,-0.06 0.72,1.32 0,-0.06 0.36,0.72 0.3,0.72 0,-0.06 0.6,1.56 0,-0.06 0.3,0.84 0.24,0.84 0,-0.06 0.24,0.9 0.18,0.84 0.36,1.8 0.24,1.92 0,-0.06 0.12,1.02 0.06,0.96 0.06,1.02 0,2.04 0,-0.06 -0.12,2.04 -0.12,0.96 -0.12,0.96 0,-0.06 -0.12,0.96 -0.18,0.9 -0.18,0.9 -0.18,0.9 -0.48,1.68 0,-0.06 -0.3,0.84 -0.3,0.78 0,-0.06 -0.3,0.78 -0.3,0.72 0,-0.06 -0.36,0.72 -0.36,0.66 -0.36,0.6 -1.26,1.62 0.06,0 -0.48,0.48 0,-0.06 -0.42,0.48 0,-0.06 -0.48,0.42 0.06,0 -0.48,0.36 0,-0.06 -0.96,0.6 0,-0.06 -0.48,0.24 -0.48,0.18 -0.54,0.12 0.06,0 -0.54,0.06 0.06,0 -1.08,0 0.06,0 -0.54,-0.06 0.06,0 -0.54,-0.12 -0.48,-0.18 -0.48,-0.24 0,0.06 -0.96,-0.6 0,0.06 -0.48,-0.36 0.06,0 -0.48,-0.42 0,0.06 -0.84,-0.96 0,0.06 -1.26,-1.62 0.06,0 -0.42,-0.6 -0.36,-0.66 -0.36,-0.72 0.06,0.06 -0.36,-0.72 -0.3,-0.78 0,0.06 -0.3,-0.78 -0.3,-0.84 0.06,0.06 -0.3,-0.84 c -0.639,-2.29 -1.063,-5.007 -1.2,-7.38 l -0.06,-1.02 0,0.06 0,-2.04 0.06,-1.02 0.06,-0.96 0.12,-1.02 0,0.06 0.12,-0.96 0.12,-0.96 0.54,-2.7 0,0.06 0.24,-0.9 0,0.06 0.3,-0.84 -0.06,0 0.3,-0.84 0,0.06 0.6,-1.56 0,0.06 0.36,-0.72 -0.06,0 0.36,-0.72 0,0.06 0.36,-0.66 0.42,-0.66 -0.06,0.06 0.42,-0.6 0.84,-1.08 0,0.06 0.42,-0.48 0.42,-0.42 0.48,-0.42 -0.06,0.06 0.54,-0.36 -0.06,0 0.48,-0.3 0.96,-0.48 0.48,-0.18 0,0.06 0.54,-0.12 -0.06,0 0.54,-0.12 -0.06,0 0.54,0"
         style="fill:#000000;fill-opacity:1;fill-rule:nonzero;stroke:none"
         id="path170"
         inkscape:connector-curvature="0" /></g><text
       transform="matrix(0,1,1,0,399.72,580.7905)"
       style="font-variant:normal;font-weight:normal;font-stretch:normal;font-size:12.30000019px;font-family:Calibri;-inkscape-font-specification:Calibri;writing-mode:lr-tb;fill:#000000;fill-opacity:1;fill-rule:nonzero;stroke:none"
       id="text172"><tspan
         x="0 10.52634 16.661579 26.499121 32.991058 37.293598"
         y="0"
         sodipodi:role="line"
         id="tspan174">Memory</tspan></text>
<g
       id="g176"
       transform="translate(396.36,573.471)"><path
         d="m 0,0 -0.6,0.06 -0.6,0.12 c -13.107,4.365 -13.148,53.681 0,58.2 L -0.6,58.5 0,58.56 0.6,58.5 C 8.215,57.127 10.827,39.684 10.92,33.66 l 0.12,-2.88 C 11.301,22.901 9.798,5.374 2.34,0.6 L 1.8,0.36 1.2,0.18 0.6,0.06 0,0 Z m 0.54,0.9 -0.06,0 0.48,0.12 0,-0.06 0.48,0.24 0,-0.06 0.48,0.24 0.48,0.3 0.48,0.42 0,-0.06 L 3.36,2.52 3.3,2.46 3.78,3 3.78,2.94 4.26,3.54 4.68,4.14 5.16,4.86 5.1,4.8 5.58,5.58 5.52,5.58 5.94,6.36 6.36,7.2 6.72,8.1 7.08,9.06 7.08,9 7.44,10.02 c 0.979,2.608 1.381,5.38 1.92,8.1 l 0.18,1.32 0,-0.06 0.18,1.38 c 0.444,3.941 0.512,7.505 0.42,11.46 l -0.06,1.44 0,-0.06 -0.12,1.44 C 9.531,40.607 8.429,47.156 5.94,52.2 l -0.42,0.78 0.06,0 -0.48,0.72 0.06,0 -0.48,0.66 -0.42,0.66 0,-0.06 -0.48,0.6 0.06,0 -0.54,0.48 0.06,0 -0.48,0.42 -0.48,0.36 -0.48,0.3 -0.48,0.24 0.06,0 -0.54,0.18 0.06,0 -0.54,0.12 0.06,-0.06 -0.6,0.06 0.06,0 -0.54,-0.06 0.06,0.06 -0.54,-0.12 0.06,0 -0.54,-0.18 0.06,0 -0.54,-0.24 0.06,0 -0.48,-0.3 -0.48,-0.36 -0.48,-0.42 -0.48,-0.48 0.06,0 -0.48,-0.6 0,0.06 -0.48,-0.66 0.06,0 L -5.16,53.7 -5.58,52.98 -6,52.2 l 0.06,0 -0.42,-0.84 -0.36,-0.9 -0.42,-0.96 0.06,0 -0.36,-0.96 -0.36,-1.08 -0.6,-2.16 -0.3,-1.2 0.06,0 -0.3,-1.2 c -0.512,-2.531 -0.822,-5.285 -1.02,-7.86 l -0.12,-1.44 0,0.06 -0.06,-1.44 c -0.127,-2.439 -0.064,-4.883 0.06,-7.32 l 0.12,-1.44 0,0.06 0.12,-1.44 0.12,-1.32 0.18,-1.38 0,0.06 0.18,-1.32 0.18,-1.26 0.24,-1.26 0.3,-1.2 -0.06,0 0.6,-2.28 0.3,-1.08 L -7.08,9 -7.14,9.06 -6.72,8.1 -6.36,7.2 -5.94,6.36 -6,6.36 -5.16,4.8 l 0,0.06 0.48,-0.72 -0.06,0 0.48,-0.6 0.48,-0.54 -0.06,0 0.48,-0.54 0,0.06 0.48,-0.48 0,0.06 0.48,-0.42 0.48,-0.3 -0.06,0 0.54,-0.24 -0.06,0.06 0.54,-0.18 -0.06,0 0.54,-0.12 -0.06,0 0.54,-0.06 -0.06,0"
         style="fill:#000000;fill-opacity:1;fill-rule:nonzero;stroke:none"
         id="path178"
         inkscape:connector-curvature="0" /></g><text
       transform="matrix(0,1,1,0,390.12,378.1105)"
       style="font-variant:normal;font-weight:normal;font-stretch:normal;font-size:12.30000019px;font-family:Calibri;-inkscape-font-specification:Calibri;writing-mode:lr-tb;fill:#000000;fill-opacity:1;fill-rule:nonzero;stroke:none"
       id="text180"><tspan
         x="0 6.5608201 13.04784 22.880461 29.34288 35.805302 39.826172 45.95649"
         y="0"
         sodipodi:role="line"
         id="tspan182">Computer</tspan></text>
<g
       id="g184"
       transform="translate(386.76,370.731)"><path
         d="m 0,0 -0.6,0.06 -0.6,0.12 c -13.115,5.165 -13.062,59.613 0,64.56 l 0.6,0.18 0.6,0.06 0.66,-0.06 C 8.426,63.336 10.783,43.473 10.98,37.38 l 0.06,-1.62 0,-1.62 C 11.421,26.152 9.777,5.77 2.4,0.72 L 1.8,0.42 1.26,0.24 0.66,0.06 0,0 Z M 0.54,0.96 0.48,0.96 1.02,1.08 0.96,1.02 1.5,1.26 1.44,1.2 1.98,1.5 1.92,1.5 2.4,1.86 2.4,1.8 2.88,2.22 3.36,2.7 l 0.48,0.54 -0.06,0 0.48,0.66 0,-0.06 0.48,0.72 -0.06,0 0.48,0.78 0,-0.06 0.42,0.84 0.42,0.9 0.36,0.96 0,-0.06 0.42,1.02 -0.06,0 0.42,1.08 0,-0.06 0.3,1.14 c 1.96,6.377 2.589,13.096 2.76,19.74 l 0,1.68 0,-0.06 0,1.68 C 10.029,40.784 9.4,47.503 7.44,53.88 l -0.3,1.14 0,-0.06 -0.42,1.08 0.06,0 -0.42,1.02 0,-0.06 -0.36,0.96 -0.42,0.9 -0.42,0.84 0,-0.06 -0.48,0.78 0.06,0 -0.48,0.72 0,-0.06 -0.48,0.66 0.06,0 -0.48,0.54 -0.48,0.48 -0.48,0.42 0,-0.06 -0.48,0.36 0.06,0 -0.54,0.3 0.06,-0.06 -0.54,0.24 0.06,-0.06 -0.54,0.12 0.06,0 -0.54,0.06 0.06,0 -0.54,-0.06 0.06,0 -0.54,-0.12 0.06,0.06 -0.54,-0.24 0.06,0.06 -0.54,-0.3 0.06,0 -0.54,-0.36 0.06,0.06 -0.54,-0.42 0.06,0 -0.48,-0.48 -0.48,-0.54 -0.48,-0.66 0.06,0.06 -0.48,-0.72 -0.42,-0.78 0,0.06 -0.42,-0.84 -0.42,-0.9 -0.42,-0.96 0,0.06 -0.36,-1.02 -0.36,-1.08 0,0.06 -0.36,-1.14 c -0.99,-3.411 -1.657,-6.915 -2.1,-10.44 l -0.18,-1.5 0,0.06 -0.12,-1.56 -0.12,-1.5 -0.06,-1.62 -0.12,-1.56 0,-1.62 -0.06,-1.68 0,0.06 0.06,-1.68 0,-1.62 0.06,-1.56 0.12,-1.62 0,0.06 0.12,-1.56 C -9.349,18.745 -8.108,11.372 -5.52,6.12 L -5.1,5.28 -5.1,5.34 -4.68,4.56 -4.2,3.84 -4.26,3.9 -3.78,3.24 -3.3,2.7 -2.82,2.22 -2.88,2.22 -2.34,1.8 -2.4,1.86 -1.86,1.5 -1.92,1.5 -1.38,1.2 -1.44,1.26 -0.9,1.02 -0.96,1.08 -0.42,0.96 -0.48,0.96 0.06,0.9 0,0.9"
         style="fill:#000000;fill-opacity:1;fill-rule:nonzero;stroke:none"
         id="path186"
         inkscape:connector-curvature="0" /></g><g
       id="g188"
       transform="translate(171.06,115.971)"><path
         d="m 0,0 59.94,-11.1 0.12,0.42 -60,11.1 L 0,0 Z m 58.68,-13.32 5.64,1.62 -4.68,3.54"
         style="fill:#5b9bd5;fill-opacity:1;fill-rule:nonzero;stroke:none"
         id="path190"
         inkscape:connector-curvature="0" /></g><g
       id="g192"
       transform="translate(161.28,143.631)"><path
         d="M 0,0 -44.04,95.4 -44.46,95.22 -0.36,-0.18 0,0 Z m -41.52,95.64 -4.56,3.66 -0.18,-5.88"
         style="fill:#5b9bd5;fill-opacity:1;fill-rule:nonzero;stroke:none"
         id="path194"
         inkscape:connector-curvature="0" /></g><g
       id="g196"
       transform="translate(120,83.391)"><path
         d="M 0,0 29.34,9.72 29.46,9.3 0.12,-0.42 0,0 Z m 27.78,11.76 5.82,-0.84 -4.2,-4.2"
         style="fill:#5b9bd5;fill-opacity:1;fill-rule:nonzero;stroke:none"
         id="path198"
         inkscape:connector-curvature="0" /></g><g
       id="g200"
       transform="translate(109.86,97.791)"><path
         d="M 0,0 47.22,195.96 47.64,195.84 0.42,-0.12 0,0 Z m 44.7,195.66 3.78,4.5 1.32,-5.7"
         style="fill:#5b9bd5;fill-opacity:1;fill-rule:nonzero;stroke:none"
         id="path202"
         inkscape:connector-curvature="0" /></g><g
       id="g204"
       transform="translate(102.36,93.291)"><path
         d="M 0,0 5.52,150.54 6,150.54 0.42,-0.06 0,0 Z m 3.12,149.76 2.82,5.16 2.4,-5.4"
         style="fill:#5b9bd5;fill-opacity:1;fill-rule:nonzero;stroke:none"
         id="path206"
         inkscape:connector-curvature="0" /></g><g
       id="g208"
       transform="translate(166.26,305.691)"><path
         d="m 0,0 85.2,-182.58 0.42,0.18 L 0.42,0.18 0,0 Z m 82.62,-182.82 4.62,-3.66 0.18,5.88"
         style="fill:#5b9bd5;fill-opacity:1;fill-rule:nonzero;stroke:none"
         id="path210"
         inkscape:connector-curvature="0" /></g><g
       id="g212"
       transform="translate(120.06,82.911)"><path
         d="M 0,0 11.76,0 C 47.533,0.143 83.334,0.051 119.1,0.48 l 1.86,0.06 -0.06,0.42 -1.8,-0.06 C 83.329,0.569 47.536,0.484 11.76,0.48 L 0,0.48 0,0 Z m 120.12,-1.92 5.22,2.76 -5.34,2.52"
         style="fill:#5b9bd5;fill-opacity:1;fill-rule:nonzero;stroke:none"
         id="path214"
         inkscape:connector-curvature="0" /></g><g
       id="g216"
       transform="translate(238.62,119.391)"><path
         d="m 0,0 -112.2,125.7 -0.36,-0.3 L -0.3,-0.3 0,0 Z m -109.86,126.6 -5.46,2.22 1.56,-5.7"
         style="fill:#5b9bd5;fill-opacity:1;fill-rule:nonzero;stroke:none"
         id="path218"
         inkscape:connector-curvature="0" /></g><g
       id="g220"
       transform="translate(256.44,104.391)"><path
         d="M 0,0 43.68,107.88 44.04,107.7 0.36,-0.18 0,0 Z m 41.1,107.94 4.38,3.9 0.48,-5.88"
         style="fill:#5b9bd5;fill-opacity:1;fill-rule:nonzero;stroke:none"
         id="path222"
         inkscape:connector-curvature="0" /></g><g
       id="g224"
       transform="translate(253.56,89.151)"><path
         d="M 0,0 0.84,0.06 1.68,0.3 C 11.941,5.079 18.572,40.637 20.7,50.46 l 0.66,3.6 0.66,3.72 c 10.032,57.913 13.526,118.835 13.74,177.42 l 0.12,10.98 0.3,11.04 0,-0.06 0.42,10.98 c 1.874,34.387 6.01,68.702 13.38,102.36 l 1.02,4.56 -0.06,0 1.08,4.44 c 3.785,15.886 8.447,32.026 14.46,47.22 l 1.38,3.3 -0.06,0 1.38,3.24 0,-0.06 1.38,3.12 c 2.975,6.405 6.029,12.278 10.02,18.12 l 1.5,2.1 0,-0.06 1.5,1.98 -0.06,0 1.56,1.8 -0.06,0 1.56,1.62 1.5,1.5 1.5,1.38 1.5,1.2 1.56,1.08 0,-0.06 1.5,0.96 0,-0.06 1.56,0.78 -0.06,0 1.92,0.54 -0.12,0.42 -1.92,-0.54 -1.56,-0.78 C 76.267,458.46 64.047,423.063 58.44,404.94 l -1.2,-4.02 -1.2,-4.08 -1.14,-4.2 C 49.507,372.648 45.467,352.222 42.48,331.74 L 41.04,321.54 39.72,311.1 38.64,300.54 37.62,289.86 36.84,279.06 36.18,268.14 35.7,257.22 35.46,246.24 35.34,235.2 35.28,224.16 35.16,213.18 34.86,202.26 34.56,191.4 34.08,180.6 33.6,169.86 33,159.3 l 0,0.06 -0.72,-10.44 C 30.913,129.513 29.039,110.146 26.64,90.84 l -0.6,-4.44 0,0.06 -0.6,-4.38 C 24.363,73.957 22.993,65.912 21.6,57.84 l -0.66,-3.72 0,0.06 -0.72,-3.66 -0.66,-3.48 C 18.071,39.802 16.419,32.593 14.34,25.5 L 13.62,22.92 12.84,20.46 C 11.096,15.296 9.259,10.255 6.42,5.58 L 5.58,4.38 4.74,3.3 4.8,3.36 3.96,2.46 3.12,1.68 3.18,1.74 2.34,1.14 1.5,0.72 1.56,0.72 0.72,0.48 0.78,0.48 -0.06,0.42 0,0 Z m 97.08,466.68 4.74,3.54 -5.7,1.62"
         style="fill:#5b9bd5;fill-opacity:1;fill-rule:nonzero;stroke:none"
         id="path226"
         inkscape:connector-curvature="0" /></g><g
       id="g228"
       transform="translate(256.44,104.331)"><path
         d="M 0,0 40.8,124.44 41.22,124.32 0.36,-0.12 0,0 Z m 38.28,124.38 4.14,4.14 0.84,-5.82"
         style="fill:#5b9bd5;fill-opacity:1;fill-rule:nonzero;stroke:none"
         id="path230"
         inkscape:connector-curvature="0" /></g><g
       id="g232"
       transform="translate(245.76,125.451)"><path
         d="M 0,0 85.8,288.54 86.22,288.42 0.42,-0.12 0,0 Z m 83.22,288.36 4.02,4.32 1.02,-5.82"
         style="fill:#5b9bd5;fill-opacity:1;fill-rule:nonzero;stroke:none"
         id="path234"
         inkscape:connector-curvature="0" /></g><g
       id="g236"
       transform="translate(255.78,104.631)"><path
         d="M 0,0 51.54,465.54 52.02,465.48 0.42,-0.06 0,0 Z m 49.08,464.94 3.18,4.92 2.04,-5.52"
         style="fill:#5b9bd5;fill-opacity:1;fill-rule:nonzero;stroke:none"
         id="path238"
         inkscape:connector-curvature="0" /></g><g
       id="g240"
       transform="translate(245.58,125.451)"><path
         d="M 0,0 -54.48,370.44 -54.9,370.38 -0.42,-0.06 0,0 Z m -51.96,369.9 -3.36,4.8 -1.86,-5.58"
         style="fill:#5b9bd5;fill-opacity:1;fill-rule:nonzero;stroke:none"
         id="path242"
         inkscape:connector-curvature="0" /></g><g
       id="g244"
       transform="translate(298.8,232.671)"><path
         d="M 0,0 -1.5,0.06 -3,0.3 c -15.773,3.774 -27.655,32.478 -32.58,45.9 l -1.26,3.48 -1.26,3.54 c -16.445,49.629 -23.393,104.788 -25.44,156.66 l -0.24,10.86 -0.06,6.42 0.42,0.06 0.06,-6.48 c 0.842,-45.202 5.985,-91.564 16.56,-135.6 l 1.08,-4.26 -0.06,0 1.14,-4.2 c 2.612,-10.166 5.853,-20.486 9.42,-30.36 l 1.32,-3.36 0,0.06 1.26,-3.3 c 4.417,-10.586 10.164,-22.811 18,-31.32 l 1.5,-1.5 -0.06,0 1.5,-1.32 1.44,-1.2 1.5,-1.02 1.44,-0.9 1.5,-0.72 -0.06,0 1.5,-0.6 1.5,-0.36 -0.06,0 1.5,-0.3 L 0.06,0.42 0,0 Z m -66.24,226.26 2.58,5.34 2.64,-5.28"
         style="fill:#5b9bd5;fill-opacity:1;fill-rule:nonzero;stroke:none"
         id="path246"
         inkscape:connector-curvature="0" /></g><g
       id="g248"
       transform="translate(309.66,209.331)"><path
         d="M 0,0 -6.48,-62.64 -6.96,-62.58 -0.42,0.06 0,0 Z m -4.02,-62.04 -3.12,-4.98 -2.1,5.52"
         style="fill:#5b9bd5;fill-opacity:1;fill-rule:nonzero;stroke:none"
         id="path250"
         inkscape:connector-curvature="0" /></g><g
       id="g252"
       transform="translate(316.74,249.531)"><path
         d="M 0,0 45.24,298.5 45.66,298.44 0.48,-0.06 0,0 Z m 42.72,298.02 3.42,4.8 1.8,-5.58"
         style="fill:#5b9bd5;fill-opacity:1;fill-rule:nonzero;stroke:none"
         id="path254"
         inkscape:connector-curvature="0" /></g><g
       id="g256"
       transform="translate(243.12,489.891)"><path
         d="M 0,0 108.36,67.32 108.6,66.96 0.24,-0.36 0,0 Z m 106.38,68.94 5.82,0.54 -3.06,-5.04"
         style="fill:#5b9bd5;fill-opacity:1;fill-rule:nonzero;stroke:none"
         id="path258"
         inkscape:connector-curvature="0" /></g><g
       id="g260"
       transform="translate(309.78,137.331)"><path
         d="M 0,0 59.76,417.72 60.18,417.66 0.42,-0.06 0,0 Z m 57.24,417.18 3.36,4.86 1.86,-5.58"
         style="fill:#5b9bd5;fill-opacity:1;fill-rule:nonzero;stroke:none"
         id="path262"
         inkscape:connector-curvature="0" /></g><g
       id="g264"
       transform="translate(295.08,137.451)"><path
         d="m 0,0 -165,122.46 -0.24,-0.3 L -0.24,-0.3 0,0 Z m -162.84,123.9 -5.82,1.02 2.64,-5.22"
         style="fill:#5b9bd5;fill-opacity:1;fill-rule:nonzero;stroke:none"
         id="path266"
         inkscape:connector-curvature="0" /></g><g
       id="g268"
       transform="translate(375,278.931)"><path
         d="m 0,0 -244.2,-16.5 0,0.48 L -0.06,0.42 0,0 Z m -243.12,-18.84 -5.46,2.28 5.1,3"
         style="fill:#5b9bd5;fill-opacity:1;fill-rule:nonzero;stroke:none"
         id="path270"
         inkscape:connector-curvature="0" /></g><g
       id="g272"
       transform="translate(378.3,303.591)"><path
         d="M 0,0 -35.7,119.22 -36.12,119.1 -0.42,-0.12 0,0 Z m -33.12,119.04 -4.02,4.32 -1.02,-5.82"
         style="fill:#5b9bd5;fill-opacity:1;fill-rule:nonzero;stroke:none"
         id="path274"
         inkscape:connector-curvature="0" /></g><g
       id="g276"
       transform="translate(385.2,313.671)"><path
         d="M 0,0 -65.34,277.44 -65.76,277.38 -0.42,-0.12 0,0 Z m -62.76,277.14 -3.78,4.5 -1.32,-5.7"
         style="fill:#5b9bd5;fill-opacity:1;fill-rule:nonzero;stroke:none"
         id="path278"
         inkscape:connector-curvature="0" /></g><g
       id="g280"
       transform="translate(374.34,279.231)"><path
         d="M 0,0 -4.32,0.06 -8.64,0.3 c -43.587,3.399 -82.748,29.482 -111.48,61.14 l -3.36,3.78 -3.24,3.84 c -31.766,38.154 -53.145,86.686 -57,136.38 l -0.3,5.16 -0.24,5.94 0.42,0.06 0.24,-6 c 0.685,-13.558 2.816,-27.752 6.12,-40.92 l 1.32,-5.04 -0.06,0 1.44,-4.98 1.5,-4.98 1.62,-4.92 1.74,-4.92 1.86,-4.86 1.92,-4.86 0,0.06 2.04,-4.8 c 10.318,-23.502 24.111,-45.503 40.98,-64.86 l 3.36,-3.78 -0.06,0 3.42,-3.66 C -95.864,36.458 -71.004,18.117 -42.72,8.1 l 4.26,-1.44 -0.06,0 4.26,-1.26 c 9.761,-2.803 19.846,-4.529 30,-4.92 L 0,0.42 0,0 Z m -186.66,215.64 2.58,5.34 2.7,-5.28"
         style="fill:#5b9bd5;fill-opacity:1;fill-rule:nonzero;stroke:none"
         id="path282"
         inkscape:connector-curvature="0" /></g><g
       id="g284"
       transform="translate(333.84,481.971)"><path
         d="M 0,0 -16.68,93.84 -17.1,93.78 -0.42,-0.06 0,0 Z m -14.16,93.42 -3.48,4.68 -1.68,-5.64"
         style="fill:#5b9bd5;fill-opacity:1;fill-rule:nonzero;stroke:none"
         id="path286"
         inkscape:connector-curvature="0" /></g><g
       id="g288"
       transform="translate(326.22,472.731)"><path
         d="M 0,0 -121.2,49.92 -121.38,49.5 -0.18,-0.42 0,0 Z m -119.46,51.84 -5.88,-0.48 3.84,-4.38"
         style="fill:#5b9bd5;fill-opacity:1;fill-rule:nonzero;stroke:none"
         id="path290"
         inkscape:connector-curvature="0" /></g><g
       id="g292"
       transform="translate(316.38,580.07)"><path
         d="m 0,0 -6.6,-319.26 -0.42,0 L -0.42,0 0,0 Z m -4.2,-318.48 -2.7,-5.16 -2.52,5.28"
         style="fill:#5b9bd5;fill-opacity:1;fill-rule:nonzero;stroke:none"
         id="path294"
         inkscape:connector-curvature="0" /></g><g
       id="g296"
       transform="translate(298.14,594.831)"><path
         d="m 0,0 -93.36,-53.1 -0.18,0.36 93.3,53.1 L 0,0 Z m -91.38,-54.78 -5.88,-0.3 3.24,4.92"
         style="fill:#5b9bd5;fill-opacity:1;fill-rule:nonzero;stroke:none"
         id="path298"
         inkscape:connector-curvature="0" /></g><g
       id="g300"
       transform="translate(183.54,511.19)"><path
         d="m 0,0 -66.9,-224.64 -0.42,0.12 L -0.42,0.12 0,0 Z m -64.32,-224.46 -4.02,-4.32 -1.02,5.82"
         style="fill:#5b9bd5;fill-opacity:1;fill-rule:nonzero;stroke:none"
         id="path302"
         inkscape:connector-curvature="0" /></g><g
       id="g304"
       transform="translate(198.18,511.19)"><path
         d="m 0,0 98.34,-273.96 0.42,0.18 L 0.42,0.12 0,0 Z m 95.76,-273.96 4.26,-4.02 0.72,5.82"
         style="fill:#5b9bd5;fill-opacity:1;fill-rule:nonzero;stroke:none"
         id="path306"
         inkscape:connector-curvature="0" /></g><g
       id="g308"
       transform="translate(200.82,539.99)"><path
         d="M 0,0 146.46,36.48 146.58,36.06 0.12,-0.42 0,0 Z m 145.08,38.58 5.7,-1.26 -4.44,-3.84"
         style="fill:#5b9bd5;fill-opacity:1;fill-rule:nonzero;stroke:none"
         id="path310"
         inkscape:connector-curvature="0" /></g><g
       id="g312"
       transform="translate(230.04,227.091)"><path
         d="M 0,0 64.38,5.64 64.44,5.16 0,-0.48 0,0 Z M 63.3,7.92 68.82,5.76 63.78,2.7"
         style="fill:#5b9bd5;fill-opacity:1;fill-rule:nonzero;stroke:none"
         id="path314"
         inkscape:connector-curvature="0" /></g><g
       id="g316"
       transform="translate(226.74,240.591)"><path
         d="M 0,0 31.62,114.18 32.04,114.06 0.42,-0.12 0,0 Z m 29.04,114 3.96,4.32 1.14,-5.76"
         style="fill:#5b9bd5;fill-opacity:1;fill-rule:nonzero;stroke:none"
         id="path318"
         inkscape:connector-curvature="0" /></g><g
       id="g320"
       transform="translate(349.14,49.371)"><path
         d="M 0,0 -227.16,22.2 -227.22,21.78 -0.06,-0.42 0,0 Z m -226.08,24.54 -5.46,-2.1 4.98,-3.12"
         style="fill:#5b9bd5;fill-opacity:1;fill-rule:nonzero;stroke:none"
         id="path322"
         inkscape:connector-curvature="0" /></g><g
       id="g324"
       transform="translate(342.36,56.091)"><path
         d="m 0,0 -215.58,189.36 -0.3,-0.3 L -0.3,-0.3 0,0 Z m -213.36,190.62 -5.7,1.5 2.22,-5.46"
         style="fill:#5b9bd5;fill-opacity:1;fill-rule:nonzero;stroke:none"
         id="path326"
         inkscape:connector-curvature="0" /></g><g
       id="g328"
       transform="translate(349.92,99.231)"><path
         d="m 0,0 0,8.88 -0.12,8.88 c -1.661,82.914 -11.706,169.883 -34.02,249.9 l -1.86,6.48 -1.92,6.3 c -7.921,25.897 -29.228,88.16 -58.32,98.22 l -1.2,0.36 -1.74,0.3 -0.06,-0.42 1.68,-0.3 1.2,-0.36 1.2,-0.48 0,0.06 2.4,-1.08 2.4,-1.32 1.2,-0.78 1.2,-0.84 -0.06,0 2.4,-1.8 1.2,-1.02 1.2,-1.08 1.2,-1.14 -0.06,0 2.4,-2.4 2.34,-2.7 2.34,-2.88 2.34,-3.18 0,0.06 2.28,-3.36 2.34,-3.6 -0.06,0 2.28,-3.78 2.28,-3.96 c 20.081,-37.62 32.05,-82.886 40.98,-124.38 l 1.56,-7.5 1.5,-7.56 C -7.769,142.448 -1.737,79.918 -0.54,17.76 L -0.42,0 0,0 Z m -97.98,381.66 -5.58,-1.98 4.92,-3.3"
         style="fill:#5b9bd5;fill-opacity:1;fill-rule:nonzero;stroke:none"
         id="path330"
         inkscape:connector-curvature="0" /></g><g
       id="g332"
       transform="translate(349.5,99.231)"><path
         d="M 0,0 20.46,455.76 20.88,455.7 0.42,0 0,0 Z m 18,454.98 2.88,5.16 2.4,-5.4"
         style="fill:#5b9bd5;fill-opacity:1;fill-rule:nonzero;stroke:none"
         id="path334"
         inkscape:connector-curvature="0" /></g><g
       id="g336"
       transform="translate(342.42,91.911)"><path
         d="m 0,0 -197.82,416.22 -0.42,-0.18 L -0.42,-0.24 0,0 Z m -195.3,416.46 -4.62,3.66 -0.12,-5.88"
         style="fill:#5b9bd5;fill-opacity:1;fill-rule:nonzero;stroke:none"
         id="path338"
         inkscape:connector-curvature="0" /></g><g
       id="g340"
       transform="translate(256.8,371.811)"><path
         d="m 0,0 -145.08,-269.7 -0.36,0.18 L -0.36,0.18 0,0 Z m -142.56,-270.12 -4.8,-3.36 0.18,5.88"
         style="fill:#5b9bd5;fill-opacity:1;fill-rule:nonzero;stroke:none"
         id="path342"
         inkscape:connector-curvature="0" /></g><g
       id="g344"
       transform="translate(266.46,390.171)"><path
         d="m 0,0 -0.12,0.12 0.06,-0.06 -0.3,0.12 0.06,0 -0.54,0.12 -0.72,0.18 -0.96,0.12 0.06,0 -1.14,0.12 -1.32,0.18 -1.44,0.12 -1.62,0.12 -1.8,0.12 -1.98,0.12 0.06,0 -2.1,0.18 c -21.619,0.997 -43.686,1.608 -65.28,1.26 l -1.8,-0.24 0.06,0 -1.8,-0.24 -1.74,-0.36 -1.74,-0.42 -1.8,-0.54 0.06,0.06 -1.8,-0.6 0.06,0 -1.8,-0.66 0.06,0 -1.74,-0.72 -1.74,-0.78 -1.74,-0.84 0.06,0 -1.74,-0.9 -1.68,-0.96 -3.36,-2.16 -1.62,-1.14 -1.68,-1.26 0.06,0 -3.24,-2.58 c -11.69,-10.139 -20.625,-22.979 -27.36,-36.84 l -2.1,-4.56 0,0.06 -1.92,-4.68 c -3.211,-8.021 -5.58,-16.019 -7.32,-24.48 l -0.9,-5.1 0,0.06 -0.78,-5.16 -0.54,-5.16 0.06,0 -0.36,-6 -0.42,0.06 0.3,6 0.54,5.16 c 3.889,34.875 26.769,81.893 62.52,93.66 l 1.8,0.48 1.74,0.42 1.8,0.36 1.74,0.3 1.8,0.18 1.8,0.12 1.8,0.06 21.06,-0.18 c 6.499,-0.168 13.004,-0.148 19.5,-0.42 l 3.06,-0.06 2.88,-0.12 2.82,-0.12 C -17.963,2.204 -8.953,1.974 -0.78,0.78 L -0.18,0.6 0.18,0.42 0.36,0.24 0,0 Z m -148.56,-102.54 -2.7,-5.22 -2.52,5.34"
         style="fill:#5b9bd5;fill-opacity:1;fill-rule:nonzero;stroke:none"
         id="path346"
         inkscape:connector-curvature="0" /></g><g
       id="g348"
       transform="translate(266.46,390.411)"><path
         d="M 0,0 86.64,165.18 87.06,164.94 0.36,-0.24 0,0 Z m 84.12,165.48 4.74,3.48 -0.06,-5.88"
         style="fill:#5b9bd5;fill-opacity:1;fill-rule:nonzero;stroke:none"
         id="path350"
         inkscape:connector-curvature="0" /></g><g
       id="g352"
       transform="translate(259.92,385.011)"><path
         d="m 0,0 -112.02,140.28 -0.3,-0.3 L -0.36,-0.24 0,0 Z m -109.56,141.06 -5.34,2.46 1.2,-5.76"
         style="fill:#5b9bd5;fill-opacity:1;fill-rule:nonzero;stroke:none"
         id="path354"
         inkscape:connector-curvature="0" /></g><g
       id="g356"
       transform="translate(259.8,385.131)"><path
         d="M 0,0 -113.76,49.56 -113.94,49.14 -0.18,-0.42 0,0 Z m -111.96,51.42 -5.88,-0.3 3.78,-4.56"
         style="fill:#5b9bd5;fill-opacity:1;fill-rule:nonzero;stroke:none"
         id="path358"
         inkscape:connector-curvature="0" /></g><g
       id="g360"
       transform="translate(277.26,371.991)"><path
         d="M 0,0 2.76,0.12 5.58,0.3 c 29.608,3.275 54.003,29.207 69.6,52.68 l 2.22,3.42 2.16,3.42 c 23.028,37.995 36.314,84.15 38.76,128.46 l 0.18,4.74 0.12,5.1 -0.42,0.06 -0.12,-5.1 -0.48,-9.48 -0.42,-4.74 0,0.06 -0.42,-4.74 -0.54,-4.68 -0.6,-4.68 -0.72,-4.62 -0.78,-4.68 -0.84,-4.62 0,0.06 -0.9,-4.62 c -3.901,-19.199 -9.902,-38.263 -17.7,-56.22 l -1.74,-4.02 0,0.06 -1.86,-3.96 C 87.484,74.622 83.569,67.187 79.14,60.06 l -2.1,-3.48 0,0.06 -2.22,-3.42 0,0.06 -2.22,-3.3 C 68.89,44.699 65.173,39.756 60.96,34.86 l -2.46,-2.76 0,0.06 -2.46,-2.7 -2.46,-2.52 -2.52,-2.46 -2.52,-2.34 -2.58,-2.22 -2.58,-2.16 0,0.06 -2.64,-2.04 C 34.163,10.9 27.012,6.677 19.26,3.96 L 16.56,3 16.56,3.06 13.8,2.28 11.04,1.62 8.28,1.08 5.52,0.72 2.76,0.54 0,0.48 0,0 Z m 121.02,197.22 -2.52,5.28 -2.7,-5.22"
         style="fill:#5b9bd5;fill-opacity:1;fill-rule:nonzero;stroke:none"
         id="path362"
         inkscape:connector-curvature="0" /></g><g
       id="g364"
       transform="translate(274.74,359.151)"><path
         d="M 0,0 100.2,20.76 100.26,20.34 0.06,-0.42 0,0 Z m 98.82,22.92 5.7,-1.5 -4.62,-3.66"
         style="fill:#5b9bd5;fill-opacity:1;fill-rule:nonzero;stroke:none"
         id="path366"
         inkscape:connector-curvature="0" /></g><g
       id="g368"
       transform="translate(135.24,505.25)"><path
         d="m 0,0 -3.36,-45.36 -0.48,0 L -0.48,0.06 0,0 Z m -0.9,-44.7 -3,-5.04 -2.28,5.46"
         style="fill:#5b9bd5;fill-opacity:1;fill-rule:nonzero;stroke:none"
         id="path370"
         inkscape:connector-curvature="0" /></g><g
       id="g372"
       transform="translate(124.38,422.391)"><path
         d="m 0,0 -0.3,-0.06 -0.36,-0.12 -0.3,-0.12 c -3.173,-2.099 -5.588,-12.925 -6.3,-16.38 l -0.6,-2.76 -0.6,-2.94 c -2.62,-14.532 -4.411,-29.535 -5.94,-44.22 l -0.54,-4.98 -0.48,-5.1 -0.48,-5.28 c -6.432,-73.12 -8.898,-147.022 -9.72,-220.38 l -0.12,-15.6 -0.06,-11.22 0.48,0 0,11.22 0.12,15.6 c 0.549,53.609 2.144,107.221 5.34,160.74 l 0.36,6.42 0.42,6.42 c 1.965,29.664 4.309,59.329 8.28,88.8 l 0.54,3.84 0.54,3.72 0,-0.06 0.6,3.54 0.54,3.3 0.6,3.18 0.54,2.94 0.6,2.76 0,-0.06 0.54,2.58 0.6,2.34 0.6,2.16 0.6,1.92 0.6,1.74 -0.06,0 0.6,1.5 0,-0.06 0.6,1.32 0.6,1.02 0.6,0.84 -0.06,-0.06 0.6,0.6 0.3,0.18 -0.06,0 0.3,0.18 0,-0.06 0.3,0.12 -0.06,0 0.3,0 L 0,0 Z m -28.2,-328.26 2.64,-5.28 2.64,5.28"
         style="fill:#5b9bd5;fill-opacity:1;fill-rule:nonzero;stroke:none"
         id="path374"
         inkscape:connector-curvature="0" /></g><g
       id="g376"
       transform="translate(139.38,450.531)"><path
         d="m 0,0 211.98,107.04 0.18,-0.42 L 0.18,-0.42 0,0 Z m 210.06,108.78 5.88,0.06 -3.48,-4.74"
         style="fill:#5b9bd5;fill-opacity:1;fill-rule:nonzero;stroke:none"
         id="path378"
         inkscape:connector-curvature="0" /></g><g
       id="g380"
       transform="translate(139.44,450.111)"><path
         d="m 0,0 232.38,-46.26 0.06,0.42 L 0.06,0.42 0,0 Z m 231.06,-48.42 5.64,1.5 -4.62,3.66"
         style="fill:#5b9bd5;fill-opacity:1;fill-rule:nonzero;stroke:none"
         id="path382"
         inkscape:connector-curvature="0" /></g><g
       id="g384"
       transform="translate(385.86,602.57)"><path
         d="M 0,0 -11.64,-7.32 -11.88,-6.96 -0.24,0.36 0,0 Z m -9.6,-8.88 -5.88,-0.6 3.06,5.04"
         style="fill:#5b9bd5;fill-opacity:1;fill-rule:nonzero;stroke:none"
         id="path386"
         inkscape:connector-curvature="0" /></g><g
       id="g388"
       transform="translate(404.1,582.291)"><path
         d="m 0,0 -17.22,-142.74 -0.42,0.06 L -0.48,0.06 0,0 Z m -14.7,-142.14 -3.24,-4.92 -1.98,5.52"
         style="fill:#5b9bd5;fill-opacity:1;fill-rule:nonzero;stroke:none"
         id="path390"
         inkscape:connector-curvature="0" /></g><g
       id="g392"
       transform="translate(386.22,371.631)"><path
         d="m 0,0 -256.26,-107.46 -0.18,0.42 L -0.12,0.36 0,0 Z m -254.52,-109.32 -5.88,0.36 3.84,4.5"
         style="fill:#5b9bd5;fill-opacity:1;fill-rule:nonzero;stroke:none"
         id="path394"
         inkscape:connector-curvature="0" /></g><g
       id="g396"
       transform="translate(379.5,425.871)"><path
         d="m 0,0 -6.24,147.06 -0.42,0 L -0.48,0 0,0 Z m -3.78,146.28 -2.88,5.16 -2.4,-5.4"
         style="fill:#5b9bd5;fill-opacity:1;fill-rule:nonzero;stroke:none"
         id="path398"
         inkscape:connector-curvature="0" /></g><path
       d="m 412.68,36.711 -328.14,0 0,600.36 328.14,0 0,-600.36 z m -328.14,0 z m 327.66,0.84 -0.42,-0.42 0,599.52 0.42,-0.421 -327.24,0 0.42,0.421 0,-599.52 -0.42,0.42"
       style="fill:#000000;fill-opacity:1;fill-rule:nonzero;stroke:none"
       id="path400"
       inkscape:connector-curvature="0" /><g
       id="g402"
       transform="translate(301.14,580.31)"><path
         d="m 0,0 -2.1,-0.06 -2.1,-0.18 c -20.28,-2.166 -37.537,-18.903 -48.9,-34.68 l -1.68,-2.4 -1.68,-2.46 -1.68,-2.52 c -12.896,-20.42 -21.709,-43.83 -26.58,-67.44 l -1.32,-6.96 -1.08,-6.96 c -2.355,-14.077 -1.669,-28.359 -2.52,-42.54 l -0.3,-3.54 -0.3,-3.48 -0.9,-7.08 0,0.06 -1.08,-7.02 0,0.06 -1.32,-6.96 0,0.06 -1.5,-6.84 c -5.17,-21.223 -13.285,-42.001 -25.02,-60.48 l -1.68,-2.52 0.06,0 -1.68,-2.46 c -2.802,-3.995 -5.591,-7.628 -8.76,-11.34 l -1.86,-2.04 0.06,0 -1.86,-1.98 c -2.923,-3.112 -6.198,-6.102 -9.54,-8.76 l -1.98,-1.56 0.06,0.06 -1.98,-1.44 -2.04,-1.38 0.06,0 -2.04,-1.2 -1.98,-1.2 -2.04,-1.08 0,0.06 -2.04,-1.02 -2.04,-0.84 -2.04,-0.78 -2.04,-0.72 -2.1,-0.6 0.06,0.06 -2.1,-0.54 0,0.06 -2.04,-0.42 -1.86,-0.18 0,-0.42 1.92,0.18 2.1,0.36 c 28.824,6.385 50.486,38.734 61.68,63.66 l 2.64,6 2.46,6.24 2.28,6.36 c 7.512,22.01 11.671,45.591 11.7,68.88 l 0,3.54 0.12,3.54 c 0.944,25.426 6.545,50.711 16.26,74.22 l 2.64,6 2.76,5.82 2.94,5.64 -0.06,0 3.06,5.46 c 6.885,11.533 14.603,22.041 24.6,31.08 l 1.92,1.68 0,-0.06 1.92,1.62 c 5.473,4.306 11.488,8.009 18.06,10.38 l 2.04,0.72 0,-0.06 2.1,0.6 2.04,0.48 2.1,0.42 -0.06,-0.06 2.1,0.3 2.1,0.18 -0.06,0 L 0,-0.42 0,0 Z m -172.74,-300.78 -5.1,-3 5.46,-2.22"
         style="fill:#5b9bd5;fill-opacity:1;fill-rule:nonzero;stroke:none"
         id="path404"
         inkscape:connector-curvature="0" /></g><g
       id="g406"
       transform="translate(115.74,68.571)"><path
         d="m 0,0 7.38,-3.06 c 14.079,-5.791 28.395,-11.225 43.32,-14.4 l 1.98,-0.36 -0.06,0 3.96,-0.72 c 19.529,-3.24 39.585,0.678 59.16,1.86 l 4.02,0.18 3.96,0.06 c 12.517,-0.074 24.266,-2.559 36.48,-5.04 l 3.06,-0.6 3.12,-0.54 -0.06,0 3.12,-0.54 3.18,-0.42 c 5.676,-0.669 11.51,-0.908 17.22,-1.32 l 3.72,-0.24 3.84,-0.18 c 8.463,-0.377 17.273,-0.747 25.74,-0.06 l 1.62,0.12 1.56,0.18 0,-0.06 1.5,0.24 1.5,0.18 c 3.935,0.632 7.723,1.917 11.58,2.88 l 0.9,0.24 0.84,0.24 c 2.424,0.707 5.01,1.793 6.72,3.72 l 0.54,0.6 0.48,0.66 0,-0.06 0.48,0.78 0,-0.06 0.84,1.68 0.42,0.96 0.42,1.02 -0.06,0 0.24,0.54 c 0.864,2.809 1.464,5.689 1.98,8.58 l 0.12,0.9 0,-0.06 0.24,1.92 0.24,2.1 0.12,2.22 c 0.492,12.858 -0.614,25.814 -1.38,38.64 l -0.48,6.84 -0.42,6.78 c -0.635,13.444 -1.607,28.012 0.36,41.4 l 0.72,4.68 0.84,4.56 0.96,4.38 1.08,4.2 c 3.614,13.788 9.44,26.92 13.68,40.5 l 0.54,1.68 0.48,1.68 c 2.516,7.643 5.652,14.946 8.58,22.44 l 0.96,2.64 0.96,2.7 0.84,2.76 0,-0.06 1.26,4.32 0.36,1.5 0,-0.06 0.36,1.56 0.3,1.56 0,-0.06 0.36,1.62 0.3,1.62 0.54,3.36 0.42,3.42 c 1.07,8.497 1.469,17.063 1.68,25.62 l 0.12,3.84 0.06,3.9 c 0.124,10.725 0.409,21.439 0.6,32.16 l 0,4.32 0.06,8.7 0,8.76 c -0.031,20.597 -0.283,41.161 -1.14,61.74 l -0.06,2.16 -0.12,2.16 -0.06,2.1 -0.06,2.04 c -0.305,5.181 -0.4,10.431 -0.72,15.6 l 0,0.72 c -0.816,16.286 -0.213,32.85 -2.22,49.08 l -0.36,3.06 -0.48,3.06 -0.54,3.18 0,-0.06 -0.54,3.18 c -2.374,12.685 -5.603,25.618 -9.96,37.8 l -0.42,1.14 0,-0.06 -0.42,1.14 c -1.276,3.278 -2.791,6.466 -4.5,9.54 l -0.96,1.68 0,-0.06 -0.96,1.62 -0.96,1.5 -1.02,1.5 0.06,0 -2.04,2.76 -1.38,1.86 0.36,0.24 1.38,-1.8 1.02,-1.44 c 6.918,-9.477 10.301,-18.621 13.62,-29.7 l 0.84,-2.88 0.78,-2.94 c 2.836,-10.355 4.942,-20.586 6.54,-31.2 l 0.42,-3.12 0.3,-3.06 c 1.368,-13.761 1.272,-27.767 1.68,-41.58 l 0.12,-3.3 0,-0.24 0,0.06 0.06,-0.18 0,-0.24 c 1.702,-36.289 2.57,-72.456 2.1,-108.84 l -0.06,-4.2 -0.06,-4.14 -0.12,-4.02 c -0.832,-22.544 0.704,-48.919 -5.7,-70.68 l -0.42,-1.44 -1.8,-5.4 c -2.326,-6.372 -5.049,-12.589 -7.38,-18.96 l -1.08,-3 c -3.036,-9.314 -5.935,-18.294 -9.48,-27.48 l -1.32,-3.72 -1.32,-3.78 -1.26,-3.9 -1.26,-3.96 0.06,0 -1.2,-4.08 -1.08,-4.26 -0.96,-4.38 -0.84,-4.5 c -2.432,-13.146 -2.003,-26.027 -1.44,-39.3 l 0.42,-6.72 0.42,-6.78 c 0.745,-14.275 2.232,-28.832 1.92,-43.14 l -0.12,-2.4 -0.12,-2.22 -0.18,-2.1 c -1.081,-6.386 -2.123,-16.039 -8.22,-19.68 l -0.72,-0.36 -0.66,-0.36 -0.78,-0.3 -0.72,-0.3 -0.84,-0.24 c -3.684,-1.185 -7.691,-2.114 -11.46,-3.18 l -1.32,-0.24 -1.44,-0.24 c -6.781,-1.057 -13.672,-1.057 -20.52,-1.02 l -3.84,0.06 -7.68,0.36 -3.78,0.18 c -6.999,0.554 -14.031,0.668 -21,1.56 l -3.18,0.42 -3.12,0.48 c -10.506,1.924 -20.996,4.491 -31.62,5.58 l -1.74,0.18 -3.6,0.24 -1.86,0.12 0.06,0 -3.78,0.06 -3.9,-0.06 C 99.708,-17.594 78.553,-22.244 58.5,-19.26 l -1.98,0.3 -1.98,0.36 c -15.079,2.628 -29.47,7.922 -43.62,13.62 l -3.72,1.56 -7.38,3 L 0,0 Z m 259.32,502.38 -1.08,5.76 5.28,-2.58"
         style="fill:#5b9bd5;fill-opacity:1;fill-rule:nonzero;stroke:none"
         id="path408"
         inkscape:connector-curvature="0" /></g><g
       id="g410"
       transform="translate(389.28,623.031)"><path
         d="m 0,0 -7.56,0.48 -3.72,0.24 c -14.722,0.9 -29.483,1.879 -44.22,2.46 l -1.44,0.06 -1.32,0.12 c -7.512,0.364 -15.023,1.774 -22.56,1.62 l -1.08,-0.06 -1.2,0 0.06,0 -1.2,-0.12 -1.26,-0.06 -1.26,-0.12 C -101.655,2.861 -117.585,-2.294 -132,-6.18 l -2.46,-0.66 -2.34,-0.72 -2.28,-0.66 c -4.063,-1.132 -8.142,-2.376 -12.18,-3.6 l -1.02,-0.3 -0.9,-0.3 -0.6,-0.18 -0.24,-0.06 -0.12,-0.06 -0.18,0 -7.8,-2.1 -7.98,-2.04 -7.98,-2.1 -7.98,-2.04 -7.86,-2.04 -3.9,-1.08 -3.84,-1.02 c -17.165,-4.933 -35.099,-10.109 -51.84,-16.38 l -1.38,-0.54 -1.32,-0.6 c -6.935,-2.709 -11.027,-5.836 -18.48,-7.62 l -0.66,-0.24 -1.2,-0.48 0.06,0 -0.6,-0.3 -0.54,-0.36 0.06,0.06 -0.54,-0.42 -0.48,-0.42 -0.48,-0.48 0,0.06 -0.42,-0.6 0,0.06 -0.42,-0.66 0,0.06 -0.42,-0.72 c -0.656,-1.084 -1.188,-2.445 -1.56,-3.66 l -0.18,-0.6 0,0.06 -0.18,-0.66 0,0.06 -0.36,-1.32 -0.18,-0.72 c -0.678,-2.66 -1.062,-5.383 -1.44,-8.1 l -0.12,-1.2 -0.12,-1.32 c -0.908,-10.374 -1.039,-20.796 -1.32,-31.2 l -0.06,-8.04 -0.06,-7.98 0,-3.9 c 0.012,-11.971 0.191,-23.92 0.36,-35.88 l 0,-0.06 -7.62,-218.76 -2.58,-97.56 c -0.415,-16.387 -2.114,-32.705 -2.76,-49.08 l 0,-1.5 0,0.06 -0.06,-1.44 0,-2.7 0.06,-1.26 0.06,-1.2 0.06,-1.14 0,0.06 0.12,-1.08 c 0.179,-1.496 0.296,-2.805 0.72,-4.26 l 0.24,-0.66 -0.06,0.06 0.24,-0.6 0.24,-0.54 0.24,-0.48 0,0.06 0.24,-0.42 0.24,-0.36 0.24,-0.3 0.6,-0.48 -0.06,0.06 0.3,-0.18 0.6,-0.24 0.36,-0.06 -0.12,0 1.08,0.24 0.12,-0.42 -1.14,-0.24 -0.42,0.06 c -4.693,1.121 -4.334,12.687 -4.38,16.08 l 0,1.44 0.06,1.44 c 0.605,15.55 2.124,31.03 2.7,46.62 l 0.06,2.46 2.58,97.56 7.62,218.76 0,0.48 c -0.225,10.532 -0.31,21.079 -0.36,31.62 l 0,7.74 c 0.534,18.779 -0.549,37.88 2.76,56.46 l 0.18,0.78 0.36,1.44 0.18,0.66 c 1.104,3.989 2.563,8.025 6.72,9.72 l 0.66,0.24 0.6,0.24 c 8.306,1.939 13.218,5.88 21.24,8.76 l 1.38,0.54 1.44,0.54 1.5,0.54 1.44,0.54 3.12,1.08 1.56,0.48 c 10.054,3.445 20.26,6.425 30.42,9.54 l 3.6,1.02 3.66,1.08 c 16.969,4.717 34.064,8.872 51.06,13.44 l 0.18,0 0.12,0.06 c 15.667,4.761 31.536,9.353 47.4,13.38 l 2.4,0.6 2.22,0.54 2.22,0.48 2.04,0.48 c 11.33,2.457 19.791,2.764 31.32,1.26 l 1.08,-0.12 1.14,-0.12 C -49.184,3.116 -33.85,2.746 -18.66,1.62 L -7.5,0.9 0,0.42 0,0 Z m -294.72,-540.96 5.82,-0.96 -4.26,-4.08"
         style="fill:#5b9bd5;fill-opacity:1;fill-rule:nonzero;stroke:none"
         id="path412"
         inkscape:connector-curvature="0" /></g><g
       id="g414"
       transform="translate(123.12,446.571)"><path
         d="m 0,0 -0.48,5.82 -0.96,11.76 c -1.482,19.52 -2.05,38.954 -3.48,58.5 l -0.12,1.8 -0.06,1.8 c -0.103,7.169 -0.761,19.379 3.42,25.56 l 0.42,0.66 0.48,0.6 0.48,0.54 0.48,0.48 0.54,0.48 c 1.76,1.46 3.358,1.95 5.46,2.82 l 1.38,0.48 1.44,0.48 c 2.473,0.872 4.99,1.722 7.26,3.06 l 1.92,0.84 0.96,0.48 c 10.507,4.471 21.545,7.594 31.98,12.24 l 0.96,0.48 0.9,0.42 0.84,0.48 0,-0.06 1.68,0.96 c 6.313,3.674 11.253,8.118 18.18,10.74 l 1.92,0.72 c 10.403,3.309 21.45,3.534 32.16,5.28 l 2.76,0.42 2.82,0.48 -0.06,0 2.76,0.54 2.76,0.6 -0.06,0 1.38,0.36 c 14.403,3.715 29.184,8.437 43.08,13.86 l 0.42,0.18 -0.06,0 0.78,0.36 0.72,0.36 -0.06,0 0.66,0.3 0.54,0.36 -0.06,0 0.54,0.36 -0.06,0 0.42,0.3 0.42,0.36 -0.06,0 0.36,0.3 0.3,0.36 0.48,0.6 -0.06,0 0.42,0.6 0.36,0.6 c 1.775,4.598 12.278,4.042 16.14,4.5 l 1.32,0.06 1.44,0.06 c 20.06,0.298 39.831,-0.626 59.58,-4.38 l 5.1,-0.96 5.88,-1.08 -0.12,-0.42 -5.82,1.08 c -9.391,1.827 -19.079,3.364 -28.62,4.2 l -2.7,0.24 0.06,0 -1.38,0.06 -1.44,0.12 c -9.686,0.58 -19.396,0.921 -29.1,0.72 l -1.44,-0.06 -1.38,0 c -4.341,-0.261 -9.3,-0.333 -13.5,-1.5 l -0.54,-0.18 -0.48,-0.24 0,0.06 -0.42,-0.24 -0.36,-0.24 0,0.06 -0.36,-0.24 -0.3,-0.24 0.06,0 -0.3,-0.24 -0.24,-0.24 0.06,0 -0.24,-0.3 0,0.06 -0.18,-0.3 -0.36,-0.54 -0.36,-0.6 c -0.907,-1.839 -2.925,-3.301 -4.74,-4.14 l -0.78,-0.36 -0.36,-0.18 c -4.014,-1.569 -7.98,-3.041 -12.06,-4.44 l -2.76,-0.96 -2.88,-0.96 c -8.908,-2.904 -17.724,-5.61 -26.82,-7.86 l -2.7,-0.6 -2.76,-0.54 c -10.246,-1.93 -20.77,-2.494 -31.02,-4.44 l -1.14,-0.24 -2.28,-0.6 0,0.06 -1.08,-0.3 c -3.67,-1.078 -6.583,-2.313 -9.9,-4.2 l -1.5,-0.9 0.06,0.06 -1.44,-0.96 -1.38,-0.9 -1.38,-0.96 c -3.124,-2.007 -5.844,-3.95 -9.18,-5.64 l -0.9,-0.42 -0.96,-0.42 c -4.233,-1.987 -8.993,-3.717 -13.38,-5.28 l -2.46,-0.9 -2.4,-0.84 -2.46,-0.9 C 22.216,117.548 14.678,112.945 6.3,110.4 l -1.32,-0.48 -1.26,-0.54 0.06,0 -0.6,-0.3 c -1.758,-0.964 -2.866,-1.788 -4.08,-3.42 l -0.42,-0.66 0,0.06 -0.42,-0.72 c -0.743,-1.438 -1.276,-2.681 -1.68,-4.26 l -0.3,-1.08 0.06,0 -0.24,-1.14 -0.24,-1.2 -0.18,-1.26 -0.12,-1.38 -0.12,-1.38 -0.06,-1.5 0,0.06 -0.12,-3.12 C -4.837,78.604 -4.105,69.148 -3.48,59.7 l 0.12,-1.74 0.12,-1.8 c 0.875,-14.799 1.349,-29.628 2.7,-44.4 L -0.06,5.88 0.42,0.06 0,0 Z m 258.3,169.44 4.68,-3.6 -5.7,-1.56"
         style="fill:#5b9bd5;fill-opacity:1;fill-rule:nonzero;stroke:none"
         id="path416"
         inkscape:connector-curvature="0" /></g></g></svg>