<?xml version="1.0" encoding="UTF-8" standalone="no"?>
<!-- Created with Inkscape (http://www.inkscape.org/) -->

<svg
   xmlns:dc="http://purl.org/dc/elements/1.1/"
   xmlns:cc="http://creativecommons.org/ns#"
   xmlns:rdf="http://www.w3.org/1999/02/22-rdf-syntax-ns#"
   xmlns:svg="http://www.w3.org/2000/svg"
   xmlns="http://www.w3.org/2000/svg"
   xmlns:sodipodi="http://sodipodi.sourceforge.net/DTD/sodipodi-0.dtd"
   xmlns:inkscape="http://www.inkscape.org/namespaces/inkscape"
   id="svg2"
   version="1.1"
   inkscape:version="0.91 r13725"
   xml:space="preserve"
   width="935.77277"
   height="476.62875"
   viewBox="0 0 935.77277 476.62875"
   sodipodi:docname="Modularization_outputModel.svg"><metadata
     id="metadata8"><rdf:RDF><cc:Work
         rdf:about=""><dc:format>image/svg+xml</dc:format><dc:type
           rdf:resource="http://purl.org/dc/dcmitype/StillImage" /><dc:title></dc:title></cc:Work></rdf:RDF></metadata><defs
     id="defs6"><clipPath
       clipPathUnits="userSpaceOnUse"
       id="clipPath16"><path
         d="m 0,1.2207e-4 960,0 0,539.99999793 -960,0 L 0,1.2207e-4 Z"
         id="path18"
         inkscape:connector-curvature="0"
         style="clip-rule:evenodd" /></clipPath><clipPath
       clipPathUnits="userSpaceOnUse"
       id="clipPath208"><path
         d="M 9.155e-6,540 960,540 960,2.4414e-4 1.2207e-4,1.8311e-4"
         id="path210"
         inkscape:connector-curvature="0"
         style="clip-rule:evenodd" /></clipPath><clipPath
       clipPathUnits="userSpaceOnUse"
       id="clipPath230"><path
         d="M -6.104e-6,540 960,540 960,1.8311e-4 l -960,0"
         id="path232"
         inkscape:connector-curvature="0"
         style="clip-rule:evenodd" /></clipPath><clipPath
       clipPathUnits="userSpaceOnUse"
       id="clipPath258"><path
         d="M 0,540 960,540 960,1.2207e-4 -3.052e-6,6.104e-6"
         id="path260"
         inkscape:connector-curvature="0"
         style="clip-rule:evenodd" /></clipPath><clipPath
       clipPathUnits="userSpaceOnUse"
       id="clipPath284"><path
         d="M -1.8311e-4,540 960,540 960,1.2207e-4 l -960.00012207,0"
         id="path286"
         inkscape:connector-curvature="0"
         style="clip-rule:evenodd" /></clipPath></defs><sodipodi:namedview
     pagecolor="#ffffff"
     bordercolor="#666666"
     borderopacity="1"
     objecttolerance="10"
     gridtolerance="10"
     guidetolerance="10"
     inkscape:pageopacity="0"
     inkscape:pageshadow="2"
     inkscape:window-width="1920"
     inkscape:window-height="1178"
     id="namedview4"
     showgrid="false"
     inkscape:zoom="0.42959147"
     inkscape:cx="467.88638"
     inkscape:cy="238.31438"
     inkscape:window-x="-8"
     inkscape:window-y="-8"
     inkscape:window-maximized="1"
     inkscape:current-layer="g10" /><g
     id="g10"
     inkscape:groupmode="layer"
     inkscape:label="Modularization_outputModel"
     transform="matrix(1.25,0,0,-1.25,-23.961,652.98125)"><path
       d="m 614.87,149.2 151.28,0 0,54.527 -151.28,0 0,-54.527 z"
       style="fill:#e7e6e6;fill-opacity:1;fill-rule:evenodd;stroke:none"
       id="path22"
       inkscape:connector-curvature="0" /><path
       d="m 614.87,149.2 151.28,0 0,54.527 -151.28,0 0,-54.527 z"
       style="fill:none;stroke:#000000;stroke-width:0.75;stroke-linecap:butt;stroke-linejoin:round;stroke-miterlimit:10;stroke-dasharray:none;stroke-opacity:1"
       id="path24"
       inkscape:connector-curvature="0" /><text
       transform="matrix(1,0,0,-1,622.15,187.46)"
       style="font-variant:normal;font-weight:normal;font-size:12.96000004px;font-family:Arial;-inkscape-font-specification:Arial;writing-mode:lr-tb;fill:#000000;fill-opacity:1;fill-rule:nonzero;stroke:none"
       id="text26"><tspan
         x="0 9.3571196 19.440001 28.797119 37.441441 45.46368 54.820801 63.465118 67.068001 76.425117 84.447357"
         y="0"
         sodipodi:role="line"
         id="tspan28">CONSTRAINTS</tspan></text>
<path
       d="m 622.07,186.21 31.04,0 31.04,0 31.04,0 0,-0.96 -31.04,0 -31.04,0 -31.04,0 0,0.96 z"
       style="fill:#000000;fill-opacity:1;fill-rule:evenodd;stroke:none"
       id="path30"
       inkscape:connector-curvature="0" /><text
       transform="matrix(1,0,0,-1,622.15,171.84)"
       style="font-variant:normal;font-weight:normal;font-size:12.98400021px;font-family:Arial;-inkscape-font-specification:Arial;writing-mode:lr-tb;fill:#000000;fill-opacity:1;fill-rule:nonzero;stroke:none"
       id="text32"><tspan
         x="0 9.3744478 16.593552 23.760719 30.25272 36.74472 39.627167 46.794334 54.013439 61.232544"
         y="0"
         sodipodi:role="line"
         id="tspan34">Unassigned</tspan></text>
<text
       transform="matrix(1,0,0,-1,694.51,171.84)"
       style="font-variant:normal;font-weight:normal;font-size:12.98400021px;font-family:Arial;-inkscape-font-specification:Arial;writing-mode:lr-tb;fill:#000000;fill-opacity:1;fill-rule:nonzero;stroke:none"
       id="text36"><tspan
         x="0 9.3744478 12.256896 19.476 25.916063 32.408066 39.627167 46.080215"
         y="0"
         sodipodi:role="line"
         id="tspan38">Classes </tspan></text>
<text
       transform="matrix(1,0,0,-1,744.43,171.84)"
       style="font-variant:normal;font-weight:normal;font-size:12.98400021px;font-family:Arial;-inkscape-font-specification:Arial;writing-mode:lr-tb;fill:#000000;fill-opacity:1;fill-rule:nonzero;stroke:none"
       id="text40"><tspan
         x="0 3.6000021 7.2000041"
         y="0"
         sodipodi:role="line"
         id="tspan42">: 0</tspan></text>
<text
       transform="matrix(1,0,0,-1,622.15,156.24)"
       style="font-variant:normal;font-weight:normal;font-size:12.96000004px;font-family:Arial;-inkscape-font-specification:Arial;writing-mode:lr-tb;fill:#000000;fill-opacity:1;fill-rule:nonzero;stroke:none"
       id="text44"><tspan
         x="0 8.6400003 19.43136 26.632799 30.231359"
         y="0"
         sodipodi:role="line"
         id="tspan46">Empty</tspan></text>
<text
       transform="matrix(1,0,0,-1,662.59,156.24)"
       style="font-variant:normal;font-weight:normal;font-size:12.96000004px;font-family:Arial;-inkscape-font-specification:Arial;writing-mode:lr-tb;fill:#000000;fill-opacity:1;fill-rule:nonzero;stroke:none"
       id="text48"><tspan
         x="0 10.67904 17.8848 25.090561 32.296322 35.173439 42.3792 48.8592"
         y="0"
         sodipodi:role="line"
         id="tspan50">Modules </tspan></text>
<text
       transform="matrix(1,0,0,-1,715.51,156.24)"
       style="font-variant:normal;font-weight:normal;font-size:12.96000004px;font-family:Arial;-inkscape-font-specification:Arial;writing-mode:lr-tb;fill:#000000;fill-opacity:1;fill-rule:nonzero;stroke:none"
       id="text52"><tspan
         x="0 3.60288 7.3094401"
         y="0"
         sodipodi:role="line"
         id="tspan54">: 0</tspan></text>
<text
       transform="matrix(1,0,0,-1,486.94,432.53)"
       style="font-variant:normal;font-weight:normal;font-size:14.03999996px;font-family:Calibri;-inkscape-font-specification:Calibri;writing-mode:lr-tb;fill:#000000;fill-opacity:1;fill-rule:nonzero;stroke:none"
       id="text56"><tspan
         x="0 6.4443598 9.7016401 12.93084"
         y="0"
         sodipodi:role="line"
         id="tspan58">File</tspan></text>
<path
       d="m 478.97,436.4 c 0,6.7 7.75,12.12 17.31,12.12 9.56,0 17.3,-5.42 17.3,-12.12 0,-6.69 -7.74,-12.11 -17.3,-12.11 -9.56,0 -17.31,5.42 -17.31,12.11 z"
       style="fill:none;stroke:#000000;stroke-width:1;stroke-linecap:butt;stroke-linejoin:miter;stroke-miterlimit:8;stroke-dasharray:none;stroke-opacity:1"
       id="path60"
       inkscape:connector-curvature="0" /><text
       transform="matrix(1,0,0,-1,690.5,325.75)"
       style="font-variant:normal;font-weight:normal;font-size:14.03999996px;font-family:Calibri;-inkscape-font-specification:Calibri;writing-mode:lr-tb;fill:#000000;fill-opacity:1;fill-rule:nonzero;stroke:none"
       id="text62"><tspan
         x="0 6.4443598 9.7016401 12.93084 19.92276 25.665119 32.390282 39.70512 42.934319"
         y="0"
         sodipodi:role="line"
         id="tspan64">FileTable</tspan></text>
<path
       d="m 682.52,329.66 c 0,6.69 14.72,12.12 32.88,12.12 18.16,0 32.88,-5.43 32.88,-12.12 0,-6.69 -14.72,-12.11 -32.88,-12.11 -18.16,0 -32.88,5.42 -32.88,12.11 z"
       style="fill:none;stroke:#000000;stroke-width:1;stroke-linecap:butt;stroke-linejoin:miter;stroke-miterlimit:8;stroke-dasharray:none;stroke-opacity:1"
       id="path66"
       inkscape:connector-curvature="0" /><text
       transform="matrix(1,0,0,-1,345.34,426.96)"
       style="font-variant:normal;font-weight:normal;font-size:14.03999996px;font-family:Calibri;-inkscape-font-specification:Calibri;writing-mode:lr-tb;fill:#000000;fill-opacity:1;fill-rule:nonzero;stroke:none"
       id="text68"><tspan
         x="0 8.6345997 11.8638 16.55316 23.54508 29.399759 33.962761 41.361839 46.430279"
         y="0"
         sodipodi:role="line"
         id="tspan70">Directory</tspan></text>
<path
       d="m 337.39,430.85 c 0,6.69 14.72,12.11 32.88,12.11 18.16,0 32.89,-5.42 32.89,-12.11 0,-6.7 -14.73,-12.12 -32.89,-12.12 -18.16,0 -32.88,5.42 -32.88,12.12 z"
       style="fill:none;stroke:#000000;stroke-width:1;stroke-linecap:butt;stroke-linejoin:miter;stroke-miterlimit:8;stroke-dasharray:none;stroke-opacity:1"
       id="path72"
       inkscape:connector-curvature="0" /><text
       transform="matrix(1,0,0,-1,618,326.47)"
       style="font-variant:normal;font-weight:normal;font-size:14.03999996px;font-family:Calibri;-inkscape-font-specification:Calibri;writing-mode:lr-tb;fill:#000000;fill-opacity:1;fill-rule:nonzero;stroke:none"
       id="text74"><tspan
         x="0 3.48192 10.79676 18.195841 25.566839"
         y="0"
         sodipodi:role="line"
         id="tspan76">Inode</tspan></text>
<path
       d="m 610.02,330.37 c 0,6.69 10.79,12.12 24.1,12.12 13.31,0 24.1,-5.43 24.1,-12.12 0,-6.69 -10.79,-12.12 -24.1,-12.12 -13.31,0 -24.1,5.43 -24.1,12.12 z"
       style="fill:none;stroke:#000000;stroke-width:1;stroke-linecap:butt;stroke-linejoin:miter;stroke-miterlimit:8;stroke-dasharray:none;stroke-opacity:1"
       id="path78"
       inkscape:connector-curvature="0" /><text
       transform="matrix(1,0,0,-1,385.13,367.15)"
       style="font-variant:normal;font-weight:normal;font-size:14.03999996px;font-family:Calibri;-inkscape-font-specification:Calibri;writing-mode:lr-tb;fill:#000000;fill-opacity:1;fill-rule:nonzero;stroke:none"
       id="text80"><tspan
         x="0 6.96384 13.689 21.003839 24.23304"
         y="0"
         sodipodi:role="line"
         id="tspan82">Panic</tspan></text>
<path
       d="m 377.18,371.03 c 0,6.7 10.24,12.12 22.87,12.12 12.63,0 22.87,-5.42 22.87,-12.12 0,-6.69 -10.24,-12.11 -22.87,-12.11 -12.63,0 -22.87,5.42 -22.87,12.11 z"
       style="fill:none;stroke:#000000;stroke-width:1;stroke-linecap:butt;stroke-linejoin:miter;stroke-miterlimit:8;stroke-dasharray:none;stroke-opacity:1"
       id="path84"
       inkscape:connector-curvature="0" /><text
       transform="matrix(1,0,0,-1,152.35,204.96)"
       style="font-variant:normal;font-weight:normal;font-size:14.03999996px;font-family:Calibri;-inkscape-font-specification:Calibri;writing-mode:lr-tb;fill:#000000;fill-opacity:1;fill-rule:nonzero;stroke:none"
       id="text86"><tspan
         x="0 8.6345997 15.52824 21.874319 25.131599 31.01436"
         y="0"
         sodipodi:role="line"
         id="tspan88">Device</tspan></text>
<path
       d="m 144.44,208.9 c 0,6.69 12.01,12.11 26.83,12.11 14.83,0 26.84,-5.42 26.84,-12.11 0,-6.7 -12.01,-12.12 -26.84,-12.12 -14.82,0 -26.83,5.42 -26.83,12.12 z"
       style="fill:none;stroke:#000000;stroke-width:1;stroke-linecap:butt;stroke-linejoin:miter;stroke-miterlimit:8;stroke-dasharray:none;stroke-opacity:1"
       id="path90"
       inkscape:connector-curvature="0" /><text
       transform="matrix(1,0,0,-1,234.89,231.26)"
       style="font-variant:normal;font-weight:normal;font-size:14.03999996px;font-family:Calibri;-inkscape-font-specification:Calibri;writing-mode:lr-tb;fill:#000000;fill-opacity:1;fill-rule:nonzero;stroke:none"
       id="text92"><tspan
         x="0 6.8374801 11.54088"
         y="0"
         sodipodi:role="line"
         id="tspan94">Tty</tspan></text>
<path
       d="m 226.96,235.18 c 0,6.69 7.8,12.11 17.42,12.11 9.62,0 17.42,-5.42 17.42,-12.11 0,-6.69 -7.8,-12.12 -17.42,-12.12 -9.62,0 -17.42,5.43 -17.42,12.12 z"
       style="fill:none;stroke:#000000;stroke-width:1;stroke-linecap:butt;stroke-linejoin:miter;stroke-miterlimit:8;stroke-dasharray:none;stroke-opacity:1"
       id="path96"
       inkscape:connector-curvature="0" /><text
       transform="matrix(1,0,0,-1,189.17,247.63)"
       style="font-variant:normal;font-weight:normal;font-size:14.03999996px;font-family:Calibri;-inkscape-font-specification:Calibri;writing-mode:lr-tb;fill:#000000;fill-opacity:1;fill-rule:nonzero;stroke:none"
       id="text98"><tspan
         x="0 8.6345997 11.8638 17.381519"
         y="0"
         sodipodi:role="line"
         id="tspan100">Disk</tspan></text>
<path
       d="m 181.24,251.55 c 0,6.69 8.78,12.12 19.61,12.12 10.84,0 19.62,-5.43 19.62,-12.12 0,-6.69 -8.78,-12.12 -19.62,-12.12 -10.83,0 -19.61,5.43 -19.61,12.12 z"
       style="fill:none;stroke:#000000;stroke-width:1;stroke-linecap:butt;stroke-linejoin:miter;stroke-miterlimit:8;stroke-dasharray:none;stroke-opacity:1"
       id="path102"
       inkscape:connector-curvature="0" /><text
       transform="matrix(1,0,0,-1,415.25,246.17)"
       style="font-variant:normal;font-weight:normal;font-size:14.03999996px;font-family:Calibri;-inkscape-font-specification:Calibri;writing-mode:lr-tb;fill:#000000;fill-opacity:1;fill-rule:nonzero;stroke:none"
       id="text104"><tspan
         x="0 6.3601198 12.59388 17.999281 22.562281 29.554199"
         y="0"
         sodipodi:role="line"
         id="tspan106">System</tspan></text>
<path
       d="m 407.28,250.09 c 0,6.69 12.18,12.11 27.21,12.11 15.03,0 27.21,-5.42 27.21,-12.11 0,-6.7 -12.18,-12.12 -27.21,-12.12 -15.03,0 -27.21,5.42 -27.21,12.12 z"
       style="fill:none;stroke:#000000;stroke-width:1;stroke-linecap:butt;stroke-linejoin:miter;stroke-miterlimit:8;stroke-dasharray:none;stroke-opacity:1"
       id="path108"
       inkscape:connector-curvature="0" /><text
       transform="matrix(1,0,0,-1,143.9,407.57)"
       style="font-variant:normal;font-weight:normal;font-size:14.06400013px;font-family:Calibri;-inkscape-font-specification:Calibri;writing-mode:lr-tb;fill:#000000;fill-opacity:1;fill-rule:nonzero;stroke:none"
       id="text110"><tspan
         x="0 3.4738081 10.787088 18.198816 25.582417 32.501904 38.268143 45.004799 52.304016 55.538734"
         y="0"
         sodipodi:role="line"
         id="tspan112">InodeTable</tspan></text>
<path
       d="m 135.98,411.46 c 0,6.7 17.6,12.12 39.32,12.12 21.71,0 39.32,-5.42 39.32,-12.12 0,-6.69 -17.61,-12.11 -39.32,-12.11 -21.72,0 -39.32,5.42 -39.32,12.11 z"
       style="fill:none;stroke:#000000;stroke-width:1;stroke-linecap:butt;stroke-linejoin:miter;stroke-miterlimit:8;stroke-dasharray:none;stroke-opacity:1"
       id="path114"
       inkscape:connector-curvature="0" /><text
       transform="matrix(1,0,0,-1,92.352,496.32)"
       style="font-variant:normal;font-weight:normal;font-size:14.03999996px;font-family:Calibri;-inkscape-font-specification:Calibri;writing-mode:lr-tb;fill:#000000;fill-opacity:1;fill-rule:nonzero;stroke:none"
       id="text116"><tspan
         x="0 6.4443598 11.1618 18.153721 25.075439 28.55736 35.8722 43.271278 50.642281"
         y="0"
         sodipodi:role="line"
         id="tspan118">FreeInode</tspan></text>
<path
       d="m 84.423,500.18 c 0,6.69 16.457,12.12 36.747,12.12 20.3,0 36.75,-5.43 36.75,-12.12 0,-6.69 -16.45,-12.12 -36.75,-12.12 -20.29,0 -36.747,5.43 -36.747,12.12 z"
       style="fill:none;stroke:#000000;stroke-width:1;stroke-linecap:butt;stroke-linejoin:miter;stroke-miterlimit:8;stroke-dasharray:none;stroke-opacity:1"
       id="path120"
       inkscape:connector-curvature="0" /><text
       transform="matrix(1,0,0,-1,200.66,443.78)"
       style="font-variant:normal;font-weight:normal;font-size:14.03999996px;font-family:Calibri;-inkscape-font-specification:Calibri;writing-mode:lr-tb;fill:#000000;fill-opacity:1;fill-rule:nonzero;stroke:none"
       id="text122"><tspan
         x="0 6.4864802 9.7156801 12.94488 19.9368 23.43276"
         y="0"
         sodipodi:role="line"
         id="tspan124">FileIO</tspan></text>
<path
       d="m 192.74,447.66 c 0,6.69 10.79,12.12 24.1,12.12 13.31,0 24.1,-5.43 24.1,-12.12 0,-6.69 -10.79,-12.12 -24.1,-12.12 -13.31,0 -24.1,5.43 -24.1,12.12 z"
       style="fill:none;stroke:#000000;stroke-width:1;stroke-linecap:butt;stroke-linejoin:miter;stroke-miterlimit:8;stroke-dasharray:none;stroke-opacity:1"
       id="path126"
       inkscape:connector-curvature="0" /><text
       transform="matrix(1,0,0,-1,52.92,367.15)"
       style="font-variant:normal;font-weight:normal;font-size:14.03999996px;font-family:Calibri;-inkscape-font-specification:Calibri;writing-mode:lr-tb;fill:#000000;fill-opacity:1;fill-rule:nonzero;stroke:none"
       id="text128"><tspan
         x="0 3.48192 10.79676 18.195841 25.566839 32.558762 41.417999 44.647202 52.04628 59.417278 66.142441 69.371643"
         y="0"
         sodipodi:role="line"
         id="tspan130">InodeGlobals</tspan></text>
<path
       d="m 44.997,371.03 c 0,6.7 20.366,12.12 45.49,12.12 25.123,0 45.493,-5.42 45.493,-12.12 0,-6.69 -20.37,-12.11 -45.493,-12.11 -25.124,0 -45.49,5.42 -45.49,12.11 z"
       style="fill:none;stroke:#000000;stroke-width:1;stroke-linecap:butt;stroke-linejoin:miter;stroke-miterlimit:8;stroke-dasharray:none;stroke-opacity:1"
       id="path132"
       inkscape:connector-curvature="0" /><text
       transform="matrix(1,0,0,-1,408.02,479.81)"
       style="font-variant:normal;font-weight:normal;font-size:14.03999996px;font-family:Calibri;-inkscape-font-specification:Calibri;writing-mode:lr-tb;fill:#000000;fill-opacity:1;fill-rule:nonzero;stroke:none"
       id="text134"><tspan
         x="0 11.1618 17.886959 21.116159"
         y="0"
         sodipodi:role="line"
         id="tspan136">main</tspan></text>
<path
       d="m 400.06,483.68 c 0,6.69 9.86,12.12 22.01,12.12 12.16,0 22.02,-5.43 22.02,-12.12 0,-6.69 -9.86,-12.12 -22.02,-12.12 -12.15,0 -22.01,5.43 -22.01,12.12 z"
       style="fill:none;stroke:#000000;stroke-width:1;stroke-linecap:butt;stroke-linejoin:miter;stroke-miterlimit:8;stroke-dasharray:none;stroke-opacity:1"
       id="path138"
       inkscape:connector-curvature="0" /><text
       transform="matrix(1,0,0,-1,494.54,475.2)"
       style="font-variant:normal;font-weight:normal;font-size:14.03999996px;font-family:Calibri;-inkscape-font-specification:Calibri;writing-mode:lr-tb;fill:#000000;fill-opacity:1;fill-rule:nonzero;stroke:none"
       id="text140"><tspan
         x="0 7.4833202 14.91048 22.141081 26.844481 31.50576 38.960999"
         y="0"
         sodipodi:role="line"
         id="tspan142">Control</tspan></text>
<path
       d="m 486.59,479.07 c 0,6.69 12.94,12.11 28.9,12.11 15.96,0 28.9,-5.42 28.9,-12.11 0,-6.7 -12.94,-12.12 -28.9,-12.12 -15.96,0 -28.9,5.42 -28.9,12.12 z"
       style="fill:none;stroke:#000000;stroke-width:1;stroke-linecap:butt;stroke-linejoin:miter;stroke-miterlimit:8;stroke-dasharray:none;stroke-opacity:1"
       id="path144"
       inkscape:connector-curvature="0" /><text
       transform="matrix(1,0,0,-1,455.26,378.91)"
       style="font-variant:normal;font-weight:normal;font-size:14.03999996px;font-family:Calibri;-inkscape-font-specification:Calibri;writing-mode:lr-tb;fill:#000000;fill-opacity:1;fill-rule:nonzero;stroke:none"
       id="text146"><tspan
         x="0 9.0136805 14.50332 21.495239"
         y="0"
         sodipodi:role="line"
         id="tspan148">User</tspan></text>
<path
       d="m 447.29,382.8 c 0,6.69 9.38,12.12 20.94,12.12 11.57,0 20.94,-5.43 20.94,-12.12 0,-6.69 -9.37,-12.12 -20.94,-12.12 -11.56,0 -20.94,5.43 -20.94,12.12 z"
       style="fill:none;stroke:#000000;stroke-width:1;stroke-linecap:butt;stroke-linejoin:miter;stroke-miterlimit:8;stroke-dasharray:none;stroke-opacity:1"
       id="path150"
       inkscape:connector-curvature="0" /><text
       transform="matrix(1,0,0,-1,622.15,420.41)"
       style="font-variant:normal;font-weight:normal;font-size:14.03999996px;font-family:Calibri;-inkscape-font-specification:Calibri;writing-mode:lr-tb;fill:#000000;fill-opacity:1;fill-rule:nonzero;stroke:none"
       id="text152"><tspan
         x="0 6.1214399 12.8466 24.0084 27.2376 30.466801"
         y="0"
         sodipodi:role="line"
         id="tspan154">Family</tspan></text>
<path
       d="m 614.16,424.29 c 0,6.69 11.72,12.11 26.18,12.11 14.46,0 26.18,-5.42 26.18,-12.11 0,-6.69 -11.72,-12.12 -26.18,-12.12 -14.46,0 -26.18,5.43 -26.18,12.12 z"
       style="fill:none;stroke:#000000;stroke-width:1;stroke-linecap:butt;stroke-linejoin:miter;stroke-miterlimit:8;stroke-dasharray:none;stroke-opacity:1"
       id="path156"
       inkscape:connector-curvature="0" /><text
       transform="matrix(1,0,0,-1,415.25,169.32)"
       style="font-variant:normal;font-weight:normal;font-size:14.03999996px;font-family:Calibri;-inkscape-font-specification:Calibri;writing-mode:lr-tb;fill:#000000;fill-opacity:1;fill-rule:nonzero;stroke:none"
       id="text158"><tspan
         x="0 6.4443598 11.03544 17.634239 22.197241"
         y="0"
         sodipodi:role="line"
         id="tspan160">State</tspan></text>
<path
       d="m 407.28,173.26 c 0,6.69 10.17,12.12 22.71,12.12 12.54,0 22.71,-5.43 22.71,-12.12 0,-6.69 -10.17,-12.12 -22.71,-12.12 -12.54,0 -22.71,5.43 -22.71,12.12 z"
       style="fill:none;stroke:#000000;stroke-width:1;stroke-linecap:butt;stroke-linejoin:miter;stroke-miterlimit:8;stroke-dasharray:none;stroke-opacity:1"
       id="path162"
       inkscape:connector-curvature="0" /><text
       transform="matrix(1,0,0,-1,336.6,200.54)"
       style="font-variant:normal;font-weight:normal;font-size:14.03999996px;font-family:Calibri;-inkscape-font-specification:Calibri;writing-mode:lr-tb;fill:#000000;fill-opacity:1;fill-rule:nonzero;stroke:none"
       id="text164"><tspan
         x="0 12.0042 18.99612 30.115801 37.514881 42.583321"
         y="0"
         sodipodi:role="line"
         id="tspan166">Memory</tspan></text>
<path
       d="m 328.66,204.48 c 0,6.69 14.72,12.12 32.88,12.12 18.16,0 32.89,-5.43 32.89,-12.12 0,-6.69 -14.73,-12.12 -32.89,-12.12 -18.16,0 -32.88,5.43 -32.88,12.12 z"
       style="fill:none;stroke:#000000;stroke-width:1;stroke-linecap:butt;stroke-linejoin:miter;stroke-miterlimit:8;stroke-dasharray:none;stroke-opacity:1"
       id="path168"
       inkscape:connector-curvature="0" /><text
       transform="matrix(1,0,0,-1,477.22,202.75)"
       style="font-variant:normal;font-weight:normal;font-size:14.06400013px;font-family:Calibri;-inkscape-font-specification:Calibri;writing-mode:lr-tb;fill:#000000;fill-opacity:1;fill-rule:nonzero;stroke:none"
       id="text170"><tspan
         x="0 7.4398561 14.851584 26.046528 33.35981 40.673088 45.229824 52.191505"
         y="0"
         sodipodi:role="line"
         id="tspan172">Computer</tspan></text>
<path
       d="m 469.24,206.69 c 0,6.69 16.35,12.12 36.52,12.12 20.16,0 36.51,-5.43 36.51,-12.12 0,-6.69 -16.35,-12.12 -36.51,-12.12 -20.17,0 -36.52,5.43 -36.52,12.12 z"
       style="fill:none;stroke:#000000;stroke-width:1;stroke-linecap:butt;stroke-linejoin:miter;stroke-miterlimit:8;stroke-dasharray:none;stroke-opacity:1"
       id="path174"
       inkscape:connector-curvature="0" /><path
       d="m 437.87,475.2 29.13,-74.83 -0.46,-0.18 -29.13,74.83 0.46,0.18 z m 31.33,-72.9 -0.61,-6.68 -4.98,4.5 5.59,2.18 z"
       style="fill:#70ad47;fill-opacity:1;fill-rule:nonzero;stroke:none"
       id="path176"
       inkscape:connector-curvature="0" /><path
       d="m 515.32,467.13 -14.9,-14.26 0.35,-0.36 14.89,14.26 -0.34,0.36 z m -16.08,-11.59 -2.25,-6.31 6.4,1.98 -4.15,4.33 z"
       style="fill:#70ad47;fill-opacity:1;fill-rule:nonzero;stroke:none"
       id="path178"
       inkscape:connector-curvature="0" /><path
       d="m 494.88,470.68 -91.32,-83.96 0.34,-0.37 91.32,83.96 -0.34,0.37 z m -92.44,-81.26 -2.39,-6.27 6.45,1.85 -4.06,4.42 z"
       style="fill:#70ad47;fill-opacity:1;fill-rule:nonzero;stroke:none"
       id="path180"
       inkscape:connector-curvature="0" /><path
       d="m 370.46,418.89 26.86,-31.09 -0.37,-0.32 -26.87,31.09 0.38,0.32 z m 28.29,-28.53 1.65,-6.5 -6.19,2.58 4.54,3.92 z"
       style="fill:#70ad47;fill-opacity:1;fill-rule:nonzero;stroke:none"
       id="path182"
       inkscape:connector-curvature="0" /><path
       d="m 478.96,436.65 -70.84,-5.19 0.04,-0.5 70.83,5.2 -0.03,0.49 z m -70.04,-2.37 -5.76,-3.43 6.2,-2.56 -0.44,5.99 z"
       style="fill:#70ad47;fill-opacity:1;fill-rule:nonzero;stroke:none"
       id="path184"
       inkscape:connector-curvature="0" /><path
       d="m 483.9,428.04 -63.75,-45.34 0.29,-0.4 63.75,45.33 -0.29,0.41 z m -64.53,-42.52 -3.15,-5.92 6.63,1.03 -3.48,4.89 z"
       style="fill:#70ad47;fill-opacity:1;fill-rule:nonzero;stroke:none"
       id="path186"
       inkscape:connector-curvature="0" /><path
       d="m 483.27,391.27 11.38,28.29 -0.47,0.18 -11.37,-28.28 0.46,-0.19 z m 13.55,26.33 -0.54,6.69 -5.02,-4.45 5.56,-2.24 z"
       style="fill:#70ad47;fill-opacity:1;fill-rule:nonzero;stroke:none"
       id="path188"
       inkscape:connector-curvature="0" /><path
       d="m 453.41,374.48 -25.52,-2.08 0.04,-0.5 25.52,2.08 -0.04,0.5 z m -24.75,0.74 -5.74,-3.48 6.23,-2.5 -0.49,5.98 z"
       style="fill:#70ad47;fill-opacity:1;fill-rule:nonzero;stroke:none"
       id="path190"
       inkscape:connector-curvature="0" /><path
       d="m 610.69,330.83 -189.57,30.59 0.08,0.5 189.57,-30.6 -0.08,-0.49 z m -189.02,27.72 -5.45,3.92 6.41,2 -0.96,-5.92 z"
       style="fill:#ff0000;fill-opacity:1;fill-rule:nonzero;stroke:none"
       id="path192"
       inkscape:connector-curvature="0" /><path
       d="m 214.85,259.9 164.88,99.76 -0.26,0.43 -164.88,-99.76 0.26,-0.43 z m 165.45,96.89 3.58,5.68 -6.69,-0.54 3.11,-5.14 z"
       style="fill:#ff0000;fill-opacity:1;fill-rule:nonzero;stroke:none"
       id="path194"
       inkscape:connector-curvature="0" /><path
       d="m 203.14,403.14 169.87,-30.28 -0.09,-0.49 -169.86,30.28 0.08,0.49 z m 169.37,-27.39 5.38,-4.01 -6.44,-1.9 1.06,5.91 z"
       style="fill:#ff0000;fill-opacity:1;fill-rule:nonzero;stroke:none"
       id="path196"
       inkscape:connector-curvature="0" /><path
       d="m 233.97,439.32 145.35,-57.64 -0.18,-0.47 -145.35,57.65 0.18,0.46 z m 145.44,-54.72 4.47,-5 -6.68,-0.57 2.21,5.57 z"
       style="fill:#ff0000;fill-opacity:1;fill-rule:nonzero;stroke:none"
       id="path198"
       inkscape:connector-curvature="0" /><path
       d="m 135.98,370.78 236.91,0.69 0,0.5 -236.91,-0.69 0,-0.5 z m 235.92,-2.06 5.99,3.02 -6.01,2.98 0.02,-6 z"
       style="fill:#ff0000;fill-opacity:1;fill-rule:nonzero;stroke:none"
       id="path200"
       inkscape:connector-curvature="0" /><path
       d="m 505.91,219.36 -102.69,136.12 0.4,0.3 102.69,-136.12 -0.4,-0.3 z m -104.29,133.67 -1.22,6.59 6.01,-2.98 -4.79,-3.61 z"
       style="fill:#ff0000;fill-opacity:1;fill-rule:nonzero;stroke:none"
       id="path202"
       inkscape:connector-curvature="0" /><g
       id="g204"><g
         id="g206"
         clip-path="url(#clipPath208)"><path
           d="m 508.77,427.83 -0.03,-3.96 -0.13,-3.97 -0.19,-3.94 -0.26,-3.93 -0.34,-3.89 -0.41,-3.85 -0.46,-3.81 -0.54,-3.74 -0.59,-3.69 -0.64,-3.62 -0.71,-3.55 -0.76,-3.45 -0.81,-3.37 -0.86,-3.26 -0.9,-3.16 -0.94,-3.04 -0.99,-2.92 -1.02,-2.78 -1.06,-2.65 -1.09,-2.49 -1.12,-2.35 -1.16,-2.19 -1.17,-2.01 -0.6,-0.94 -0.6,-0.9 -0.61,-0.85 -0.62,-0.8 -0.61,-0.75 -0.63,-0.71 -0.63,-0.66 -0.63,-0.6 -0.64,-0.56 -0.64,-0.49 -0.64,-0.45 -0.65,-0.39 -0.66,-0.33 -0.65,-0.28 -0.66,-0.22 -0.67,-0.15 -0.66,-0.1 -0.65,-0.03 -0.65,-0.03 0.03,0 -0.64,-0.09 0.02,0 -0.64,-0.16 0.02,0.01 -0.64,-0.21 0.02,0.01 -0.64,-0.27 0.02,0 -0.64,-0.32 0.01,0.01 -0.63,-0.38 0.01,0.01 -0.63,-0.44 0.01,0.01 -0.63,-0.49 0.01,0 -0.63,-0.54 0.01,0 -0.62,-0.59 0.01,0.01 -0.63,-0.65 0.01,0 -0.61,-0.69 0,0 -0.61,-0.75 0,0.01 -0.61,-0.79 0.01,0 -0.61,-0.84 0.01,0.01 -0.6,-0.89 0,0 -0.59,-0.94 0,0.01 -1.17,-2 0.01,0.01 -1.15,-2.18 0,0.01 -1.11,-2.34 0,0.01 -1.09,-2.49 0,0.01 -1.05,-2.64 0,0 -1.02,-2.78 0,0.01 -0.98,-2.91 0,0 -0.94,-3.03 0,0.01 -0.9,-3.15 0,0 -0.86,-3.26 0.01,0.01 -0.81,-3.36 0,0 -0.75,-3.45 0,0.01 -0.71,-3.54 0,0 -0.65,-3.61 0,0 -0.59,-3.68 0,0 -0.53,-3.75 0,0.01 -0.47,-3.8 0,0.01 -0.4,-3.85 0,0 -0.34,-3.88 0,0 -0.27,-3.91 0,0 -0.19,-3.94 0,0 -0.08,-2.91 -0.5,0.01 0.08,2.92 0.19,3.95 0.27,3.92 0.34,3.89 0.4,3.85 0.47,3.8 0.54,3.75 0.59,3.69 0.65,3.62 0.71,3.55 0.76,3.45 0.8,3.37 0.86,3.26 0.9,3.16 0.94,3.03 0.99,2.92 1.02,2.79 1.06,2.65 1.09,2.49 1.12,2.35 1.16,2.19 1.17,2.01 0.6,0.94 0.6,0.9 0.61,0.85 0.62,0.8 0.62,0.75 0.62,0.71 0.63,0.66 0.63,0.6 0.64,0.56 0.64,0.5 0.64,0.44 0.65,0.39 0.66,0.33 0.65,0.28 0.66,0.22 0.67,0.16 0.66,0.09 0.65,0.03 0.65,0.03 -0.03,0 0.64,0.1 -0.02,0 0.65,0.15 -0.03,-0.01 0.64,0.21 -0.02,-0.01 0.64,0.27 -0.02,0 0.64,0.32 -0.01,-0.01 0.63,0.38 -0.01,-0.01 0.63,0.44 -0.01,0 0.63,0.49 -0.01,-0.01 0.63,0.54 -0.01,0 0.62,0.59 -0.01,-0.01 0.63,0.65 -0.01,0 0.62,0.69 0,-0.01 0.6,0.75 0,0 0.61,0.8 0,-0.01 0.6,0.84 0,-0.01 0.6,0.89 -0.01,0 0.59,0.94 0,-0.01 1.17,2 -0.01,-0.01 1.15,2.18 0,-0.01 1.11,2.34 0,-0.01 1.09,2.49 0,-0.01 1.05,2.64 0,0 1.02,2.77 0,0 0.98,2.91 0,-0.01 0.94,3.04 0,-0.01 0.9,3.15 0,0 0.86,3.26 -0.01,-0.01 0.81,3.36 0,0 0.76,3.45 0,-0.01 0.7,3.54 0,0 0.65,3.61 0,0 0.59,3.68 0,0 0.53,3.74 0,0 0.47,3.8 0,-0.01 0.4,3.85 0,0 0.34,3.88 0,0 0.26,3.92 0,-0.01 0.2,3.94 0,0 0.12,3.96 0,-0.01 0.03,3.96 0.5,0 z m -51.95,-163.21 -3.1,-5.95 -2.9,6.05 6,-0.1 z"
           style="fill:#ff0000;fill-opacity:1;fill-rule:nonzero;stroke:none"
           id="path212"
           inkscape:connector-curvature="0" /></g></g><path
       d="m 634.03,318.48 -167.77,-66.32 0.18,-0.47 167.77,66.33 -0.18,0.46 z m -167.85,-63.4 -4.48,-4.99 6.69,-0.59 -2.21,5.58 z"
       style="fill:#ff0000;fill-opacity:1;fill-rule:nonzero;stroke:none"
       id="path214"
       inkscape:connector-curvature="0" /><path
       d="m 198.16,208.65 204.26,40.23 -0.09,0.49 -204.27,-40.23 0.1,-0.49 z m 203.81,37.33 5.31,4.11 -6.47,1.78 1.16,-5.89 z"
       style="fill:#ff0000;fill-opacity:1;fill-rule:nonzero;stroke:none"
       id="path216"
       inkscape:connector-curvature="0" /><path
       d="m 261.82,234.93 141.22,15.08 -0.05,0.5 -141.22,-15.08 0.05,-0.5 z m 140.52,12.24 5.65,3.62 -6.29,2.35 0.64,-5.97 z"
       style="fill:#ff0000;fill-opacity:1;fill-rule:nonzero;stroke:none"
       id="path218"
       inkscape:connector-curvature="0" /><path
       d="m 214.72,260.37 195.53,-1.43 0,-0.5 -195.53,1.43 0,0.5 z m 194.55,1.33 5.98,-3.05 -6.02,-2.95 0.04,6 z"
       style="fill:#ff0000;fill-opacity:1;fill-rule:nonzero;stroke:none"
       id="path220"
       inkscape:connector-curvature="0" /><path
       d="m 122.74,362.7 287.88,-102.14 -0.17,-0.47 -287.88,102.14 0.17,0.47 z m 287.86,-99.21 4.65,-4.84 -6.66,-0.82 2.01,5.66 z"
       style="fill:#ff0000;fill-opacity:1;fill-rule:nonzero;stroke:none"
       id="path222"
       inkscape:connector-curvature="0" /><path
       d="m 468.35,371.46 -31.43,-103.69 0.48,-0.15 31.43,103.69 -0.48,0.15 z m -33.77,-101.94 1.13,-6.61 4.62,4.87 -5.75,1.74 z"
       style="fill:#ff0000;fill-opacity:1;fill-rule:nonzero;stroke:none"
       id="path224"
       inkscape:connector-curvature="0" /><g
       id="g226"><g
         id="g228"
         clip-path="url(#clipPath230)"><path
           d="m 536.18,470.49 -0.11,-10.29 -0.31,-10.28 -0.51,-10.24 -0.7,-10.18 -0.89,-10.1 -1.07,-10 -1.24,-9.88 -1.4,-9.74 -1.57,-9.57 -1.72,-9.4 -1.87,-9.19 -2,-8.97 -2.13,-8.73 -2.27,-8.47 -2.38,-8.19 -2.49,-7.89 -2.61,-7.57 -2.7,-7.23 -2.79,-6.86 -2.89,-6.48 -2.96,-6.07 -3.03,-5.67 -3.11,-5.21 -1.57,-2.44 -1.59,-2.31 -1.61,-2.21 -1.62,-2.07 -1.62,-1.95 -1.65,-1.83 -1.64,-1.68 -1.66,-1.56 -1.68,-1.43 -1.67,-1.28 -1.7,-1.14 -1.69,-1.01 -1.7,-0.86 -1.72,-0.7 -1.87,-0.45 -0.12,0.48 1.86,0.45 -0.04,-0.01 1.69,0.69 -0.02,0 1.69,0.84 -0.02,-0.01 1.68,1 -0.01,-0.01 1.68,1.14 -0.01,-0.01 1.66,1.27 -0.01,0 1.67,1.41 -0.01,-0.01 1.65,1.56 -0.01,-0.01 1.64,1.68 0,-0.01 1.63,1.82 0,-0.01 1.62,1.94 -0.01,0 1.61,2.07 0,-0.01 1.6,2.2 0,-0.01 1.58,2.31 0,0 1.57,2.43 0,-0.01 3.1,5.2 -0.01,-0.01 3.03,5.66 0,-0.01 2.95,6.07 0,-0.01 2.88,6.47 -0.01,-0.01 2.79,6.86 0,-0.01 2.7,7.23 0,-0.01 2.6,7.56 0,-0.01 2.5,7.89 0,-0.01 2.37,8.18 0,0 2.27,8.46 -0.01,0 2.13,8.72 0,0 2.01,8.97 0,-0.01 1.86,9.19 0,0 1.72,9.38 0,0 1.57,9.57 0,0 1.4,9.73 0,0 1.23,9.87 0,0 1.08,9.99 0,-0.01 0.88,10.1 0,-0.01 0.71,10.18 0,0 0.51,10.23 0,-0.01 0.3,10.28 0,-0.01 0.11,10.3 0.5,-0.01 z m -66.32,-221.69 -6.41,1.99 5.43,3.93 0.98,-5.92 z"
           style="fill:#ff0000;fill-opacity:1;fill-rule:nonzero;stroke:none"
           id="path234"
           inkscape:connector-curvature="0" /></g></g><path
       d="m 430.24,185.35 5.19,48.33 -0.5,0.05 -5.19,-48.33 0.5,-0.05 z m 7.82,47.04 -2.35,6.29 -3.62,-5.65 5.97,-0.64 z"
       style="fill:#70ad47;fill-opacity:1;fill-rule:nonzero;stroke:none"
       id="path236"
       inkscape:connector-curvature="0" /><path
       d="m 407.18,173.03 -41.12,17.18 0.19,0.46 41.13,-17.18 -0.2,-0.46 z m -41.26,14.25 -4.38,5.08 6.7,0.46 -2.32,-5.54 z"
       style="fill:#70ad47;fill-opacity:1;fill-rule:nonzero;stroke:none"
       id="path238"
       inkscape:connector-curvature="0" /><path
       d="m 452.79,173.03 48.79,20.11 -0.19,0.47 -48.79,-20.12 0.19,-0.46 z m 48.92,17.19 4.4,5.06 -6.69,0.49 2.29,-5.55 z"
       style="fill:#70ad47;fill-opacity:1;fill-rule:nonzero;stroke:none"
       id="path240"
       inkscape:connector-curvature="0" /><path
       d="m 479.76,215.08 -22.67,22.72 0.35,0.36 22.67,-22.72 -0.35,-0.36 z m -23.91,20.07 -2.12,6.37 6.36,-2.13 -4.24,-4.24 z"
       style="fill:#70ad47;fill-opacity:1;fill-rule:nonzero;stroke:none"
       id="path242"
       inkscape:connector-curvature="0" /><path
       d="m 394.43,204.23 69.82,2.06 -0.01,0.5 -69.82,-2.06 0.01,-0.5 z m 68.9,-0.71 5.91,3.17 -6.08,2.82 0.17,-5.99 z"
       style="fill:#70ad47;fill-opacity:1;fill-rule:nonzero;stroke:none"
       id="path244"
       inkscape:connector-curvature="0" /><path
       d="m 384.97,212.87 26.8,25.05 -0.34,0.37 -26.81,-25.06 0.35,-0.36 z m 27.95,22.36 2.33,6.29 -6.43,-1.91 4.1,-4.38 z"
       style="fill:#70ad47;fill-opacity:1;fill-rule:nonzero;stroke:none"
       id="path246"
       inkscape:connector-curvature="0" /><path
       d="m 400.06,483.92 -5.36,-0.09 -5.35,-0.29 -5.36,-0.46 -5.35,-0.66 -5.33,-0.83 -5.33,-1.02 -5.3,-1.18 -5.29,-1.36 -5.26,-1.53 -5.24,-1.68 -5.22,-1.85 -5.19,-2.02 -5.16,-2.16 -5.12,-2.32 -5.09,-2.47 -5.04,-2.62 -5,-2.76 -4.97,-2.9 -4.91,-3.04 -4.85,-3.17 -4.82,-3.31 -4.75,-3.43 -4.7,-3.57 -4.64,-3.68 -9.07,-7.73 -8.82,-8.18 -8.51,-8.61 -8.2,-9.02 -7.87,-9.41 -7.51,-9.76 -7.13,-10.11 -6.74,-10.41 -6.32,-10.7 -5.87,-10.96 -2.77,-5.58 -2.65,-5.63 -2.53,-5.69 -2.41,-5.73 -2.28,-5.78 -2.15,-5.84 -2.03,-5.87 -1.88,-5.91 -1.76,-5.95 -1.61,-5.97 -1.48,-6.02 -1.32,-6.03 -1.18,-6.06 -1.04,-6.09 -0.88,-6.09 -0.73,-6.12 -0.57,-6.13 -0.41,-6.13 -0.25,-6.15 -0.01,-1.14 0.5,-0.01 0.01,1.14 0,0 0.25,6.13 0,0 0.41,6.12 0,0 0.57,6.12 0,-0.01 0.73,6.11 0,0 0.88,6.09 -0.01,-0.01 1.04,6.08 0,0 1.18,6.05 -0.01,-0.01 1.33,6.03 0,0 1.47,6.01 0,-0.01 1.61,5.97 0,-0.01 1.75,5.94 0,0 1.89,5.91 -0.01,-0.01 2.03,5.87 0,-0.01 2.15,5.83 0,0 2.27,5.77 0,0 2.41,5.73 -0.01,-0.01 2.53,5.69 0,-0.01 2.65,5.63 -0.01,-0.01 2.77,5.57 0,0 5.87,10.95 0,-0.01 6.31,10.69 0,-0.01 6.72,10.41 0,-0.01 7.12,10.09 0,0 7.5,9.75 0,-0.01 7.86,9.4 -0.01,-0.01 8.2,9.02 -0.01,-0.01 8.51,8.6 -0.01,0 8.8,8.17 -0.01,-0.01 9.07,7.72 0,0 4.63,3.68 0,0 4.69,3.56 0,-0.01 4.74,3.43 0,0 4.81,3.31 -0.01,-0.01 4.85,3.17 0,-0.01 4.9,3.04 0,0 4.96,2.9 -0.01,0 5,2.75 -0.01,0 5.04,2.62 -0.01,-0.01 5.08,2.47 0,0 5.11,2.31 -0.01,0 5.16,2.16 -0.01,0 5.18,2.01 0,0 5.21,1.85 -0.01,0 5.24,1.68 -0.01,-0.01 5.26,1.53 -0.01,0 5.28,1.35 -0.01,0 5.3,1.19 -0.01,-0.01 5.32,1.02 -0.01,0 5.32,0.83 0,0 5.34,0.65 -0.01,0 5.34,0.46 0,0 5.34,0.29 -0.01,0 5.36,0.1 -0.01,0.49 z m -231.35,-256.17 2.92,-6.03 3.08,5.95 -6,0.08 z"
       style="fill:#ff0000;fill-opacity:1;fill-rule:nonzero;stroke:none"
       id="path248"
       inkscape:connector-curvature="0" /><path
       d="m 544.54,479.26 66.52,-51.03 -0.31,-0.39 -66.51,51.03 0.3,0.39 z m 67.4,-48.23 2.93,-6.04 -6.59,1.28 3.66,4.76 z"
       style="fill:#ff0000;fill-opacity:1;fill-rule:nonzero;stroke:none"
       id="path250"
       inkscape:connector-curvature="0" /><path
       d="m 536.72,471.54 0.84,-15.1 0.82,-15.03 0.41,-7.47 0.39,-7.42 0.39,-7.38 0.37,-7.32 0.37,-7.24 0.34,-7.17 0.34,-7.08 0.32,-6.99 0.3,-6.9 0.27,-6.78 0.26,-6.65 0.23,-6.53 0.18,-6.43 0.12,-6.35 0.05,-6.27 0.02,-6.18 -0.02,-6.1 -0.03,-6.01 -0.06,-5.92 -0.04,-5.81 0,0 -0.02,-5.72 -0.01,-5.61 0,0 0.04,-5.51 0,0 0.09,-5.4 0,0 0.15,-5.29 0,0 0.22,-5.17 0,0 0.31,-5.05 0,0 0.41,-4.93 0,0.01 0.3,-2.43 0,0.02 0.42,-2.38 0,0.01 0.54,-2.35 -0.01,0.01 0.64,-2.31 0,0.01 0.73,-2.29 -0.01,0.01 0.81,-2.25 0,0 0.87,-2.22 0,0.01 0.93,-2.19 -0.01,0.01 1.98,-4.29 0,0 2.06,-4.17 0,0 2.03,-4.08 0.98,-2.01 0.95,-1.98 0.89,-1.96 0.84,-1.94 0.76,-1.93 0.67,-1.91 0.58,-1.89 0.46,-1.87 0.35,-1.86 0.2,-1.85 0.07,-1.83 -0.1,-1.82 -0.11,-0.91 -0.15,-0.91 -0.21,-0.9 -0.25,-0.9 -0.29,-0.89 -0.35,-0.89 -0.4,-0.89 -0.45,-0.89 -0.51,-0.88 -0.56,-0.89 -0.62,-0.87 -0.67,-0.88 -0.73,-0.87 -0.77,-0.89 -0.83,-0.88 -0.86,-0.9 -1.86,-1.8 -2.03,-1.81 -2.19,-1.83 -2.35,-1.82 -2.49,-1.85 -2.63,-1.83 -2.76,-1.83 -2.89,-1.81 -3.01,-1.81 -3.12,-1.78 -3.22,-1.76 -3.32,-1.74 -3.41,-1.69 -3.49,-1.67 -3.56,-1.62 -3.64,-1.59 -3.7,-1.52 -3.75,-1.48 -3.79,-1.41 -3.84,-1.36 -3.88,-1.28 -3.89,-1.22 -3.91,-1.14 -3.92,-1.06 -3.94,-0.98 -3.92,-0.88 -3.92,-0.79 -3.9,-0.7 -3.87,-0.59 -3.84,-0.48 -3.9,-0.39 -4.05,-0.3 -4.19,-0.2 -4.31,-0.12 -8.96,0.02 -9.32,0.32 -9.6,0.61 -9.77,0.87 -9.87,1.11 -9.85,1.33 -9.76,1.53 -9.56,1.71 -9.28,1.85 -8.9,1.98 -4.28,1.03 -4.15,1.05 -4.01,1.08 -3.86,1.09 -3.69,1.11 -3.52,1.12 -3.32,1.13 -3.14,1.13 -2.96,1.17 -2.84,1.21 -2.71,1.26 -2.61,1.31 -2.48,1.35 -2.38,1.39 -2.26,1.44 -2.17,1.48 -2.07,1.51 -1.97,1.56 -1.89,1.58 -1.8,1.62 -1.71,1.65 -1.64,1.68 -1.57,1.71 -1.49,1.74 -1.44,1.76 -1.37,1.79 -1.31,1.8 -1.26,1.83 -1.21,1.85 -1.17,1.86 -2.21,3.77 -2.08,3.83 -1.98,3.85 -1.61,3.27 0.45,0.22 1.61,-3.27 -0.01,0.01 1.98,-3.85 0,0 2.08,-3.81 0,0 2.2,-3.76 0,0.01 1.16,-1.86 0,0 1.2,-1.85 0,0.01 1.26,-1.82 0,0 1.3,-1.8 0,0.01 1.36,-1.78 0,0.01 1.43,-1.76 0,0.01 1.49,-1.74 -0.01,0.01 1.56,-1.71 0,0 1.63,-1.67 0,0.01 1.71,-1.64 -0.01,0 1.8,-1.62 -0.01,0.01 1.88,-1.58 -0.01,0.01 1.97,-1.56 -0.01,0.01 2.07,-1.51 -0.01,0.01 2.16,-1.47 -0.01,0 2.26,-1.43 -0.01,0 2.37,-1.38 -0.01,0 2.48,-1.35 -0.01,0 2.6,-1.3 -0.01,0 2.71,-1.26 -0.01,0.01 2.84,-1.21 -0.01,0 2.95,-1.16 0,0 3.13,-1.13 -0.01,0 3.32,-1.13 0,0.01 3.51,-1.12 -0.01,0 3.69,-1.11 0,0 3.86,-1.09 -0.01,0 4.01,-1.08 -0.01,0 4.15,-1.05 0,0.01 4.27,-1.03 0,0 8.89,-1.98 0,0 9.28,-1.85 -0.01,0 9.56,-1.7 -0.01,0 9.75,-1.53 0,0 9.84,-1.33 0,0 9.86,-1.12 -0.01,0 9.77,-0.87 -0.01,0 9.6,-0.6 -0.01,0 9.31,-0.33 0,0.01 8.94,-0.02 0,0 4.31,0.12 -0.01,0 4.18,0.2 -0.01,0 4.05,0.29 0,0 3.88,0.39 0,0 3.84,0.49 -0.01,0 3.86,0.58 0,0 3.89,0.7 -0.01,0 3.92,0.79 -0.01,0 3.92,0.88 -0.01,0 3.93,0.98 0,-0.01 3.91,1.06 0,0 3.91,1.14 0,0 3.88,1.21 0,0 3.87,1.28 -0.01,0 3.84,1.36 -0.01,0 3.8,1.41 -0.01,0 3.75,1.48 -0.01,-0.01 3.7,1.53 0,-0.01 3.63,1.59 -0.01,0 3.56,1.62 0,-0.01 3.49,1.67 -0.01,0 3.41,1.69 -0.01,0 3.32,1.73 -0.01,0 3.22,1.76 0,0 3.11,1.78 0,-0.01 3,1.8 0,0 2.88,1.82 -0.01,-0.01 2.76,1.83 0,-0.01 2.62,1.83 0,0 2.48,1.84 0,-0.01 2.34,1.82 -0.01,0 2.18,1.82 0,0 2.02,1.8 -0.01,0 1.86,1.79 -0.01,-0.01 0.86,0.9 0,-0.01 0.82,0.88 -0.01,-0.01 0.77,0.88 -0.01,0 0.73,0.87 -0.01,-0.01 0.67,0.87 0,-0.01 0.61,0.87 -0.01,-0.02 0.56,0.88 -0.01,-0.01 0.51,0.87 -0.01,-0.01 0.44,0.88 0,-0.01 0.39,0.88 0,-0.02 0.34,0.88 -0.01,-0.01 0.3,0.88 -0.01,-0.01 0.25,0.89 0,-0.01 0.2,0.89 0,-0.02 0.15,0.9 -0.01,-0.01 0.12,0.89 0,-0.02 0.09,1.8 0,-0.02 -0.06,1.81 0,-0.01 -0.21,1.83 0.01,-0.02 -0.35,1.84 0,-0.01 -0.45,1.86 0,-0.02 -0.58,1.88 0.01,-0.01 -0.67,1.9 0,-0.01 -0.76,1.92 0.01,-0.01 -0.83,1.94 0,-0.01 -0.9,1.96 0.01,-0.01 -0.95,1.98 0,0 -0.98,2 0,0 -2.03,4.08 -2.06,4.18 -1.98,4.3 -0.93,2.2 -0.88,2.22 -0.81,2.26 -0.73,2.3 -0.64,2.32 -0.54,2.37 -0.42,2.39 -0.31,2.43 -0.41,4.94 -0.31,5.06 -0.22,5.18 -0.15,5.3 -0.09,5.4 -0.04,5.52 0.01,5.61 0.02,5.72 0.04,5.81 0.06,5.92 0.03,6.01 0,0 0.02,6.1 0,-0.01 -0.02,6.18 0,0 -0.05,6.27 0,0 -0.12,6.35 0,-0.01 -0.18,6.43 0,0 -0.23,6.53 -0.25,6.65 -0.28,6.78 -0.3,6.89 -0.32,6.99 -0.33,7.08 -0.35,7.17 -0.37,7.25 -0.37,7.32 -0.38,7.37 -0.4,7.42 -0.41,7.47 -0.82,15.03 -0.83,15.1 0.49,0.03 z m -276.33,-251.67 0.08,6.71 5.32,-4.09 -5.4,-2.62 z"
       style="fill:#ff0000;fill-opacity:1;fill-rule:nonzero;stroke:none"
       id="path252"
       inkscape:connector-curvature="0" /><g
       id="g254"><g
         id="g256"
         clip-path="url(#clipPath258)"><path
           d="m 346.78,422.26 0.19,-5.72 0.58,-5.72 0.95,-5.7 1.31,-5.67 1.66,-5.62 2,-5.56 2.31,-5.5 2.63,-5.42 2.92,-5.33 3.21,-5.22 3.47,-5.12 3.74,-4.98 3.98,-4.86 4.22,-4.71 4.45,-4.55 4.65,-4.39 4.86,-4.2 5.04,-4.02 5.2,-3.81 5.37,-3.6 5.52,-3.38 5.66,-3.14 5.79,-2.9 5.89,-2.64 5.99,-2.36 6.08,-2.1 6.15,-1.8 6.22,-1.5 6.26,-1.18 6.3,-0.86 6.33,-0.52 6.34,-0.18 12.65,0.12 12.55,0.37 12.35,0.57 12.06,0.79 5.88,0.47 5.78,0.51 5.65,0.55 5.51,0.59 5.37,0.64 5.2,0.68 5.03,0.7 4.85,0.75 4.65,0.77 4.44,0.8 4.22,0.84 3.98,0.85 3.74,0.88 3.47,0.9 3.21,0.93 2.92,0.94 2.63,0.96 2.32,0.97 2.03,0.99 1.45,1.25 -0.33,0.38 -1.43,-1.23 0.06,0.04 -1.99,-0.98 0.01,0.01 -2.31,-0.97 0.01,0.01 -2.61,-0.96 0.01,0 -2.92,-0.94 0.01,0.01 -3.21,-0.93 0.01,0 -3.47,-0.9 0.01,0.01 -3.73,-0.88 0,0 -3.98,-0.86 0.01,0.01 -4.22,-0.84 0.01,0 -4.44,-0.8 0,0 -4.64,-0.77 0,0 -4.84,-0.74 0,0 -5.03,-0.71 0,0 -5.2,-0.67 0.01,0 -5.37,-0.64 0.01,0 -5.52,-0.59 0.01,0 -5.65,-0.56 0,0 -5.77,-0.51 0,0 -5.88,-0.46 0,0 -12.05,-0.79 0,0 -12.34,-0.58 0,0 -12.54,-0.36 0.01,0 -12.65,-0.12 0.01,0 -6.33,0.18 0.02,0 -6.32,0.51 0.01,0 -6.28,0.87 0.01,-0.01 -6.25,1.18 0.01,0 -6.2,1.5 0.01,-0.01 -6.14,1.8 0.01,-0.01 -6.07,2.1 0.01,-0.01 -5.99,2.37 0.01,-0.01 -5.88,2.63 0.01,0 -5.77,2.89 0.01,0 -5.65,3.13 0.01,0 -5.51,3.37 0.01,0 -5.37,3.59 0.01,-0.01 -5.19,3.81 0,0 -5.03,4.01 0.01,-0.01 -4.85,4.2 0.01,-0.01 -4.64,4.38 0.01,-0.01 -4.44,4.55 0,-0.01 -4.21,4.7 0.01,-0.01 -3.98,4.85 0.01,-0.01 -3.74,4.98 0.01,-0.01 -3.47,5.11 0.01,-0.01 -3.2,5.21 0,-0.01 -2.91,5.32 0,-0.01 -2.62,5.4 0.01,-0.01 -2.31,5.48 0.01,-0.01 -1.99,5.55 0,-0.01 -1.66,5.6 0.01,-0.01 -1.31,5.65 0.01,-0.01 -0.96,5.68 0.01,-0.01 -0.58,5.7 0,-0.01 -0.2,5.71 -0.49,-0.02 z m 268.67,-106.97 1.64,6.5 -6.19,-2.59 4.55,-3.91 z"
           style="fill:#ff0000;fill-opacity:1;fill-rule:nonzero;stroke:none"
           id="path262"
           inkscape:connector-curvature="0" /></g></g><path
       d="m 514.44,437.31 116.25,-90.84 -0.31,-0.4 -116.24,90.84 0.3,0.4 z m 117.15,-88.06 2.88,-6.06 -6.57,1.33 3.69,4.73 z"
       style="fill:#ff0000;fill-opacity:1;fill-rule:nonzero;stroke:none"
       id="path264"
       inkscape:connector-curvature="0" /><path
       d="m 514.4,437.34 196.59,-93.19 -0.22,-0.45 -196.59,93.18 0.22,0.46 z m 196.86,-90.28 4.14,-5.28 -6.71,-0.14 2.57,5.42 z"
       style="fill:#ff0000;fill-opacity:1;fill-rule:nonzero;stroke:none"
       id="path266"
       inkscape:connector-curvature="0" /><path
       d="m 453.21,374.36 -89.61,-152.62 0.43,-0.25 89.61,152.61 -0.43,0.26 z M 361.74,224 l -0.45,-6.7 5.62,3.66 -5.17,3.04 z"
       style="fill:#ff0000;fill-opacity:1;fill-rule:nonzero;stroke:none"
       id="path268"
       inkscape:connector-curvature="0" /><path
       d="m 489.25,383.27 120.24,39.23 -0.16,0.47 -120.24,-39.23 0.16,-0.47 z m 120.14,36.3 4.77,4.72 -6.63,0.99 1.86,-5.71 z"
       style="fill:#ff0000;fill-opacity:1;fill-rule:nonzero;stroke:none"
       id="path270"
       inkscape:connector-curvature="0" /><path
       d="m 477.85,373.83 0.7,-6.29 0,0 0.39,-3.2 0,0.01 0.45,-3.25 0,0 0.53,-3.33 0,0 0.62,-3.43 0,0.01 0.72,-3.55 0,0 0.86,-3.68 0,0.01 1,-3.85 0,0 0.56,-1.98 0,0 0.61,-2.04 0,0 0.65,-2.08 0,0 0.7,-2.14 0,0.01 0.75,-2.19 0,0 0.81,-2.25 0,0 0.86,-2.3 0,0 0.92,-2.37 0,0.01 0.98,-2.44 0,0 1.03,-2.5 0,0.01 1.11,-2.58 0,0.01 1.17,-2.64 0,0 1.24,-2.72 0,0.01 1.32,-2.79 -0.01,0 0.72,-1.44 -0.01,0.01 0.78,-1.49 -0.01,0 0.84,-1.53 0,0 0.89,-1.57 0,0 0.96,-1.61 0,0 1.01,-1.67 0,0.01 1.07,-1.7 0,0.01 1.11,-1.74 0,0 1.16,-1.77 0,0.01 1.2,-1.81 0,0 2.54,-3.7 0,0.01 2.69,-3.82 0,0 2.81,-3.92 0,0 2.91,-4.01 0,0.01 3,-4.08 3.07,-4.15 3.11,-4.19 6.26,-8.48 3.1,-4.25 3.07,-4.26 3,-4.24 2.92,-4.2 2.82,-4.16 2.69,-4.09 2.54,-4.04 1.21,-1.98 1.16,-1.96 1.12,-1.94 1.07,-1.91 1.01,-1.88 0.96,-1.85 0.9,-1.83 0.84,-1.79 0.78,-1.75 0.7,-1.72 0.65,-1.69 0.57,-1.64 0.5,-1.61 0.43,-1.56 0.34,-1.52 0.25,-1.47 0.18,-1.43 0.09,-1.38 -0.01,-1.33 -0.09,-1.28 -0.2,-1.22 -0.29,-1.16 -0.37,-1.14 -0.44,-1.09 -0.51,-1.05 -0.57,-1.01 -0.63,-0.99 -0.69,-0.96 -0.76,-0.92 -0.81,-0.9 -0.87,-0.85 -0.93,-0.84 -0.98,-0.81 -1.03,-0.77 -1.09,-0.75 -1.15,-0.71 -1.19,-0.7 -1.24,-0.66 -1.29,-0.64 -1.34,-0.62 -1.39,-0.59 -1.43,-0.57 -1.48,-0.54 -1.52,-0.52 -3.17,-0.98 -3.33,-0.89 -3.5,-0.81 -3.64,-0.73 -3.77,-0.67 -3.91,-0.59 -4.03,-0.53 -4.15,-0.47 -4.25,-0.42 -4.36,-0.37 -4.44,-0.31 -4.52,-0.28 -4.6,-0.24 -4.66,-0.21 -4.73,-0.17 -4.76,-0.15 -4.82,-0.14 -9.71,-0.21 -4.78,-0.09 -0.01,0.5 4.79,0.09 -0.01,0 9.71,0.21 0,0 4.81,0.14 0,0 4.76,0.15 0,0 4.73,0.17 0,0 4.65,0.21 0,0 4.6,0.24 0,0 4.52,0.28 0,0 4.44,0.31 -0.01,0 4.35,0.37 0,0 4.25,0.42 -0.01,0 4.15,0.47 0,0 4.02,0.53 0,-0.01 3.9,0.6 -0.01,0 3.77,0.66 0,0 3.63,0.73 -0.01,0 3.49,0.81 -0.01,0 3.32,0.88 -0.01,0 3.17,0.97 -0.01,0 1.52,0.52 -0.01,0 1.47,0.54 -0.01,-0.01 1.44,0.57 -0.01,0 1.38,0.59 -0.01,-0.01 1.33,0.62 0,0 1.29,0.63 -0.01,0 1.23,0.66 -0.01,0 1.19,0.69 -0.01,-0.01 1.14,0.71 -0.01,0 1.08,0.74 -0.01,0 1.03,0.76 -0.01,-0.01 0.97,0.81 -0.01,-0.01 0.92,0.82 -0.01,0 0.86,0.84 -0.01,-0.01 0.81,0.89 -0.01,-0.01 0.74,0.91 -0.01,-0.01 0.69,0.95 -0.01,-0.02 0.62,0.98 -0.01,-0.01 0.57,1 -0.01,-0.01 0.5,1.03 0,-0.01 0.43,1.07 -0.01,-0.01 0.37,1.11 0,-0.01 0.28,1.14 0,-0.02 0.19,1.2 0,-0.02 0.09,1.26 0,-0.02 0.01,1.32 0,-0.02 -0.09,1.36 0,-0.01 -0.17,1.42 0,-0.02 -0.26,1.46 0.01,-0.01 -0.34,1.51 0,-0.02 -0.42,1.56 0,-0.01 -0.49,1.6 0,-0.01 -0.57,1.63 0,0 -0.64,1.68 0,-0.01 -0.7,1.72 0,-0.01 -0.77,1.75 0,-0.01 -0.84,1.79 0,-0.01 -0.9,1.83 0,-0.01 -0.96,1.85 0,-0.01 -1,1.89 0,-0.01 -1.06,1.91 0,0 -1.12,1.93 0,0 -1.16,1.95 0,0 -1.21,1.98 0.01,0 -2.54,4.03 0,-0.01 -2.69,4.1 0,-0.01 -2.81,4.16 0,0 -2.92,4.2 0.01,0 -3,4.23 0,0 -3.07,4.25 0,0 -3.1,4.26 0,-0.01 -6.26,8.48 -3.11,4.19 -3.07,4.15 -3,4.08 -2.92,4.01 -2.81,3.92 -2.69,3.82 -2.54,3.7 -1.21,1.81 -1.16,1.77 -1.12,1.74 -1.06,1.69 -1.02,1.67 -0.96,1.62 -0.89,1.58 -0.85,1.54 -0.77,1.49 -0.72,1.44 -1.31,2.79 -1.25,2.72 -1.17,2.64 -1.11,2.58 -1.03,2.5 -0.99,2.44 -0.91,2.37 -0.87,2.31 -0.81,2.25 -0.75,2.2 -0.71,2.14 -0.65,2.08 -0.61,2.05 -0.56,1.99 -1.01,3.85 -0.85,3.69 -0.73,3.56 -0.63,3.44 -0.52,3.34 -0.45,3.25 -0.4,3.2 -0.7,6.29 0.5,0.06 z m -19.4,-209.9 -6.05,2.89 5.94,3.11 0.11,-6 z"
       style="fill:#ff0000;fill-opacity:1;fill-rule:nonzero;stroke:none"
       id="path272"
       inkscape:connector-curvature="0" /><path
       d="m 468.46,370.78 65.72,-153.04 -0.46,-0.2 -65.72,153.04 0.46,0.2 z m 67.85,-151.03 -0.38,-6.7 -5.13,4.33 5.51,2.37 z"
       style="fill:#ff0000;fill-opacity:1;fill-rule:nonzero;stroke:none"
       id="path274"
       inkscape:connector-curvature="0" /><path
       d="m 620.48,416.16 -3.79,-1.32 0,0 -3.77,-1.35 0,0 -3.73,-1.43 0,0.01 -3.67,-1.54 0.01,0 -1.82,-0.82 0.01,0.01 -1.79,-0.86 0.01,0.01 -1.77,-0.91 0.01,0 -1.74,-0.95 0.01,0 -1.7,-1.01 0,0 -1.68,-1.06 0.01,0 -1.64,-1.13 0,0.01 -1.59,-1.2 0.01,0.01 -1.57,-1.27 0.01,0 -1.53,-1.34 0.01,0.01 -1.48,-1.43 0,0.01 -1.43,-1.51 0.01,0 -1.39,-1.6 0.01,0.01 -1.33,-1.7 0.01,0.01 -1.28,-1.8 0,0.01 -1.22,-1.9 0.01,0.01 -1.17,-2.01 0.01,0.01 -1.1,-2.11 0,0.01 -1.04,-2.24 0,0.01 -0.97,-2.36 0,0.01 -0.91,-2.49 0.01,0.01 -0.83,-2.62 0,0.01 -0.77,-2.74 0.01,0.01 -0.69,-2.9 0.01,0.01 -0.58,-3.09 0,0.02 -0.43,-3.35 0,0.01 -0.3,-3.57 0,0.01 -0.19,-3.8 0,0.01 -0.07,-4 0,0.01 0.03,-4.18 0,0 0.13,-4.35 0,0.01 0.21,-4.51 0,0.01 0.28,-4.65 0,0.01 0.36,-4.77 0,0 0.87,-9.84 0,0 1.04,-10.14 0,0 1.12,-10.3 1.14,-10.36 1.09,-10.28 0.95,-10.06 0.76,-9.74 0.29,-4.71 0.2,-4.57 0.12,-4.42 0.02,-4.27 -0.08,-4.09 -0.2,-3.89 -0.31,-3.68 -0.45,-3.46 -0.54,-3.29 -0.55,-3.22 -0.59,-3.14 -0.62,-3.07 -0.65,-3 -0.69,-2.91 -0.73,-2.85 -0.76,-2.77 -0.81,-2.7 -0.84,-2.63 -0.89,-2.55 -0.93,-2.48 -0.98,-2.41 -1.03,-2.34 -1.08,-2.25 -1.13,-2.19 -1.18,-2.13 -1.23,-2.04 -1.3,-1.98 -1.35,-1.9 -1.4,-1.83 -1.47,-1.76 -1.54,-1.69 -1.59,-1.62 -1.67,-1.55 -1.73,-1.48 -1.79,-1.41 -1.87,-1.33 -1.95,-1.28 -2.01,-1.19 -2.08,-1.13 -2.17,-1.07 -2.25,-0.97 -2.34,-0.87 -2.42,-0.77 -2.5,-0.67 -2.59,-0.58 -2.67,-0.49 -2.73,-0.41 -2.8,-0.31 -2.88,-0.24 -2.94,-0.17 -3,-0.09 -3.07,-0.01 -3.11,0.04 -3.17,0.11 -3.23,0.18 -3.27,0.22 -3.32,0.29 -3.35,0.33 -3.4,0.37 -3.44,0.42 -6.97,0.96 -7.08,1.09 -7.18,1.19 -7.24,1.28 -7.29,1.33 -2.39,0.45 0.09,0.49 2.39,-0.44 7.29,-1.34 0,0 7.24,-1.27 -0.01,0 7.18,-1.2 0,0 7.08,-1.09 -0.01,0 6.96,-0.95 0,0 3.44,-0.42 -0.01,0 3.4,-0.38 0,0 3.35,-0.33 0,0 3.31,-0.28 0,0 3.27,-0.23 -0.01,0 3.22,-0.17 0,0 3.16,-0.11 0,0 3.11,-0.04 -0.01,0 3.06,0.01 0,0 2.99,0.09 -0.01,0 2.94,0.16 -0.01,0 2.87,0.24 -0.01,0 2.8,0.32 -0.01,0 2.73,0.4 -0.01,0 2.65,0.49 -0.01,0 2.58,0.57 -0.01,0 2.49,0.67 -0.01,0 2.42,0.76 -0.02,0 2.33,0.87 -0.01,-0.01 2.24,0.97 -0.01,-0.01 2.15,1.06 -0.01,0 2.08,1.12 -0.01,0 2,1.19 0,-0.01 1.93,1.27 -0.01,0 1.86,1.32 -0.01,0 1.79,1.4 -0.01,-0.01 1.73,1.47 -0.01,0 1.65,1.54 0,-0.01 1.58,1.62 -0.01,-0.01 1.53,1.68 0,-0.01 1.46,1.76 -0.01,-0.01 1.4,1.82 0,-0.01 1.34,1.9 0,-0.01 1.29,1.97 -0.01,-0.01 1.23,2.04 0,-0.01 1.17,2.12 0,-0.01 1.13,2.18 -0.01,0 1.07,2.25 0,-0.01 1.03,2.33 0,-0.01 0.97,2.4 0,0 0.93,2.47 0,0 0.89,2.54 0,-0.01 0.84,2.63 0,-0.01 0.8,2.7 0,-0.01 0.76,2.77 0,-0.01 0.72,2.85 0,-0.01 0.69,2.91 0,0 0.65,2.99 0,0 0.62,3.06 0,0 0.59,3.14 0,0 0.55,3.21 0,0 0.53,3.29 0,-0.01 0.45,3.45 0,-0.01 0.32,3.67 0,-0.01 0.19,3.89 0,-0.01 0.08,4.08 0,-0.01 -0.02,4.26 0,0 -0.12,4.41 0,0 -0.2,4.57 0,-0.01 -0.29,4.7 0,0 -0.75,9.74 0,-0.01 -0.96,10.07 0,-0.01 -1.08,10.28 0,0 -1.14,10.36 -1.13,10.3 -1.03,10.14 -0.87,9.85 -0.36,4.77 -0.29,4.65 -0.21,4.51 -0.13,4.35 -0.03,4.19 0.07,4 0.19,3.8 0.3,3.59 0.44,3.36 0.58,3.1 0.68,2.91 0.77,2.75 0.83,2.63 0.91,2.5 0.98,2.36 1.05,2.26 1.11,2.12 1.17,2.02 1.23,1.91 1.28,1.81 1.34,1.7 1.39,1.62 1.44,1.52 1.5,1.43 1.53,1.35 1.57,1.28 1.61,1.2 1.65,1.14 1.69,1.07 1.71,1.01 1.74,0.96 1.77,0.91 1.79,0.86 1.82,0.82 3.68,1.54 3.75,1.43 3.77,1.36 3.8,1.32 0.16,-0.48 z m -176.53,-258.8 -5.35,4.04 6.45,1.86 -1.1,-5.9 z"
       style="fill:#ff0000;fill-opacity:1;fill-rule:nonzero;stroke:none"
       id="path276"
       inkscape:connector-curvature="0" /><path
       d="m 641.05,318.59 -0.36,-9.02 -0.23,-4.53 -0.28,-4.54 -0.35,-4.56 -0.44,-4.58 -0.55,-4.6 -0.68,-4.63 -0.82,-4.67 -0.47,-2.35 -0.51,-2.36 -0.57,-2.37 -0.6,-2.38 -0.66,-2.39 -0.71,-2.4 -0.75,-2.41 -0.82,-2.43 -0.88,-2.44 -0.94,-2.46 -1,-2.47 -1.07,-2.49 -1.13,-2.5 -1.2,-2.52 0,0 -1.22,-2.57 0,0.01 -1.17,-2.66 0,0.01 -1.15,-2.74 0,0 -1.13,-2.81 0,0 -1.12,-2.88 0,0 -1.11,-2.93 -1.12,-2.98 -1.13,-3.03 -2.36,-6.14 -1.24,-3.1 -1.29,-3.11 -1.34,-3.11 -1.42,-3.1 -1.5,-3.09 -1.58,-3.07 -1.68,-3.03 -1.79,-2.99 -1.89,-2.95 -2.03,-2.89 -2.15,-2.83 -2.29,-2.75 -2.45,-2.68 -2.6,-2.59 -2.77,-2.48 -1.46,-1.21 -1.49,-1.18 -1.54,-1.15 -1.59,-1.12 -1.64,-1.09 -1.68,-1.06 -1.74,-1.03 -1.79,-0.99 -1.84,-0.96 -1.9,-0.93 -1.95,-0.88 -2.01,-0.85 -2.07,-0.81 -2.12,-0.78 -4.46,-1.45 -4.79,-1.37 -5.08,-1.29 -5.36,-1.18 -5.63,-1.11 -5.87,-1.02 -6.09,-0.95 -6.31,-0.86 -6.49,-0.78 -6.67,-0.71 -6.82,-0.63 -6.95,-0.55 -14.26,-0.89 -14.59,-0.61 -14.77,-0.34 -14.82,-0.08 -14.72,0.15 -14.47,0.4 -7.1,0.28 -6.98,0.34 -6.85,0.38 -6.7,0.43 -6.53,0.49 -6.35,0.53 -6.14,0.59 -5.91,0.62 -11.45,1.47 -11.18,1.8 -10.91,2.11 -10.67,2.4 -10.46,2.68 -10.25,2.91 -10.06,3.13 -9.9,3.33 -9.74,3.51 -9.62,3.67 -9.52,3.8 -9.41,3.91 -18.63,8.06 -13.91,6.2 0.21,0.46 13.9,-6.2 0,0 18.62,-8.06 0,0 9.41,-3.91 0,0 9.51,-3.8 0,0.01 9.61,-3.67 0,0 9.74,-3.51 -0.01,0 9.9,-3.33 -0.01,0 10.06,-3.12 -0.01,0 10.25,-2.91 -0.01,0 10.45,-2.67 -0.01,0 10.67,-2.4 -0.01,0 10.9,-2.1 0,0 11.16,-1.8 0,0 11.44,-1.47 0,0 5.91,-0.62 -0.01,0 6.14,-0.59 0,0 6.34,-0.53 0,0 6.52,-0.49 0,0 6.7,-0.43 0,0 6.84,-0.39 0,0 6.98,-0.33 0,0 7.1,-0.28 -0.01,0 14.47,-0.4 0,0 14.71,-0.15 0,0 14.81,0.08 0,0 14.76,0.34 0,0 14.59,0.61 -0.01,0 14.25,0.89 0,0 6.95,0.55 0,0 6.81,0.63 0,0 6.67,0.7 0,0 6.48,0.78 0,0 6.3,0.87 -0.01,-0.01 6.09,0.95 0,0 5.86,1.02 0,0 5.62,1.11 -0.01,0 5.36,1.18 -0.01,0 5.08,1.28 -0.01,0 4.78,1.37 -0.01,-0.01 4.45,1.46 -0.01,-0.01 2.12,0.78 -0.01,0 2.07,0.81 -0.01,-0.01 2,0.85 0,0 1.94,0.88 -0.01,-0.01 1.89,0.92 0,0 1.83,0.96 0,0 1.78,0.99 0,0 1.73,1.02 -0.01,-0.01 1.68,1.06 0,0 1.63,1.08 0,0 1.58,1.12 0,-0.01 1.53,1.15 0,0 1.48,1.17 0,-0.01 1.44,1.21 0,-0.01 2.76,2.48 -0.01,-0.01 2.59,2.58 0,-0.01 2.43,2.67 0,-0.01 2.28,2.75 0,-0.01 2.14,2.82 0,-0.01 2.01,2.88 0,-0.01 1.89,2.94 -0.01,0 1.79,2.98 -0.01,-0.01 1.68,3.03 -0.01,0 1.59,3.06 -0.01,-0.01 1.49,3.08 0,0 1.42,3.1 0,-0.01 1.34,3.11 0,-0.01 1.29,3.11 0,0 1.24,3.09 -0.01,0 2.36,6.14 0,0 1.13,3.02 1.13,2.99 1.11,2.93 1.11,2.88 1.14,2.82 1.15,2.74 1.18,2.66 1.21,2.58 1.2,2.51 0,0 1.13,2.49 0,0 1.07,2.48 0,0 0.99,2.46 0,0 0.94,2.45 0,0 0.87,2.43 0,0 0.82,2.42 0,0 0.76,2.41 0,-0.01 0.7,2.4 0,0 0.66,2.38 0,0 0.6,2.37 0,0 0.56,2.36 0,0 0.51,2.35 0,0 0.47,2.35 0,-0.01 0.82,4.66 0,-0.01 0.67,4.63 0,-0.01 0.55,4.6 0,-0.01 0.44,4.58 0,-0.01 0.35,4.56 0,-0.01 0.29,4.54 0,0 0.22,4.52 0,0 0.36,9.02 0.5,-0.02 z m -445.99,-125.17 -4.26,5.18 6.7,0.29 -2.44,-5.47 z"
       style="fill:#ff0000;fill-opacity:1;fill-rule:nonzero;stroke:none"
       id="path278"
       inkscape:connector-curvature="0" /><g
       id="g280"><g
         id="g282"
         clip-path="url(#clipPath284)"><path
           d="m 616.84,321.84 -0.08,-0.51 0.02,0.07 -0.24,-0.51 0.03,0.05 -0.4,-0.5 0.03,0.02 -0.55,-0.5 0.02,0.02 -0.7,-0.5 0.02,0.01 -0.85,-0.5 0.01,0.01 -0.99,-0.5 0.01,0.01 -1.15,-0.51 0.01,0.01 -1.28,-0.5 0.01,0.01 -1.42,-0.5 0.01,0 -1.56,-0.48 0,0 -1.69,-0.49 0,0 -1.82,-0.49 0,0.01 -1.95,-0.48 0,0 -2.08,-0.48 0,0 -2.2,-0.48 0,0 -2.32,-0.47 0,0 -2.44,-0.47 0,0 -5.24,-0.92 0.01,0 -5.68,-0.9 0,0 -6.1,-0.88 0,0 -6.51,-0.85 0.01,0 -6.9,-0.83 0.01,0 -7.26,-0.81 0,0 -7.6,-0.77 0,0 -7.92,-0.74 0,0 -8.22,-0.71 0,0 -8.51,-0.67 0,0 -8.78,-0.64 0,0 -9.01,-0.59 0,0 -9.24,-0.56 0,0 -9.44,-0.51 0,0 -9.62,-0.46 0,0 -9.78,-0.42 0,0 -9.93,-0.37 0,0 -10.04,-0.31 0,0 -10.15,-0.27 0,0 -20.51,-0.36 0,0 -20.69,-0.12 0.01,0 -10.35,0.14 0.01,0 -10.34,0.43 0.01,0 -10.29,0.69 0,0 -10.23,0.96 0.01,0 -10.15,1.22 0.01,0 -10.05,1.45 0,0 -9.92,1.7 0.01,0 -9.79,1.92 0.01,-0.01 -9.63,2.15 0.01,0 -9.44,2.35 0,-0.01 -9.24,2.55 0.01,-0.01 -9.01,2.75 0,0 -8.77,2.91 0,0 -8.51,3.09 0.01,0 -8.23,3.25 0.01,0 -7.92,3.41 0,0 -7.6,3.56 0.01,-0.01 -7.26,3.69 0.01,0 -6.89,3.82 0.01,-0.01 -6.51,3.94 0.01,-0.01 -6.11,4.05 0.01,-0.01 -5.68,4.15 0.01,-0.01 -5.23,4.24 0,-0.01 -2.44,2.15 0.01,-0.01 -2.33,2.17 0.01,-0.01 -2.21,2.19 0.01,0 -2.08,2.19 0.01,0 -1.96,2.22 0,-0.01 -1.82,2.24 0.01,-0.01 -1.7,2.25 0.01,-0.01 -1.56,2.26 0,-0.01 -1.41,2.27 0,-0.01 -1.28,2.28 0.01,-0.01 -1.15,2.29 0,-0.01 -0.99,2.3 0,-0.02 -0.85,2.31 0.01,-0.01 -0.71,2.31 0.01,-0.01 -0.55,2.31 0.01,-0.02 -0.27,1.98 -0.49,-0.07 0.26,-1.99 0.55,-2.34 0.71,-2.32 0.86,-2.33 1,-2.3 1.15,-2.31 1.29,-2.29 1.42,-2.28 1.57,-2.27 1.7,-2.26 1.83,-2.24 1.96,-2.23 2.09,-2.2 2.21,-2.2 2.33,-2.17 2.45,-2.15 5.24,-4.24 5.69,-4.16 6.11,-4.05 6.52,-3.94 6.9,-3.82 7.26,-3.69 7.62,-3.56 7.92,-3.42 8.24,-3.26 8.52,-3.09 8.78,-2.92 9.02,-2.75 9.24,-2.54 9.45,-2.35 9.63,-2.14 9.79,-1.93 9.93,-1.69 10.06,-1.46 10.15,-1.21 10.24,-0.96 10.3,-0.7 10.34,-0.43 10.35,-0.14 20.69,0.12 20.52,0.37 10.15,0.26 10.05,0.31 9.93,0.37 9.78,0.42 9.63,0.47 9.44,0.51 9.24,0.55 9.02,0.59 8.77,0.64 8.52,0.68 8.23,0.7 7.92,0.74 7.61,0.78 7.25,0.8 6.9,0.83 6.51,0.86 6.11,0.88 5.68,0.9 5.24,0.92 2.45,0.46 2.32,0.48 2.21,0.48 2.08,0.48 1.96,0.48 1.83,0.49 1.7,0.49 1.57,0.49 1.42,0.5 1.3,0.49 1.15,0.51 1.01,0.5 0.87,0.52 0.73,0.51 0.57,0.53 0.43,0.54 0.26,0.57 0.09,0.53 -0.49,0.09 z m -438,71.81 -3.54,5.7 -2.44,-6.26 5.98,0.56 z"
           style="fill:#ff0000;fill-opacity:1;fill-rule:nonzero;stroke:none"
           id="path288"
           inkscape:connector-curvature="0" /></g></g><path
       d="m 644.83,341.58 5.3,5.13 0,0 5.25,5.12 0,0 5.13,5.12 -0.01,0 2.51,2.56 0,0 2.45,2.55 0,0 2.39,2.56 0,0 2.32,2.55 0,0 2.25,2.56 0,-0.01 2.17,2.55 0,0 2.08,2.55 0,0 1.99,2.54 -0.01,-0.01 1.89,2.55 0,-0.01 1.78,2.54 -0.01,0 1.66,2.54 0,-0.01 1.53,2.53 -0.01,-0.01 1.4,2.54 0,-0.01 1.27,2.52 -0.01,-0.01 1.12,2.53 -0.01,-0.01 0.96,2.52 0,-0.01 0.8,2.51 0,-0.02 0.63,2.52 -0.01,-0.02 0.26,1.26 0,-0.01 0.2,1.25 0,-0.01 0.16,1.25 0,-0.01 0.11,1.26 0,-0.01 0.07,1.24 -0.01,-0.01 0.03,1.25 0,-0.01 -0.04,1.25 0,-0.01 -0.08,1.25 0,-0.01 -0.14,1.24 0.01,-0.01 -0.19,1.24 0,-0.01 -0.24,1.24 0,-0.01 -0.29,1.24 0,-0.01 -0.34,1.24 0,-0.01 -0.41,1.23 0.01,-0.01 -0.47,1.24 0.01,-0.01 -0.52,1.23 0,0 -1.11,2.5 -1.14,2.55 0,-0.01 -1.18,2.61 0.01,0 -1.24,2.65 0,0 -1.31,2.68 0,0 -1.39,2.72 0,-0.01 -1.48,2.75 0,-0.01 -1.59,2.77 0,-0.01 -1.72,2.78 0.01,-0.01 -1.86,2.78 0.01,0 -2,2.79 0,-0.01 -2.16,2.77 0.01,0 -1.14,1.39 0,-0.01 -1.19,1.38 0,0 -1.24,1.37 0.01,0 -1.29,1.37 0.01,0 -1.34,1.36 0.01,0 -1.39,1.35 0,0 -1.44,1.35 0.01,0 -1.49,1.33 0,0 -1.55,1.33 0,0 -1.6,1.32 0,0 -1.67,1.31 0,0 -1.72,1.29 0,0 -1.79,1.28 0,0 -1.86,1.27 0.01,0 -1.93,1.25 0,0 -1.98,1.25 0,-0.01 -2.06,1.22 0,0 -2.13,1.22 0.01,0 -2.21,1.19 0.01,0 -2.28,1.17 0,-0.01 -2.35,1.16 0,0 -2.44,1.13 0.01,0 -2.51,1.11 0,0 -2.59,1.1 0,0 -2.67,1.06 0,0 -2.76,1.05 0.01,0 -2.85,1.02 0,0 -2.93,1 0,0 -3.02,0.97 0,0 -3.11,0.95 0.01,0 -3.21,0.91 0.01,0 -3.3,0.89 0,0 -3.4,0.87 0.01,0 -3.49,0.83 0,0 -3.59,0.81 0,0 -3.69,0.77 0.01,0 -3.8,0.74 0.01,0 -3.9,0.7 0.01,0 -4.01,0.69 0,0 -4.11,0.63 0.01,0 -8.54,1.19 0.01,0 -8.98,1.09 0,0 -9.38,0.99 0,0 -9.79,0.89 0,0 -10.17,0.79 0,0 -10.55,0.71 0,0 -10.91,0.61 0,0 -11.25,0.53 0,0 -11.59,0.45 0,0 -11.91,0.38 0,0 -12.21,0.29 0,0 -12.5,0.23 0,0 -12.78,0.16 0,0 -13.04,0.1 0,0 -13.29,0.03 0,0 -13.53,-0.03 0,0 -13.75,-0.07 0,0 -13.95,-0.13 -14.15,-0.17 0,0 -14.34,-0.22 -14.49,-0.26 -14.65,-0.3 -14.78,-0.33 -14.91,-0.36 -30.14,-0.79 -30.48,-0.89 -30.69,-0.93 -25.81,-0.8 -0.02,0.5 25.81,0.8 30.69,0.93 30.48,0.88 30.15,0.8 14.91,0.36 14.78,0.33 14.66,0.3 14.49,0.25 14.33,0.23 14.15,0.17 13.96,0.13 13.75,0.07 13.53,0.03 13.29,-0.03 13.04,-0.1 12.79,-0.16 12.5,-0.23 12.21,-0.29 11.91,-0.38 11.6,-0.45 11.25,-0.53 10.92,-0.62 10.55,-0.7 10.18,-0.8 9.8,-0.88 9.39,-0.99 8.98,-1.09 8.54,-1.19 4.11,-0.64 4.01,-0.68 3.9,-0.71 3.79,-0.74 3.7,-0.78 3.59,-0.8 3.49,-0.83 3.41,-0.87 3.3,-0.9 3.21,-0.91 3.11,-0.96 3.03,-0.97 2.94,-1 2.85,-1.02 2.76,-1.05 2.68,-1.07 2.6,-1.1 2.51,-1.12 2.45,-1.13 2.35,-1.16 2.29,-1.17 2.21,-1.2 2.13,-1.21 2.07,-1.23 1.99,-1.25 1.93,-1.25 1.87,-1.28 1.8,-1.29 1.72,-1.3 1.68,-1.31 1.61,-1.33 1.56,-1.33 1.49,-1.34 1.45,-1.36 1.39,-1.36 1.34,-1.37 1.28,-1.37 1.24,-1.38 1.2,-1.38 1.15,-1.4 2.16,-2.78 2.01,-2.8 1.86,-2.78 1.72,-2.79 1.6,-2.77 1.49,-2.75 1.39,-2.73 1.31,-2.69 1.24,-2.65 1.18,-2.61 1.14,-2.55 1.11,-2.5 0.52,-1.24 0.47,-1.24 0.41,-1.25 0.34,-1.25 0.3,-1.25 0.24,-1.25 0.19,-1.25 0.14,-1.26 0.08,-1.25 0.04,-1.26 -0.03,-1.26 -0.06,-1.25 -0.12,-1.26 -0.16,-1.27 -0.2,-1.26 -0.26,-1.26 -0.63,-2.53 -0.81,-2.52 -0.96,-2.54 -1.12,-2.53 -1.28,-2.54 -1.4,-2.55 -1.54,-2.53 -1.66,-2.55 -1.78,-2.55 -1.9,-2.55 -1.99,-2.54 -2.09,-2.56 -2.17,-2.55 -2.26,-2.56 -2.32,-2.56 -2.4,-2.56 -2.45,-2.56 -2.51,-2.56 -5.13,-5.13 -5.25,-5.12 -5.31,-5.13 -0.34,0.36 z m -481.54,157.81 -6.09,2.81 5.9,3.19 0.19,-6 z"
       style="fill:#ff0000;fill-opacity:1;fill-rule:nonzero;stroke:none"
       id="path290"
       inkscape:connector-curvature="0" /><path
       d="m 610.03,330.12 -18.41,0.15 -18.38,0.46 -18.3,0.74 -18.2,1.03 -18.05,1.29 -17.88,1.56 -17.65,1.81 -17.4,2.06 -17.12,2.28 -16.8,2.51 -16.43,2.72 -16.04,2.93 -15.61,3.12 -7.63,1.64 -7.51,1.67 -7.38,1.72 -7.25,1.76 -7.12,1.8 -6.97,1.84 -6.84,1.88 -6.69,1.92 -6.53,1.95 -6.38,2 -6.22,2.02 -6.05,2.05 -5.87,2.1 -5.71,2.11 -5.52,2.15 -5.34,2.18 -5.15,2.2 -4.96,2.23 -4.76,2.26 -4.55,2.27 -4.36,2.3 -4.14,2.32 -3.92,2.34 -3.71,2.36 -3.48,2.38 -3.25,2.39 -3.02,2.4 -2.78,2.43 -2.54,2.43 -2.3,2.45 -2.03,2.46 -1.79,2.47 -1.53,2.48 -1.26,2.49 -0.98,2.5 -0.58,2.51 0.49,0.11 0.57,-2.49 -0.01,0.04 0.97,-2.48 -0.01,0.02 1.26,-2.46 -0.01,0.01 1.51,-2.46 -0.01,0.01 1.78,-2.45 -0.01,0.01 2.02,-2.44 -0.01,0.01 2.29,-2.44 -0.01,0.01 2.53,-2.43 -0.01,0.01 2.77,-2.42 0,0.01 3,-2.4 0,0.01 3.24,-2.39 0,0.01 3.47,-2.37 -0.01,0 3.71,-2.35 -0.01,0 3.92,-2.34 -0.01,0 4.13,-2.31 0,0 4.35,-2.3 -0.01,0.01 4.55,-2.28 0,0.01 4.75,-2.25 0,0 4.96,-2.23 -0.01,0 5.15,-2.2 -0.01,0 5.34,-2.18 -0.01,0.01 5.52,-2.15 0,0 5.7,-2.11 0,0 5.87,-2.09 0,0 6.04,-2.06 0,0 6.21,-2.01 0,0 6.38,-2 -0.01,0 6.53,-1.95 0,0 6.69,-1.92 -0.01,0 6.84,-1.88 -0.01,0 6.98,-1.84 0,0 7.11,-1.8 0,0.01 7.25,-1.77 -0.01,0 7.38,-1.71 0,0 7.51,-1.68 0,0 7.62,-1.63 0,0 15.61,-3.12 -0.01,0 16.04,-2.92 0,0 16.42,-2.73 0,0 16.79,-2.5 0,0 17.11,-2.29 0,0 17.4,-2.05 -0.01,0 17.65,-1.81 0,0 17.87,-1.56 0,0 18.04,-1.3 0,0 18.19,-1.02 0,0 18.3,-0.75 -0.01,0 18.38,-0.45 -0.01,0 18.41,-0.15 0,-0.5 z m -394.95,99.76 2.12,6.37 3.82,-5.52 -5.94,-0.85 z"
       style="fill:#ff0000;fill-opacity:1;fill-rule:nonzero;stroke:none"
       id="path292"
       inkscape:connector-curvature="0" /><path
       d="m 610.03,330.12 -48.65,0.16 -24.2,0.2 -24.06,0.28 -23.87,0.35 -23.63,0.42 -23.35,0.49 -23.02,0.55 -22.63,0.62 -22.21,0.67 -10.92,0.36 -10.8,0.38 -10.68,0.39 -10.53,0.39 -10.39,0.42 -10.25,0.43 -10.09,0.44 -9.93,0.45 -9.76,0.46 -9.59,0.47 -9.41,0.49 -9.23,0.5 -9.03,0.51 -8.85,0.51 -8.63,0.53 -8.43,0.53 -8.22,0.55 -8,0.55 -7.77,0.57 -7.54,0.57 -7.3,0.57 -7.06,0.6 -6.8,0.59 -6.56,0.6 -6.29,0.61 -6.02,0.6 -5.75,0.63 -5.47,0.62 -5.19,0.63 -4.89,0.64 -4.6,0.64 -4.29,0.64 -3.99,0.65 -3.67,0.65 -3.35,0.65 -3.03,0.66 -2.691,0.67 -2.37,0.66 -2.553,1.15 0.205,0.46 2.537,-1.14 -0.035,0.01 2.347,-0.66 -0.008,0 2.688,-0.66 -0.01,0 3.02,-0.66 0,0 3.34,-0.65 0,0 3.67,-0.65 -0.01,0 3.99,-0.65 -0.01,0 4.29,-0.64 0,0 4.6,-0.64 -0.01,0 4.89,-0.63 0,0 5.19,-0.63 -0.01,0 5.47,-0.63 0,0 5.75,-0.62 0,0 6.02,-0.61 0,0 6.29,-0.6 0,0 6.55,-0.6 0,0 6.8,-0.6 7.06,-0.59 0,0 7.3,-0.58 0,0 7.54,-0.57 0,0 7.77,-0.56 7.99,-0.55 8.22,-0.55 0,0 8.43,-0.53 8.63,-0.53 8.84,-0.52 9.04,-0.51 9.23,-0.49 9.41,-0.49 9.58,-0.47 9.77,-0.47 9.93,-0.45 10.08,-0.43 10.25,-0.43 10.38,-0.42 10.54,-0.4 10.67,-0.39 10.8,-0.37 10.93,-0.36 22.21,-0.68 0,0 22.62,-0.61 23.02,-0.56 0,0 23.35,-0.48 23.63,-0.42 0,0 23.86,-0.35 24.06,-0.28 0,0 24.2,-0.2 0,0 48.65,-0.16 0,-0.5 z m -516.338,22.9 -3.204,5.89 6.637,-0.97 -3.433,-4.92 z"
       style="fill:#ff0000;fill-opacity:1;fill-rule:nonzero;stroke:none"
       id="path294"
       inkscape:connector-curvature="0" /><path
       d="m 683.22,330.62 -20,0 0,-0.5 20,0 0,0.5 z m -19,2.75 -6,-3 6,-3 0,6 z"
       style="fill:#70ad47;fill-opacity:1;fill-rule:nonzero;stroke:none"
       id="path296"
       inkscape:connector-curvature="0" /><path
       d="m 452.7,173.01 11.23,0.22 11.21,0.63 11.16,1.04 11.1,1.43 11.01,1.81 10.9,2.19 10.77,2.52 10.61,2.87 10.44,3.2 10.24,3.5 10.03,3.8 9.78,4.09 9.52,4.36 9.23,4.62 8.92,4.87 8.61,5.08 8.24,5.31 7.88,5.51 7.47,5.71 7.07,5.88 6.62,6.04 3.15,3.08 3.02,3.11 2.91,3.15 2.78,3.18 2.65,3.21 2.52,3.24 2.4,3.26 2.25,3.3 2.13,3.32 1.98,3.33 1.84,3.36 1.7,3.39 1.54,3.4 1.4,3.41 1.24,3.42 1.08,3.44 0.93,3.45 0.77,3.46 0.59,3.47 0.44,3.47 0.11,1.94 -0.5,0.03 -0.11,-1.94 0,0.02 -0.44,-3.46 0.01,0.01 -0.6,-3.45 0.01,0.02 -0.77,-3.45 0,0.01 -0.92,-3.45 0,0.02 -1.08,-3.43 0.01,0.01 -1.24,-3.41 0,0 -1.39,-3.4 0,0.01 -1.54,-3.39 0.01,0.01 -1.7,-3.38 0.01,0.01 -1.83,-3.35 0,0.01 -1.98,-3.33 0.01,0 -2.13,-3.3 0.01,0 -2.25,-3.29 0,0.01 -2.39,-3.26 0.01,0.01 -2.52,-3.24 0,0 -2.65,-3.2 0.01,0 -2.78,-3.17 0.01,0.01 -2.91,-3.15 0.01,0 -3.02,-3.1 0.01,0 -3.14,-3.07 0,0 -6.61,-6.03 0,0.01 -7.05,-5.87 0.01,0 -7.47,-5.7 0,0.01 -7.86,-5.51 0,0.01 -8.23,-5.3 0.01,0 -8.6,-5.08 0.01,0 -8.92,-4.86 0.01,0.01 -9.22,-4.62 0,0.01 -9.51,-4.36 0.01,0 -9.77,-4.08 0.01,0 -10.02,-3.8 0,0.01 -10.23,-3.51 0.01,0.01 -10.43,-3.2 0.01,0 -10.61,-2.86 0.01,0 -10.76,-2.53 0.01,0.01 -10.89,-2.19 0,0 -11,-1.8 0.01,0 -11.09,-1.43 0.01,0 -11.16,-1.05 0.01,0 -11.19,-0.63 0.01,0 -11.22,-0.21 0,-0.5 z m 242.17,141.95 -2.72,6.13 -3.27,-5.86 5.99,-0.27 z"
       style="fill:#ff0000;fill-opacity:1;fill-rule:nonzero;stroke:none"
       id="path298"
       inkscape:connector-curvature="0" /><path
       d="m 349.93,215.79 -0.73,-0.45 -0.35,-0.19 -0.36,-0.14 -0.35,-0.05 -0.34,0.07 -0.28,0.24 -0.15,0.38 -0.07,0.49 0,0.31 0.02,0.34 0.05,0.38 0.06,0.43 0.09,0.49 0.12,0.53 0.14,0.59 0.17,0.64 0.18,0.71 0.23,0.77 0.26,0.83 0.27,0.91 0.33,0.97 0.34,1.04 0,-0.01 0.33,1.12 0,-0.02 0.26,1.2 0,-0.01 0.21,1.28 -0.01,-0.01 0.16,1.35 0,-0.01 0.12,1.43 0,-0.01 0.1,1.49 0,0 0.07,1.56 0,0 0.06,1.62 0.06,1.68 0.06,1.73 0.09,1.79 0.11,1.83 0.15,1.89 0.19,1.92 0.24,1.97 0.31,2.01 0.38,2.03 0.46,2.07 0.55,2.1 0.65,2.12 0.76,2.13 0.87,2.15 1.01,2.17 1.14,2.18 1.29,2.18 1.45,2.19 1.6,2.18 0.87,1.1 0.91,1.09 0.96,1.09 1.01,1.08 1.04,1.09 1.11,1.08 1.15,1.08 1.2,1.08 1.26,1.06 1.31,1.07 2.86,2.14 3.23,2.18 3.57,2.2 3.89,2.24 4.18,2.26 4.43,2.3 4.68,2.31 4.89,2.34 5.08,2.35 5.25,2.38 5.37,2.39 5.5,2.41 11.22,4.85 11.35,4.88 11.3,4.9 0,0 11.03,4.9 0,0 5.36,2.44 -0.01,0 5.21,2.45 0,0 5.04,2.44 0,-0.01 4.85,2.43 -0.01,-0.01 4.63,2.42 -0.01,0 4.39,2.4 0,0 4.11,2.39 0,-0.01 3.82,2.37 -0.01,0 3.5,2.35 -0.01,-0.01 3.15,2.33 -0.01,-0.01 2.78,2.31 -0.02,-0.01 2.39,2.28 -0.01,-0.01 1.05,1.13 0,0 1.01,1.13 -0.01,0 0.95,1.12 0,-0.01 0.89,1.14 0,-0.01 0.84,1.13 -0.01,-0.01 0.79,1.12 0,-0.01 0.74,1.13 -0.01,-0.01 0.69,1.12 -0.01,-0.01 0.64,1.12 0,-0.01 0.59,1.11 -0.01,-0.01 0.54,1.12 0,-0.01 0.5,1.11 -0.01,0 0.45,1.11 0,-0.01 0.41,1.11 -0.01,-0.02 0.67,2.21 -0.01,-0.02 0.51,2.21 0,-0.02 0.34,2.2 0,-0.02 0.18,2.19 0,-0.02 0.03,2.19 0,-0.01 -0.1,2.18 0,-0.01 -0.24,2.17 0,-0.01 -0.37,2.16 0.01,-0.01 -0.49,2.17 0,-0.01 -0.6,2.16 0.01,-0.02 -0.72,2.16 0.01,-0.01 -0.81,2.16 0,-0.01 -0.9,2.15 0,-0.01 -0.98,2.15 0,-0.01 -1.06,2.15 0,-0.01 -1.13,2.15 0,-0.01 -1.2,2.14 0,-0.01 -1.25,2.14 0,0 -1.3,2.13 0,0 -2.73,4.27 0,-0.01 -2.94,4.39 0.42,0.28 2.94,-4.39 2.73,-4.27 1.31,-2.14 1.26,-2.15 1.2,-2.14 1.13,-2.15 1.07,-2.15 0.99,-2.15 0.9,-2.16 0.82,-2.16 0.71,-2.17 0.6,-2.18 0.5,-2.18 0.37,-2.18 0.24,-2.19 0.1,-2.2 -0.03,-2.2 -0.19,-2.21 -0.34,-2.21 -0.51,-2.23 -0.67,-2.22 -0.41,-1.12 -0.45,-1.12 -0.5,-1.11 -0.55,-1.13 -0.59,-1.12 -0.64,-1.12 -0.69,-1.12 -0.75,-1.14 -0.79,-1.12 -0.84,-1.13 -0.9,-1.14 -0.96,-1.13 -1.01,-1.14 -1.06,-1.14 -2.4,-2.29 -2.79,-2.32 -3.16,-2.34 -3.51,-2.35 -3.82,-2.37 -4.12,-2.39 -4.4,-2.41 -4.63,-2.42 -4.85,-2.42 -5.05,-2.44 -5.21,-2.45 -5.35,-2.45 -11.04,-4.9 -11.3,-4.9 -11.36,-4.88 -11.22,-4.85 0.01,0 -5.49,-2.4 0,0 -5.38,-2.4 0,0 -5.24,-2.37 0,0 -5.08,-2.36 0.01,0 -4.89,-2.33 0,0 -4.67,-2.31 0,0.01 -4.43,-2.3 0,0 -4.17,-2.25 0.01,0 -3.89,-2.24 0.01,0.01 -3.56,-2.21 0,0.01 -3.21,-2.17 0.01,0.01 -2.86,-2.14 0.01,0.01 -1.31,-1.06 0.01,0 -1.26,-1.06 0.01,0 -1.19,-1.07 0,0 -1.15,-1.07 0.01,0 -1.11,-1.08 0.01,0.01 -1.04,-1.08 0,0 -1,-1.08 0,0.01 -0.95,-1.09 0,0 -0.91,-1.08 0.01,0 -0.86,-1.09 0,0.01 -1.6,-2.17 0.01,0.01 -1.44,-2.18 0.01,0.01 -1.28,-2.17 0,0.01 -1.13,-2.17 0,0.01 -1,-2.15 0,0.01 -0.87,-2.14 0.01,0.01 -0.76,-2.13 0,0.01 -0.64,-2.1 0,0.01 -0.55,-2.09 0.01,0.01 -0.46,-2.06 0,0.01 -0.38,-2.03 0,0.01 -0.31,-2 0,0 -0.24,-1.95 0,0 -0.18,-1.92 0,0.01 -0.15,-1.88 0,0 -0.11,-1.83 0,0 -0.09,-1.78 0,0 -0.07,-1.73 0,0 -0.06,-1.68 -0.06,-1.62 -0.06,-1.57 -0.1,-1.49 -0.12,-1.43 -0.16,-1.36 -0.21,-1.3 -0.27,-1.21 -0.33,-1.13 -0.35,-1.05 -0.32,-0.97 0,0.01 -0.28,-0.9 -0.25,-0.84 0,0.01 -0.23,-0.77 0.01,0.01 -0.19,-0.71 0,0 -0.17,-0.63 0.01,0 -0.15,-0.58 0,0 -0.11,-0.52 0,0 -0.09,-0.48 0,0.01 -0.06,-0.42 0.01,0.01 -0.05,-0.37 0,0.01 -0.02,-0.32 0,0.01 0,-0.28 0,0.03 0.06,-0.44 -0.02,0.06 0.12,-0.29 -0.07,0.09 0.19,-0.15 -0.11,0.05 0.24,-0.05 -0.1,0 0.28,0.04 -0.05,-0.01 0.31,0.12 -0.03,-0.01 0.34,0.18 -0.01,-0.01 0.72,0.44 0.26,-0.42 z m 163.33,207.79 -0.89,6.65 5.85,-3.28 -4.96,-3.37 z"
       style="fill:#ff0000;fill-opacity:1;fill-rule:nonzero;stroke:none"
       id="path300"
       inkscape:connector-curvature="0" /><path
       d="m 190.36,217.24 32.93,16.21 -0.22,0.45 -32.93,-16.21 0.22,-0.45 z m 33.25,13.3 4.06,5.34 -6.71,0.04 2.65,-5.38 z"
       style="fill:#70ad47;fill-opacity:1;fill-rule:nonzero;stroke:none"
       id="path302"
       inkscape:connector-curvature="0" /><path
       d="m 190.48,217.35 8.78,18.18 -0.45,0.21 -8.78,-18.17 0.45,-0.22 z m 10.82,16.08 -0.09,6.71 -5.32,-4.1 5.41,-2.61 z"
       style="fill:#70ad47;fill-opacity:1;fill-rule:nonzero;stroke:none"
       id="path304"
       inkscape:connector-curvature="0" /><path
       d="m 121.27,488.29 73.99,-29.96 -0.19,-0.46 -73.99,29.96 0.19,0.46 z m 74.1,-27.03 4.43,-5.03 -6.69,-0.53 2.26,5.56 z"
       style="fill:#70ad47;fill-opacity:1;fill-rule:nonzero;stroke:none"
       id="path306"
       inkscape:connector-curvature="0" /><path
       d="M 101.39,488.19 59.942,384.34 60.406,384.15 101.86,488 l -0.47,0.19 z m -43.631,-101.9 0.562,-6.69 5.01,4.46 -5.572,2.23 z"
       style="fill:#70ad47;fill-opacity:1;fill-rule:nonzero;stroke:none"
       id="path308"
       inkscape:connector-curvature="0" /><path
       d="m 72.107,360.75 71.083,-146.54 -0.45,-0.22 -71.083,146.55 0.45,0.21 z m 73.113,-144.44 -0.08,-6.71 -5.31,4.09 5.39,2.62 z"
       style="fill:#ff0000;fill-opacity:1;fill-rule:nonzero;stroke:none"
       id="path310"
       inkscape:connector-curvature="0" /><path
       d="m 147.27,419.92 -33.35,63.92 0.44,0.23 33.35,-63.92 -0.44,-0.23 z m -35.33,61.76 -0.12,6.71 5.44,-3.93 -5.32,-2.78 z"
       style="fill:#70ad47;fill-opacity:1;fill-rule:nonzero;stroke:none"
       id="path312"
       inkscape:connector-curvature="0" /><path
       d="m 175.43,423.37 20.28,12.84 -0.27,0.42 -20.28,-12.84 0.27,-0.42 z m 20.91,9.98 3.46,5.74 -6.67,-0.67 3.21,-5.07 z"
       style="fill:#70ad47;fill-opacity:1;fill-rule:nonzero;stroke:none"
       id="path314"
       inkscape:connector-curvature="0" /><path
       d="m 147.32,403.08 -21.19,-19.88 0.34,-0.36 21.19,19.87 -0.34,0.37 z m -22.34,-17.19 -2.33,-6.29 6.43,1.92 -4.1,4.37 z"
       style="fill:#70ad47;fill-opacity:1;fill-rule:nonzero;stroke:none"
       id="path316"
       inkscape:connector-curvature="0" /><path
       d="m 227.61,437.54 3.64,-5.37 3.6,-5.36 3.51,-5.34 1.71,-2.66 1.66,-2.64 1.61,-2.64 1.56,-2.62 1.5,-2.61 1.43,-2.6 1.36,-2.57 1.29,-2.56 1.2,-2.54 1.11,-2.52 1.02,-2.49 0.92,-2.47 0.8,-2.44 0.69,-2.43 0.58,-2.39 0.44,-2.36 0.31,-2.33 0.18,-2.3 0.03,-2.27 -0.12,-2.23 -0.28,-2.19 -0.44,-2.15 -0.6,-2.12 -0.79,-2.06 -0.46,-1.03 -0.51,-1 -0.55,-1 -0.6,-0.99 -0.68,-0.97 -0.76,-0.94 -0.85,-0.92 -0.94,-0.89 -1.02,-0.86 -1.09,-0.85 -1.17,-0.82 -1.24,-0.8 -1.31,-0.77 -1.38,-0.77 -1.44,-0.73 -1.51,-0.73 -1.55,-0.7 -1.62,-0.7 -1.67,-0.67 -1.71,-0.66 -1.77,-0.65 -1.81,-0.64 -3.73,-1.25 -3.89,-1.2 -3.99,-1.18 -4.1,-1.15 -4.17,-1.15 -4.21,-1.13 -4.25,-1.13 0,0 -8.49,-2.3 0,0 -4.2,-1.18 0.01,0.01 -4.14,-1.21 0,0 -4.05,-1.25 0,0 -3.93,-1.28 0,0 -3.81,-1.33 0,0 -3.65,-1.39 0,0 -1.77,-0.72 0.01,0 -1.72,-0.74 0.01,0 -1.67,-0.75 0.01,0 -1.62,-0.78 0,0 -1.56,-0.79 0.01,0 -1.5,-0.81 0,0.01 -1.44,-0.84 0.01,0 -1.38,-0.85 0.01,0 -1.31,-0.88 0.01,0 -1.25,-0.91 0.01,0.01 -1.16,-0.93 0.01,0.01 -1.1,-0.96 0.01,0.01 -1.01,-0.99 0.01,0.01 -0.94,-1.02 0.01,0.01 -0.84,-1.03 0.01,0.01 -0.77,-1.07 0.01,0.02 -1.33,-2.23 0.01,0.01 -1.18,-2.27 0.01,0.02 -1.02,-2.34 0.01,0.01 -0.86,-2.4 0,0.02 -0.71,-2.47 0,0.01 -0.56,-2.52 0,0.02 -0.42,-2.58 0,0.02 -0.29,-2.63 0,0.02 -0.16,-2.69 0,0.01 -0.03,-2.73 0,0.01 0.09,-2.77 0,0.01 0.19,-2.82 0,0.01 0.31,-2.87 0,0.01 0.41,-2.9 0,0.01 0.51,-2.95 0,0 0.6,-2.97 0,0 0.68,-3.01 0,0 0.76,-3.04 0,0 0.85,-3.08 0,0.01 0.9,-3.11 0,0 0.99,-3.12 -0.01,0 1.04,-3.15 0,0 1.09,-3.18 0,0.01 1.14,-3.19 0,0 2.4,-6.44 0,0 2.54,-6.48 -0.01,0 2.63,-6.53 0,0 0.78,-1.9 -0.47,-0.19 -0.77,1.91 -2.63,6.52 -2.54,6.49 -2.4,6.45 -1.14,3.19 -1.09,3.18 -1.04,3.16 -0.98,3.13 -0.91,3.11 -0.85,3.08 -0.77,3.05 -0.68,3.03 -0.6,2.98 -0.51,2.95 -0.42,2.91 -0.31,2.88 -0.19,2.83 -0.09,2.78 0.04,2.74 0.15,2.7 0.3,2.64 0.42,2.58 0.57,2.54 0.71,2.48 0.87,2.42 1.03,2.35 1.18,2.29 1.34,2.24 0.77,1.09 0.86,1.05 0.95,1.03 1.02,0.99 1.1,0.97 1.18,0.93 1.25,0.92 1.31,0.89 1.39,0.86 1.45,0.84 1.5,0.81 1.57,0.8 1.62,0.78 1.67,0.76 1.72,0.74 1.78,0.72 3.66,1.4 3.82,1.34 3.94,1.28 4.06,1.25 4.14,1.21 4.2,1.17 8.49,2.3 4.25,1.13 4.21,1.13 0,0 4.17,1.15 0,0 4.09,1.16 0,-0.01 3.99,1.18 0,0 3.88,1.2 -0.01,0 3.73,1.24 -0.01,0 1.81,0.64 0,0 1.76,0.64 0,0 1.71,0.66 -0.01,0 1.67,0.68 -0.01,-0.01 1.62,0.69 -0.01,0 1.55,0.71 0,0 1.5,0.72 -0.01,-0.01 1.44,0.74 -0.01,-0.01 1.37,0.76 0,0 1.3,0.77 -0.01,0 1.23,0.79 -0.01,0 1.17,0.81 -0.01,-0.01 1.08,0.84 0,-0.01 1,0.86 -0.01,-0.01 0.93,0.88 -0.01,-0.01 0.84,0.9 -0.01,-0.01 0.75,0.93 -0.01,-0.02 0.66,0.96 0,-0.01 0.59,0.97 -0.01,0 0.55,0.99 0,-0.01 0.5,1 -0.01,-0.01 0.46,1.01 0,-0.02 0.78,2.05 -0.01,-0.02 0.6,2.1 0,-0.02 0.43,2.13 0,-0.02 0.27,2.18 0,-0.02 0.12,2.21 0,-0.01 -0.03,2.25 0,-0.02 -0.18,2.29 0,-0.02 -0.3,2.32 0,-0.01 -0.44,2.35 0,-0.02 -0.57,2.38 0,-0.01 -0.69,2.42 0.01,-0.01 -0.81,2.43 0.01,-0.01 -0.92,2.47 0,-0.01 -1.01,2.48 0,-0.01 -1.11,2.52 0.01,-0.01 -1.2,2.54 0,-0.01 -1.28,2.55 0,0 -1.36,2.57 0,-0.01 -1.43,2.6 0,0 -1.5,2.6 0,-0.01 -1.55,2.62 0,0 -1.61,2.64 0,0 -1.65,2.64 0,0 -1.71,2.65 0.01,0 -3.51,5.34 0,0 -3.6,5.35 0,0 -3.65,5.37 0.42,0.28 z m -65.69,-210.65 -0.52,-6.69 -5.04,4.43 5.56,2.26 z"
       style="fill:#ff0000;fill-opacity:1;fill-rule:nonzero;stroke:none"
       id="path318"
       inkscape:connector-curvature="0" /><path
       d="m 193.45,448.61 -2.41,-0.03 -2.4,-0.06 -2.41,-0.12 -2.4,-0.16 -4.79,-0.46 -4.76,-0.62 -4.73,-0.8 -4.67,-0.95 -4.62,-1.1 -4.56,-1.26 -4.47,-1.39 -4.4,-1.53 -4.3,-1.66 -4.2,-1.79 -4.08,-1.9 -3.96,-2.02 -3.83,-2.12 -3.69,-2.22 -3.54,-2.32 -3.38,-2.41 -3.21,-2.49 -1.54,-1.27 -1.5,-1.3 -1.44,-1.31 -1.4,-1.33 -1.35,-1.34 -1.3,-1.36 -1.24,-1.37 -1.2,-1.4 -1.14,-1.4 -1.086,-1.41 -1.024,-1.43 -0.972,-1.44 -0.912,-1.46 -0.859,-1.45 -0.792,-1.47 -0.724,-1.48 -0.664,-1.49 -0.603,-1.49 -0.536,-1.5 -0.468,-1.51 -0.4,-1.51 -0.335,-1.52 -0.109,-1.07 0.497,-0.05 0.108,1.06 -0.004,-0.03 0.33,1.5 -0.003,-0.01 0.398,1.5 -0.003,-0.01 0.465,1.49 -0.003,-0.01 0.532,1.5 -0.004,-0.01 0.6,1.48 -0.003,-0.01 0.66,1.48 -0.004,-0.01 0.72,1.47 -0.004,-0.01 0.787,1.47 -0.005,-0.01 0.855,1.45 -0.003,-0.01 0.907,1.45 -0.004,-0.01 0.967,1.43 -0.004,0 1.02,1.42 -0.004,0 1.076,1.41 0,-0.01 1.14,1.39 -0.01,0 1.2,1.39 -0.01,-0.01 1.24,1.37 0,-0.01 1.29,1.36 0,0 1.34,1.34 0,-0.01 1.39,1.32 0,0 1.44,1.31 -0.01,0 1.5,1.29 -0.01,-0.01 1.54,1.27 -0.01,0 3.21,2.48 -0.01,-0.01 3.37,2.41 -0.01,0 3.53,2.31 -0.01,-0.01 3.68,2.22 0,0 3.82,2.11 -0.01,0 3.96,2.01 -0.01,0 4.07,1.9 -0.01,-0.01 4.2,1.79 -0.01,0 4.29,1.65 -0.01,0 4.39,1.52 -0.01,0 4.47,1.4 -0.01,-0.01 4.55,1.26 -0.01,-0.01 4.61,1.11 -0.01,-0.01 4.67,0.95 -0.01,0 4.72,0.79 -0.01,0 4.75,0.62 -0.01,0 4.78,0.46 -0.01,0 2.4,0.16 0,0 2.4,0.12 -0.01,0 2.4,0.07 0,0 2.41,0.02 -0.01,0.5 z m -105.044,-58.46 2.404,-6.26 3.567,5.68 -5.971,0.58 z"
       style="fill:#70ad47;fill-opacity:1;fill-rule:nonzero;stroke:none"
       id="path320"
       inkscape:connector-curvature="0" /><path
       d="m 39.6,348.6 206.54,0 0,172.2 -206.54,0 0,-172.2 z"
       style="fill:none;stroke:#000000;stroke-width:1;stroke-linecap:butt;stroke-linejoin:miter;stroke-miterlimit:8;stroke-dasharray:none;stroke-opacity:1"
       id="path322"
       inkscape:connector-curvature="0" /><path
       d="m 135.47,190.64 134.93,0 0,79.799 -134.93,0 0,-79.799 z"
       style="fill:none;stroke:#000000;stroke-width:1;stroke-linecap:butt;stroke-linejoin:miter;stroke-miterlimit:8;stroke-dasharray:none;stroke-opacity:1"
       id="path324"
       inkscape:connector-curvature="0" /><path
       d="m 604.05,304.22 147.31,0 0,50.28 -147.31,0 0,-50.28 z"
       style="fill:none;stroke:#000000;stroke-width:1;stroke-linecap:butt;stroke-linejoin:miter;stroke-miterlimit:8;stroke-dasharray:none;stroke-opacity:1"
       id="path326"
       inkscape:connector-curvature="0" /><path
       d="m 599.14,407.19 71.13,0 0,43.949 -71.13,0 0,-43.949 z"
       style="fill:none;stroke:#000000;stroke-width:1;stroke-linecap:butt;stroke-linejoin:miter;stroke-miterlimit:8;stroke-dasharray:none;stroke-opacity:1"
       id="path328"
       inkscape:connector-curvature="0" /><path
       d="m 333.3,348.6 214.09,0 0,150.03 -214.09,0 0,-150.03 z"
       style="fill:none;stroke:#000000;stroke-width:1;stroke-linecap:butt;stroke-linejoin:miter;stroke-miterlimit:8;stroke-dasharray:none;stroke-opacity:1"
       id="path330"
       inkscape:connector-curvature="0" /><path
       d="m 325.07,154.68 222.71,0 0,117.11 -222.71,0 0,-117.11 z"
       style="fill:none;stroke:#000000;stroke-width:1;stroke-linecap:butt;stroke-linejoin:miter;stroke-miterlimit:8;stroke-dasharray:none;stroke-opacity:1"
       id="path332"
       inkscape:connector-curvature="0" /><path
       d="m 19.797,149.2 102.37,0 0,101.78 -102.37,0 0,-101.78 z"
       style="fill:#e7e6e6;fill-opacity:1;fill-rule:evenodd;stroke:none"
       id="path334"
       inkscape:connector-curvature="0" /><path
       d="m 19.797,149.2 102.37,0 0,101.78 -102.37,0 0,-101.78 z"
       style="fill:none;stroke:#000000;stroke-width:0.75;stroke-linecap:butt;stroke-linejoin:round;stroke-miterlimit:8;stroke-dasharray:none;stroke-opacity:1"
       id="path336"
       inkscape:connector-curvature="0" /><text
       transform="matrix(1,0,0,-1,27,234.72)"
       style="font-variant:normal;font-weight:normal;font-size:12.96000004px;font-family:Arial;-inkscape-font-specification:Arial;writing-mode:lr-tb;fill:#000000;fill-opacity:1;fill-rule:nonzero;stroke:none"
       id="text338"><tspan
         x="0 10.08288 18.7272 25.207199 33.851521 43.208641 51.230881 54.833759 63.478081 72.122398"
         y="0"
         sodipodi:role="line"
         id="tspan340">OBJECTIVES</tspan></text>
<path
       d="m 26.997,233.46 20.19,0 20.19,0 20.19,0 20.193,0 0,-0.96 -20.193,0 -20.19,0 -20.19,0 -20.19,0 0,0.96 z"
       style="fill:#000000;fill-opacity:1;fill-rule:evenodd;stroke:none"
       id="path342"
       inkscape:connector-curvature="0" /><text
       transform="matrix(1,0,0,-1,27,219.12)"
       style="font-variant:normal;font-weight:normal;font-size:12.96000004px;font-family:Arial;-inkscape-font-specification:Arial;writing-mode:lr-tb;fill:#000000;fill-opacity:1;fill-rule:nonzero;stroke:none"
       id="text344"><tspan
         x="0 9.3599997 16.56864 23.777281 30.98592 33.865921 36.745918 43.954559"
         y="0"
         sodipodi:role="line"
         id="tspan346">Coupling</tspan></text>
<text
       transform="matrix(1,0,0,-1,78.12,219.12)"
       style="font-variant:normal;font-weight:normal;font-size:12.96000004px;font-family:Arial;-inkscape-font-specification:Arial;writing-mode:lr-tb;fill:#000000;fill-opacity:1;fill-rule:nonzero;stroke:none"
       id="text348"><tspan
         x="0 3.60288 7.5427198 14.74848 21.954241"
         y="0"
         sodipodi:role="line"
         id="tspan350">: 68 </tspan></text>
<text
       transform="matrix(1,0,0,-1,27,203.52)"
       style="font-variant:normal;font-weight:normal;font-size:12.96000004px;font-family:Arial;-inkscape-font-specification:Arial;writing-mode:lr-tb;fill:#000000;fill-opacity:1;fill-rule:nonzero;stroke:none"
       id="text352"><tspan
         x="0 9.3599997 16.56864 23.777281 30.98592 37.4688 40.348801 47.557442"
         y="0"
         sodipodi:role="line"
         id="tspan354">Cohesion</tspan></text>
<text
       transform="matrix(1,0,0,-1,81.72,203.52)"
       style="font-variant:normal;font-weight:normal;font-size:12.96000004px;font-family:Arial;-inkscape-font-specification:Arial;writing-mode:lr-tb;fill:#000000;fill-opacity:1;fill-rule:nonzero;stroke:none"
       id="text356"><tspan
         x="0 3.60288 7.5427198 14.74848"
         y="0"
         sodipodi:role="line"
         id="tspan358">: 23</tspan></text>
<text
       transform="matrix(1,0,0,-1,27,187.92)"
       style="font-variant:normal;font-weight:normal;font-size:12.96000004px;font-family:Arial;-inkscape-font-specification:Arial;writing-mode:lr-tb;fill:#000000;fill-opacity:1;fill-rule:nonzero;stroke:none"
       id="text360"><tspan
         x="0 10.67904 20.761921 24.364799"
         y="0"
         sodipodi:role="line"
         id="tspan362">MQ: </tspan></text>
<text
       transform="matrix(1,0,0,-1,55.2,187.92)"
       style="font-variant:normal;font-weight:normal;font-size:12.96000004px;font-family:Arial;-inkscape-font-specification:Arial;writing-mode:lr-tb;fill:#000000;fill-opacity:1;fill-rule:nonzero;stroke:none"
       id="text364"><tspan
         x="0 7.1999998 10.79712 17.99712 25.197121"
         y="0"
         sodipodi:role="line"
         id="tspan366">1.964</tspan></text>
<text
       transform="matrix(1,0,0,-1,27,172.3)"
       style="font-variant:normal;font-weight:normal;font-size:12.98400021px;font-family:Arial;-inkscape-font-specification:Arial;writing-mode:lr-tb;fill:#000000;fill-opacity:1;fill-rule:nonzero;stroke:none"
       id="text368"><tspan
         x="0 10.685832 13.56828 20.787384 31.447248 38.666351 45.002544 54.376991 57.350327 60.713184"
         y="0"
         sodipodi:role="line"
         id="tspan370">MinMaxDiff</tspan></text>
<text
       transform="matrix(1,0,0,-1,91.32,172.3)"
       style="font-variant:normal;font-weight:normal;font-size:12.98400021px;font-family:Arial;-inkscape-font-specification:Arial;writing-mode:lr-tb;fill:#000000;fill-opacity:1;fill-rule:nonzero;stroke:none"
       id="text372"><tspan
         x="0 3.6095519 7.7904"
         y="0"
         sodipodi:role="line"
         id="tspan374">: 5</tspan></text>
<text
       transform="matrix(1,0,0,-1,27,156.7)"
       style="font-variant:normal;font-weight:normal;font-size:12.96000004px;font-family:Arial;-inkscape-font-specification:Arial;writing-mode:lr-tb;fill:#000000;fill-opacity:1;fill-rule:nonzero;stroke:none"
       id="text376"><tspan
         x="0 10.67904 17.8848 25.090561 32.296322 35.173439 42.3792 48.8592 52.462078 56.5056"
         y="0"
         sodipodi:role="line"
         id="tspan378">Modules: 6</tspan></text>
<text
       transform="matrix(1,0,0,-1,44.16,505.46)"
       style="font-variant:normal;font-weight:normal;font-size:14.03999996px;font-family:Calibri;-inkscape-font-specification:Calibri;writing-mode:lr-tb;fill:#000000;fill-opacity:1;fill-rule:nonzero;stroke:none"
       id="text380"><tspan
         x="0 12"
         y="0"
         sodipodi:role="line"
         id="tspan382">M1</tspan></text>
<text
       transform="matrix(1,0,0,-1,337.75,484.22)"
       style="font-variant:normal;font-weight:normal;font-size:14.06400013px;font-family:Calibri;-inkscape-font-specification:Calibri;writing-mode:lr-tb;fill:#000000;fill-opacity:1;fill-rule:nonzero;stroke:none"
       id="text384"><tspan
         x="0 12.00002"
         y="0"
         sodipodi:role="line"
         id="tspan386">M2</tspan></text>
<text
       transform="matrix(1,0,0,-1,152.06,255.5)"
       style="font-variant:normal;font-weight:normal;font-size:14.03999996px;font-family:Calibri;-inkscape-font-specification:Calibri;writing-mode:lr-tb;fill:#000000;fill-opacity:1;fill-rule:nonzero;stroke:none"
       id="text388"><tspan
         x="0 12"
         y="0"
         sodipodi:role="line"
         id="tspan390">M3</tspan></text>
<text
       transform="matrix(1,0,0,-1,330.96,177.24)"
       style="font-variant:normal;font-weight:normal;font-size:14.03999996px;font-family:Calibri;-inkscape-font-specification:Calibri;writing-mode:lr-tb;fill:#000000;fill-opacity:1;fill-rule:nonzero;stroke:none"
       id="text392"><tspan
         x="0 12"
         y="0"
         sodipodi:role="line"
         id="tspan394">M4</tspan></text>
<text
       transform="matrix(1,0,0,-1,661.7,336.02)"
       style="font-variant:normal;font-weight:normal;font-size:14.03999996px;font-family:Calibri;-inkscape-font-specification:Calibri;writing-mode:lr-tb;fill:#000000;fill-opacity:1;fill-rule:nonzero;stroke:none"
       id="text396"><tspan
         x="0 12"
         y="0"
         sodipodi:role="line"
         id="tspan398">M5</tspan></text>
<text
       transform="matrix(1,0,0,-1,609.24,437.04)"
       style="font-variant:normal;font-weight:normal;font-size:14.03999996px;font-family:Calibri;-inkscape-font-specification:Calibri;writing-mode:lr-tb;fill:#000000;fill-opacity:1;fill-rule:nonzero;stroke:none"
       id="text400"><tspan
         x="0 12"
         y="0"
         sodipodi:role="line"
         id="tspan402">M6</tspan></text>
</g></svg>